<svg width="200" height="200" viewBox="0 0 200 200" xmlns="http://www.w3.org/2000/svg">
    <defs>
        <linearGradient id="juliaTempGrad" x1="0%" y1="100%" x2="0%" y2="0%">
            <stop offset="10%" style="stop-color:#4063D8;stop-opacity:1" />
            <stop offset="90%" style="stop-color:#4063D8;stop-opacity:1" />
        </linearGradient>
        
        <filter id="dropShadow" x="-20%" y="-20%" width="140%" height="140%">
            <feGaussianBlur in="SourceAlpha" stdDeviation="1.5"/>
            <feOffset dx="1" dy="1" result="offsetblur"/>
            <feComponentTransfer>
                <feFuncA type="linear" slope="0.4"/> </feComponentTransfer>
            <feMerge> 
                <feMergeNode/>
                <feMergeNode in="SourceGraphic"/>
            </feMerge>
        </filter>
    </defs>

    <g transform="translate(-5, -6)" filter="url(#dropShadow)">
        <rect x="85" y="40" width="30" height="110" rx="15" ry="15" fill="#FFFFFF" stroke="#4063D8" stroke-width="2"/>
        <circle cx="100" cy="150" r="22" fill="#FFFFFF" stroke="#4063D8" stroke-width="2"/>
        
        <rect x="92" y="60" width="16" height="90" rx="8" ry="8" fill="url(#juliaTempGrad)"/>
        <circle cx="100" cy="150" r="16" fill="#4063D8"/>

        <g stroke-width="2" stroke-linecap="round">
            <line x1="118" y1="55" x2="125" y2="55" stroke="#CB3C33"/>
            <line x1="118" y1="60" x2="125" y2="60" stroke="#CB3C33"/>
            <line x1="118" y1="65" x2="125" y2="65" stroke="#CB3C33"/>
            <line x1="118" y1="70" x2="125" y2="70" stroke="#CB3C33"/>
            <line x1="118" y1="75" x2="125" y2="75" stroke="#CB3C33"/>
            <line x1="118" y1="80" x2="125" y2="80" stroke="#389826"/>
            <line x1="118" y1="85" x2="125" y2="85" stroke="#389826"/>
            <line x1="118" y1="90" x2="125" y2="90" stroke="#389826"/>
            <line x1="118" y1="95" x2="125" y2="95" stroke="#389826"/>
            <line x1="118" y1="100" x2="125" y2="100" stroke="#389826"/>
            <line x1="118" y1="105" x2="125" y2="105" stroke="#9558B2"/>
            <line x1="118" y1="110" x2="125" y2="110" stroke="#9558B2"/>
            <line x1="118" y1="115" x2="125" y2="115" stroke="#9558B2"/>
            <line x1="118" y1="120" x2="125" y2="120" stroke="#9558B2"/>
            <line x1="118" y1="125" x2="125" y2="125" stroke="#9558B2"/>
        </g>
    </g>
</svg>