<?xml version="1.0" encoding="utf-8"?>
<svg xmlns="http://www.w3.org/2000/svg" xmlns:xlink="http://www.w3.org/1999/xlink" width="600" height="400" viewBox="0 0 2400 1600">
<defs>
  <clipPath id="clip770">
    <rect x="0" y="0" width="2400" height="1600"/>
  </clipPath>
</defs>
<path clip-path="url(#clip770)" d="
M0 1600 L2400 1600 L2400 0 L0 0  Z
  " fill="#ffffff" fill-rule="evenodd" fill-opacity="1"/>
<defs>
  <clipPath id="clip771">
    <rect x="480" y="0" width="1681" height="1600"/>
  </clipPath>
</defs>
<path clip-path="url(#clip770)" d="
M203.964 1423.18 L1152.76 1423.18 L1152.76 123.472 L203.964 123.472  Z
  " fill="#ffffff" fill-rule="evenodd" fill-opacity="1"/>
<defs>
  <clipPath id="clip772">
    <rect x="203" y="123" width="950" height="1301"/>
  </clipPath>
</defs>
<polyline clip-path="url(#clip772)" style="stroke:#000000; stroke-linecap:butt; stroke-linejoin:round; stroke-width:2; stroke-opacity:0.1; fill:none" points="
  230.816,1423.18 230.816,123.472 
  "/>
<polyline clip-path="url(#clip772)" style="stroke:#000000; stroke-linecap:butt; stroke-linejoin:round; stroke-width:2; stroke-opacity:0.1; fill:none" points="
  454.588,1423.18 454.588,123.472 
  "/>
<polyline clip-path="url(#clip772)" style="stroke:#000000; stroke-linecap:butt; stroke-linejoin:round; stroke-width:2; stroke-opacity:0.1; fill:none" points="
  678.36,1423.18 678.36,123.472 
  "/>
<polyline clip-path="url(#clip772)" style="stroke:#000000; stroke-linecap:butt; stroke-linejoin:round; stroke-width:2; stroke-opacity:0.1; fill:none" points="
  902.132,1423.18 902.132,123.472 
  "/>
<polyline clip-path="url(#clip772)" style="stroke:#000000; stroke-linecap:butt; stroke-linejoin:round; stroke-width:2; stroke-opacity:0.1; fill:none" points="
  1125.9,1423.18 1125.9,123.472 
  "/>
<polyline clip-path="url(#clip770)" style="stroke:#000000; stroke-linecap:butt; stroke-linejoin:round; stroke-width:4; stroke-opacity:1; fill:none" points="
  203.964,1423.18 1152.76,1423.18 
  "/>
<polyline clip-path="url(#clip770)" style="stroke:#000000; stroke-linecap:butt; stroke-linejoin:round; stroke-width:4; stroke-opacity:1; fill:none" points="
  230.816,1423.18 230.816,1404.28 
  "/>
<polyline clip-path="url(#clip770)" style="stroke:#000000; stroke-linecap:butt; stroke-linejoin:round; stroke-width:4; stroke-opacity:1; fill:none" points="
  454.588,1423.18 454.588,1404.28 
  "/>
<polyline clip-path="url(#clip770)" style="stroke:#000000; stroke-linecap:butt; stroke-linejoin:round; stroke-width:4; stroke-opacity:1; fill:none" points="
  678.36,1423.18 678.36,1404.28 
  "/>
<polyline clip-path="url(#clip770)" style="stroke:#000000; stroke-linecap:butt; stroke-linejoin:round; stroke-width:4; stroke-opacity:1; fill:none" points="
  902.132,1423.18 902.132,1404.28 
  "/>
<polyline clip-path="url(#clip770)" style="stroke:#000000; stroke-linecap:butt; stroke-linejoin:round; stroke-width:4; stroke-opacity:1; fill:none" points="
  1125.9,1423.18 1125.9,1404.28 
  "/>
<path clip-path="url(#clip770)" d="M156.812 1481.64 L173.131 1481.64 L173.131 1485.58 L151.187 1485.58 L151.187 1481.64 Q153.849 1478.89 158.432 1474.26 Q163.039 1469.61 164.219 1468.27 Q166.465 1465.74 167.344 1464.01 Q168.247 1462.25 168.247 1460.56 Q168.247 1457.8 166.303 1456.07 Q164.381 1454.33 161.28 1454.33 Q159.08 1454.33 156.627 1455.09 Q154.196 1455.86 151.418 1457.41 L151.418 1452.69 Q154.243 1451.55 156.696 1450.97 Q159.15 1450.39 161.187 1450.39 Q166.557 1450.39 169.752 1453.08 Q172.946 1455.77 172.946 1460.26 Q172.946 1462.39 172.136 1464.31 Q171.349 1466.2 169.242 1468.8 Q168.664 1469.47 165.562 1472.69 Q162.46 1475.88 156.812 1481.64 Z" fill="#000000" fill-rule="evenodd" fill-opacity="1" /><path clip-path="url(#clip770)" d="M183.085 1484.86 L183.085 1480.6 Q184.844 1481.44 186.65 1481.88 Q188.455 1482.32 190.191 1482.32 Q194.821 1482.32 197.252 1479.21 Q199.705 1476.09 200.052 1469.75 Q198.71 1471.74 196.65 1472.8 Q194.59 1473.87 192.09 1473.87 Q186.904 1473.87 183.872 1470.74 Q180.863 1467.59 180.863 1462.15 Q180.863 1456.83 184.011 1453.61 Q187.159 1450.39 192.39 1450.39 Q198.386 1450.39 201.534 1455 Q204.705 1459.58 204.705 1468.33 Q204.705 1476.51 200.816 1481.39 Q196.951 1486.25 190.4 1486.25 Q188.64 1486.25 186.835 1485.9 Q185.029 1485.56 183.085 1484.86 M192.39 1470.21 Q195.539 1470.21 197.367 1468.06 Q199.219 1465.9 199.219 1462.15 Q199.219 1458.43 197.367 1456.27 Q195.539 1454.1 192.39 1454.1 Q189.242 1454.1 187.39 1456.27 Q185.562 1458.43 185.562 1462.15 Q185.562 1465.9 187.39 1468.06 Q189.242 1470.21 192.39 1470.21 Z" fill="#000000" fill-rule="evenodd" fill-opacity="1" /><path clip-path="url(#clip770)" d="M223.108 1454.1 Q219.497 1454.1 217.668 1457.66 Q215.863 1461.2 215.863 1468.33 Q215.863 1475.44 217.668 1479.01 Q219.497 1482.55 223.108 1482.55 Q226.742 1482.55 228.548 1479.01 Q230.376 1475.44 230.376 1468.33 Q230.376 1461.2 228.548 1457.66 Q226.742 1454.1 223.108 1454.1 M223.108 1450.39 Q228.918 1450.39 231.974 1455 Q235.052 1459.58 235.052 1468.33 Q235.052 1477.06 231.974 1481.67 Q228.918 1486.25 223.108 1486.25 Q217.298 1486.25 214.219 1481.67 Q211.164 1477.06 211.164 1468.33 Q211.164 1459.58 214.219 1455 Q217.298 1450.39 223.108 1450.39 Z" fill="#000000" fill-rule="evenodd" fill-opacity="1" /><path clip-path="url(#clip770)" d="M243.27 1479.7 L248.154 1479.7 L248.154 1485.58 L243.27 1485.58 L243.27 1479.7 Z" fill="#000000" fill-rule="evenodd" fill-opacity="1" /><path clip-path="url(#clip770)" d="M268.339 1454.1 Q264.728 1454.1 262.899 1457.66 Q261.094 1461.2 261.094 1468.33 Q261.094 1475.44 262.899 1479.01 Q264.728 1482.55 268.339 1482.55 Q271.973 1482.55 273.779 1479.01 Q275.608 1475.44 275.608 1468.33 Q275.608 1461.2 273.779 1457.66 Q271.973 1454.1 268.339 1454.1 M268.339 1450.39 Q274.149 1450.39 277.205 1455 Q280.284 1459.58 280.284 1468.33 Q280.284 1477.06 277.205 1481.67 Q274.149 1486.25 268.339 1486.25 Q262.529 1486.25 259.45 1481.67 Q256.395 1477.06 256.395 1468.33 Q256.395 1459.58 259.45 1455 Q262.529 1450.39 268.339 1450.39 Z" fill="#000000" fill-rule="evenodd" fill-opacity="1" /><path clip-path="url(#clip770)" d="M298.501 1454.1 Q294.89 1454.1 293.061 1457.66 Q291.256 1461.2 291.256 1468.33 Q291.256 1475.44 293.061 1479.01 Q294.89 1482.55 298.501 1482.55 Q302.135 1482.55 303.941 1479.01 Q305.769 1475.44 305.769 1468.33 Q305.769 1461.2 303.941 1457.66 Q302.135 1454.1 298.501 1454.1 M298.501 1450.39 Q304.311 1450.39 307.367 1455 Q310.445 1459.58 310.445 1468.33 Q310.445 1477.06 307.367 1481.67 Q304.311 1486.25 298.501 1486.25 Q292.691 1486.25 289.612 1481.67 Q286.557 1477.06 286.557 1468.33 Q286.557 1459.58 289.612 1455 Q292.691 1450.39 298.501 1450.39 Z" fill="#000000" fill-rule="evenodd" fill-opacity="1" /><path clip-path="url(#clip770)" d="M381.081 1481.64 L397.401 1481.64 L397.401 1485.58 L375.456 1485.58 L375.456 1481.64 Q378.118 1478.89 382.702 1474.26 Q387.308 1469.61 388.489 1468.27 Q390.734 1465.74 391.614 1464.01 Q392.517 1462.25 392.517 1460.56 Q392.517 1457.8 390.572 1456.07 Q388.651 1454.33 385.549 1454.33 Q383.35 1454.33 380.896 1455.09 Q378.466 1455.86 375.688 1457.41 L375.688 1452.69 Q378.512 1451.55 380.966 1450.97 Q383.419 1450.39 385.456 1450.39 Q390.827 1450.39 394.021 1453.08 Q397.216 1455.77 397.216 1460.26 Q397.216 1462.39 396.405 1464.31 Q395.618 1466.2 393.512 1468.8 Q392.933 1469.47 389.831 1472.69 Q386.73 1475.88 381.081 1481.64 Z" fill="#000000" fill-rule="evenodd" fill-opacity="1" /><path clip-path="url(#clip770)" d="M407.354 1484.86 L407.354 1480.6 Q409.114 1481.44 410.919 1481.88 Q412.725 1482.32 414.461 1482.32 Q419.09 1482.32 421.521 1479.21 Q423.975 1476.09 424.322 1469.75 Q422.979 1471.74 420.919 1472.8 Q418.859 1473.87 416.359 1473.87 Q411.174 1473.87 408.141 1470.74 Q405.132 1467.59 405.132 1462.15 Q405.132 1456.83 408.28 1453.61 Q411.428 1450.39 416.66 1450.39 Q422.655 1450.39 425.803 1455 Q428.975 1459.58 428.975 1468.33 Q428.975 1476.51 425.086 1481.39 Q421.22 1486.25 414.669 1486.25 Q412.91 1486.25 411.104 1485.9 Q409.299 1485.56 407.354 1484.86 M416.66 1470.21 Q419.808 1470.21 421.637 1468.06 Q423.489 1465.9 423.489 1462.15 Q423.489 1458.43 421.637 1456.27 Q419.808 1454.1 416.66 1454.1 Q413.512 1454.1 411.66 1456.27 Q409.831 1458.43 409.831 1462.15 Q409.831 1465.9 411.66 1468.06 Q413.512 1470.21 416.66 1470.21 Z" fill="#000000" fill-rule="evenodd" fill-opacity="1" /><path clip-path="url(#clip770)" d="M447.377 1454.1 Q443.766 1454.1 441.938 1457.66 Q440.132 1461.2 440.132 1468.33 Q440.132 1475.44 441.938 1479.01 Q443.766 1482.55 447.377 1482.55 Q451.012 1482.55 452.817 1479.01 Q454.646 1475.44 454.646 1468.33 Q454.646 1461.2 452.817 1457.66 Q451.012 1454.1 447.377 1454.1 M447.377 1450.39 Q453.188 1450.39 456.243 1455 Q459.322 1459.58 459.322 1468.33 Q459.322 1477.06 456.243 1481.67 Q453.188 1486.25 447.377 1486.25 Q441.567 1486.25 438.489 1481.67 Q435.433 1477.06 435.433 1468.33 Q435.433 1459.58 438.489 1455 Q441.567 1450.39 447.377 1450.39 Z" fill="#000000" fill-rule="evenodd" fill-opacity="1" /><path clip-path="url(#clip770)" d="M467.539 1479.7 L472.424 1479.7 L472.424 1485.58 L467.539 1485.58 L467.539 1479.7 Z" fill="#000000" fill-rule="evenodd" fill-opacity="1" /><path clip-path="url(#clip770)" d="M486.636 1481.64 L502.956 1481.64 L502.956 1485.58 L481.011 1485.58 L481.011 1481.64 Q483.673 1478.89 488.257 1474.26 Q492.863 1469.61 494.044 1468.27 Q496.289 1465.74 497.169 1464.01 Q498.072 1462.25 498.072 1460.56 Q498.072 1457.8 496.127 1456.07 Q494.206 1454.33 491.104 1454.33 Q488.905 1454.33 486.451 1455.09 Q484.021 1455.86 481.243 1457.41 L481.243 1452.69 Q484.067 1451.55 486.521 1450.97 Q488.974 1450.39 491.011 1450.39 Q496.382 1450.39 499.576 1453.08 Q502.771 1455.77 502.771 1460.26 Q502.771 1462.39 501.96 1464.31 Q501.173 1466.2 499.067 1468.8 Q498.488 1469.47 495.386 1472.69 Q492.285 1475.88 486.636 1481.64 Z" fill="#000000" fill-rule="evenodd" fill-opacity="1" /><path clip-path="url(#clip770)" d="M512.817 1451.02 L531.173 1451.02 L531.173 1454.96 L517.099 1454.96 L517.099 1463.43 Q518.118 1463.08 519.136 1462.92 Q520.155 1462.73 521.173 1462.73 Q526.96 1462.73 530.34 1465.9 Q533.719 1469.08 533.719 1474.49 Q533.719 1480.07 530.247 1483.17 Q526.775 1486.25 520.456 1486.25 Q518.28 1486.25 516.011 1485.88 Q513.766 1485.51 511.358 1484.77 L511.358 1480.07 Q513.442 1481.2 515.664 1481.76 Q517.886 1482.32 520.363 1482.32 Q524.368 1482.32 526.706 1480.21 Q529.044 1478.1 529.044 1474.49 Q529.044 1470.88 526.706 1468.77 Q524.368 1466.67 520.363 1466.67 Q518.488 1466.67 516.613 1467.08 Q514.761 1467.5 512.817 1468.38 L512.817 1451.02 Z" fill="#000000" fill-rule="evenodd" fill-opacity="1" /><path clip-path="url(#clip770)" d="M604.356 1481.64 L620.675 1481.64 L620.675 1485.58 L598.731 1485.58 L598.731 1481.64 Q601.393 1478.89 605.976 1474.26 Q610.582 1469.61 611.763 1468.27 Q614.008 1465.74 614.888 1464.01 Q615.791 1462.25 615.791 1460.56 Q615.791 1457.8 613.846 1456.07 Q611.925 1454.33 608.823 1454.33 Q606.624 1454.33 604.17 1455.09 Q601.74 1455.86 598.962 1457.41 L598.962 1452.69 Q601.786 1451.55 604.24 1450.97 Q606.693 1450.39 608.73 1450.39 Q614.101 1450.39 617.295 1453.08 Q620.49 1455.77 620.49 1460.26 Q620.49 1462.39 619.679 1464.31 Q618.892 1466.2 616.786 1468.8 Q616.207 1469.47 613.105 1472.69 Q610.004 1475.88 604.356 1481.64 Z" fill="#000000" fill-rule="evenodd" fill-opacity="1" /><path clip-path="url(#clip770)" d="M630.629 1484.86 L630.629 1480.6 Q632.388 1481.44 634.193 1481.88 Q635.999 1482.32 637.735 1482.32 Q642.365 1482.32 644.795 1479.21 Q647.249 1476.09 647.596 1469.75 Q646.253 1471.74 644.193 1472.8 Q642.133 1473.87 639.633 1473.87 Q634.448 1473.87 631.416 1470.74 Q628.406 1467.59 628.406 1462.15 Q628.406 1456.83 631.554 1453.61 Q634.703 1450.39 639.934 1450.39 Q645.929 1450.39 649.077 1455 Q652.249 1459.58 652.249 1468.33 Q652.249 1476.51 648.36 1481.39 Q644.494 1486.25 637.943 1486.25 Q636.184 1486.25 634.378 1485.9 Q632.573 1485.56 630.629 1484.86 M639.934 1470.21 Q643.082 1470.21 644.911 1468.06 Q646.763 1465.9 646.763 1462.15 Q646.763 1458.43 644.911 1456.27 Q643.082 1454.1 639.934 1454.1 Q636.786 1454.1 634.934 1456.27 Q633.105 1458.43 633.105 1462.15 Q633.105 1465.9 634.934 1468.06 Q636.786 1470.21 639.934 1470.21 Z" fill="#000000" fill-rule="evenodd" fill-opacity="1" /><path clip-path="url(#clip770)" d="M670.651 1454.1 Q667.04 1454.1 665.212 1457.66 Q663.406 1461.2 663.406 1468.33 Q663.406 1475.44 665.212 1479.01 Q667.04 1482.55 670.651 1482.55 Q674.286 1482.55 676.091 1479.01 Q677.92 1475.44 677.92 1468.33 Q677.92 1461.2 676.091 1457.66 Q674.286 1454.1 670.651 1454.1 M670.651 1450.39 Q676.462 1450.39 679.517 1455 Q682.596 1459.58 682.596 1468.33 Q682.596 1477.06 679.517 1481.67 Q676.462 1486.25 670.651 1486.25 Q664.841 1486.25 661.763 1481.67 Q658.707 1477.06 658.707 1468.33 Q658.707 1459.58 661.763 1455 Q664.841 1450.39 670.651 1450.39 Z" fill="#000000" fill-rule="evenodd" fill-opacity="1" /><path clip-path="url(#clip770)" d="M690.813 1479.7 L695.698 1479.7 L695.698 1485.58 L690.813 1485.58 L690.813 1479.7 Z" fill="#000000" fill-rule="evenodd" fill-opacity="1" /><path clip-path="url(#clip770)" d="M705.929 1451.02 L724.285 1451.02 L724.285 1454.96 L710.211 1454.96 L710.211 1463.43 Q711.23 1463.08 712.248 1462.92 Q713.267 1462.73 714.285 1462.73 Q720.072 1462.73 723.452 1465.9 Q726.832 1469.08 726.832 1474.49 Q726.832 1480.07 723.359 1483.17 Q719.887 1486.25 713.568 1486.25 Q711.392 1486.25 709.123 1485.88 Q706.878 1485.51 704.471 1484.77 L704.471 1480.07 Q706.554 1481.2 708.776 1481.76 Q710.998 1482.32 713.475 1482.32 Q717.48 1482.32 719.818 1480.21 Q722.156 1478.1 722.156 1474.49 Q722.156 1470.88 719.818 1468.77 Q717.48 1466.67 713.475 1466.67 Q711.6 1466.67 709.725 1467.08 Q707.873 1467.5 705.929 1468.38 L705.929 1451.02 Z" fill="#000000" fill-rule="evenodd" fill-opacity="1" /><path clip-path="url(#clip770)" d="M746.045 1454.1 Q742.433 1454.1 740.605 1457.66 Q738.799 1461.2 738.799 1468.33 Q738.799 1475.44 740.605 1479.01 Q742.433 1482.55 746.045 1482.55 Q749.679 1482.55 751.484 1479.01 Q753.313 1475.44 753.313 1468.33 Q753.313 1461.2 751.484 1457.66 Q749.679 1454.1 746.045 1454.1 M746.045 1450.39 Q751.855 1450.39 754.91 1455 Q757.989 1459.58 757.989 1468.33 Q757.989 1477.06 754.91 1481.67 Q751.855 1486.25 746.045 1486.25 Q740.234 1486.25 737.156 1481.67 Q734.1 1477.06 734.1 1468.33 Q734.1 1459.58 737.156 1455 Q740.234 1450.39 746.045 1450.39 Z" fill="#000000" fill-rule="evenodd" fill-opacity="1" /><path clip-path="url(#clip770)" d="M828.625 1481.64 L844.944 1481.64 L844.944 1485.58 L823 1485.58 L823 1481.64 Q825.662 1478.89 830.245 1474.26 Q834.852 1469.61 836.032 1468.27 Q838.278 1465.74 839.157 1464.01 Q840.06 1462.25 840.06 1460.56 Q840.06 1457.8 838.116 1456.07 Q836.194 1454.33 833.093 1454.33 Q830.893 1454.33 828.44 1455.09 Q826.009 1455.86 823.231 1457.41 L823.231 1452.69 Q826.056 1451.55 828.509 1450.97 Q830.963 1450.39 833 1450.39 Q838.37 1450.39 841.565 1453.08 Q844.759 1455.77 844.759 1460.26 Q844.759 1462.39 843.949 1464.31 Q843.162 1466.2 841.055 1468.8 Q840.477 1469.47 837.375 1472.69 Q834.273 1475.88 828.625 1481.64 Z" fill="#000000" fill-rule="evenodd" fill-opacity="1" /><path clip-path="url(#clip770)" d="M854.898 1484.86 L854.898 1480.6 Q856.657 1481.44 858.463 1481.88 Q860.268 1482.32 862.004 1482.32 Q866.634 1482.32 869.065 1479.21 Q871.518 1476.09 871.865 1469.75 Q870.523 1471.74 868.463 1472.8 Q866.403 1473.87 863.903 1473.87 Q858.717 1473.87 855.685 1470.74 Q852.676 1467.59 852.676 1462.15 Q852.676 1456.83 855.824 1453.61 Q858.972 1450.39 864.203 1450.39 Q870.199 1450.39 873.347 1455 Q876.518 1459.58 876.518 1468.33 Q876.518 1476.51 872.629 1481.39 Q868.764 1486.25 862.213 1486.25 Q860.453 1486.25 858.648 1485.9 Q856.842 1485.56 854.898 1484.86 M864.203 1470.21 Q867.352 1470.21 869.18 1468.06 Q871.032 1465.9 871.032 1462.15 Q871.032 1458.43 869.18 1456.27 Q867.352 1454.1 864.203 1454.1 Q861.055 1454.1 859.204 1456.27 Q857.375 1458.43 857.375 1462.15 Q857.375 1465.9 859.204 1468.06 Q861.055 1470.21 864.203 1470.21 Z" fill="#000000" fill-rule="evenodd" fill-opacity="1" /><path clip-path="url(#clip770)" d="M894.921 1454.1 Q891.31 1454.1 889.481 1457.66 Q887.676 1461.2 887.676 1468.33 Q887.676 1475.44 889.481 1479.01 Q891.31 1482.55 894.921 1482.55 Q898.555 1482.55 900.361 1479.01 Q902.189 1475.44 902.189 1468.33 Q902.189 1461.2 900.361 1457.66 Q898.555 1454.1 894.921 1454.1 M894.921 1450.39 Q900.731 1450.39 903.787 1455 Q906.865 1459.58 906.865 1468.33 Q906.865 1477.06 903.787 1481.67 Q900.731 1486.25 894.921 1486.25 Q889.111 1486.25 886.032 1481.67 Q882.977 1477.06 882.977 1468.33 Q882.977 1459.58 886.032 1455 Q889.111 1450.39 894.921 1450.39 Z" fill="#000000" fill-rule="evenodd" fill-opacity="1" /><path clip-path="url(#clip770)" d="M915.083 1479.7 L919.967 1479.7 L919.967 1485.58 L915.083 1485.58 L915.083 1479.7 Z" fill="#000000" fill-rule="evenodd" fill-opacity="1" /><path clip-path="url(#clip770)" d="M928.972 1451.02 L951.194 1451.02 L951.194 1453.01 L938.648 1485.58 L933.763 1485.58 L945.569 1454.96 L928.972 1454.96 L928.972 1451.02 Z" fill="#000000" fill-rule="evenodd" fill-opacity="1" /><path clip-path="url(#clip770)" d="M960.36 1451.02 L978.717 1451.02 L978.717 1454.96 L964.643 1454.96 L964.643 1463.43 Q965.661 1463.08 966.68 1462.92 Q967.698 1462.73 968.717 1462.73 Q974.504 1462.73 977.883 1465.9 Q981.263 1469.08 981.263 1474.49 Q981.263 1480.07 977.791 1483.17 Q974.319 1486.25 967.999 1486.25 Q965.823 1486.25 963.555 1485.88 Q961.309 1485.51 958.902 1484.77 L958.902 1480.07 Q960.985 1481.2 963.208 1481.76 Q965.43 1482.32 967.907 1482.32 Q971.911 1482.32 974.249 1480.21 Q976.587 1478.1 976.587 1474.49 Q976.587 1470.88 974.249 1468.77 Q971.911 1466.67 967.907 1466.67 Q966.032 1466.67 964.157 1467.08 Q962.305 1467.5 960.36 1468.38 L960.36 1451.02 Z" fill="#000000" fill-rule="evenodd" fill-opacity="1" /><path clip-path="url(#clip770)" d="M1051.9 1481.64 L1068.22 1481.64 L1068.22 1485.58 L1046.27 1485.58 L1046.27 1481.64 Q1048.94 1478.89 1053.52 1474.26 Q1058.13 1469.61 1059.31 1468.27 Q1061.55 1465.74 1062.43 1464.01 Q1063.33 1462.25 1063.33 1460.56 Q1063.33 1457.8 1061.39 1456.07 Q1059.47 1454.33 1056.37 1454.33 Q1054.17 1454.33 1051.71 1455.09 Q1049.28 1455.86 1046.51 1457.41 L1046.51 1452.69 Q1049.33 1451.55 1051.78 1450.97 Q1054.24 1450.39 1056.27 1450.39 Q1061.64 1450.39 1064.84 1453.08 Q1068.03 1455.77 1068.03 1460.26 Q1068.03 1462.39 1067.22 1464.31 Q1066.44 1466.2 1064.33 1468.8 Q1063.75 1469.47 1060.65 1472.69 Q1057.55 1475.88 1051.9 1481.64 Z" fill="#000000" fill-rule="evenodd" fill-opacity="1" /><path clip-path="url(#clip770)" d="M1078.17 1484.86 L1078.17 1480.6 Q1079.93 1481.44 1081.74 1481.88 Q1083.54 1482.32 1085.28 1482.32 Q1089.91 1482.32 1092.34 1479.21 Q1094.79 1476.09 1095.14 1469.75 Q1093.8 1471.74 1091.74 1472.8 Q1089.68 1473.87 1087.18 1473.87 Q1081.99 1473.87 1078.96 1470.74 Q1075.95 1467.59 1075.95 1462.15 Q1075.95 1456.83 1079.1 1453.61 Q1082.25 1450.39 1087.48 1450.39 Q1093.47 1450.39 1096.62 1455 Q1099.79 1459.58 1099.79 1468.33 Q1099.79 1476.51 1095.9 1481.39 Q1092.04 1486.25 1085.49 1486.25 Q1083.73 1486.25 1081.92 1485.9 Q1080.12 1485.56 1078.17 1484.86 M1087.48 1470.21 Q1090.63 1470.21 1092.45 1468.06 Q1094.31 1465.9 1094.31 1462.15 Q1094.31 1458.43 1092.45 1456.27 Q1090.63 1454.1 1087.48 1454.1 Q1084.33 1454.1 1082.48 1456.27 Q1080.65 1458.43 1080.65 1462.15 Q1080.65 1465.9 1082.48 1468.06 Q1084.33 1470.21 1087.48 1470.21 Z" fill="#000000" fill-rule="evenodd" fill-opacity="1" /><path clip-path="url(#clip770)" d="M1109.01 1481.64 L1116.64 1481.64 L1116.64 1455.28 L1108.33 1456.95 L1108.33 1452.69 L1116.6 1451.02 L1121.27 1451.02 L1121.27 1481.64 L1128.91 1481.64 L1128.91 1485.58 L1109.01 1485.58 L1109.01 1481.64 Z" fill="#000000" fill-rule="evenodd" fill-opacity="1" /><path clip-path="url(#clip770)" d="M1138.36 1479.7 L1143.24 1479.7 L1143.24 1485.58 L1138.36 1485.58 L1138.36 1479.7 Z" fill="#000000" fill-rule="evenodd" fill-opacity="1" /><path clip-path="url(#clip770)" d="M1163.43 1454.1 Q1159.82 1454.1 1157.99 1457.66 Q1156.18 1461.2 1156.18 1468.33 Q1156.18 1475.44 1157.99 1479.01 Q1159.82 1482.55 1163.43 1482.55 Q1167.06 1482.55 1168.87 1479.01 Q1170.69 1475.44 1170.69 1468.33 Q1170.69 1461.2 1168.87 1457.66 Q1167.06 1454.1 1163.43 1454.1 M1163.43 1450.39 Q1169.24 1450.39 1172.29 1455 Q1175.37 1459.58 1175.37 1468.33 Q1175.37 1477.06 1172.29 1481.67 Q1169.24 1486.25 1163.43 1486.25 Q1157.62 1486.25 1154.54 1481.67 Q1151.48 1477.06 1151.48 1468.33 Q1151.48 1459.58 1154.54 1455 Q1157.62 1450.39 1163.43 1450.39 Z" fill="#000000" fill-rule="evenodd" fill-opacity="1" /><path clip-path="url(#clip770)" d="M1193.59 1454.1 Q1189.98 1454.1 1188.15 1457.66 Q1186.34 1461.2 1186.34 1468.33 Q1186.34 1475.44 1188.15 1479.01 Q1189.98 1482.55 1193.59 1482.55 Q1197.22 1482.55 1199.03 1479.01 Q1200.86 1475.44 1200.86 1468.33 Q1200.86 1461.2 1199.03 1457.66 Q1197.22 1454.1 1193.59 1454.1 M1193.59 1450.39 Q1199.4 1450.39 1202.45 1455 Q1205.53 1459.58 1205.53 1468.33 Q1205.53 1477.06 1202.45 1481.67 Q1199.4 1486.25 1193.59 1486.25 Q1187.78 1486.25 1184.7 1481.67 Q1181.64 1477.06 1181.64 1468.33 Q1181.64 1459.58 1184.7 1455 Q1187.78 1450.39 1193.59 1450.39 Z" fill="#000000" fill-rule="evenodd" fill-opacity="1" /><path clip-path="url(#clip770)" d="M417.445 1520.52 L457.645 1520.52 L457.645 1525.93 L440.776 1525.93 L440.776 1568.04 L434.314 1568.04 L434.314 1525.93 L417.445 1525.93 L417.445 1520.52 Z" fill="#000000" fill-rule="evenodd" fill-opacity="1" /><path clip-path="url(#clip770)" d="M483.012 1548.76 L483.012 1551.62 L456.085 1551.62 Q456.467 1557.67 459.714 1560.85 Q462.992 1564 468.817 1564 Q472.19 1564 475.341 1563.17 Q478.524 1562.35 481.643 1560.69 L481.643 1566.23 Q478.492 1567.57 475.182 1568.27 Q471.872 1568.97 468.466 1568.97 Q459.936 1568.97 454.939 1564 Q449.974 1559.04 449.974 1550.57 Q449.974 1541.82 454.685 1536.69 Q459.427 1531.54 467.448 1531.54 Q474.641 1531.54 478.811 1536.18 Q483.012 1540.8 483.012 1548.76 M477.156 1547.04 Q477.092 1542.23 474.45 1539.37 Q471.84 1536.5 467.512 1536.5 Q462.61 1536.5 459.65 1539.27 Q456.722 1542.04 456.276 1547.07 L477.156 1547.04 Z" fill="#000000" fill-rule="evenodd" fill-opacity="1" /><path clip-path="url(#clip770)" d="M520.379 1539.24 Q522.575 1535.29 525.631 1533.41 Q528.686 1531.54 532.824 1531.54 Q538.394 1531.54 541.417 1535.45 Q544.441 1539.33 544.441 1546.53 L544.441 1568.04 L538.553 1568.04 L538.553 1546.72 Q538.553 1541.59 536.739 1539.11 Q534.924 1536.63 531.201 1536.63 Q526.649 1536.63 524.007 1539.65 Q521.365 1542.68 521.365 1547.9 L521.365 1568.04 L515.477 1568.04 L515.477 1546.72 Q515.477 1541.56 513.663 1539.11 Q511.849 1536.63 508.061 1536.63 Q503.573 1536.63 500.932 1539.68 Q498.29 1542.71 498.29 1547.9 L498.29 1568.04 L492.402 1568.04 L492.402 1532.4 L498.29 1532.4 L498.29 1537.93 Q500.295 1534.66 503.096 1533.1 Q505.897 1531.54 509.748 1531.54 Q513.631 1531.54 516.337 1533.51 Q519.074 1535.48 520.379 1539.24 Z" fill="#000000" fill-rule="evenodd" fill-opacity="1" /><path clip-path="url(#clip770)" d="M561.788 1562.7 L561.788 1581.6 L555.899 1581.6 L555.899 1532.4 L561.788 1532.4 L561.788 1537.81 Q563.634 1534.62 566.435 1533.1 Q569.267 1531.54 573.182 1531.54 Q579.675 1531.54 583.718 1536.69 Q587.792 1541.85 587.792 1550.25 Q587.792 1558.65 583.718 1563.81 Q579.675 1568.97 573.182 1568.97 Q569.267 1568.97 566.435 1567.44 Q563.634 1565.88 561.788 1562.7 M581.712 1550.25 Q581.712 1543.79 579.039 1540.13 Q576.397 1536.44 571.75 1536.44 Q567.103 1536.44 564.43 1540.13 Q561.788 1543.79 561.788 1550.25 Q561.788 1556.71 564.43 1560.4 Q567.103 1564.07 571.75 1564.07 Q576.397 1564.07 579.039 1560.4 Q581.712 1556.71 581.712 1550.25 Z" fill="#000000" fill-rule="evenodd" fill-opacity="1" /><path clip-path="url(#clip770)" d="M627.991 1548.76 L627.991 1551.62 L601.064 1551.62 Q601.446 1557.67 604.693 1560.85 Q607.971 1564 613.796 1564 Q617.169 1564 620.32 1563.17 Q623.503 1562.35 626.622 1560.69 L626.622 1566.23 Q623.471 1567.57 620.161 1568.27 Q616.851 1568.97 613.445 1568.97 Q604.915 1568.97 599.918 1564 Q594.953 1559.04 594.953 1550.57 Q594.953 1541.82 599.664 1536.69 Q604.406 1531.54 612.427 1531.54 Q619.62 1531.54 623.79 1536.18 Q627.991 1540.8 627.991 1548.76 M622.135 1547.04 Q622.071 1542.23 619.429 1539.37 Q616.819 1536.5 612.491 1536.5 Q607.589 1536.5 604.629 1539.27 Q601.701 1542.04 601.255 1547.07 L622.135 1547.04 Z" fill="#000000" fill-rule="evenodd" fill-opacity="1" /><path clip-path="url(#clip770)" d="M658.26 1537.87 Q657.273 1537.3 656.096 1537.04 Q654.95 1536.76 653.549 1536.76 Q648.584 1536.76 645.911 1540 Q643.269 1543.22 643.269 1549.27 L643.269 1568.04 L637.381 1568.04 L637.381 1532.4 L643.269 1532.4 L643.269 1537.93 Q645.115 1534.69 648.075 1533.13 Q651.035 1531.54 655.268 1531.54 Q655.873 1531.54 656.605 1531.63 Q657.337 1531.7 658.228 1531.85 L658.26 1537.87 Z" fill="#000000" fill-rule="evenodd" fill-opacity="1" /><path clip-path="url(#clip770)" d="M680.604 1550.12 Q673.506 1550.12 670.769 1551.75 Q668.031 1553.37 668.031 1557.29 Q668.031 1560.4 670.068 1562.25 Q672.137 1564.07 675.67 1564.07 Q680.54 1564.07 683.468 1560.63 Q686.428 1557.16 686.428 1551.43 L686.428 1550.12 L680.604 1550.12 M692.285 1547.71 L692.285 1568.04 L686.428 1568.04 L686.428 1562.63 Q684.423 1565.88 681.431 1567.44 Q678.439 1568.97 674.111 1568.97 Q668.636 1568.97 665.39 1565.91 Q662.175 1562.82 662.175 1557.67 Q662.175 1551.65 666.185 1548.6 Q670.228 1545.54 678.217 1545.54 L686.428 1545.54 L686.428 1544.97 Q686.428 1540.93 683.755 1538.73 Q681.113 1536.5 676.307 1536.5 Q673.251 1536.5 670.355 1537.23 Q667.458 1537.97 664.785 1539.43 L664.785 1534.02 Q668 1532.78 671.023 1532.17 Q674.047 1531.54 676.912 1531.54 Q684.646 1531.54 688.465 1535.55 Q692.285 1539.56 692.285 1547.71 Z" fill="#000000" fill-rule="evenodd" fill-opacity="1" /><path clip-path="url(#clip770)" d="M710.141 1522.27 L710.141 1532.4 L722.204 1532.4 L722.204 1536.95 L710.141 1536.95 L710.141 1556.3 Q710.141 1560.66 711.318 1561.9 Q712.528 1563.14 716.188 1563.14 L722.204 1563.14 L722.204 1568.04 L716.188 1568.04 Q709.408 1568.04 706.83 1565.53 Q704.252 1562.98 704.252 1556.3 L704.252 1536.95 L699.955 1536.95 L699.955 1532.4 L704.252 1532.4 L704.252 1522.27 L710.141 1522.27 Z" fill="#000000" fill-rule="evenodd" fill-opacity="1" /><path clip-path="url(#clip770)" d="M729.301 1553.98 L729.301 1532.4 L735.158 1532.4 L735.158 1553.75 Q735.158 1558.81 737.131 1561.36 Q739.104 1563.87 743.051 1563.87 Q747.794 1563.87 750.531 1560.85 Q753.3 1557.83 753.3 1552.61 L753.3 1532.4 L759.156 1532.4 L759.156 1568.04 L753.3 1568.04 L753.3 1562.57 Q751.168 1565.82 748.335 1567.41 Q745.534 1568.97 741.81 1568.97 Q735.667 1568.97 732.484 1565.15 Q729.301 1561.33 729.301 1553.98 M744.038 1531.54 L744.038 1531.54 Z" fill="#000000" fill-rule="evenodd" fill-opacity="1" /><path clip-path="url(#clip770)" d="M791.876 1537.87 Q790.89 1537.3 789.712 1537.04 Q788.566 1536.76 787.166 1536.76 Q782.2 1536.76 779.527 1540 Q776.885 1543.22 776.885 1549.27 L776.885 1568.04 L770.997 1568.04 L770.997 1532.4 L776.885 1532.4 L776.885 1537.93 Q778.731 1534.69 781.691 1533.13 Q784.651 1531.54 788.884 1531.54 Q789.489 1531.54 790.221 1531.63 Q790.953 1531.7 791.844 1531.85 L791.876 1537.87 Z" fill="#000000" fill-rule="evenodd" fill-opacity="1" /><path clip-path="url(#clip770)" d="M827.079 1548.76 L827.079 1551.62 L800.152 1551.62 Q800.534 1557.67 803.78 1560.85 Q807.058 1564 812.883 1564 Q816.257 1564 819.408 1563.17 Q822.591 1562.35 825.71 1560.69 L825.71 1566.23 Q822.559 1567.57 819.249 1568.27 Q815.939 1568.97 812.533 1568.97 Q804.003 1568.97 799.006 1564 Q794.041 1559.04 794.041 1550.57 Q794.041 1541.82 798.751 1536.69 Q803.494 1531.54 811.514 1531.54 Q818.708 1531.54 822.877 1536.18 Q827.079 1540.8 827.079 1548.76 M821.222 1547.04 Q821.158 1542.23 818.517 1539.37 Q815.907 1536.5 811.578 1536.5 Q806.676 1536.5 803.716 1539.27 Q800.788 1542.04 800.343 1547.07 L821.222 1547.04 Z" fill="#000000" fill-rule="evenodd" fill-opacity="1" /><path clip-path="url(#clip770)" d="M856.87 1518.52 L870.365 1518.52 L870.365 1523.07 L862.727 1523.07 L862.727 1572.09 L870.365 1572.09 L870.365 1576.64 L856.87 1576.64 L856.87 1518.52 Z" fill="#000000" fill-rule="evenodd" fill-opacity="1" /><path clip-path="url(#clip770)" d="M883.097 1520.52 L889.526 1520.52 L889.526 1540.61 L910.851 1520.52 L919.127 1520.52 L895.542 1542.68 L920.814 1568.04 L912.347 1568.04 L889.526 1545.16 L889.526 1568.04 L883.097 1568.04 L883.097 1520.52 Z" fill="#000000" fill-rule="evenodd" fill-opacity="1" /><path clip-path="url(#clip770)" d="M939.274 1518.52 L939.274 1576.64 L925.779 1576.64 L925.779 1572.09 L933.386 1572.09 L933.386 1523.07 L925.779 1523.07 L925.779 1518.52 L939.274 1518.52 Z" fill="#000000" fill-rule="evenodd" fill-opacity="1" /><polyline clip-path="url(#clip772)" style="stroke:#000000; stroke-linecap:butt; stroke-linejoin:round; stroke-width:2; stroke-opacity:0.1; fill:none" points="
  203.964,1386.4 1152.76,1386.4 
  "/>
<polyline clip-path="url(#clip772)" style="stroke:#000000; stroke-linecap:butt; stroke-linejoin:round; stroke-width:2; stroke-opacity:0.1; fill:none" points="
  203.964,1141.17 1152.76,1141.17 
  "/>
<polyline clip-path="url(#clip772)" style="stroke:#000000; stroke-linecap:butt; stroke-linejoin:round; stroke-width:2; stroke-opacity:0.1; fill:none" points="
  203.964,895.94 1152.76,895.94 
  "/>
<polyline clip-path="url(#clip772)" style="stroke:#000000; stroke-linecap:butt; stroke-linejoin:round; stroke-width:2; stroke-opacity:0.1; fill:none" points="
  203.964,650.712 1152.76,650.712 
  "/>
<polyline clip-path="url(#clip772)" style="stroke:#000000; stroke-linecap:butt; stroke-linejoin:round; stroke-width:2; stroke-opacity:0.1; fill:none" points="
  203.964,405.484 1152.76,405.484 
  "/>
<polyline clip-path="url(#clip772)" style="stroke:#000000; stroke-linecap:butt; stroke-linejoin:round; stroke-width:2; stroke-opacity:0.1; fill:none" points="
  203.964,160.256 1152.76,160.256 
  "/>
<polyline clip-path="url(#clip770)" style="stroke:#000000; stroke-linecap:butt; stroke-linejoin:round; stroke-width:4; stroke-opacity:1; fill:none" points="
  203.964,1423.18 203.964,123.472 
  "/>
<polyline clip-path="url(#clip770)" style="stroke:#000000; stroke-linecap:butt; stroke-linejoin:round; stroke-width:4; stroke-opacity:1; fill:none" points="
  203.964,1386.4 222.861,1386.4 
  "/>
<polyline clip-path="url(#clip770)" style="stroke:#000000; stroke-linecap:butt; stroke-linejoin:round; stroke-width:4; stroke-opacity:1; fill:none" points="
  203.964,1141.17 222.861,1141.17 
  "/>
<polyline clip-path="url(#clip770)" style="stroke:#000000; stroke-linecap:butt; stroke-linejoin:round; stroke-width:4; stroke-opacity:1; fill:none" points="
  203.964,895.94 222.861,895.94 
  "/>
<polyline clip-path="url(#clip770)" style="stroke:#000000; stroke-linecap:butt; stroke-linejoin:round; stroke-width:4; stroke-opacity:1; fill:none" points="
  203.964,650.712 222.861,650.712 
  "/>
<polyline clip-path="url(#clip770)" style="stroke:#000000; stroke-linecap:butt; stroke-linejoin:round; stroke-width:4; stroke-opacity:1; fill:none" points="
  203.964,405.484 222.861,405.484 
  "/>
<polyline clip-path="url(#clip770)" style="stroke:#000000; stroke-linecap:butt; stroke-linejoin:round; stroke-width:4; stroke-opacity:1; fill:none" points="
  203.964,160.256 222.861,160.256 
  "/>
<path clip-path="url(#clip770)" d="M156.019 1372.19 Q152.408 1372.19 150.579 1375.76 Q148.774 1379.3 148.774 1386.43 Q148.774 1393.54 150.579 1397.1 Q152.408 1400.64 156.019 1400.64 Q159.653 1400.64 161.459 1397.1 Q163.288 1393.54 163.288 1386.43 Q163.288 1379.3 161.459 1375.76 Q159.653 1372.19 156.019 1372.19 M156.019 1368.49 Q161.829 1368.49 164.885 1373.1 Q167.964 1377.68 167.964 1386.43 Q167.964 1395.16 164.885 1399.76 Q161.829 1404.35 156.019 1404.35 Q150.209 1404.35 147.13 1399.76 Q144.075 1395.16 144.075 1386.43 Q144.075 1377.68 147.13 1373.1 Q150.209 1368.49 156.019 1368.49 Z" fill="#000000" fill-rule="evenodd" fill-opacity="1" /><path clip-path="url(#clip770)" d="M147.061 1123.89 L165.417 1123.89 L165.417 1127.82 L151.343 1127.82 L151.343 1136.3 Q152.362 1135.95 153.38 1135.79 Q154.399 1135.6 155.417 1135.6 Q161.204 1135.6 164.584 1138.77 Q167.964 1141.94 167.964 1147.36 Q167.964 1152.94 164.491 1156.04 Q161.019 1159.12 154.7 1159.12 Q152.524 1159.12 150.255 1158.75 Q148.01 1158.38 145.603 1157.64 L145.603 1152.94 Q147.686 1154.07 149.908 1154.63 Q152.13 1155.18 154.607 1155.18 Q158.612 1155.18 160.95 1153.08 Q163.288 1150.97 163.288 1147.36 Q163.288 1143.75 160.95 1141.64 Q158.612 1139.54 154.607 1139.54 Q152.732 1139.54 150.857 1139.95 Q149.005 1140.37 147.061 1141.25 L147.061 1123.89 Z" fill="#000000" fill-rule="evenodd" fill-opacity="1" /><path clip-path="url(#clip770)" d="M116.668 909.285 L124.306 909.285 L124.306 882.919 L115.996 884.586 L115.996 880.327 L124.26 878.66 L128.936 878.66 L128.936 909.285 L136.575 909.285 L136.575 913.22 L116.668 913.22 L116.668 909.285 Z" fill="#000000" fill-rule="evenodd" fill-opacity="1" /><path clip-path="url(#clip770)" d="M156.019 881.739 Q152.408 881.739 150.579 885.303 Q148.774 888.845 148.774 895.975 Q148.774 903.081 150.579 906.646 Q152.408 910.188 156.019 910.188 Q159.653 910.188 161.459 906.646 Q163.288 903.081 163.288 895.975 Q163.288 888.845 161.459 885.303 Q159.653 881.739 156.019 881.739 M156.019 878.035 Q161.829 878.035 164.885 882.641 Q167.964 887.225 167.964 895.975 Q167.964 904.701 164.885 909.308 Q161.829 913.891 156.019 913.891 Q150.209 913.891 147.13 909.308 Q144.075 904.701 144.075 895.975 Q144.075 887.225 147.13 882.641 Q150.209 878.035 156.019 878.035 Z" fill="#000000" fill-rule="evenodd" fill-opacity="1" /><path clip-path="url(#clip770)" d="M117.663 664.057 L125.302 664.057 L125.302 637.691 L116.992 639.358 L116.992 635.099 L125.255 633.432 L129.931 633.432 L129.931 664.057 L137.57 664.057 L137.57 667.992 L117.663 667.992 L117.663 664.057 Z" fill="#000000" fill-rule="evenodd" fill-opacity="1" /><path clip-path="url(#clip770)" d="M147.061 633.432 L165.417 633.432 L165.417 637.367 L151.343 637.367 L151.343 645.839 Q152.362 645.492 153.38 645.33 Q154.399 645.145 155.417 645.145 Q161.204 645.145 164.584 648.316 Q167.964 651.488 167.964 656.904 Q167.964 662.483 164.491 665.585 Q161.019 668.663 154.7 668.663 Q152.524 668.663 150.255 668.293 Q148.01 667.923 145.603 667.182 L145.603 662.483 Q147.686 663.617 149.908 664.173 Q152.13 664.728 154.607 664.728 Q158.612 664.728 160.95 662.622 Q163.288 660.515 163.288 656.904 Q163.288 653.293 160.95 651.187 Q158.612 649.08 154.607 649.08 Q152.732 649.08 150.857 649.497 Q149.005 649.913 147.061 650.793 L147.061 633.432 Z" fill="#000000" fill-rule="evenodd" fill-opacity="1" /><path clip-path="url(#clip770)" d="M119.885 418.829 L136.204 418.829 L136.204 422.764 L114.26 422.764 L114.26 418.829 Q116.922 416.074 121.505 411.445 Q126.112 406.792 127.292 405.449 Q129.538 402.926 130.417 401.19 Q131.32 399.431 131.32 397.741 Q131.32 394.987 129.376 393.25 Q127.455 391.514 124.353 391.514 Q122.154 391.514 119.7 392.278 Q117.269 393.042 114.492 394.593 L114.492 389.871 Q117.316 388.737 119.769 388.158 Q122.223 387.579 124.26 387.579 Q129.63 387.579 132.825 390.264 Q136.019 392.95 136.019 397.44 Q136.019 399.57 135.209 401.491 Q134.422 403.389 132.316 405.982 Q131.737 406.653 128.635 409.871 Q125.533 413.065 119.885 418.829 Z" fill="#000000" fill-rule="evenodd" fill-opacity="1" /><path clip-path="url(#clip770)" d="M156.019 391.283 Q152.408 391.283 150.579 394.848 Q148.774 398.389 148.774 405.519 Q148.774 412.625 150.579 416.19 Q152.408 419.732 156.019 419.732 Q159.653 419.732 161.459 416.19 Q163.288 412.625 163.288 405.519 Q163.288 398.389 161.459 394.848 Q159.653 391.283 156.019 391.283 M156.019 387.579 Q161.829 387.579 164.885 392.186 Q167.964 396.769 167.964 405.519 Q167.964 414.246 164.885 418.852 Q161.829 423.435 156.019 423.435 Q150.209 423.435 147.13 418.852 Q144.075 414.246 144.075 405.519 Q144.075 396.769 147.13 392.186 Q150.209 387.579 156.019 387.579 Z" fill="#000000" fill-rule="evenodd" fill-opacity="1" /><path clip-path="url(#clip770)" d="M120.88 173.601 L137.2 173.601 L137.2 177.536 L115.256 177.536 L115.256 173.601 Q117.918 170.847 122.501 166.217 Q127.107 161.564 128.288 160.222 Q130.533 157.698 131.413 155.962 Q132.316 154.203 132.316 152.513 Q132.316 149.759 130.371 148.023 Q128.45 146.286 125.348 146.286 Q123.149 146.286 120.695 147.05 Q118.265 147.814 115.487 149.365 L115.487 144.643 Q118.311 143.509 120.765 142.93 Q123.218 142.351 125.255 142.351 Q130.626 142.351 133.82 145.036 Q137.015 147.722 137.015 152.212 Q137.015 154.342 136.204 156.263 Q135.417 158.161 133.311 160.754 Q132.732 161.425 129.63 164.643 Q126.529 167.837 120.88 173.601 Z" fill="#000000" fill-rule="evenodd" fill-opacity="1" /><path clip-path="url(#clip770)" d="M147.061 142.976 L165.417 142.976 L165.417 146.911 L151.343 146.911 L151.343 155.384 Q152.362 155.036 153.38 154.874 Q154.399 154.689 155.417 154.689 Q161.204 154.689 164.584 157.86 Q167.964 161.032 167.964 166.448 Q167.964 172.027 164.491 175.129 Q161.019 178.208 154.7 178.208 Q152.524 178.208 150.255 177.837 Q148.01 177.467 145.603 176.726 L145.603 172.027 Q147.686 173.161 149.908 173.717 Q152.13 174.272 154.607 174.272 Q158.612 174.272 160.95 172.166 Q163.288 170.059 163.288 166.448 Q163.288 162.837 160.95 160.731 Q158.612 158.624 154.607 158.624 Q152.732 158.624 150.857 159.041 Q149.005 159.458 147.061 160.337 L147.061 142.976 Z" fill="#000000" fill-rule="evenodd" fill-opacity="1" /><path clip-path="url(#clip770)" d="M28.3562 871.851 L28.3562 844.033 L33.7034 844.033 L59.3254 866.058 L59.3254 844.033 L64.0042 844.033 L64.0042 872.647 L58.657 872.647 L33.035 850.622 L33.035 871.851 L28.3562 871.851 Z" fill="#000000" fill-rule="evenodd" fill-opacity="1" /><path clip-path="url(#clip770)" d="M14.479 814.91 L14.479 801.415 L19.0304 801.415 L19.0304 809.054 L68.0464 809.054 L68.0464 801.415 L72.5979 801.415 L72.5979 814.91 L14.479 814.91 Z" fill="#000000" fill-rule="evenodd" fill-opacity="1" /><path clip-path="url(#clip770)" d="M14.479 789.161 L14.479 783.272 L43.7294 783.272 L28.3562 765.799 L28.3562 758.319 L45.0344 777.225 L64.0042 757.523 L64.0042 765.162 L46.5939 783.272 L64.0042 783.272 L64.0042 789.161 L14.479 789.161 Z" fill="#000000" fill-rule="evenodd" fill-opacity="1" /><path clip-path="url(#clip770)" d="M35.1993 723.435 Q31.2526 721.239 29.3747 718.183 Q27.4968 715.128 27.4968 710.99 Q27.4968 705.42 31.4117 702.396 Q35.2948 699.372 42.4881 699.372 L64.0042 699.372 L64.0042 705.261 L42.679 705.261 Q37.5546 705.261 35.072 707.075 Q32.5894 708.889 32.5894 712.613 Q32.5894 717.165 35.6131 719.806 Q38.6368 722.448 43.8567 722.448 L64.0042 722.448 L64.0042 728.336 L42.679 728.336 Q37.5228 728.336 35.072 730.151 Q32.5894 731.965 32.5894 735.752 Q32.5894 740.24 35.6449 742.882 Q38.6686 745.524 43.8567 745.524 L64.0042 745.524 L64.0042 751.412 L28.3562 751.412 L28.3562 745.524 L33.8944 745.524 Q30.616 743.519 29.0564 740.718 Q27.4968 737.917 27.4968 734.065 Q27.4968 730.182 29.4702 727.477 Q31.4436 724.74 35.1993 723.435 Z" fill="#000000" fill-rule="evenodd" fill-opacity="1" /><path clip-path="url(#clip770)" d="M14.479 674.005 L72.5979 674.005 L72.5979 687.5 L68.0464 687.5 L68.0464 679.893 L19.0304 679.893 L19.0304 687.5 L14.479 687.5 L14.479 674.005 Z" fill="#000000" fill-rule="evenodd" fill-opacity="1" /><path clip-path="url(#clip770)" d="M465.343 12.096 L473.526 12.096 L473.526 72.576 L465.343 72.576 L465.343 12.096 Z" fill="#000000" fill-rule="evenodd" fill-opacity="1" /><path clip-path="url(#clip770)" d="M518.41 28.5427 L518.41 35.5912 Q515.25 33.9709 511.847 33.1607 Q508.445 32.3505 504.799 32.3505 Q499.249 32.3505 496.454 34.0519 Q493.699 35.7533 493.699 39.156 Q493.699 41.7486 495.684 43.2475 Q497.669 44.7058 503.664 46.0426 L506.217 46.6097 Q514.156 48.3111 517.478 51.4303 Q520.84 54.509 520.84 60.0587 Q520.84 66.3781 515.817 70.0644 Q510.835 73.7508 502.085 73.7508 Q498.439 73.7508 494.469 73.0216 Q490.54 72.3329 486.165 70.9151 L486.165 63.2184 Q490.297 65.3654 494.307 66.4591 Q498.317 67.5124 502.247 67.5124 Q507.513 67.5124 510.348 65.73 Q513.184 63.9071 513.184 60.6258 Q513.184 57.5877 511.118 55.9673 Q509.093 54.3469 502.166 52.8481 L499.573 52.2405 Q492.646 50.7821 489.567 47.7845 Q486.489 44.7463 486.489 39.4801 Q486.489 33.0797 491.026 29.5959 Q495.563 26.1121 503.908 26.1121 Q508.039 26.1121 511.685 26.7198 Q515.331 27.3274 518.41 28.5427 Z" fill="#000000" fill-rule="evenodd" fill-opacity="1" /><path clip-path="url(#clip770)" d="M550.29 32.4315 Q544.295 32.4315 540.811 37.1306 Q537.328 41.7891 537.328 49.9314 Q537.328 58.0738 540.771 62.7728 Q544.255 67.4314 550.29 67.4314 Q556.245 67.4314 559.729 62.7323 Q563.213 58.0333 563.213 49.9314 Q563.213 41.8701 559.729 37.1711 Q556.245 32.4315 550.29 32.4315 M550.29 26.1121 Q560.013 26.1121 565.562 32.4315 Q571.112 38.7509 571.112 49.9314 Q571.112 61.0714 565.562 67.4314 Q560.013 73.7508 550.29 73.7508 Q540.528 73.7508 534.978 67.4314 Q529.469 61.0714 529.469 49.9314 Q529.469 38.7509 534.978 32.4315 Q540.528 26.1121 550.29 26.1121 Z" fill="#000000" fill-rule="evenodd" fill-opacity="1" /><path clip-path="url(#clip770)" d="M590.84 14.324 L590.84 27.2059 L606.193 27.2059 L606.193 32.9987 L590.84 32.9987 L590.84 57.6282 Q590.84 63.1779 592.339 64.7578 Q593.878 66.3376 598.537 66.3376 L606.193 66.3376 L606.193 72.576 L598.537 72.576 Q589.908 72.576 586.627 69.3758 Q583.346 66.1351 583.346 57.6282 L583.346 32.9987 L577.877 32.9987 L577.877 27.2059 L583.346 27.2059 L583.346 14.324 L590.84 14.324 Z" fill="#000000" fill-rule="evenodd" fill-opacity="1" /><path clip-path="url(#clip770)" d="M653.71 45.1919 L653.71 72.576 L646.256 72.576 L646.256 45.4349 Q646.256 38.994 643.745 35.7938 Q641.233 32.5936 636.21 32.5936 Q630.174 32.5936 626.69 36.4419 Q623.207 40.2903 623.207 46.9338 L623.207 72.576 L615.713 72.576 L615.713 9.54393 L623.207 9.54393 L623.207 34.2544 Q625.88 30.163 629.486 28.1376 Q633.131 26.1121 637.871 26.1121 Q645.689 26.1121 649.7 30.9732 Q653.71 35.7938 653.71 45.1919 Z" fill="#000000" fill-rule="evenodd" fill-opacity="1" /><path clip-path="url(#clip770)" d="M707.384 48.0275 L707.384 51.6733 L673.114 51.6733 Q673.6 59.3701 677.732 63.421 Q681.904 67.4314 689.317 67.4314 Q693.611 67.4314 697.622 66.3781 Q701.673 65.3249 705.643 63.2184 L705.643 70.267 Q701.632 71.9684 697.419 72.8596 Q693.206 73.7508 688.872 73.7508 Q678.015 73.7508 671.655 67.4314 Q665.336 61.1119 665.336 50.3365 Q665.336 39.1965 671.331 32.6746 Q677.367 26.1121 687.576 26.1121 Q696.731 26.1121 702.037 32.0264 Q707.384 37.9003 707.384 48.0275 M699.931 45.84 Q699.85 39.7232 696.488 36.0774 Q693.166 32.4315 687.657 32.4315 Q681.418 32.4315 677.651 35.9558 Q673.924 39.4801 673.357 45.8805 L699.931 45.84 Z" fill="#000000" fill-rule="evenodd" fill-opacity="1" /><path clip-path="url(#clip770)" d="M745.909 34.1734 Q744.653 33.4443 743.154 33.1202 Q741.696 32.7556 739.913 32.7556 Q733.594 32.7556 730.191 36.8875 Q726.829 40.9789 726.829 48.6757 L726.829 72.576 L719.335 72.576 L719.335 27.2059 L726.829 27.2059 L726.829 34.2544 Q729.178 30.1225 732.946 28.1376 Q736.713 26.1121 742.101 26.1121 Q742.87 26.1121 743.802 26.2337 Q744.734 26.3147 745.868 26.5172 L745.909 34.1734 Z" fill="#000000" fill-rule="evenodd" fill-opacity="1" /><path clip-path="url(#clip770)" d="M787.592 35.9153 Q790.387 30.8922 794.276 28.5022 Q798.165 26.1121 803.431 26.1121 Q810.52 26.1121 814.369 31.0947 Q818.217 36.0368 818.217 45.1919 L818.217 72.576 L810.723 72.576 L810.723 45.4349 Q810.723 38.913 808.414 35.7533 Q806.105 32.5936 801.365 32.5936 Q795.573 32.5936 792.21 36.4419 Q788.848 40.2903 788.848 46.9338 L788.848 72.576 L781.354 72.576 L781.354 45.4349 Q781.354 38.8725 779.045 35.7533 Q776.736 32.5936 771.915 32.5936 Q766.204 32.5936 762.841 36.4824 Q759.479 40.3308 759.479 46.9338 L759.479 72.576 L751.985 72.576 L751.985 27.2059 L759.479 27.2059 L759.479 34.2544 Q762.031 30.082 765.596 28.0971 Q769.161 26.1121 774.062 26.1121 Q779.004 26.1121 782.448 28.6237 Q785.932 31.1352 787.592 35.9153 Z" fill="#000000" fill-rule="evenodd" fill-opacity="1" /><path clip-path="url(#clip770)" d="M853.703 49.7694 Q844.67 49.7694 841.186 51.8354 Q837.702 53.9013 837.702 58.8839 Q837.702 62.8538 840.295 65.2034 Q842.928 67.5124 847.424 67.5124 Q853.622 67.5124 857.349 63.1374 Q861.116 58.7219 861.116 51.4303 L861.116 49.7694 L853.703 49.7694 M868.57 46.6907 L868.57 72.576 L861.116 72.576 L861.116 65.6895 Q858.564 69.8214 854.756 71.8063 Q850.949 73.7508 845.439 73.7508 Q838.472 73.7508 834.34 69.8619 Q830.248 65.9325 830.248 59.3701 Q830.248 51.7138 835.353 47.825 Q840.497 43.9361 850.665 43.9361 L861.116 43.9361 L861.116 43.2069 Q861.116 38.0623 857.714 35.2672 Q854.351 32.4315 848.234 32.4315 Q844.346 32.4315 840.659 33.3632 Q836.973 34.295 833.57 36.1584 L833.57 29.2718 Q837.662 27.692 841.51 26.9223 Q845.358 26.1121 849.004 26.1121 Q858.848 26.1121 863.709 31.2163 Q868.57 36.3204 868.57 46.6907 Z" fill="#000000" fill-rule="evenodd" fill-opacity="1" /><path clip-path="url(#clip770)" d="M883.923 9.54393 L891.377 9.54393 L891.377 72.576 L883.923 72.576 L883.923 9.54393 Z" fill="#000000" fill-rule="evenodd" fill-opacity="1" /><polyline clip-path="url(#clip772)" style="stroke:#009af9; stroke-linecap:butt; stroke-linejoin:round; stroke-width:4; stroke-opacity:1; fill:none" points="
  230.816,1386.4 230.816,1361.37 230.816,1336.35 230.816,1311.33 230.816,1286.3 230.816,1261.28 230.816,1236.26 230.816,1211.23 230.816,1186.21 230.816,1161.19 
  230.816,1136.16 230.816,1111.14 230.816,1086.12 230.816,1061.09 230.816,1036.07 230.816,1011.05 230.816,986.024 230.816,961 230.816,935.977 230.816,910.954 
  230.816,885.931 230.816,860.907 230.816,835.884 230.816,810.861 230.816,785.838 230.816,760.814 230.816,735.791 230.816,710.768 230.816,685.745 230.816,660.721 
  230.816,635.698 230.816,610.675 230.816,585.652 230.816,560.628 230.816,535.605 230.816,510.582 230.816,485.559 230.816,460.535 230.816,435.512 230.816,410.489 
  230.816,385.466 230.816,360.442 230.816,335.419 230.816,310.396 230.816,285.373 230.816,260.349 230.816,235.326 230.816,210.303 230.816,185.28 230.816,160.256 
  
  "/>
<path clip-path="url(#clip770)" d="
M963.278 270.476 L1121.13 270.476 L1121.13 166.796 L963.278 166.796  Z
  " fill="#ffffff" fill-rule="evenodd" fill-opacity="1"/>
<polyline clip-path="url(#clip770)" style="stroke:#000000; stroke-linecap:butt; stroke-linejoin:round; stroke-width:4; stroke-opacity:1; fill:none" points="
  963.278,270.476 1121.13,270.476 1121.13,166.796 963.278,166.796 963.278,270.476 
  "/>
<polyline clip-path="url(#clip770)" style="stroke:#009af9; stroke-linecap:butt; stroke-linejoin:round; stroke-width:4; stroke-opacity:1; fill:none" points="
  973.82,218.636 1037.07,218.636 
  "/>
<path clip-path="url(#clip770)" d="M1061.46 238.323 Q1059.65 242.953 1057.94 244.365 Q1056.23 245.777 1053.36 245.777 L1049.95 245.777 L1049.95 242.212 L1052.45 242.212 Q1054.21 242.212 1055.18 241.379 Q1056.16 240.545 1057.34 237.443 L1058.1 235.499 L1047.61 209.99 L1052.13 209.99 L1060.23 230.268 L1068.33 209.99 L1072.85 209.99 L1061.46 238.323 Z" fill="#000000" fill-rule="evenodd" fill-opacity="1" /><path clip-path="url(#clip770)" d="M1080.14 231.981 L1087.78 231.981 L1087.78 205.615 L1079.47 207.282 L1079.47 203.022 L1087.73 201.356 L1092.41 201.356 L1092.41 231.981 L1100.05 231.981 L1100.05 235.916 L1080.14 235.916 L1080.14 231.981 Z" fill="#000000" fill-rule="evenodd" fill-opacity="1" /><path clip-path="url(#clip770)" d="
M1403.96 1423.18 L2352.76 1423.18 L2352.76 123.472 L1403.96 123.472  Z
  " fill="#ffffff" fill-rule="evenodd" fill-opacity="1"/>
<defs>
  <clipPath id="clip773">
    <rect x="1403" y="123" width="950" height="1301"/>
  </clipPath>
</defs>
<polyline clip-path="url(#clip773)" style="stroke:#000000; stroke-linecap:butt; stroke-linejoin:round; stroke-width:2; stroke-opacity:0.1; fill:none" points="
  1567.67,1423.18 1567.67,123.472 
  "/>
<polyline clip-path="url(#clip773)" style="stroke:#000000; stroke-linecap:butt; stroke-linejoin:round; stroke-width:2; stroke-opacity:0.1; fill:none" points="
  1754.14,1423.18 1754.14,123.472 
  "/>
<polyline clip-path="url(#clip773)" style="stroke:#000000; stroke-linecap:butt; stroke-linejoin:round; stroke-width:2; stroke-opacity:0.1; fill:none" points="
  1940.61,1423.18 1940.61,123.472 
  "/>
<polyline clip-path="url(#clip773)" style="stroke:#000000; stroke-linecap:butt; stroke-linejoin:round; stroke-width:2; stroke-opacity:0.1; fill:none" points="
  2127.08,1423.18 2127.08,123.472 
  "/>
<polyline clip-path="url(#clip773)" style="stroke:#000000; stroke-linecap:butt; stroke-linejoin:round; stroke-width:2; stroke-opacity:0.1; fill:none" points="
  2313.55,1423.18 2313.55,123.472 
  "/>
<polyline clip-path="url(#clip770)" style="stroke:#000000; stroke-linecap:butt; stroke-linejoin:round; stroke-width:4; stroke-opacity:1; fill:none" points="
  1403.96,1423.18 2352.76,1423.18 
  "/>
<polyline clip-path="url(#clip770)" style="stroke:#000000; stroke-linecap:butt; stroke-linejoin:round; stroke-width:4; stroke-opacity:1; fill:none" points="
  1567.67,1423.18 1567.67,1404.28 
  "/>
<polyline clip-path="url(#clip770)" style="stroke:#000000; stroke-linecap:butt; stroke-linejoin:round; stroke-width:4; stroke-opacity:1; fill:none" points="
  1754.14,1423.18 1754.14,1404.28 
  "/>
<polyline clip-path="url(#clip770)" style="stroke:#000000; stroke-linecap:butt; stroke-linejoin:round; stroke-width:4; stroke-opacity:1; fill:none" points="
  1940.61,1423.18 1940.61,1404.28 
  "/>
<polyline clip-path="url(#clip770)" style="stroke:#000000; stroke-linecap:butt; stroke-linejoin:round; stroke-width:4; stroke-opacity:1; fill:none" points="
  2127.08,1423.18 2127.08,1404.28 
  "/>
<polyline clip-path="url(#clip770)" style="stroke:#000000; stroke-linecap:butt; stroke-linejoin:round; stroke-width:4; stroke-opacity:1; fill:none" points="
  2313.55,1423.18 2313.55,1404.28 
  "/>
<path clip-path="url(#clip770)" d="M1546.45 1481.64 L1562.77 1481.64 L1562.77 1485.58 L1540.82 1485.58 L1540.82 1481.64 Q1543.48 1478.89 1548.07 1474.26 Q1552.67 1469.61 1553.85 1468.27 Q1556.1 1465.74 1556.98 1464.01 Q1557.88 1462.25 1557.88 1460.56 Q1557.88 1457.8 1555.94 1456.07 Q1554.02 1454.33 1550.91 1454.33 Q1548.71 1454.33 1546.26 1455.09 Q1543.83 1455.86 1541.05 1457.41 L1541.05 1452.69 Q1543.88 1451.55 1546.33 1450.97 Q1548.78 1450.39 1550.82 1450.39 Q1556.19 1450.39 1559.39 1453.08 Q1562.58 1455.77 1562.58 1460.26 Q1562.58 1462.39 1561.77 1464.31 Q1560.98 1466.2 1558.88 1468.8 Q1558.3 1469.47 1555.2 1472.69 Q1552.09 1475.88 1546.45 1481.64 Z" fill="#000000" fill-rule="evenodd" fill-opacity="1" /><path clip-path="url(#clip770)" d="M1582.58 1454.1 Q1578.97 1454.1 1577.14 1457.66 Q1575.34 1461.2 1575.34 1468.33 Q1575.34 1475.44 1577.14 1479.01 Q1578.97 1482.55 1582.58 1482.55 Q1586.21 1482.55 1588.02 1479.01 Q1589.85 1475.44 1589.85 1468.33 Q1589.85 1461.2 1588.02 1457.66 Q1586.21 1454.1 1582.58 1454.1 M1582.58 1450.39 Q1588.39 1450.39 1591.45 1455 Q1594.52 1459.58 1594.52 1468.33 Q1594.52 1477.06 1591.45 1481.67 Q1588.39 1486.25 1582.58 1486.25 Q1576.77 1486.25 1573.69 1481.67 Q1570.64 1477.06 1570.64 1468.33 Q1570.64 1459.58 1573.69 1455 Q1576.77 1450.39 1582.58 1450.39 Z" fill="#000000" fill-rule="evenodd" fill-opacity="1" /><path clip-path="url(#clip770)" d="M1742.31 1455.09 L1730.51 1473.54 L1742.31 1473.54 L1742.31 1455.09 M1741.09 1451.02 L1746.97 1451.02 L1746.97 1473.54 L1751.9 1473.54 L1751.9 1477.43 L1746.97 1477.43 L1746.97 1485.58 L1742.31 1485.58 L1742.31 1477.43 L1726.71 1477.43 L1726.71 1472.92 L1741.09 1451.02 Z" fill="#000000" fill-rule="evenodd" fill-opacity="1" /><path clip-path="url(#clip770)" d="M1769.63 1454.1 Q1766.02 1454.1 1764.19 1457.66 Q1762.38 1461.2 1762.38 1468.33 Q1762.38 1475.44 1764.19 1479.01 Q1766.02 1482.55 1769.63 1482.55 Q1773.26 1482.55 1775.07 1479.01 Q1776.9 1475.44 1776.9 1468.33 Q1776.9 1461.2 1775.07 1457.66 Q1773.26 1454.1 1769.63 1454.1 M1769.63 1450.39 Q1775.44 1450.39 1778.49 1455 Q1781.57 1459.58 1781.57 1468.33 Q1781.57 1477.06 1778.49 1481.67 Q1775.44 1486.25 1769.63 1486.25 Q1763.82 1486.25 1760.74 1481.67 Q1757.68 1477.06 1757.68 1468.33 Q1757.68 1459.58 1760.74 1455 Q1763.82 1450.39 1769.63 1450.39 Z" fill="#000000" fill-rule="evenodd" fill-opacity="1" /><path clip-path="url(#clip770)" d="M1926.02 1466.44 Q1922.87 1466.44 1921.02 1468.59 Q1919.19 1470.74 1919.19 1474.49 Q1919.19 1478.22 1921.02 1480.39 Q1922.87 1482.55 1926.02 1482.55 Q1929.16 1482.55 1930.99 1480.39 Q1932.85 1478.22 1932.85 1474.49 Q1932.85 1470.74 1930.99 1468.59 Q1929.16 1466.44 1926.02 1466.44 M1935.3 1451.78 L1935.3 1456.04 Q1933.54 1455.21 1931.73 1454.77 Q1929.95 1454.33 1928.19 1454.33 Q1923.56 1454.33 1921.11 1457.45 Q1918.68 1460.58 1918.33 1466.9 Q1919.7 1464.89 1921.76 1463.82 Q1923.82 1462.73 1926.29 1462.73 Q1931.5 1462.73 1934.51 1465.9 Q1937.54 1469.05 1937.54 1474.49 Q1937.54 1479.82 1934.4 1483.03 Q1931.25 1486.25 1926.02 1486.25 Q1920.02 1486.25 1916.85 1481.67 Q1913.68 1477.06 1913.68 1468.33 Q1913.68 1460.14 1917.57 1455.28 Q1921.46 1450.39 1928.01 1450.39 Q1929.77 1450.39 1931.55 1450.74 Q1933.35 1451.09 1935.3 1451.78 Z" fill="#000000" fill-rule="evenodd" fill-opacity="1" /><path clip-path="url(#clip770)" d="M1955.6 1454.1 Q1951.99 1454.1 1950.16 1457.66 Q1948.35 1461.2 1948.35 1468.33 Q1948.35 1475.44 1950.16 1479.01 Q1951.99 1482.55 1955.6 1482.55 Q1959.23 1482.55 1961.04 1479.01 Q1962.87 1475.44 1962.87 1468.33 Q1962.87 1461.2 1961.04 1457.66 Q1959.23 1454.1 1955.6 1454.1 M1955.6 1450.39 Q1961.41 1450.39 1964.47 1455 Q1967.54 1459.58 1967.54 1468.33 Q1967.54 1477.06 1964.47 1481.67 Q1961.41 1486.25 1955.6 1486.25 Q1949.79 1486.25 1946.71 1481.67 Q1943.66 1477.06 1943.66 1468.33 Q1943.66 1459.58 1946.71 1455 Q1949.79 1450.39 1955.6 1450.39 Z" fill="#000000" fill-rule="evenodd" fill-opacity="1" /><path clip-path="url(#clip770)" d="M2111.95 1469.17 Q2108.62 1469.17 2106.7 1470.95 Q2104.8 1472.73 2104.8 1475.86 Q2104.8 1478.98 2106.7 1480.77 Q2108.62 1482.55 2111.95 1482.55 Q2115.29 1482.55 2117.21 1480.77 Q2119.13 1478.96 2119.13 1475.86 Q2119.13 1472.73 2117.21 1470.95 Q2115.31 1469.17 2111.95 1469.17 M2107.28 1467.18 Q2104.27 1466.44 2102.58 1464.38 Q2100.91 1462.32 2100.91 1459.35 Q2100.91 1455.21 2103.85 1452.8 Q2106.81 1450.39 2111.95 1450.39 Q2117.12 1450.39 2120.06 1452.8 Q2122.99 1455.21 2122.99 1459.35 Q2122.99 1462.32 2121.31 1464.38 Q2119.64 1466.44 2116.65 1467.18 Q2120.03 1467.96 2121.91 1470.26 Q2123.81 1472.55 2123.81 1475.86 Q2123.81 1480.88 2120.73 1483.57 Q2117.67 1486.25 2111.95 1486.25 Q2106.24 1486.25 2103.16 1483.57 Q2100.1 1480.88 2100.1 1475.86 Q2100.1 1472.55 2102 1470.26 Q2103.9 1467.96 2107.28 1467.18 M2105.56 1459.79 Q2105.56 1462.48 2107.23 1463.98 Q2108.92 1465.49 2111.95 1465.49 Q2114.96 1465.49 2116.65 1463.98 Q2118.37 1462.48 2118.37 1459.79 Q2118.37 1457.11 2116.65 1455.6 Q2114.96 1454.1 2111.95 1454.1 Q2108.92 1454.1 2107.23 1455.6 Q2105.56 1457.11 2105.56 1459.79 Z" fill="#000000" fill-rule="evenodd" fill-opacity="1" /><path clip-path="url(#clip770)" d="M2142.12 1454.1 Q2138.5 1454.1 2136.68 1457.66 Q2134.87 1461.2 2134.87 1468.33 Q2134.87 1475.44 2136.68 1479.01 Q2138.5 1482.55 2142.12 1482.55 Q2145.75 1482.55 2147.55 1479.01 Q2149.38 1475.44 2149.38 1468.33 Q2149.38 1461.2 2147.55 1457.66 Q2145.75 1454.1 2142.12 1454.1 M2142.12 1450.39 Q2147.93 1450.39 2150.98 1455 Q2154.06 1459.58 2154.06 1468.33 Q2154.06 1477.06 2150.98 1481.67 Q2147.93 1486.25 2142.12 1486.25 Q2136.31 1486.25 2133.23 1481.67 Q2130.17 1477.06 2130.17 1468.33 Q2130.17 1459.58 2133.23 1455 Q2136.31 1450.39 2142.12 1450.39 Z" fill="#000000" fill-rule="evenodd" fill-opacity="1" /><path clip-path="url(#clip770)" d="M2273.16 1481.64 L2280.8 1481.64 L2280.8 1455.28 L2272.49 1456.95 L2272.49 1452.69 L2280.75 1451.02 L2285.42 1451.02 L2285.42 1481.64 L2293.06 1481.64 L2293.06 1485.58 L2273.16 1485.58 L2273.16 1481.64 Z" fill="#000000" fill-rule="evenodd" fill-opacity="1" /><path clip-path="url(#clip770)" d="M2312.51 1454.1 Q2308.9 1454.1 2307.07 1457.66 Q2305.26 1461.2 2305.26 1468.33 Q2305.26 1475.44 2307.07 1479.01 Q2308.9 1482.55 2312.51 1482.55 Q2316.14 1482.55 2317.95 1479.01 Q2319.78 1475.44 2319.78 1468.33 Q2319.78 1461.2 2317.95 1457.66 Q2316.14 1454.1 2312.51 1454.1 M2312.51 1450.39 Q2318.32 1450.39 2321.37 1455 Q2324.45 1459.58 2324.45 1468.33 Q2324.45 1477.06 2321.37 1481.67 Q2318.32 1486.25 2312.51 1486.25 Q2306.7 1486.25 2303.62 1481.67 Q2300.56 1477.06 2300.56 1468.33 Q2300.56 1459.58 2303.62 1455 Q2306.7 1450.39 2312.51 1450.39 Z" fill="#000000" fill-rule="evenodd" fill-opacity="1" /><path clip-path="url(#clip770)" d="M2342.67 1454.1 Q2339.06 1454.1 2337.23 1457.66 Q2335.42 1461.2 2335.42 1468.33 Q2335.42 1475.44 2337.23 1479.01 Q2339.06 1482.55 2342.67 1482.55 Q2346.3 1482.55 2348.11 1479.01 Q2349.94 1475.44 2349.94 1468.33 Q2349.94 1461.2 2348.11 1457.66 Q2346.3 1454.1 2342.67 1454.1 M2342.67 1450.39 Q2348.48 1450.39 2351.54 1455 Q2354.61 1459.58 2354.61 1468.33 Q2354.61 1477.06 2351.54 1481.67 Q2348.48 1486.25 2342.67 1486.25 Q2336.86 1486.25 2333.78 1481.67 Q2330.73 1477.06 2330.73 1468.33 Q2330.73 1459.58 2333.78 1455 Q2336.86 1450.39 2342.67 1450.39 Z" fill="#000000" fill-rule="evenodd" fill-opacity="1" /><path clip-path="url(#clip770)" d="M1658.79 1525.81 L1658.79 1543.66 L1666.88 1543.66 Q1671.36 1543.66 1673.81 1541.34 Q1676.26 1539.02 1676.26 1534.72 Q1676.26 1530.45 1673.81 1528.13 Q1671.36 1525.81 1666.88 1525.81 L1658.79 1525.81 M1652.36 1520.52 L1666.88 1520.52 Q1674.86 1520.52 1678.94 1524.15 Q1683.04 1527.75 1683.04 1534.72 Q1683.04 1541.75 1678.94 1545.35 Q1674.86 1548.95 1666.88 1548.95 L1658.79 1548.95 L1658.79 1568.04 L1652.36 1568.04 L1652.36 1520.52 Z" fill="#000000" fill-rule="evenodd" fill-opacity="1" /><path clip-path="url(#clip770)" d="M1710.93 1537.87 Q1709.94 1537.3 1708.76 1537.04 Q1707.62 1536.76 1706.22 1536.76 Q1701.25 1536.76 1698.58 1540 Q1695.93 1543.22 1695.93 1549.27 L1695.93 1568.04 L1690.05 1568.04 L1690.05 1532.4 L1695.93 1532.4 L1695.93 1537.93 Q1697.78 1534.69 1700.74 1533.13 Q1703.7 1531.54 1707.93 1531.54 Q1708.54 1531.54 1709.27 1531.63 Q1710 1531.7 1710.89 1531.85 L1710.93 1537.87 Z" fill="#000000" fill-rule="evenodd" fill-opacity="1" /><path clip-path="url(#clip770)" d="M1746.13 1548.76 L1746.13 1551.62 L1719.2 1551.62 Q1719.58 1557.67 1722.83 1560.85 Q1726.11 1564 1731.93 1564 Q1735.31 1564 1738.46 1563.17 Q1741.64 1562.35 1744.76 1560.69 L1744.76 1566.23 Q1741.61 1567.57 1738.3 1568.27 Q1734.99 1568.97 1731.58 1568.97 Q1723.05 1568.97 1718.06 1564 Q1713.09 1559.04 1713.09 1550.57 Q1713.09 1541.82 1717.8 1536.69 Q1722.54 1531.54 1730.56 1531.54 Q1737.76 1531.54 1741.93 1536.18 Q1746.13 1540.8 1746.13 1548.76 M1740.27 1547.04 Q1740.21 1542.23 1737.57 1539.37 Q1734.96 1536.5 1730.63 1536.5 Q1725.73 1536.5 1722.77 1539.27 Q1719.84 1542.04 1719.39 1547.07 L1740.27 1547.04 Z" fill="#000000" fill-rule="evenodd" fill-opacity="1" /><path clip-path="url(#clip770)" d="M1778.47 1533.45 L1778.47 1538.98 Q1775.98 1537.71 1773.31 1537.07 Q1770.64 1536.44 1767.77 1536.44 Q1763.41 1536.44 1761.21 1537.77 Q1759.05 1539.11 1759.05 1541.79 Q1759.05 1543.82 1760.61 1545 Q1762.17 1546.15 1766.88 1547.2 L1768.89 1547.64 Q1775.12 1548.98 1777.73 1551.43 Q1780.38 1553.85 1780.38 1558.21 Q1780.38 1563.17 1776.43 1566.07 Q1772.51 1568.97 1765.64 1568.97 Q1762.77 1568.97 1759.66 1568.39 Q1756.57 1567.85 1753.13 1566.74 L1753.13 1560.69 Q1756.38 1562.38 1759.53 1563.24 Q1762.68 1564.07 1765.77 1564.07 Q1769.9 1564.07 1772.13 1562.66 Q1774.36 1561.23 1774.36 1558.65 Q1774.36 1556.27 1772.74 1554.99 Q1771.15 1553.72 1765.7 1552.54 L1763.67 1552.07 Q1758.22 1550.92 1755.8 1548.56 Q1753.39 1546.18 1753.39 1542.04 Q1753.39 1537.01 1756.95 1534.27 Q1760.51 1531.54 1767.07 1531.54 Q1770.32 1531.54 1773.18 1532.01 Q1776.05 1532.49 1778.47 1533.45 Z" fill="#000000" fill-rule="evenodd" fill-opacity="1" /><path clip-path="url(#clip770)" d="M1812.43 1533.45 L1812.43 1538.98 Q1809.94 1537.71 1807.27 1537.07 Q1804.6 1536.44 1801.73 1536.44 Q1797.37 1536.44 1795.18 1537.77 Q1793.01 1539.11 1793.01 1541.79 Q1793.01 1543.82 1794.57 1545 Q1796.13 1546.15 1800.84 1547.2 L1802.85 1547.64 Q1809.08 1548.98 1811.69 1551.43 Q1814.34 1553.85 1814.34 1558.21 Q1814.34 1563.17 1810.39 1566.07 Q1806.47 1568.97 1799.6 1568.97 Q1796.74 1568.97 1793.62 1568.39 Q1790.53 1567.85 1787.09 1566.74 L1787.09 1560.69 Q1790.34 1562.38 1793.49 1563.24 Q1796.64 1564.07 1799.73 1564.07 Q1803.87 1564.07 1806.09 1562.66 Q1808.32 1561.23 1808.32 1558.65 Q1808.32 1556.27 1806.7 1554.99 Q1805.11 1553.72 1799.66 1552.54 L1797.63 1552.07 Q1792.18 1550.92 1789.77 1548.56 Q1787.35 1546.18 1787.35 1542.04 Q1787.35 1537.01 1790.91 1534.27 Q1794.48 1531.54 1801.03 1531.54 Q1804.28 1531.54 1807.14 1532.01 Q1810.01 1532.49 1812.43 1533.45 Z" fill="#000000" fill-rule="evenodd" fill-opacity="1" /><path clip-path="url(#clip770)" d="M1823.06 1553.98 L1823.06 1532.4 L1828.91 1532.4 L1828.91 1553.75 Q1828.91 1558.81 1830.89 1561.36 Q1832.86 1563.87 1836.81 1563.87 Q1841.55 1563.87 1844.29 1560.85 Q1847.06 1557.83 1847.06 1552.61 L1847.06 1532.4 L1852.91 1532.4 L1852.91 1568.04 L1847.06 1568.04 L1847.06 1562.57 Q1844.92 1565.82 1842.09 1567.41 Q1839.29 1568.97 1835.57 1568.97 Q1829.42 1568.97 1826.24 1565.15 Q1823.06 1561.33 1823.06 1553.98 M1837.79 1531.54 L1837.79 1531.54 Z" fill="#000000" fill-rule="evenodd" fill-opacity="1" /><path clip-path="url(#clip770)" d="M1885.63 1537.87 Q1884.65 1537.3 1883.47 1537.04 Q1882.32 1536.76 1880.92 1536.76 Q1875.96 1536.76 1873.28 1540 Q1870.64 1543.22 1870.64 1549.27 L1870.64 1568.04 L1864.75 1568.04 L1864.75 1532.4 L1870.64 1532.4 L1870.64 1537.93 Q1872.49 1534.69 1875.45 1533.13 Q1878.41 1531.54 1882.64 1531.54 Q1883.25 1531.54 1883.98 1531.63 Q1884.71 1531.7 1885.6 1531.85 L1885.63 1537.87 Z" fill="#000000" fill-rule="evenodd" fill-opacity="1" /><path clip-path="url(#clip770)" d="M1920.83 1548.76 L1920.83 1551.62 L1893.91 1551.62 Q1894.29 1557.67 1897.54 1560.85 Q1900.81 1564 1906.64 1564 Q1910.01 1564 1913.16 1563.17 Q1916.35 1562.35 1919.47 1560.69 L1919.47 1566.23 Q1916.32 1567.57 1913.01 1568.27 Q1909.69 1568.97 1906.29 1568.97 Q1897.76 1568.97 1892.76 1564 Q1887.8 1559.04 1887.8 1550.57 Q1887.8 1541.82 1892.51 1536.69 Q1897.25 1531.54 1905.27 1531.54 Q1912.46 1531.54 1916.63 1536.18 Q1920.83 1540.8 1920.83 1548.76 M1914.98 1547.04 Q1914.91 1542.23 1912.27 1539.37 Q1909.66 1536.5 1905.33 1536.5 Q1900.43 1536.5 1897.47 1539.27 Q1894.54 1542.04 1894.1 1547.07 L1914.98 1547.04 Z" fill="#000000" fill-rule="evenodd" fill-opacity="1" /><path clip-path="url(#clip770)" d="M1950.63 1518.52 L1964.12 1518.52 L1964.12 1523.07 L1956.48 1523.07 L1956.48 1572.09 L1964.12 1572.09 L1964.12 1576.64 L1950.63 1576.64 L1950.63 1518.52 Z" fill="#000000" fill-rule="evenodd" fill-opacity="1" /><path clip-path="url(#clip770)" d="M1976.38 1518.52 L1982.26 1518.52 L1982.26 1547.77 L1999.74 1532.4 L2007.22 1532.4 L1988.31 1549.07 L2008.01 1568.04 L2000.37 1568.04 L1982.26 1550.63 L1982.26 1568.04 L1976.38 1568.04 L1976.38 1518.52 Z" fill="#000000" fill-rule="evenodd" fill-opacity="1" /><path clip-path="url(#clip770)" d="M2021.03 1525.81 L2021.03 1543.66 L2029.12 1543.66 Q2033.6 1543.66 2036.05 1541.34 Q2038.51 1539.02 2038.51 1534.72 Q2038.51 1530.45 2036.05 1528.13 Q2033.6 1525.81 2029.12 1525.81 L2021.03 1525.81 M2014.6 1520.52 L2029.12 1520.52 Q2037.1 1520.52 2041.18 1524.15 Q2045.28 1527.75 2045.28 1534.72 Q2045.28 1541.75 2041.18 1545.35 Q2037.1 1548.95 2029.12 1548.95 L2021.03 1548.95 L2021.03 1568.04 L2014.6 1568.04 L2014.6 1520.52 Z" fill="#000000" fill-rule="evenodd" fill-opacity="1" /><path clip-path="url(#clip770)" d="M2066.93 1550.12 Q2059.83 1550.12 2057.09 1551.75 Q2054.36 1553.37 2054.36 1557.29 Q2054.36 1560.4 2056.39 1562.25 Q2058.46 1564.07 2061.99 1564.07 Q2066.86 1564.07 2069.79 1560.63 Q2072.75 1557.16 2072.75 1551.43 L2072.75 1550.12 L2066.93 1550.12 M2078.61 1547.71 L2078.61 1568.04 L2072.75 1568.04 L2072.75 1562.63 Q2070.75 1565.88 2067.76 1567.44 Q2064.76 1568.97 2060.43 1568.97 Q2054.96 1568.97 2051.71 1565.91 Q2048.5 1562.82 2048.5 1557.67 Q2048.5 1551.65 2052.51 1548.6 Q2056.55 1545.54 2064.54 1545.54 L2072.75 1545.54 L2072.75 1544.97 Q2072.75 1540.93 2070.08 1538.73 Q2067.44 1536.5 2062.63 1536.5 Q2059.58 1536.5 2056.68 1537.23 Q2053.78 1537.97 2051.11 1539.43 L2051.11 1534.02 Q2054.32 1532.78 2057.35 1532.17 Q2060.37 1531.54 2063.24 1531.54 Q2070.97 1531.54 2074.79 1535.55 Q2078.61 1539.56 2078.61 1547.71 Z" fill="#000000" fill-rule="evenodd" fill-opacity="1" /><path clip-path="url(#clip770)" d="M2104.36 1518.52 L2104.36 1576.64 L2090.86 1576.64 L2090.86 1572.09 L2098.47 1572.09 L2098.47 1523.07 L2090.86 1523.07 L2090.86 1518.52 L2104.36 1518.52 Z" fill="#000000" fill-rule="evenodd" fill-opacity="1" /><polyline clip-path="url(#clip773)" style="stroke:#000000; stroke-linecap:butt; stroke-linejoin:round; stroke-width:2; stroke-opacity:0.1; fill:none" points="
  1403.96,1386.4 2352.76,1386.4 
  "/>
<polyline clip-path="url(#clip773)" style="stroke:#000000; stroke-linecap:butt; stroke-linejoin:round; stroke-width:2; stroke-opacity:0.1; fill:none" points="
  1403.96,1141.17 2352.76,1141.17 
  "/>
<polyline clip-path="url(#clip773)" style="stroke:#000000; stroke-linecap:butt; stroke-linejoin:round; stroke-width:2; stroke-opacity:0.1; fill:none" points="
  1403.96,895.94 2352.76,895.94 
  "/>
<polyline clip-path="url(#clip773)" style="stroke:#000000; stroke-linecap:butt; stroke-linejoin:round; stroke-width:2; stroke-opacity:0.1; fill:none" points="
  1403.96,650.712 2352.76,650.712 
  "/>
<polyline clip-path="url(#clip773)" style="stroke:#000000; stroke-linecap:butt; stroke-linejoin:round; stroke-width:2; stroke-opacity:0.1; fill:none" points="
  1403.96,405.484 2352.76,405.484 
  "/>
<polyline clip-path="url(#clip773)" style="stroke:#000000; stroke-linecap:butt; stroke-linejoin:round; stroke-width:2; stroke-opacity:0.1; fill:none" points="
  1403.96,160.256 2352.76,160.256 
  "/>
<polyline clip-path="url(#clip770)" style="stroke:#000000; stroke-linecap:butt; stroke-linejoin:round; stroke-width:4; stroke-opacity:1; fill:none" points="
  1403.96,1423.18 1403.96,123.472 
  "/>
<polyline clip-path="url(#clip770)" style="stroke:#000000; stroke-linecap:butt; stroke-linejoin:round; stroke-width:4; stroke-opacity:1; fill:none" points="
  1403.96,1386.4 1422.86,1386.4 
  "/>
<polyline clip-path="url(#clip770)" style="stroke:#000000; stroke-linecap:butt; stroke-linejoin:round; stroke-width:4; stroke-opacity:1; fill:none" points="
  1403.96,1141.17 1422.86,1141.17 
  "/>
<polyline clip-path="url(#clip770)" style="stroke:#000000; stroke-linecap:butt; stroke-linejoin:round; stroke-width:4; stroke-opacity:1; fill:none" points="
  1403.96,895.94 1422.86,895.94 
  "/>
<polyline clip-path="url(#clip770)" style="stroke:#000000; stroke-linecap:butt; stroke-linejoin:round; stroke-width:4; stroke-opacity:1; fill:none" points="
  1403.96,650.712 1422.86,650.712 
  "/>
<polyline clip-path="url(#clip770)" style="stroke:#000000; stroke-linecap:butt; stroke-linejoin:round; stroke-width:4; stroke-opacity:1; fill:none" points="
  1403.96,405.484 1422.86,405.484 
  "/>
<polyline clip-path="url(#clip770)" style="stroke:#000000; stroke-linecap:butt; stroke-linejoin:round; stroke-width:4; stroke-opacity:1; fill:none" points="
  1403.96,160.256 1422.86,160.256 
  "/>
<path clip-path="url(#clip770)" d="M1356.02 1372.19 Q1352.41 1372.19 1350.58 1375.76 Q1348.77 1379.3 1348.77 1386.43 Q1348.77 1393.54 1350.58 1397.1 Q1352.41 1400.64 1356.02 1400.64 Q1359.65 1400.64 1361.46 1397.1 Q1363.29 1393.54 1363.29 1386.43 Q1363.29 1379.3 1361.46 1375.76 Q1359.65 1372.19 1356.02 1372.19 M1356.02 1368.49 Q1361.83 1368.49 1364.88 1373.1 Q1367.96 1377.68 1367.96 1386.43 Q1367.96 1395.16 1364.88 1399.76 Q1361.83 1404.35 1356.02 1404.35 Q1350.21 1404.35 1347.13 1399.76 Q1344.07 1395.16 1344.07 1386.43 Q1344.07 1377.68 1347.13 1373.1 Q1350.21 1368.49 1356.02 1368.49 Z" fill="#000000" fill-rule="evenodd" fill-opacity="1" /><path clip-path="url(#clip770)" d="M1347.06 1123.89 L1365.42 1123.89 L1365.42 1127.82 L1351.34 1127.82 L1351.34 1136.3 Q1352.36 1135.95 1353.38 1135.79 Q1354.4 1135.6 1355.42 1135.6 Q1361.2 1135.6 1364.58 1138.77 Q1367.96 1141.94 1367.96 1147.36 Q1367.96 1152.94 1364.49 1156.04 Q1361.02 1159.12 1354.7 1159.12 Q1352.52 1159.12 1350.26 1158.75 Q1348.01 1158.38 1345.6 1157.64 L1345.6 1152.94 Q1347.69 1154.07 1349.91 1154.63 Q1352.13 1155.18 1354.61 1155.18 Q1358.61 1155.18 1360.95 1153.08 Q1363.29 1150.97 1363.29 1147.36 Q1363.29 1143.75 1360.95 1141.64 Q1358.61 1139.54 1354.61 1139.54 Q1352.73 1139.54 1350.86 1139.95 Q1349.01 1140.37 1347.06 1141.25 L1347.06 1123.89 Z" fill="#000000" fill-rule="evenodd" fill-opacity="1" /><path clip-path="url(#clip770)" d="M1316.67 909.285 L1324.31 909.285 L1324.31 882.919 L1316 884.586 L1316 880.327 L1324.26 878.66 L1328.94 878.66 L1328.94 909.285 L1336.57 909.285 L1336.57 913.22 L1316.67 913.22 L1316.67 909.285 Z" fill="#000000" fill-rule="evenodd" fill-opacity="1" /><path clip-path="url(#clip770)" d="M1356.02 881.739 Q1352.41 881.739 1350.58 885.303 Q1348.77 888.845 1348.77 895.975 Q1348.77 903.081 1350.58 906.646 Q1352.41 910.188 1356.02 910.188 Q1359.65 910.188 1361.46 906.646 Q1363.29 903.081 1363.29 895.975 Q1363.29 888.845 1361.46 885.303 Q1359.65 881.739 1356.02 881.739 M1356.02 878.035 Q1361.83 878.035 1364.88 882.641 Q1367.96 887.225 1367.96 895.975 Q1367.96 904.701 1364.88 909.308 Q1361.83 913.891 1356.02 913.891 Q1350.21 913.891 1347.13 909.308 Q1344.07 904.701 1344.07 895.975 Q1344.07 887.225 1347.13 882.641 Q1350.21 878.035 1356.02 878.035 Z" fill="#000000" fill-rule="evenodd" fill-opacity="1" /><path clip-path="url(#clip770)" d="M1317.66 664.057 L1325.3 664.057 L1325.3 637.691 L1316.99 639.358 L1316.99 635.099 L1325.26 633.432 L1329.93 633.432 L1329.93 664.057 L1337.57 664.057 L1337.57 667.992 L1317.66 667.992 L1317.66 664.057 Z" fill="#000000" fill-rule="evenodd" fill-opacity="1" /><path clip-path="url(#clip770)" d="M1347.06 633.432 L1365.42 633.432 L1365.42 637.367 L1351.34 637.367 L1351.34 645.839 Q1352.36 645.492 1353.38 645.33 Q1354.4 645.145 1355.42 645.145 Q1361.2 645.145 1364.58 648.316 Q1367.96 651.488 1367.96 656.904 Q1367.96 662.483 1364.49 665.585 Q1361.02 668.663 1354.7 668.663 Q1352.52 668.663 1350.26 668.293 Q1348.01 667.923 1345.6 667.182 L1345.6 662.483 Q1347.69 663.617 1349.91 664.173 Q1352.13 664.728 1354.61 664.728 Q1358.61 664.728 1360.95 662.622 Q1363.29 660.515 1363.29 656.904 Q1363.29 653.293 1360.95 651.187 Q1358.61 649.08 1354.61 649.08 Q1352.73 649.08 1350.86 649.497 Q1349.01 649.913 1347.06 650.793 L1347.06 633.432 Z" fill="#000000" fill-rule="evenodd" fill-opacity="1" /><path clip-path="url(#clip770)" d="M1319.89 418.829 L1336.2 418.829 L1336.2 422.764 L1314.26 422.764 L1314.26 418.829 Q1316.92 416.074 1321.51 411.445 Q1326.11 406.792 1327.29 405.449 Q1329.54 402.926 1330.42 401.19 Q1331.32 399.431 1331.32 397.741 Q1331.32 394.987 1329.38 393.25 Q1327.45 391.514 1324.35 391.514 Q1322.15 391.514 1319.7 392.278 Q1317.27 393.042 1314.49 394.593 L1314.49 389.871 Q1317.32 388.737 1319.77 388.158 Q1322.22 387.579 1324.26 387.579 Q1329.63 387.579 1332.82 390.264 Q1336.02 392.95 1336.02 397.44 Q1336.02 399.57 1335.21 401.491 Q1334.42 403.389 1332.32 405.982 Q1331.74 406.653 1328.64 409.871 Q1325.53 413.065 1319.89 418.829 Z" fill="#000000" fill-rule="evenodd" fill-opacity="1" /><path clip-path="url(#clip770)" d="M1356.02 391.283 Q1352.41 391.283 1350.58 394.848 Q1348.77 398.389 1348.77 405.519 Q1348.77 412.625 1350.58 416.19 Q1352.41 419.732 1356.02 419.732 Q1359.65 419.732 1361.46 416.19 Q1363.29 412.625 1363.29 405.519 Q1363.29 398.389 1361.46 394.848 Q1359.65 391.283 1356.02 391.283 M1356.02 387.579 Q1361.83 387.579 1364.88 392.186 Q1367.96 396.769 1367.96 405.519 Q1367.96 414.246 1364.88 418.852 Q1361.83 423.435 1356.02 423.435 Q1350.21 423.435 1347.13 418.852 Q1344.07 414.246 1344.07 405.519 Q1344.07 396.769 1347.13 392.186 Q1350.21 387.579 1356.02 387.579 Z" fill="#000000" fill-rule="evenodd" fill-opacity="1" /><path clip-path="url(#clip770)" d="M1320.88 173.601 L1337.2 173.601 L1337.2 177.536 L1315.26 177.536 L1315.26 173.601 Q1317.92 170.847 1322.5 166.217 Q1327.11 161.564 1328.29 160.222 Q1330.53 157.698 1331.41 155.962 Q1332.32 154.203 1332.32 152.513 Q1332.32 149.759 1330.37 148.023 Q1328.45 146.286 1325.35 146.286 Q1323.15 146.286 1320.7 147.05 Q1318.26 147.814 1315.49 149.365 L1315.49 144.643 Q1318.31 143.509 1320.76 142.93 Q1323.22 142.351 1325.26 142.351 Q1330.63 142.351 1333.82 145.036 Q1337.01 147.722 1337.01 152.212 Q1337.01 154.342 1336.2 156.263 Q1335.42 158.161 1333.31 160.754 Q1332.73 161.425 1329.63 164.643 Q1326.53 167.837 1320.88 173.601 Z" fill="#000000" fill-rule="evenodd" fill-opacity="1" /><path clip-path="url(#clip770)" d="M1347.06 142.976 L1365.42 142.976 L1365.42 146.911 L1351.34 146.911 L1351.34 155.384 Q1352.36 155.036 1353.38 154.874 Q1354.4 154.689 1355.42 154.689 Q1361.2 154.689 1364.58 157.86 Q1367.96 161.032 1367.96 166.448 Q1367.96 172.027 1364.49 175.129 Q1361.02 178.208 1354.7 178.208 Q1352.52 178.208 1350.26 177.837 Q1348.01 177.467 1345.6 176.726 L1345.6 172.027 Q1347.69 173.161 1349.91 173.717 Q1352.13 174.272 1354.61 174.272 Q1358.61 174.272 1360.95 172.166 Q1363.29 170.059 1363.29 166.448 Q1363.29 162.837 1360.95 160.731 Q1358.61 158.624 1354.61 158.624 Q1352.73 158.624 1350.86 159.041 Q1349.01 159.458 1347.06 160.337 L1347.06 142.976 Z" fill="#000000" fill-rule="evenodd" fill-opacity="1" /><path clip-path="url(#clip770)" d="M1228.36 871.851 L1228.36 844.033 L1233.7 844.033 L1259.33 866.058 L1259.33 844.033 L1264 844.033 L1264 872.647 L1258.66 872.647 L1233.03 850.622 L1233.03 871.851 L1228.36 871.851 Z" fill="#000000" fill-rule="evenodd" fill-opacity="1" /><path clip-path="url(#clip770)" d="M1214.48 814.91 L1214.48 801.415 L1219.03 801.415 L1219.03 809.054 L1268.05 809.054 L1268.05 801.415 L1272.6 801.415 L1272.6 814.91 L1214.48 814.91 Z" fill="#000000" fill-rule="evenodd" fill-opacity="1" /><path clip-path="url(#clip770)" d="M1214.48 789.161 L1214.48 783.272 L1243.73 783.272 L1228.36 765.799 L1228.36 758.319 L1245.03 777.225 L1264 757.523 L1264 765.162 L1246.59 783.272 L1264 783.272 L1264 789.161 L1214.48 789.161 Z" fill="#000000" fill-rule="evenodd" fill-opacity="1" /><path clip-path="url(#clip770)" d="M1235.2 723.435 Q1231.25 721.239 1229.37 718.183 Q1227.5 715.128 1227.5 710.99 Q1227.5 705.42 1231.41 702.396 Q1235.29 699.372 1242.49 699.372 L1264 699.372 L1264 705.261 L1242.68 705.261 Q1237.55 705.261 1235.07 707.075 Q1232.59 708.889 1232.59 712.613 Q1232.59 717.165 1235.61 719.806 Q1238.64 722.448 1243.86 722.448 L1264 722.448 L1264 728.336 L1242.68 728.336 Q1237.52 728.336 1235.07 730.151 Q1232.59 731.965 1232.59 735.752 Q1232.59 740.24 1235.64 742.882 Q1238.67 745.524 1243.86 745.524 L1264 745.524 L1264 751.412 L1228.36 751.412 L1228.36 745.524 L1233.89 745.524 Q1230.62 743.519 1229.06 740.718 Q1227.5 737.917 1227.5 734.065 Q1227.5 730.182 1229.47 727.477 Q1231.44 724.74 1235.2 723.435 Z" fill="#000000" fill-rule="evenodd" fill-opacity="1" /><path clip-path="url(#clip770)" d="M1214.48 674.005 L1272.6 674.005 L1272.6 687.5 L1268.05 687.5 L1268.05 679.893 L1219.03 679.893 L1219.03 687.5 L1214.48 687.5 L1214.48 674.005 Z" fill="#000000" fill-rule="evenodd" fill-opacity="1" /><path clip-path="url(#clip770)" d="M1665.34 12.096 L1673.53 12.096 L1673.53 72.576 L1665.34 72.576 L1665.34 12.096 Z" fill="#000000" fill-rule="evenodd" fill-opacity="1" /><path clip-path="url(#clip770)" d="M1718.41 28.5427 L1718.41 35.5912 Q1715.25 33.9709 1711.85 33.1607 Q1708.44 32.3505 1704.8 32.3505 Q1699.25 32.3505 1696.45 34.0519 Q1693.7 35.7533 1693.7 39.156 Q1693.7 41.7486 1695.68 43.2475 Q1697.67 44.7058 1703.66 46.0426 L1706.22 46.6097 Q1714.16 48.3111 1717.48 51.4303 Q1720.84 54.509 1720.84 60.0587 Q1720.84 66.3781 1715.82 70.0644 Q1710.83 73.7508 1702.08 73.7508 Q1698.44 73.7508 1694.47 73.0216 Q1690.54 72.3329 1686.16 70.9151 L1686.16 63.2184 Q1690.3 65.3654 1694.31 66.4591 Q1698.32 67.5124 1702.25 67.5124 Q1707.51 67.5124 1710.35 65.73 Q1713.18 63.9071 1713.18 60.6258 Q1713.18 57.5877 1711.12 55.9673 Q1709.09 54.3469 1702.17 52.8481 L1699.57 52.2405 Q1692.65 50.7821 1689.57 47.7845 Q1686.49 44.7463 1686.49 39.4801 Q1686.49 33.0797 1691.03 29.5959 Q1695.56 26.1121 1703.91 26.1121 Q1708.04 26.1121 1711.69 26.7198 Q1715.33 27.3274 1718.41 28.5427 Z" fill="#000000" fill-rule="evenodd" fill-opacity="1" /><path clip-path="url(#clip770)" d="M1750.29 32.4315 Q1744.3 32.4315 1740.81 37.1306 Q1737.33 41.7891 1737.33 49.9314 Q1737.33 58.0738 1740.77 62.7728 Q1744.25 67.4314 1750.29 67.4314 Q1756.25 67.4314 1759.73 62.7323 Q1763.21 58.0333 1763.21 49.9314 Q1763.21 41.8701 1759.73 37.1711 Q1756.25 32.4315 1750.29 32.4315 M1750.29 26.1121 Q1760.01 26.1121 1765.56 32.4315 Q1771.11 38.7509 1771.11 49.9314 Q1771.11 61.0714 1765.56 67.4314 Q1760.01 73.7508 1750.29 73.7508 Q1740.53 73.7508 1734.98 67.4314 Q1729.47 61.0714 1729.47 49.9314 Q1729.47 38.7509 1734.98 32.4315 Q1740.53 26.1121 1750.29 26.1121 Z" fill="#000000" fill-rule="evenodd" fill-opacity="1" /><path clip-path="url(#clip770)" d="M1790.84 14.324 L1790.84 27.2059 L1806.19 27.2059 L1806.19 32.9987 L1790.84 32.9987 L1790.84 57.6282 Q1790.84 63.1779 1792.34 64.7578 Q1793.88 66.3376 1798.54 66.3376 L1806.19 66.3376 L1806.19 72.576 L1798.54 72.576 Q1789.91 72.576 1786.63 69.3758 Q1783.35 66.1351 1783.35 57.6282 L1783.35 32.9987 L1777.88 32.9987 L1777.88 27.2059 L1783.35 27.2059 L1783.35 14.324 L1790.84 14.324 Z" fill="#000000" fill-rule="evenodd" fill-opacity="1" /><path clip-path="url(#clip770)" d="M1853.71 45.1919 L1853.71 72.576 L1846.26 72.576 L1846.26 45.4349 Q1846.26 38.994 1843.74 35.7938 Q1841.23 32.5936 1836.21 32.5936 Q1830.17 32.5936 1826.69 36.4419 Q1823.21 40.2903 1823.21 46.9338 L1823.21 72.576 L1815.71 72.576 L1815.71 9.54393 L1823.21 9.54393 L1823.21 34.2544 Q1825.88 30.163 1829.49 28.1376 Q1833.13 26.1121 1837.87 26.1121 Q1845.69 26.1121 1849.7 30.9732 Q1853.71 35.7938 1853.71 45.1919 Z" fill="#000000" fill-rule="evenodd" fill-opacity="1" /><path clip-path="url(#clip770)" d="M1907.38 48.0275 L1907.38 51.6733 L1873.11 51.6733 Q1873.6 59.3701 1877.73 63.421 Q1881.9 67.4314 1889.32 67.4314 Q1893.61 67.4314 1897.62 66.3781 Q1901.67 65.3249 1905.64 63.2184 L1905.64 70.267 Q1901.63 71.9684 1897.42 72.8596 Q1893.21 73.7508 1888.87 73.7508 Q1878.02 73.7508 1871.66 67.4314 Q1865.34 61.1119 1865.34 50.3365 Q1865.34 39.1965 1871.33 32.6746 Q1877.37 26.1121 1887.58 26.1121 Q1896.73 26.1121 1902.04 32.0264 Q1907.38 37.9003 1907.38 48.0275 M1899.93 45.84 Q1899.85 39.7232 1896.49 36.0774 Q1893.17 32.4315 1887.66 32.4315 Q1881.42 32.4315 1877.65 35.9558 Q1873.92 39.4801 1873.36 45.8805 L1899.93 45.84 Z" fill="#000000" fill-rule="evenodd" fill-opacity="1" /><path clip-path="url(#clip770)" d="M1945.91 34.1734 Q1944.65 33.4443 1943.15 33.1202 Q1941.7 32.7556 1939.91 32.7556 Q1933.59 32.7556 1930.19 36.8875 Q1926.83 40.9789 1926.83 48.6757 L1926.83 72.576 L1919.33 72.576 L1919.33 27.2059 L1926.83 27.2059 L1926.83 34.2544 Q1929.18 30.1225 1932.95 28.1376 Q1936.71 26.1121 1942.1 26.1121 Q1942.87 26.1121 1943.8 26.2337 Q1944.73 26.3147 1945.87 26.5172 L1945.91 34.1734 Z" fill="#000000" fill-rule="evenodd" fill-opacity="1" /><path clip-path="url(#clip770)" d="M1987.59 35.9153 Q1990.39 30.8922 1994.28 28.5022 Q1998.17 26.1121 2003.43 26.1121 Q2010.52 26.1121 2014.37 31.0947 Q2018.22 36.0368 2018.22 45.1919 L2018.22 72.576 L2010.72 72.576 L2010.72 45.4349 Q2010.72 38.913 2008.41 35.7533 Q2006.11 32.5936 2001.37 32.5936 Q1995.57 32.5936 1992.21 36.4419 Q1988.85 40.2903 1988.85 46.9338 L1988.85 72.576 L1981.35 72.576 L1981.35 45.4349 Q1981.35 38.8725 1979.04 35.7533 Q1976.74 32.5936 1971.92 32.5936 Q1966.2 32.5936 1962.84 36.4824 Q1959.48 40.3308 1959.48 46.9338 L1959.48 72.576 L1951.98 72.576 L1951.98 27.2059 L1959.48 27.2059 L1959.48 34.2544 Q1962.03 30.082 1965.6 28.0971 Q1969.16 26.1121 1974.06 26.1121 Q1979 26.1121 1982.45 28.6237 Q1985.93 31.1352 1987.59 35.9153 Z" fill="#000000" fill-rule="evenodd" fill-opacity="1" /><path clip-path="url(#clip770)" d="M2053.7 49.7694 Q2044.67 49.7694 2041.19 51.8354 Q2037.7 53.9013 2037.7 58.8839 Q2037.7 62.8538 2040.29 65.2034 Q2042.93 67.5124 2047.42 67.5124 Q2053.62 67.5124 2057.35 63.1374 Q2061.12 58.7219 2061.12 51.4303 L2061.12 49.7694 L2053.7 49.7694 M2068.57 46.6907 L2068.57 72.576 L2061.12 72.576 L2061.12 65.6895 Q2058.56 69.8214 2054.76 71.8063 Q2050.95 73.7508 2045.44 73.7508 Q2038.47 73.7508 2034.34 69.8619 Q2030.25 65.9325 2030.25 59.3701 Q2030.25 51.7138 2035.35 47.825 Q2040.5 43.9361 2050.66 43.9361 L2061.12 43.9361 L2061.12 43.2069 Q2061.12 38.0623 2057.71 35.2672 Q2054.35 32.4315 2048.23 32.4315 Q2044.35 32.4315 2040.66 33.3632 Q2036.97 34.295 2033.57 36.1584 L2033.57 29.2718 Q2037.66 27.692 2041.51 26.9223 Q2045.36 26.1121 2049 26.1121 Q2058.85 26.1121 2063.71 31.2163 Q2068.57 36.3204 2068.57 46.6907 Z" fill="#000000" fill-rule="evenodd" fill-opacity="1" /><path clip-path="url(#clip770)" d="M2083.92 9.54393 L2091.38 9.54393 L2091.38 72.576 L2083.92 72.576 L2083.92 9.54393 Z" fill="#000000" fill-rule="evenodd" fill-opacity="1" /><polyline clip-path="url(#clip773)" style="stroke:#009af9; stroke-linecap:butt; stroke-linejoin:round; stroke-width:4; stroke-opacity:1; fill:none" points="
  2325.9,1386.4 2270.77,1361.37 2218.85,1336.35 2169.96,1311.33 2123.93,1286.3 2080.58,1261.28 2039.76,1236.26 2001.33,1211.23 1965.14,1186.21 1931.06,1161.19 
  1898.96,1136.16 1868.75,1111.14 1840.29,1086.12 1813.5,1061.09 1788.27,1036.07 1764.51,1011.05 1742.14,986.024 1721.08,961 1701.24,935.977 1682.56,910.954 
  1664.97,885.931 1648.41,860.907 1632.82,835.884 1618.13,810.861 1604.3,785.838 1591.28,760.814 1579.02,735.791 1567.48,710.768 1556.61,685.745 1546.37,660.721 
  1536.73,635.698 1527.65,610.675 1519.11,585.652 1511.06,560.628 1503.48,535.605 1496.34,510.582 1489.62,485.559 1483.29,460.535 1477.34,435.512 1471.73,410.489 
  1466.44,385.466 1461.47,360.442 1456.78,335.419 1452.37,310.396 1448.22,285.373 1444.31,260.349 1440.62,235.326 1437.16,210.303 1433.89,185.28 1430.82,160.256 
  
  "/>
<path clip-path="url(#clip770)" d="
M2163.28 270.476 L2321.13 270.476 L2321.13 166.796 L2163.28 166.796  Z
  " fill="#ffffff" fill-rule="evenodd" fill-opacity="1"/>
<polyline clip-path="url(#clip770)" style="stroke:#000000; stroke-linecap:butt; stroke-linejoin:round; stroke-width:4; stroke-opacity:1; fill:none" points="
  2163.28,270.476 2321.13,270.476 2321.13,166.796 2163.28,166.796 2163.28,270.476 
  "/>
<polyline clip-path="url(#clip770)" style="stroke:#009af9; stroke-linecap:butt; stroke-linejoin:round; stroke-width:4; stroke-opacity:1; fill:none" points="
  2173.82,218.636 2237.07,218.636 
  "/>
<path clip-path="url(#clip770)" d="M2261.46 238.323 Q2259.65 242.953 2257.94 244.365 Q2256.23 245.777 2253.36 245.777 L2249.95 245.777 L2249.95 242.212 L2252.45 242.212 Q2254.21 242.212 2255.18 241.379 Q2256.16 240.545 2257.34 237.443 L2258.1 235.499 L2247.61 209.99 L2252.13 209.99 L2260.23 230.268 L2268.33 209.99 L2272.85 209.99 L2261.46 238.323 Z" fill="#000000" fill-rule="evenodd" fill-opacity="1" /><path clip-path="url(#clip770)" d="M2280.14 231.981 L2287.78 231.981 L2287.78 205.615 L2279.47 207.282 L2279.47 203.022 L2287.73 201.356 L2292.41 201.356 L2292.41 231.981 L2300.05 231.981 L2300.05 235.916 L2280.14 235.916 L2280.14 231.981 Z" fill="#000000" fill-rule="evenodd" fill-opacity="1" /></svg>
