<?xml version="1.0" encoding="utf-8"?>
<svg xmlns="http://www.w3.org/2000/svg" xmlns:xlink="http://www.w3.org/1999/xlink" width="600" height="400" viewBox="0 0 2400 1600">
<defs>
  <clipPath id="clip350">
    <rect x="0" y="0" width="2400" height="1600"/>
  </clipPath>
</defs>
<path clip-path="url(#clip350)" d="
M0 1600 L2400 1600 L2400 0 L0 0  Z
  " fill="#ffffff" fill-rule="evenodd" fill-opacity="1"/>
<defs>
  <clipPath id="clip351">
    <rect x="480" y="0" width="1681" height="1600"/>
  </clipPath>
</defs>
<path clip-path="url(#clip350)" d="
M102.74 1505.26 L1152.76 1505.26 L1152.76 62.9921 L102.74 62.9921  Z
  " fill="#ffffff" fill-rule="evenodd" fill-opacity="1"/>
<defs>
  <clipPath id="clip352">
    <rect x="102" y="62" width="1051" height="1443"/>
  </clipPath>
</defs>
<polyline clip-path="url(#clip352)" style="stroke:#000000; stroke-linecap:butt; stroke-linejoin:round; stroke-width:2; stroke-opacity:0.1; fill:none" points="
  132.458,1505.26 132.458,62.9921 
  "/>
<polyline clip-path="url(#clip352)" style="stroke:#000000; stroke-linecap:butt; stroke-linejoin:round; stroke-width:2; stroke-opacity:0.1; fill:none" points="
  380.103,1505.26 380.103,62.9921 
  "/>
<polyline clip-path="url(#clip352)" style="stroke:#000000; stroke-linecap:butt; stroke-linejoin:round; stroke-width:2; stroke-opacity:0.1; fill:none" points="
  627.748,1505.26 627.748,62.9921 
  "/>
<polyline clip-path="url(#clip352)" style="stroke:#000000; stroke-linecap:butt; stroke-linejoin:round; stroke-width:2; stroke-opacity:0.1; fill:none" points="
  875.393,1505.26 875.393,62.9921 
  "/>
<polyline clip-path="url(#clip352)" style="stroke:#000000; stroke-linecap:butt; stroke-linejoin:round; stroke-width:2; stroke-opacity:0.1; fill:none" points="
  1123.04,1505.26 1123.04,62.9921 
  "/>
<polyline clip-path="url(#clip350)" style="stroke:#000000; stroke-linecap:butt; stroke-linejoin:round; stroke-width:4; stroke-opacity:1; fill:none" points="
  102.74,1505.26 1152.76,1505.26 
  "/>
<polyline clip-path="url(#clip350)" style="stroke:#000000; stroke-linecap:butt; stroke-linejoin:round; stroke-width:4; stroke-opacity:1; fill:none" points="
  132.458,1505.26 132.458,1487.95 
  "/>
<polyline clip-path="url(#clip350)" style="stroke:#000000; stroke-linecap:butt; stroke-linejoin:round; stroke-width:4; stroke-opacity:1; fill:none" points="
  380.103,1505.26 380.103,1487.95 
  "/>
<polyline clip-path="url(#clip350)" style="stroke:#000000; stroke-linecap:butt; stroke-linejoin:round; stroke-width:4; stroke-opacity:1; fill:none" points="
  627.748,1505.26 627.748,1487.95 
  "/>
<polyline clip-path="url(#clip350)" style="stroke:#000000; stroke-linecap:butt; stroke-linejoin:round; stroke-width:4; stroke-opacity:1; fill:none" points="
  875.393,1505.26 875.393,1487.95 
  "/>
<polyline clip-path="url(#clip350)" style="stroke:#000000; stroke-linecap:butt; stroke-linejoin:round; stroke-width:4; stroke-opacity:1; fill:none" points="
  1123.04,1505.26 1123.04,1487.95 
  "/>
<path clip-path="url(#clip350)" d="M58.4534 1562 L74.7727 1562 L74.7727 1565.93 L52.8284 1565.93 L52.8284 1562 Q55.4904 1559.24 60.0737 1554.61 Q64.6802 1549.96 65.8607 1548.62 Q68.1061 1546.09 68.9857 1544.36 Q69.8885 1542.6 69.8885 1540.91 Q69.8885 1538.15 67.944 1536.42 Q66.0228 1534.68 62.9209 1534.68 Q60.7219 1534.68 58.2682 1535.45 Q55.8376 1536.21 53.0599 1537.76 L53.0599 1533.04 Q55.8839 1531.9 58.3376 1531.33 Q60.7913 1530.75 62.8283 1530.75 Q68.1987 1530.75 71.3931 1533.43 Q74.5875 1536.12 74.5875 1540.61 Q74.5875 1542.74 73.7773 1544.66 Q72.9903 1546.56 70.8838 1549.15 Q70.3051 1549.82 67.2033 1553.04 Q64.1015 1556.23 58.4534 1562 Z" fill="#000000" fill-rule="evenodd" fill-opacity="1" /><path clip-path="url(#clip350)" d="M84.7264 1565.21 L84.7264 1560.96 Q86.4856 1561.79 88.2912 1562.23 Q90.0967 1562.67 91.8328 1562.67 Q96.4624 1562.67 98.8929 1559.57 Q101.347 1556.44 101.694 1550.1 Q100.351 1552.09 98.2911 1553.15 Q96.2309 1554.22 93.7309 1554.22 Q88.5458 1554.22 85.5134 1551.09 Q82.5041 1547.95 82.5041 1542.51 Q82.5041 1537.18 85.6523 1533.96 Q88.8004 1530.75 94.0319 1530.75 Q100.027 1530.75 103.175 1535.35 Q106.347 1539.94 106.347 1548.69 Q106.347 1556.86 102.458 1561.74 Q98.592 1566.6 92.0411 1566.6 Q90.2819 1566.6 88.4763 1566.26 Q86.6708 1565.91 84.7264 1565.21 M94.0319 1550.56 Q97.18 1550.56 99.0087 1548.41 Q100.861 1546.26 100.861 1542.51 Q100.861 1538.78 99.0087 1536.63 Q97.18 1534.45 94.0319 1534.45 Q90.8837 1534.45 89.0319 1536.63 Q87.2032 1538.78 87.2032 1542.51 Q87.2032 1546.26 89.0319 1548.41 Q90.8837 1550.56 94.0319 1550.56 Z" fill="#000000" fill-rule="evenodd" fill-opacity="1" /><path clip-path="url(#clip350)" d="M124.749 1534.45 Q121.138 1534.45 119.31 1538.02 Q117.504 1541.56 117.504 1548.69 Q117.504 1555.79 119.31 1559.36 Q121.138 1562.9 124.749 1562.9 Q128.384 1562.9 130.189 1559.36 Q132.018 1555.79 132.018 1548.69 Q132.018 1541.56 130.189 1538.02 Q128.384 1534.45 124.749 1534.45 M124.749 1530.75 Q130.559 1530.75 133.615 1535.35 Q136.694 1539.94 136.694 1548.69 Q136.694 1557.41 133.615 1562.02 Q130.559 1566.6 124.749 1566.6 Q118.939 1566.6 115.86 1562.02 Q112.805 1557.41 112.805 1548.69 Q112.805 1539.94 115.86 1535.35 Q118.939 1530.75 124.749 1530.75 Z" fill="#000000" fill-rule="evenodd" fill-opacity="1" /><path clip-path="url(#clip350)" d="M144.911 1560.05 L149.795 1560.05 L149.795 1565.93 L144.911 1565.93 L144.911 1560.05 Z" fill="#000000" fill-rule="evenodd" fill-opacity="1" /><path clip-path="url(#clip350)" d="M169.981 1534.45 Q166.369 1534.45 164.541 1538.02 Q162.735 1541.56 162.735 1548.69 Q162.735 1555.79 164.541 1559.36 Q166.369 1562.9 169.981 1562.9 Q173.615 1562.9 175.42 1559.36 Q177.249 1555.79 177.249 1548.69 Q177.249 1541.56 175.42 1538.02 Q173.615 1534.45 169.981 1534.45 M169.981 1530.75 Q175.791 1530.75 178.846 1535.35 Q181.925 1539.94 181.925 1548.69 Q181.925 1557.41 178.846 1562.02 Q175.791 1566.6 169.981 1566.6 Q164.17 1566.6 161.092 1562.02 Q158.036 1557.41 158.036 1548.69 Q158.036 1539.94 161.092 1535.35 Q164.17 1530.75 169.981 1530.75 Z" fill="#000000" fill-rule="evenodd" fill-opacity="1" /><path clip-path="url(#clip350)" d="M200.142 1534.45 Q196.531 1534.45 194.703 1538.02 Q192.897 1541.56 192.897 1548.69 Q192.897 1555.79 194.703 1559.36 Q196.531 1562.9 200.142 1562.9 Q203.777 1562.9 205.582 1559.36 Q207.411 1555.79 207.411 1548.69 Q207.411 1541.56 205.582 1538.02 Q203.777 1534.45 200.142 1534.45 M200.142 1530.75 Q205.953 1530.75 209.008 1535.35 Q212.087 1539.94 212.087 1548.69 Q212.087 1557.41 209.008 1562.02 Q205.953 1566.6 200.142 1566.6 Q194.332 1566.6 191.254 1562.02 Q188.198 1557.41 188.198 1548.69 Q188.198 1539.94 191.254 1535.35 Q194.332 1530.75 200.142 1530.75 Z" fill="#000000" fill-rule="evenodd" fill-opacity="1" /><path clip-path="url(#clip350)" d="M306.596 1562 L322.916 1562 L322.916 1565.93 L300.971 1565.93 L300.971 1562 Q303.633 1559.24 308.217 1554.61 Q312.823 1549.96 314.004 1548.62 Q316.249 1546.09 317.129 1544.36 Q318.031 1542.6 318.031 1540.91 Q318.031 1538.15 316.087 1536.42 Q314.166 1534.68 311.064 1534.68 Q308.865 1534.68 306.411 1535.45 Q303.981 1536.21 301.203 1537.76 L301.203 1533.04 Q304.027 1531.9 306.481 1531.33 Q308.934 1530.75 310.971 1530.75 Q316.342 1530.75 319.536 1533.43 Q322.73 1536.12 322.73 1540.61 Q322.73 1542.74 321.92 1544.66 Q321.133 1546.56 319.027 1549.15 Q318.448 1549.82 315.346 1553.04 Q312.244 1556.23 306.596 1562 Z" fill="#000000" fill-rule="evenodd" fill-opacity="1" /><path clip-path="url(#clip350)" d="M332.869 1565.21 L332.869 1560.96 Q334.629 1561.79 336.434 1562.23 Q338.24 1562.67 339.976 1562.67 Q344.605 1562.67 347.036 1559.57 Q349.49 1556.44 349.837 1550.1 Q348.494 1552.09 346.434 1553.15 Q344.374 1554.22 341.874 1554.22 Q336.689 1554.22 333.656 1551.09 Q330.647 1547.95 330.647 1542.51 Q330.647 1537.18 333.795 1533.96 Q336.943 1530.75 342.175 1530.75 Q348.17 1530.75 351.318 1535.35 Q354.49 1539.94 354.49 1548.69 Q354.49 1556.86 350.601 1561.74 Q346.735 1566.6 340.184 1566.6 Q338.425 1566.6 336.619 1566.26 Q334.814 1565.91 332.869 1565.21 M342.175 1550.56 Q345.323 1550.56 347.152 1548.41 Q349.003 1546.26 349.003 1542.51 Q349.003 1538.78 347.152 1536.63 Q345.323 1534.45 342.175 1534.45 Q339.027 1534.45 337.175 1536.63 Q335.346 1538.78 335.346 1542.51 Q335.346 1546.26 337.175 1548.41 Q339.027 1550.56 342.175 1550.56 Z" fill="#000000" fill-rule="evenodd" fill-opacity="1" /><path clip-path="url(#clip350)" d="M372.892 1534.45 Q369.281 1534.45 367.452 1538.02 Q365.647 1541.56 365.647 1548.69 Q365.647 1555.79 367.452 1559.36 Q369.281 1562.9 372.892 1562.9 Q376.526 1562.9 378.332 1559.36 Q380.161 1555.79 380.161 1548.69 Q380.161 1541.56 378.332 1538.02 Q376.526 1534.45 372.892 1534.45 M372.892 1530.75 Q378.702 1530.75 381.758 1535.35 Q384.837 1539.94 384.837 1548.69 Q384.837 1557.41 381.758 1562.02 Q378.702 1566.6 372.892 1566.6 Q367.082 1566.6 364.003 1562.02 Q360.948 1557.41 360.948 1548.69 Q360.948 1539.94 364.003 1535.35 Q367.082 1530.75 372.892 1530.75 Z" fill="#000000" fill-rule="evenodd" fill-opacity="1" /><path clip-path="url(#clip350)" d="M393.054 1560.05 L397.938 1560.05 L397.938 1565.93 L393.054 1565.93 L393.054 1560.05 Z" fill="#000000" fill-rule="evenodd" fill-opacity="1" /><path clip-path="url(#clip350)" d="M412.151 1562 L428.471 1562 L428.471 1565.93 L406.526 1565.93 L406.526 1562 Q409.188 1559.24 413.772 1554.61 Q418.378 1549.96 419.559 1548.62 Q421.804 1546.09 422.684 1544.36 Q423.586 1542.6 423.586 1540.91 Q423.586 1538.15 421.642 1536.42 Q419.721 1534.68 416.619 1534.68 Q414.42 1534.68 411.966 1535.45 Q409.536 1536.21 406.758 1537.76 L406.758 1533.04 Q409.582 1531.9 412.036 1531.33 Q414.489 1530.75 416.526 1530.75 Q421.897 1530.75 425.091 1533.43 Q428.285 1536.12 428.285 1540.61 Q428.285 1542.74 427.475 1544.66 Q426.688 1546.56 424.582 1549.15 Q424.003 1549.82 420.901 1553.04 Q417.799 1556.23 412.151 1562 Z" fill="#000000" fill-rule="evenodd" fill-opacity="1" /><path clip-path="url(#clip350)" d="M438.332 1531.37 L456.688 1531.37 L456.688 1535.31 L442.614 1535.31 L442.614 1543.78 Q443.633 1543.43 444.651 1543.27 Q445.67 1543.08 446.688 1543.08 Q452.475 1543.08 455.855 1546.26 Q459.234 1549.43 459.234 1554.84 Q459.234 1560.42 455.762 1563.52 Q452.29 1566.6 445.971 1566.6 Q443.795 1566.6 441.526 1566.23 Q439.281 1565.86 436.873 1565.12 L436.873 1560.42 Q438.957 1561.56 441.179 1562.11 Q443.401 1562.67 445.878 1562.67 Q449.883 1562.67 452.22 1560.56 Q454.558 1558.46 454.558 1554.84 Q454.558 1551.23 452.22 1549.13 Q449.883 1547.02 445.878 1547.02 Q444.003 1547.02 442.128 1547.44 Q440.276 1547.85 438.332 1548.73 L438.332 1531.37 Z" fill="#000000" fill-rule="evenodd" fill-opacity="1" /><path clip-path="url(#clip350)" d="M553.744 1562 L570.063 1562 L570.063 1565.93 L548.119 1565.93 L548.119 1562 Q550.781 1559.24 555.364 1554.61 Q559.971 1549.96 561.151 1548.62 Q563.397 1546.09 564.276 1544.36 Q565.179 1542.6 565.179 1540.91 Q565.179 1538.15 563.234 1536.42 Q561.313 1534.68 558.211 1534.68 Q556.012 1534.68 553.559 1535.45 Q551.128 1536.21 548.35 1537.76 L548.35 1533.04 Q551.174 1531.9 553.628 1531.33 Q556.082 1530.75 558.119 1530.75 Q563.489 1530.75 566.684 1533.43 Q569.878 1536.12 569.878 1540.61 Q569.878 1542.74 569.068 1544.66 Q568.281 1546.56 566.174 1549.15 Q565.596 1549.82 562.494 1553.04 Q559.392 1556.23 553.744 1562 Z" fill="#000000" fill-rule="evenodd" fill-opacity="1" /><path clip-path="url(#clip350)" d="M580.017 1565.21 L580.017 1560.96 Q581.776 1561.79 583.582 1562.23 Q585.387 1562.67 587.123 1562.67 Q591.753 1562.67 594.183 1559.57 Q596.637 1556.44 596.984 1550.1 Q595.642 1552.09 593.582 1553.15 Q591.521 1554.22 589.021 1554.22 Q583.836 1554.22 580.804 1551.09 Q577.795 1547.95 577.795 1542.51 Q577.795 1537.18 580.943 1533.96 Q584.091 1530.75 589.322 1530.75 Q595.318 1530.75 598.466 1535.35 Q601.637 1539.94 601.637 1548.69 Q601.637 1556.86 597.748 1561.74 Q593.882 1566.6 587.332 1566.6 Q585.572 1566.6 583.767 1566.26 Q581.961 1565.91 580.017 1565.21 M589.322 1550.56 Q592.47 1550.56 594.299 1548.41 Q596.151 1546.26 596.151 1542.51 Q596.151 1538.78 594.299 1536.63 Q592.47 1534.45 589.322 1534.45 Q586.174 1534.45 584.322 1536.63 Q582.494 1538.78 582.494 1542.51 Q582.494 1546.26 584.322 1548.41 Q586.174 1550.56 589.322 1550.56 Z" fill="#000000" fill-rule="evenodd" fill-opacity="1" /><path clip-path="url(#clip350)" d="M620.04 1534.45 Q616.429 1534.45 614.6 1538.02 Q612.794 1541.56 612.794 1548.69 Q612.794 1555.79 614.6 1559.36 Q616.429 1562.9 620.04 1562.9 Q623.674 1562.9 625.48 1559.36 Q627.308 1555.79 627.308 1548.69 Q627.308 1541.56 625.48 1538.02 Q623.674 1534.45 620.04 1534.45 M620.04 1530.75 Q625.85 1530.75 628.905 1535.35 Q631.984 1539.94 631.984 1548.69 Q631.984 1557.41 628.905 1562.02 Q625.85 1566.6 620.04 1566.6 Q614.23 1566.6 611.151 1562.02 Q608.095 1557.41 608.095 1548.69 Q608.095 1539.94 611.151 1535.35 Q614.23 1530.75 620.04 1530.75 Z" fill="#000000" fill-rule="evenodd" fill-opacity="1" /><path clip-path="url(#clip350)" d="M640.202 1560.05 L645.086 1560.05 L645.086 1565.93 L640.202 1565.93 L640.202 1560.05 Z" fill="#000000" fill-rule="evenodd" fill-opacity="1" /><path clip-path="url(#clip350)" d="M655.317 1531.37 L673.674 1531.37 L673.674 1535.31 L659.6 1535.31 L659.6 1543.78 Q660.618 1543.43 661.637 1543.27 Q662.655 1543.08 663.674 1543.08 Q669.461 1543.08 672.84 1546.26 Q676.22 1549.43 676.22 1554.84 Q676.22 1560.42 672.748 1563.52 Q669.276 1566.6 662.956 1566.6 Q660.78 1566.6 658.512 1566.23 Q656.266 1565.86 653.859 1565.12 L653.859 1560.42 Q655.942 1561.56 658.165 1562.11 Q660.387 1562.67 662.864 1562.67 Q666.868 1562.67 669.206 1560.56 Q671.544 1558.46 671.544 1554.84 Q671.544 1551.23 669.206 1549.13 Q666.868 1547.02 662.864 1547.02 Q660.989 1547.02 659.114 1547.44 Q657.262 1547.85 655.317 1548.73 L655.317 1531.37 Z" fill="#000000" fill-rule="evenodd" fill-opacity="1" /><path clip-path="url(#clip350)" d="M695.433 1534.45 Q691.822 1534.45 689.993 1538.02 Q688.188 1541.56 688.188 1548.69 Q688.188 1555.79 689.993 1559.36 Q691.822 1562.9 695.433 1562.9 Q699.067 1562.9 700.873 1559.36 Q702.701 1555.79 702.701 1548.69 Q702.701 1541.56 700.873 1538.02 Q699.067 1534.45 695.433 1534.45 M695.433 1530.75 Q701.243 1530.75 704.299 1535.35 Q707.377 1539.94 707.377 1548.69 Q707.377 1557.41 704.299 1562.02 Q701.243 1566.6 695.433 1566.6 Q689.623 1566.6 686.544 1562.02 Q683.488 1557.41 683.488 1548.69 Q683.488 1539.94 686.544 1535.35 Q689.623 1530.75 695.433 1530.75 Z" fill="#000000" fill-rule="evenodd" fill-opacity="1" /><path clip-path="url(#clip350)" d="M801.887 1562 L818.206 1562 L818.206 1565.93 L796.262 1565.93 L796.262 1562 Q798.924 1559.24 803.507 1554.61 Q808.114 1549.96 809.294 1548.62 Q811.539 1546.09 812.419 1544.36 Q813.322 1542.6 813.322 1540.91 Q813.322 1538.15 811.377 1536.42 Q809.456 1534.68 806.354 1534.68 Q804.155 1534.68 801.702 1535.45 Q799.271 1536.21 796.493 1537.76 L796.493 1533.04 Q799.317 1531.9 801.771 1531.33 Q804.225 1530.75 806.262 1530.75 Q811.632 1530.75 814.826 1533.43 Q818.021 1536.12 818.021 1540.61 Q818.021 1542.74 817.211 1544.66 Q816.424 1546.56 814.317 1549.15 Q813.738 1549.82 810.637 1553.04 Q807.535 1556.23 801.887 1562 Z" fill="#000000" fill-rule="evenodd" fill-opacity="1" /><path clip-path="url(#clip350)" d="M828.16 1565.21 L828.16 1560.96 Q829.919 1561.79 831.725 1562.23 Q833.53 1562.67 835.266 1562.67 Q839.896 1562.67 842.326 1559.57 Q844.78 1556.44 845.127 1550.1 Q843.785 1552.09 841.724 1553.15 Q839.664 1554.22 837.164 1554.22 Q831.979 1554.22 828.947 1551.09 Q825.938 1547.95 825.938 1542.51 Q825.938 1537.18 829.086 1533.96 Q832.234 1530.75 837.465 1530.75 Q843.461 1530.75 846.609 1535.35 Q849.78 1539.94 849.78 1548.69 Q849.78 1556.86 845.891 1561.74 Q842.025 1566.6 835.474 1566.6 Q833.715 1566.6 831.91 1566.26 Q830.104 1565.91 828.16 1565.21 M837.465 1550.56 Q840.613 1550.56 842.442 1548.41 Q844.294 1546.26 844.294 1542.51 Q844.294 1538.78 842.442 1536.63 Q840.613 1534.45 837.465 1534.45 Q834.317 1534.45 832.465 1536.63 Q830.637 1538.78 830.637 1542.51 Q830.637 1546.26 832.465 1548.41 Q834.317 1550.56 837.465 1550.56 Z" fill="#000000" fill-rule="evenodd" fill-opacity="1" /><path clip-path="url(#clip350)" d="M868.183 1534.45 Q864.572 1534.45 862.743 1538.02 Q860.937 1541.56 860.937 1548.69 Q860.937 1555.79 862.743 1559.36 Q864.572 1562.9 868.183 1562.9 Q871.817 1562.9 873.622 1559.36 Q875.451 1555.79 875.451 1548.69 Q875.451 1541.56 873.622 1538.02 Q871.817 1534.45 868.183 1534.45 M868.183 1530.75 Q873.993 1530.75 877.048 1535.35 Q880.127 1539.94 880.127 1548.69 Q880.127 1557.41 877.048 1562.02 Q873.993 1566.6 868.183 1566.6 Q862.372 1566.6 859.294 1562.02 Q856.238 1557.41 856.238 1548.69 Q856.238 1539.94 859.294 1535.35 Q862.372 1530.75 868.183 1530.75 Z" fill="#000000" fill-rule="evenodd" fill-opacity="1" /><path clip-path="url(#clip350)" d="M888.345 1560.05 L893.229 1560.05 L893.229 1565.93 L888.345 1565.93 L888.345 1560.05 Z" fill="#000000" fill-rule="evenodd" fill-opacity="1" /><path clip-path="url(#clip350)" d="M902.233 1531.37 L924.455 1531.37 L924.455 1533.36 L911.909 1565.93 L907.025 1565.93 L918.831 1535.31 L902.233 1535.31 L902.233 1531.37 Z" fill="#000000" fill-rule="evenodd" fill-opacity="1" /><path clip-path="url(#clip350)" d="M933.622 1531.37 L951.978 1531.37 L951.978 1535.31 L937.904 1535.31 L937.904 1543.78 Q938.923 1543.43 939.942 1543.27 Q940.96 1543.08 941.979 1543.08 Q947.766 1543.08 951.145 1546.26 Q954.525 1549.43 954.525 1554.84 Q954.525 1560.42 951.053 1563.52 Q947.58 1566.6 941.261 1566.6 Q939.085 1566.6 936.817 1566.23 Q934.571 1565.86 932.164 1565.12 L932.164 1560.42 Q934.247 1561.56 936.469 1562.11 Q938.692 1562.67 941.168 1562.67 Q945.173 1562.67 947.511 1560.56 Q949.849 1558.46 949.849 1554.84 Q949.849 1551.23 947.511 1549.13 Q945.173 1547.02 941.168 1547.02 Q939.293 1547.02 937.418 1547.44 Q935.567 1547.85 933.622 1548.73 L933.622 1531.37 Z" fill="#000000" fill-rule="evenodd" fill-opacity="1" /><path clip-path="url(#clip350)" d="M1049.03 1562 L1065.35 1562 L1065.35 1565.93 L1043.41 1565.93 L1043.41 1562 Q1046.07 1559.24 1050.65 1554.61 Q1055.26 1549.96 1056.44 1548.62 Q1058.69 1546.09 1059.57 1544.36 Q1060.47 1542.6 1060.47 1540.91 Q1060.47 1538.15 1058.52 1536.42 Q1056.6 1534.68 1053.5 1534.68 Q1051.3 1534.68 1048.85 1535.45 Q1046.42 1536.21 1043.64 1537.76 L1043.64 1533.04 Q1046.46 1531.9 1048.92 1531.33 Q1051.37 1530.75 1053.41 1530.75 Q1058.78 1530.75 1061.97 1533.43 Q1065.17 1536.12 1065.17 1540.61 Q1065.17 1542.74 1064.36 1544.66 Q1063.57 1546.56 1061.46 1549.15 Q1060.89 1549.82 1057.78 1553.04 Q1054.68 1556.23 1049.03 1562 Z" fill="#000000" fill-rule="evenodd" fill-opacity="1" /><path clip-path="url(#clip350)" d="M1075.31 1565.21 L1075.31 1560.96 Q1077.07 1561.79 1078.87 1562.23 Q1080.68 1562.67 1082.41 1562.67 Q1087.04 1562.67 1089.47 1559.57 Q1091.93 1556.44 1092.27 1550.1 Q1090.93 1552.09 1088.87 1553.15 Q1086.81 1554.22 1084.31 1554.22 Q1079.13 1554.22 1076.09 1551.09 Q1073.09 1547.95 1073.09 1542.51 Q1073.09 1537.18 1076.23 1533.96 Q1079.38 1530.75 1084.61 1530.75 Q1090.61 1530.75 1093.76 1535.35 Q1096.93 1539.94 1096.93 1548.69 Q1096.93 1556.86 1093.04 1561.74 Q1089.17 1566.6 1082.62 1566.6 Q1080.86 1566.6 1079.06 1566.26 Q1077.25 1565.91 1075.31 1565.21 M1084.61 1550.56 Q1087.76 1550.56 1089.59 1548.41 Q1091.44 1546.26 1091.44 1542.51 Q1091.44 1538.78 1089.59 1536.63 Q1087.76 1534.45 1084.61 1534.45 Q1081.46 1534.45 1079.61 1536.63 Q1077.78 1538.78 1077.78 1542.51 Q1077.78 1546.26 1079.61 1548.41 Q1081.46 1550.56 1084.61 1550.56 Z" fill="#000000" fill-rule="evenodd" fill-opacity="1" /><path clip-path="url(#clip350)" d="M1106.14 1562 L1113.78 1562 L1113.78 1535.63 L1105.47 1537.3 L1105.47 1533.04 L1113.73 1531.37 L1118.41 1531.37 L1118.41 1562 L1126.05 1562 L1126.05 1565.93 L1106.14 1565.93 L1106.14 1562 Z" fill="#000000" fill-rule="evenodd" fill-opacity="1" /><path clip-path="url(#clip350)" d="M1135.49 1560.05 L1140.38 1560.05 L1140.38 1565.93 L1135.49 1565.93 L1135.49 1560.05 Z" fill="#000000" fill-rule="evenodd" fill-opacity="1" /><path clip-path="url(#clip350)" d="M1160.56 1534.45 Q1156.95 1534.45 1155.12 1538.02 Q1153.32 1541.56 1153.32 1548.69 Q1153.32 1555.79 1155.12 1559.36 Q1156.95 1562.9 1160.56 1562.9 Q1164.2 1562.9 1166 1559.36 Q1167.83 1555.79 1167.83 1548.69 Q1167.83 1541.56 1166 1538.02 Q1164.2 1534.45 1160.56 1534.45 M1160.56 1530.75 Q1166.37 1530.75 1169.43 1535.35 Q1172.51 1539.94 1172.51 1548.69 Q1172.51 1557.41 1169.43 1562.02 Q1166.37 1566.6 1160.56 1566.6 Q1154.75 1566.6 1151.67 1562.02 Q1148.62 1557.41 1148.62 1548.69 Q1148.62 1539.94 1151.67 1535.35 Q1154.75 1530.75 1160.56 1530.75 Z" fill="#000000" fill-rule="evenodd" fill-opacity="1" /><path clip-path="url(#clip350)" d="M1190.72 1534.45 Q1187.11 1534.45 1185.28 1538.02 Q1183.48 1541.56 1183.48 1548.69 Q1183.48 1555.79 1185.28 1559.36 Q1187.11 1562.9 1190.72 1562.9 Q1194.36 1562.9 1196.16 1559.36 Q1197.99 1555.79 1197.99 1548.69 Q1197.99 1541.56 1196.16 1538.02 Q1194.36 1534.45 1190.72 1534.45 M1190.72 1530.75 Q1196.53 1530.75 1199.59 1535.35 Q1202.67 1539.94 1202.67 1548.69 Q1202.67 1557.41 1199.59 1562.02 Q1196.53 1566.6 1190.72 1566.6 Q1184.91 1566.6 1181.83 1562.02 Q1178.78 1557.41 1178.78 1548.69 Q1178.78 1539.94 1181.83 1535.35 Q1184.91 1530.75 1190.72 1530.75 Z" fill="#000000" fill-rule="evenodd" fill-opacity="1" /><path clip-path="url(#clip350)" d="M366.834 1602.6 L407.033 1602.6 L407.033 1608.01 L390.164 1608.01 L390.164 1650.12 L383.703 1650.12 L383.703 1608.01 L366.834 1608.01 L366.834 1602.6 Z" fill="#000000" fill-rule="evenodd" fill-opacity="1" /><path clip-path="url(#clip350)" d="M432.4 1630.84 L432.4 1633.7 L405.473 1633.7 Q405.855 1639.75 409.102 1642.93 Q412.38 1646.08 418.205 1646.08 Q421.579 1646.08 424.73 1645.25 Q427.913 1644.43 431.032 1642.77 L431.032 1648.31 Q427.881 1649.65 424.571 1650.35 Q421.26 1651.05 417.855 1651.05 Q409.325 1651.05 404.328 1646.08 Q399.362 1641.12 399.362 1632.65 Q399.362 1623.9 404.073 1618.77 Q408.815 1613.62 416.836 1613.62 Q424.03 1613.62 428.199 1618.26 Q432.4 1622.88 432.4 1630.84 M426.544 1629.12 Q426.48 1624.31 423.839 1621.45 Q421.229 1618.58 416.9 1618.58 Q411.998 1618.58 409.038 1621.35 Q406.11 1624.12 405.664 1629.15 L426.544 1629.12 Z" fill="#000000" fill-rule="evenodd" fill-opacity="1" /><path clip-path="url(#clip350)" d="M469.767 1621.32 Q471.963 1617.37 475.019 1615.49 Q478.074 1613.62 482.212 1613.62 Q487.782 1613.62 490.806 1617.53 Q493.829 1621.41 493.829 1628.61 L493.829 1650.12 L487.941 1650.12 L487.941 1628.8 Q487.941 1623.67 486.127 1621.19 Q484.313 1618.71 480.589 1618.71 Q476.037 1618.71 473.396 1621.73 Q470.754 1624.76 470.754 1629.98 L470.754 1650.12 L464.866 1650.12 L464.866 1628.8 Q464.866 1623.64 463.051 1621.19 Q461.237 1618.71 457.449 1618.71 Q452.962 1618.71 450.32 1621.76 Q447.678 1624.79 447.678 1629.98 L447.678 1650.12 L441.79 1650.12 L441.79 1614.48 L447.678 1614.48 L447.678 1620.01 Q449.683 1616.74 452.484 1615.18 Q455.285 1613.62 459.136 1613.62 Q463.019 1613.62 465.725 1615.59 Q468.462 1617.56 469.767 1621.32 Z" fill="#000000" fill-rule="evenodd" fill-opacity="1" /><path clip-path="url(#clip350)" d="M511.176 1644.78 L511.176 1663.68 L505.288 1663.68 L505.288 1614.48 L511.176 1614.48 L511.176 1619.89 Q513.022 1616.7 515.823 1615.18 Q518.656 1613.62 522.571 1613.62 Q529.064 1613.62 533.106 1618.77 Q537.18 1623.93 537.18 1632.33 Q537.18 1640.73 533.106 1645.89 Q529.064 1651.05 522.571 1651.05 Q518.656 1651.05 515.823 1649.52 Q513.022 1647.96 511.176 1644.78 M531.101 1632.33 Q531.101 1625.87 528.427 1622.21 Q525.785 1618.52 521.138 1618.52 Q516.491 1618.52 513.818 1622.21 Q511.176 1625.87 511.176 1632.33 Q511.176 1638.79 513.818 1642.48 Q516.491 1646.15 521.138 1646.15 Q525.785 1646.15 528.427 1642.48 Q531.101 1638.79 531.101 1632.33 Z" fill="#000000" fill-rule="evenodd" fill-opacity="1" /><path clip-path="url(#clip350)" d="M577.379 1630.84 L577.379 1633.7 L550.452 1633.7 Q550.834 1639.75 554.081 1642.93 Q557.359 1646.08 563.184 1646.08 Q566.558 1646.08 569.709 1645.25 Q572.892 1644.43 576.011 1642.77 L576.011 1648.31 Q572.86 1649.65 569.55 1650.35 Q566.239 1651.05 562.834 1651.05 Q554.304 1651.05 549.307 1646.08 Q544.341 1641.12 544.341 1632.65 Q544.341 1623.9 549.052 1618.77 Q553.794 1613.62 561.815 1613.62 Q569.008 1613.62 573.178 1618.26 Q577.379 1622.88 577.379 1630.84 M571.523 1629.12 Q571.459 1624.31 568.818 1621.45 Q566.208 1618.58 561.879 1618.58 Q556.977 1618.58 554.017 1621.35 Q551.089 1624.12 550.643 1629.15 L571.523 1629.12 Z" fill="#000000" fill-rule="evenodd" fill-opacity="1" /><path clip-path="url(#clip350)" d="M607.648 1619.95 Q606.662 1619.38 605.484 1619.12 Q604.338 1618.84 602.938 1618.84 Q597.972 1618.84 595.299 1622.08 Q592.657 1625.3 592.657 1631.35 L592.657 1650.12 L586.769 1650.12 L586.769 1614.48 L592.657 1614.48 L592.657 1620.01 Q594.503 1616.77 597.463 1615.21 Q600.423 1613.62 604.656 1613.62 Q605.261 1613.62 605.993 1613.71 Q606.725 1613.78 607.616 1613.93 L607.648 1619.95 Z" fill="#000000" fill-rule="evenodd" fill-opacity="1" /><path clip-path="url(#clip350)" d="M629.992 1632.2 Q622.894 1632.2 620.157 1633.83 Q617.42 1635.45 617.42 1639.37 Q617.42 1642.48 619.457 1644.33 Q621.526 1646.15 625.059 1646.15 Q629.928 1646.15 632.857 1642.71 Q635.817 1639.24 635.817 1633.51 L635.817 1632.2 L629.992 1632.2 M641.673 1629.79 L641.673 1650.12 L635.817 1650.12 L635.817 1644.71 Q633.811 1647.96 630.819 1649.52 Q627.828 1651.05 623.499 1651.05 Q618.024 1651.05 614.778 1647.99 Q611.563 1644.9 611.563 1639.75 Q611.563 1633.73 615.574 1630.68 Q619.616 1627.62 627.605 1627.62 L635.817 1627.62 L635.817 1627.05 Q635.817 1623.01 633.143 1620.81 Q630.501 1618.58 625.695 1618.58 Q622.64 1618.58 619.743 1619.31 Q616.847 1620.05 614.173 1621.51 L614.173 1616.1 Q617.388 1614.86 620.412 1614.25 Q623.435 1613.62 626.3 1613.62 Q634.034 1613.62 637.854 1617.63 Q641.673 1621.64 641.673 1629.79 Z" fill="#000000" fill-rule="evenodd" fill-opacity="1" /><path clip-path="url(#clip350)" d="M659.529 1604.35 L659.529 1614.48 L671.592 1614.48 L671.592 1619.03 L659.529 1619.03 L659.529 1638.38 Q659.529 1642.74 660.706 1643.98 Q661.916 1645.22 665.576 1645.22 L671.592 1645.22 L671.592 1650.12 L665.576 1650.12 Q658.797 1650.12 656.219 1647.61 Q653.641 1645.06 653.641 1638.38 L653.641 1619.03 L649.344 1619.03 L649.344 1614.48 L653.641 1614.48 L653.641 1604.35 L659.529 1604.35 Z" fill="#000000" fill-rule="evenodd" fill-opacity="1" /><path clip-path="url(#clip350)" d="M678.69 1636.06 L678.69 1614.48 L684.546 1614.48 L684.546 1635.83 Q684.546 1640.89 686.519 1643.44 Q688.493 1645.95 692.44 1645.95 Q697.182 1645.95 699.919 1642.93 Q702.688 1639.91 702.688 1634.69 L702.688 1614.48 L708.545 1614.48 L708.545 1650.12 L702.688 1650.12 L702.688 1644.65 Q700.556 1647.9 697.723 1649.49 Q694.922 1651.05 691.198 1651.05 Q685.055 1651.05 681.872 1647.23 Q678.69 1643.41 678.69 1636.06 M693.426 1613.62 L693.426 1613.62 Z" fill="#000000" fill-rule="evenodd" fill-opacity="1" /><path clip-path="url(#clip350)" d="M741.264 1619.95 Q740.278 1619.38 739.1 1619.12 Q737.954 1618.84 736.554 1618.84 Q731.589 1618.84 728.915 1622.08 Q726.273 1625.3 726.273 1631.35 L726.273 1650.12 L720.385 1650.12 L720.385 1614.48 L726.273 1614.48 L726.273 1620.01 Q728.119 1616.77 731.079 1615.21 Q734.039 1613.62 738.273 1613.62 Q738.877 1613.62 739.609 1613.71 Q740.341 1613.78 741.233 1613.93 L741.264 1619.95 Z" fill="#000000" fill-rule="evenodd" fill-opacity="1" /><path clip-path="url(#clip350)" d="M776.467 1630.84 L776.467 1633.7 L749.54 1633.7 Q749.922 1639.75 753.168 1642.93 Q756.447 1646.08 762.271 1646.08 Q765.645 1646.08 768.796 1645.25 Q771.979 1644.43 775.098 1642.77 L775.098 1648.31 Q771.947 1649.65 768.637 1650.35 Q765.327 1651.05 761.921 1651.05 Q753.391 1651.05 748.394 1646.08 Q743.429 1641.12 743.429 1632.65 Q743.429 1623.9 748.139 1618.77 Q752.882 1613.62 760.903 1613.62 Q768.096 1613.62 772.265 1618.26 Q776.467 1622.88 776.467 1630.84 M770.61 1629.12 Q770.547 1624.31 767.905 1621.45 Q765.295 1618.58 760.966 1618.58 Q756.065 1618.58 753.105 1621.35 Q750.176 1624.12 749.731 1629.15 L770.61 1629.12 Z" fill="#000000" fill-rule="evenodd" fill-opacity="1" /><path clip-path="url(#clip350)" d="M806.258 1600.6 L819.754 1600.6 L819.754 1605.15 L812.115 1605.15 L812.115 1654.17 L819.754 1654.17 L819.754 1658.72 L806.258 1658.72 L806.258 1600.6 Z" fill="#000000" fill-rule="evenodd" fill-opacity="1" /><path clip-path="url(#clip350)" d="M832.485 1602.6 L838.914 1602.6 L838.914 1622.69 L860.24 1602.6 L868.515 1602.6 L844.93 1624.76 L870.202 1650.12 L861.735 1650.12 L838.914 1627.24 L838.914 1650.12 L832.485 1650.12 L832.485 1602.6 Z" fill="#000000" fill-rule="evenodd" fill-opacity="1" /><path clip-path="url(#clip350)" d="M888.662 1600.6 L888.662 1658.72 L875.167 1658.72 L875.167 1654.17 L882.774 1654.17 L882.774 1605.15 L875.167 1605.15 L875.167 1600.6 L888.662 1600.6 Z" fill="#000000" fill-rule="evenodd" fill-opacity="1" /><polyline clip-path="url(#clip352)" style="stroke:#000000; stroke-linecap:butt; stroke-linejoin:round; stroke-width:2; stroke-opacity:0.1; fill:none" points="
  102.74,1464.44 1152.76,1464.44 
  "/>
<polyline clip-path="url(#clip352)" style="stroke:#000000; stroke-linecap:butt; stroke-linejoin:round; stroke-width:2; stroke-opacity:0.1; fill:none" points="
  102.74,1192.31 1152.76,1192.31 
  "/>
<polyline clip-path="url(#clip352)" style="stroke:#000000; stroke-linecap:butt; stroke-linejoin:round; stroke-width:2; stroke-opacity:0.1; fill:none" points="
  102.74,920.189 1152.76,920.189 
  "/>
<polyline clip-path="url(#clip352)" style="stroke:#000000; stroke-linecap:butt; stroke-linejoin:round; stroke-width:2; stroke-opacity:0.1; fill:none" points="
  102.74,648.063 1152.76,648.063 
  "/>
<polyline clip-path="url(#clip352)" style="stroke:#000000; stroke-linecap:butt; stroke-linejoin:round; stroke-width:2; stroke-opacity:0.1; fill:none" points="
  102.74,375.937 1152.76,375.937 
  "/>
<polyline clip-path="url(#clip352)" style="stroke:#000000; stroke-linecap:butt; stroke-linejoin:round; stroke-width:2; stroke-opacity:0.1; fill:none" points="
  102.74,103.811 1152.76,103.811 
  "/>
<polyline clip-path="url(#clip350)" style="stroke:#000000; stroke-linecap:butt; stroke-linejoin:round; stroke-width:4; stroke-opacity:1; fill:none" points="
  102.74,1505.26 102.74,62.9921 
  "/>
<polyline clip-path="url(#clip350)" style="stroke:#000000; stroke-linecap:butt; stroke-linejoin:round; stroke-width:4; stroke-opacity:1; fill:none" points="
  102.74,1464.44 115.34,1464.44 
  "/>
<polyline clip-path="url(#clip350)" style="stroke:#000000; stroke-linecap:butt; stroke-linejoin:round; stroke-width:4; stroke-opacity:1; fill:none" points="
  102.74,1192.31 115.34,1192.31 
  "/>
<polyline clip-path="url(#clip350)" style="stroke:#000000; stroke-linecap:butt; stroke-linejoin:round; stroke-width:4; stroke-opacity:1; fill:none" points="
  102.74,920.189 115.34,920.189 
  "/>
<polyline clip-path="url(#clip350)" style="stroke:#000000; stroke-linecap:butt; stroke-linejoin:round; stroke-width:4; stroke-opacity:1; fill:none" points="
  102.74,648.063 115.34,648.063 
  "/>
<polyline clip-path="url(#clip350)" style="stroke:#000000; stroke-linecap:butt; stroke-linejoin:round; stroke-width:4; stroke-opacity:1; fill:none" points="
  102.74,375.937 115.34,375.937 
  "/>
<polyline clip-path="url(#clip350)" style="stroke:#000000; stroke-linecap:butt; stroke-linejoin:round; stroke-width:4; stroke-opacity:1; fill:none" points="
  102.74,103.811 115.34,103.811 
  "/>
<path clip-path="url(#clip350)" d="M54.7958 1450.24 Q51.1847 1450.24 49.356 1453.8 Q47.5504 1457.35 47.5504 1464.48 Q47.5504 1471.58 49.356 1475.15 Q51.1847 1478.69 54.7958 1478.69 Q58.43 1478.69 60.2356 1475.15 Q62.0643 1471.58 62.0643 1464.48 Q62.0643 1457.35 60.2356 1453.8 Q58.43 1450.24 54.7958 1450.24 M54.7958 1446.54 Q60.6059 1446.54 63.6615 1451.14 Q66.7402 1455.73 66.7402 1464.48 Q66.7402 1473.2 63.6615 1477.81 Q60.6059 1482.39 54.7958 1482.39 Q48.9856 1482.39 45.9069 1477.81 Q42.8514 1473.2 42.8514 1464.48 Q42.8514 1455.73 45.9069 1451.14 Q48.9856 1446.54 54.7958 1446.54 Z" fill="#000000" fill-rule="evenodd" fill-opacity="1" /><path clip-path="url(#clip350)" d="M45.8375 1175.03 L64.1939 1175.03 L64.1939 1178.97 L50.1199 1178.97 L50.1199 1187.44 Q51.1384 1187.1 52.1569 1186.93 Q53.1754 1186.75 54.1939 1186.75 Q59.9809 1186.75 63.3605 1189.92 Q66.7402 1193.09 66.7402 1198.51 Q66.7402 1204.09 63.268 1207.19 Q59.7958 1210.27 53.4763 1210.27 Q51.3004 1210.27 49.0319 1209.9 Q46.7866 1209.53 44.3792 1208.78 L44.3792 1204.09 Q46.4625 1205.22 48.6847 1205.78 Q50.9069 1206.33 53.3837 1206.33 Q57.3884 1206.33 59.7263 1204.22 Q62.0643 1202.12 62.0643 1198.51 Q62.0643 1194.9 59.7263 1192.79 Q57.3884 1190.68 53.3837 1190.68 Q51.5088 1190.68 49.6338 1191.1 Q47.7819 1191.52 45.8375 1192.4 L45.8375 1175.03 Z" fill="#000000" fill-rule="evenodd" fill-opacity="1" /><path clip-path="url(#clip350)" d="M15.4441 933.534 L23.083 933.534 L23.083 907.168 L14.7728 908.835 L14.7728 904.576 L23.0367 902.909 L27.7126 902.909 L27.7126 933.534 L35.3514 933.534 L35.3514 937.469 L15.4441 937.469 L15.4441 933.534 Z" fill="#000000" fill-rule="evenodd" fill-opacity="1" /><path clip-path="url(#clip350)" d="M54.7958 905.988 Q51.1847 905.988 49.356 909.552 Q47.5504 913.094 47.5504 920.224 Q47.5504 927.33 49.356 930.895 Q51.1847 934.437 54.7958 934.437 Q58.43 934.437 60.2356 930.895 Q62.0643 927.33 62.0643 920.224 Q62.0643 913.094 60.2356 909.552 Q58.43 905.988 54.7958 905.988 M54.7958 902.284 Q60.6059 902.284 63.6615 906.89 Q66.7402 911.474 66.7402 920.224 Q66.7402 928.951 63.6615 933.557 Q60.6059 938.14 54.7958 938.14 Q48.9856 938.14 45.9069 933.557 Q42.8514 928.951 42.8514 920.224 Q42.8514 911.474 45.9069 906.89 Q48.9856 902.284 54.7958 902.284 Z" fill="#000000" fill-rule="evenodd" fill-opacity="1" /><path clip-path="url(#clip350)" d="M16.4395 661.408 L24.0783 661.408 L24.0783 635.042 L15.7682 636.709 L15.7682 632.45 L24.0321 630.783 L28.708 630.783 L28.708 661.408 L36.3468 661.408 L36.3468 665.343 L16.4395 665.343 L16.4395 661.408 Z" fill="#000000" fill-rule="evenodd" fill-opacity="1" /><path clip-path="url(#clip350)" d="M45.8375 630.783 L64.1939 630.783 L64.1939 634.718 L50.1199 634.718 L50.1199 643.19 Q51.1384 642.843 52.1569 642.681 Q53.1754 642.496 54.1939 642.496 Q59.9809 642.496 63.3605 645.667 Q66.7402 648.838 66.7402 654.255 Q66.7402 659.834 63.268 662.936 Q59.7958 666.014 53.4763 666.014 Q51.3004 666.014 49.0319 665.644 Q46.7866 665.274 44.3792 664.533 L44.3792 659.834 Q46.4625 660.968 48.6847 661.524 Q50.9069 662.079 53.3837 662.079 Q57.3884 662.079 59.7263 659.973 Q62.0643 657.866 62.0643 654.255 Q62.0643 650.644 59.7263 648.538 Q57.3884 646.431 53.3837 646.431 Q51.5088 646.431 49.6338 646.848 Q47.7819 647.264 45.8375 648.144 L45.8375 630.783 Z" fill="#000000" fill-rule="evenodd" fill-opacity="1" /><path clip-path="url(#clip350)" d="M18.6617 389.282 L34.9811 389.282 L34.9811 393.217 L13.0367 393.217 L13.0367 389.282 Q15.6988 386.527 20.2821 381.898 Q24.8885 377.245 26.0691 375.902 Q28.3144 373.379 29.1941 371.643 Q30.0968 369.884 30.0968 368.194 Q30.0968 365.439 28.1524 363.703 Q26.2311 361.967 23.1293 361.967 Q20.9302 361.967 18.4765 362.731 Q16.046 363.495 13.2682 365.046 L13.2682 360.324 Q16.0923 359.189 18.546 358.611 Q20.9997 358.032 23.0367 358.032 Q28.407 358.032 31.6015 360.717 Q34.7959 363.402 34.7959 367.893 Q34.7959 370.023 33.9857 371.944 Q33.1987 373.842 31.0922 376.435 Q30.5135 377.106 27.4117 380.324 Q24.3098 383.518 18.6617 389.282 Z" fill="#000000" fill-rule="evenodd" fill-opacity="1" /><path clip-path="url(#clip350)" d="M54.7958 361.736 Q51.1847 361.736 49.356 365.3 Q47.5504 368.842 47.5504 375.972 Q47.5504 383.078 49.356 386.643 Q51.1847 390.185 54.7958 390.185 Q58.43 390.185 60.2356 386.643 Q62.0643 383.078 62.0643 375.972 Q62.0643 368.842 60.2356 365.3 Q58.43 361.736 54.7958 361.736 M54.7958 358.032 Q60.6059 358.032 63.6615 362.638 Q66.7402 367.222 66.7402 375.972 Q66.7402 384.699 63.6615 389.305 Q60.6059 393.888 54.7958 393.888 Q48.9856 393.888 45.9069 389.305 Q42.8514 384.699 42.8514 375.972 Q42.8514 367.222 45.9069 362.638 Q48.9856 358.032 54.7958 358.032 Z" fill="#000000" fill-rule="evenodd" fill-opacity="1" /><path clip-path="url(#clip350)" d="M19.6571 117.156 L35.9764 117.156 L35.9764 121.091 L14.0321 121.091 L14.0321 117.156 Q16.6941 114.401 21.2774 109.772 Q25.8839 105.119 27.0644 103.776 Q29.3098 101.253 30.1894 99.5171 Q31.0922 97.7578 31.0922 96.068 Q31.0922 93.3134 29.1478 91.5773 Q27.2265 89.8412 24.1246 89.8412 Q21.9256 89.8412 19.4719 90.6051 Q17.0413 91.369 14.2636 92.9199 L14.2636 88.1977 Q17.0876 87.0634 19.5413 86.4847 Q21.995 85.906 24.0321 85.906 Q29.4024 85.906 32.5968 88.5912 Q35.7912 91.2764 35.7912 95.7671 Q35.7912 97.8967 34.9811 99.818 Q34.194 101.716 32.0876 104.309 Q31.5089 104.98 28.407 108.198 Q25.3052 111.392 19.6571 117.156 Z" fill="#000000" fill-rule="evenodd" fill-opacity="1" /><path clip-path="url(#clip350)" d="M45.8375 86.531 L64.1939 86.531 L64.1939 90.4662 L50.1199 90.4662 L50.1199 98.9384 Q51.1384 98.5911 52.1569 98.4291 Q53.1754 98.2439 54.1939 98.2439 Q59.9809 98.2439 63.3605 101.415 Q66.7402 104.586 66.7402 110.003 Q66.7402 115.582 63.268 118.684 Q59.7958 121.762 53.4763 121.762 Q51.3004 121.762 49.0319 121.392 Q46.7866 121.022 44.3792 120.281 L44.3792 115.582 Q46.4625 116.716 48.6847 117.272 Q50.9069 117.827 53.3837 117.827 Q57.3884 117.827 59.7263 115.721 Q62.0643 113.614 62.0643 110.003 Q62.0643 106.392 59.7263 104.286 Q57.3884 102.179 53.3837 102.179 Q51.5088 102.179 49.6338 102.596 Q47.7819 103.012 45.8375 103.892 L45.8375 86.531 Z" fill="#000000" fill-rule="evenodd" fill-opacity="1" /><path clip-path="url(#clip350)" d="M-72.8672 882.651 L-72.8672 854.833 L-67.52 854.833 L-41.8981 876.858 L-41.8981 854.833 L-37.2193 854.833 L-37.2193 883.447 L-42.5665 883.447 L-68.1884 861.422 L-68.1884 882.651 L-72.8672 882.651 Z" fill="#000000" fill-rule="evenodd" fill-opacity="1" /><path clip-path="url(#clip350)" d="M-86.7445 825.71 L-86.7445 812.215 L-82.193 812.215 L-82.193 819.854 L-33.177 819.854 L-33.177 812.215 L-28.6256 812.215 L-28.6256 825.71 L-86.7445 825.71 Z" fill="#000000" fill-rule="evenodd" fill-opacity="1" /><path clip-path="url(#clip350)" d="M-86.7445 799.961 L-86.7445 794.072 L-57.494 794.072 L-72.8672 776.599 L-72.8672 769.119 L-56.1891 788.025 L-37.2193 768.323 L-37.2193 775.962 L-54.6295 794.072 L-37.2193 794.072 L-37.2193 799.961 L-86.7445 799.961 Z" fill="#000000" fill-rule="evenodd" fill-opacity="1" /><path clip-path="url(#clip350)" d="M-66.0241 734.235 Q-69.9708 732.039 -71.8487 728.983 Q-73.7266 725.928 -73.7266 721.79 Q-73.7266 716.22 -69.8117 713.196 Q-65.9286 710.172 -58.7353 710.172 L-37.2193 710.172 L-37.2193 716.061 L-58.5444 716.061 Q-63.6688 716.061 -66.1514 717.875 Q-68.634 719.689 -68.634 723.413 Q-68.634 727.965 -65.6103 730.606 Q-62.5866 733.248 -57.3667 733.248 L-37.2193 733.248 L-37.2193 739.136 L-58.5444 739.136 Q-63.7006 739.136 -66.1514 740.951 Q-68.634 742.765 -68.634 746.552 Q-68.634 751.04 -65.5785 753.682 Q-62.5548 756.324 -57.3667 756.324 L-37.2193 756.324 L-37.2193 762.212 L-72.8672 762.212 L-72.8672 756.324 L-67.3291 756.324 Q-70.6074 754.319 -72.167 751.518 Q-73.7266 748.717 -73.7266 744.865 Q-73.7266 740.982 -71.7532 738.277 Q-69.7798 735.54 -66.0241 734.235 Z" fill="#000000" fill-rule="evenodd" fill-opacity="1" /><path clip-path="url(#clip350)" d="M-86.7445 684.805 L-28.6256 684.805 L-28.6256 698.3 L-33.177 698.3 L-33.177 690.693 L-82.193 690.693 L-82.193 698.3 L-86.7445 698.3 L-86.7445 684.805 Z" fill="#000000" fill-rule="evenodd" fill-opacity="1" /><path clip-path="url(#clip350)" d="M414.731 12.096 L422.914 12.096 L422.914 72.576 L414.731 72.576 L414.731 12.096 Z" fill="#000000" fill-rule="evenodd" fill-opacity="1" /><path clip-path="url(#clip350)" d="M467.798 28.5427 L467.798 35.5912 Q464.638 33.9709 461.236 33.1607 Q457.833 32.3505 454.187 32.3505 Q448.637 32.3505 445.842 34.0519 Q443.088 35.7533 443.088 39.156 Q443.088 41.7486 445.073 43.2475 Q447.057 44.7058 453.053 46.0426 L455.605 46.6097 Q463.545 48.3111 466.866 51.4303 Q470.229 54.509 470.229 60.0587 Q470.229 66.3781 465.205 70.0644 Q460.223 73.7508 451.473 73.7508 Q447.827 73.7508 443.857 73.0216 Q439.928 72.3329 435.553 70.9151 L435.553 63.2184 Q439.685 65.3654 443.695 66.4591 Q447.706 67.5124 451.635 67.5124 Q456.901 67.5124 459.737 65.73 Q462.572 63.9071 462.572 60.6258 Q462.572 57.5877 460.506 55.9673 Q458.481 54.3469 451.554 52.8481 L448.961 52.2405 Q442.034 50.7821 438.956 47.7845 Q435.877 44.7463 435.877 39.4801 Q435.877 33.0797 440.414 29.5959 Q444.951 26.1121 453.296 26.1121 Q457.428 26.1121 461.074 26.7198 Q464.719 27.3274 467.798 28.5427 Z" fill="#000000" fill-rule="evenodd" fill-opacity="1" /><path clip-path="url(#clip350)" d="M499.679 32.4315 Q493.683 32.4315 490.2 37.1306 Q486.716 41.7891 486.716 49.9314 Q486.716 58.0738 490.159 62.7728 Q493.643 67.4314 499.679 67.4314 Q505.634 67.4314 509.117 62.7323 Q512.601 58.0333 512.601 49.9314 Q512.601 41.8701 509.117 37.1711 Q505.634 32.4315 499.679 32.4315 M499.679 26.1121 Q509.401 26.1121 514.951 32.4315 Q520.5 38.7509 520.5 49.9314 Q520.5 61.0714 514.951 67.4314 Q509.401 73.7508 499.679 73.7508 Q489.916 73.7508 484.366 67.4314 Q478.857 61.0714 478.857 49.9314 Q478.857 38.7509 484.366 32.4315 Q489.916 26.1121 499.679 26.1121 Z" fill="#000000" fill-rule="evenodd" fill-opacity="1" /><path clip-path="url(#clip350)" d="M540.228 14.324 L540.228 27.2059 L555.581 27.2059 L555.581 32.9987 L540.228 32.9987 L540.228 57.6282 Q540.228 63.1779 541.727 64.7578 Q543.266 66.3376 547.925 66.3376 L555.581 66.3376 L555.581 72.576 L547.925 72.576 Q539.297 72.576 536.015 69.3758 Q532.734 66.1351 532.734 57.6282 L532.734 32.9987 L527.265 32.9987 L527.265 27.2059 L532.734 27.2059 L532.734 14.324 L540.228 14.324 Z" fill="#000000" fill-rule="evenodd" fill-opacity="1" /><path clip-path="url(#clip350)" d="M603.098 45.1919 L603.098 72.576 L595.645 72.576 L595.645 45.4349 Q595.645 38.994 593.133 35.7938 Q590.621 32.5936 585.598 32.5936 Q579.563 32.5936 576.079 36.4419 Q572.595 40.2903 572.595 46.9338 L572.595 72.576 L565.101 72.576 L565.101 9.54393 L572.595 9.54393 L572.595 34.2544 Q575.269 30.163 578.874 28.1376 Q582.52 26.1121 587.259 26.1121 Q595.077 26.1121 599.088 30.9732 Q603.098 35.7938 603.098 45.1919 Z" fill="#000000" fill-rule="evenodd" fill-opacity="1" /><path clip-path="url(#clip350)" d="M656.773 48.0275 L656.773 51.6733 L622.502 51.6733 Q622.988 59.3701 627.12 63.421 Q631.293 67.4314 638.706 67.4314 Q643 67.4314 647.01 66.3781 Q651.061 65.3249 655.031 63.2184 L655.031 70.267 Q651.02 71.9684 646.808 72.8596 Q642.595 73.7508 638.26 73.7508 Q627.404 73.7508 621.044 67.4314 Q614.724 61.1119 614.724 50.3365 Q614.724 39.1965 620.72 32.6746 Q626.756 26.1121 636.964 26.1121 Q646.119 26.1121 651.426 32.0264 Q656.773 37.9003 656.773 48.0275 M649.319 45.84 Q649.238 39.7232 645.876 36.0774 Q642.554 32.4315 637.045 32.4315 Q630.806 32.4315 627.039 35.9558 Q623.312 39.4801 622.745 45.8805 L649.319 45.84 Z" fill="#000000" fill-rule="evenodd" fill-opacity="1" /><path clip-path="url(#clip350)" d="M695.297 34.1734 Q694.041 33.4443 692.542 33.1202 Q691.084 32.7556 689.302 32.7556 Q682.982 32.7556 679.579 36.8875 Q676.217 40.9789 676.217 48.6757 L676.217 72.576 L668.723 72.576 L668.723 27.2059 L676.217 27.2059 L676.217 34.2544 Q678.567 30.1225 682.334 28.1376 Q686.101 26.1121 691.489 26.1121 Q692.259 26.1121 693.19 26.2337 Q694.122 26.3147 695.256 26.5172 L695.297 34.1734 Z" fill="#000000" fill-rule="evenodd" fill-opacity="1" /><path clip-path="url(#clip350)" d="M736.981 35.9153 Q739.776 30.8922 743.665 28.5022 Q747.554 26.1121 752.82 26.1121 Q759.909 26.1121 763.757 31.0947 Q767.605 36.0368 767.605 45.1919 L767.605 72.576 L760.111 72.576 L760.111 45.4349 Q760.111 38.913 757.802 35.7533 Q755.493 32.5936 750.754 32.5936 Q744.961 32.5936 741.599 36.4419 Q738.236 40.2903 738.236 46.9338 L738.236 72.576 L730.742 72.576 L730.742 45.4349 Q730.742 38.8725 728.433 35.7533 Q726.124 32.5936 721.304 32.5936 Q715.592 32.5936 712.23 36.4824 Q708.867 40.3308 708.867 46.9338 L708.867 72.576 L701.373 72.576 L701.373 27.2059 L708.867 27.2059 L708.867 34.2544 Q711.419 30.082 714.984 28.0971 Q718.549 26.1121 723.451 26.1121 Q728.393 26.1121 731.836 28.6237 Q735.32 31.1352 736.981 35.9153 Z" fill="#000000" fill-rule="evenodd" fill-opacity="1" /><path clip-path="url(#clip350)" d="M803.091 49.7694 Q794.058 49.7694 790.574 51.8354 Q787.09 53.9013 787.09 58.8839 Q787.09 62.8538 789.683 65.2034 Q792.316 67.5124 796.813 67.5124 Q803.01 67.5124 806.737 63.1374 Q810.505 58.7219 810.505 51.4303 L810.505 49.7694 L803.091 49.7694 M817.958 46.6907 L817.958 72.576 L810.505 72.576 L810.505 65.6895 Q807.953 69.8214 804.145 71.8063 Q800.337 73.7508 794.828 73.7508 Q787.86 73.7508 783.728 69.8619 Q779.637 65.9325 779.637 59.3701 Q779.637 51.7138 784.741 47.825 Q789.885 43.9361 800.053 43.9361 L810.505 43.9361 L810.505 43.2069 Q810.505 38.0623 807.102 35.2672 Q803.74 32.4315 797.623 32.4315 Q793.734 32.4315 790.048 33.3632 Q786.361 34.295 782.958 36.1584 L782.958 29.2718 Q787.05 27.692 790.898 26.9223 Q794.747 26.1121 798.392 26.1121 Q808.236 26.1121 813.097 31.2163 Q817.958 36.3204 817.958 46.6907 Z" fill="#000000" fill-rule="evenodd" fill-opacity="1" /><path clip-path="url(#clip350)" d="M833.311 9.54393 L840.765 9.54393 L840.765 72.576 L833.311 72.576 L833.311 9.54393 Z" fill="#000000" fill-rule="evenodd" fill-opacity="1" /><polyline clip-path="url(#clip352)" style="stroke:#009af9; stroke-linecap:butt; stroke-linejoin:round; stroke-width:4; stroke-opacity:1; fill:none" points="
  132.458,1464.44 132.458,1436.67 132.458,1408.91 132.458,1381.14 132.458,1353.37 132.458,1325.6 132.458,1297.83 132.458,1270.07 132.458,1242.3 132.458,1214.53 
  132.458,1186.76 132.458,1158.99 132.458,1131.23 132.458,1103.46 132.458,1075.69 132.458,1047.92 132.458,1020.15 132.458,992.386 132.458,964.618 132.458,936.85 
  132.458,909.082 132.458,881.314 132.458,853.546 132.458,825.778 132.458,798.01 132.458,770.242 132.458,742.474 132.458,714.706 132.458,686.938 132.458,659.17 
  132.458,631.402 132.458,603.634 132.458,575.866 132.458,548.098 132.458,520.33 132.458,492.562 132.458,464.794 132.458,437.027 132.458,409.259 132.458,381.491 
  132.458,353.723 132.458,325.955 132.458,298.187 132.458,270.419 132.458,242.651 132.458,214.883 132.458,187.115 132.458,159.347 132.458,131.579 132.458,103.811 
  
  "/>
<path clip-path="url(#clip350)" d="
M948.657 232.028 L1117.76 232.028 L1117.76 111.068 L948.657 111.068  Z
  " fill="#ffffff" fill-rule="evenodd" fill-opacity="1"/>
<polyline clip-path="url(#clip350)" style="stroke:#000000; stroke-linecap:butt; stroke-linejoin:round; stroke-width:4; stroke-opacity:1; fill:none" points="
  948.657,232.028 1117.76,232.028 1117.76,111.068 948.657,111.068 948.657,232.028 
  "/>
<polyline clip-path="url(#clip350)" style="stroke:#009af9; stroke-linecap:butt; stroke-linejoin:round; stroke-width:4; stroke-opacity:1; fill:none" points="
  960.324,171.548 1030.32,171.548 
  "/>
<path clip-path="url(#clip350)" d="M1055.83 191.235 Q1054.03 195.865 1052.32 197.277 Q1050.6 198.689 1047.73 198.689 L1044.33 198.689 L1044.33 195.124 L1046.83 195.124 Q1048.59 195.124 1049.56 194.291 Q1050.53 193.457 1051.71 190.355 L1052.48 188.411 L1041.99 162.902 L1046.51 162.902 L1054.61 183.18 L1062.71 162.902 L1067.22 162.902 L1055.83 191.235 Z" fill="#000000" fill-rule="evenodd" fill-opacity="1" /><path clip-path="url(#clip350)" d="M1074.51 184.893 L1082.15 184.893 L1082.15 158.527 L1073.84 160.194 L1073.84 155.934 L1082.11 154.268 L1086.78 154.268 L1086.78 184.893 L1094.42 184.893 L1094.42 188.828 L1074.51 188.828 L1074.51 184.893 Z" fill="#000000" fill-rule="evenodd" fill-opacity="1" /><path clip-path="url(#clip350)" d="
M1302.74 1505.26 L2352.76 1505.26 L2352.76 62.9921 L1302.74 62.9921  Z
  " fill="#ffffff" fill-rule="evenodd" fill-opacity="1"/>
<defs>
  <clipPath id="clip353">
    <rect x="1302" y="62" width="1051" height="1443"/>
  </clipPath>
</defs>
<polyline clip-path="url(#clip353)" style="stroke:#000000; stroke-linecap:butt; stroke-linejoin:round; stroke-width:2; stroke-opacity:0.1; fill:none" points="
  1483.92,1505.26 1483.92,62.9921 
  "/>
<polyline clip-path="url(#clip353)" style="stroke:#000000; stroke-linecap:butt; stroke-linejoin:round; stroke-width:2; stroke-opacity:0.1; fill:none" points="
  1690.28,1505.26 1690.28,62.9921 
  "/>
<polyline clip-path="url(#clip353)" style="stroke:#000000; stroke-linecap:butt; stroke-linejoin:round; stroke-width:2; stroke-opacity:0.1; fill:none" points="
  1896.64,1505.26 1896.64,62.9921 
  "/>
<polyline clip-path="url(#clip353)" style="stroke:#000000; stroke-linecap:butt; stroke-linejoin:round; stroke-width:2; stroke-opacity:0.1; fill:none" points="
  2103,1505.26 2103,62.9921 
  "/>
<polyline clip-path="url(#clip353)" style="stroke:#000000; stroke-linecap:butt; stroke-linejoin:round; stroke-width:2; stroke-opacity:0.1; fill:none" points="
  2309.37,1505.26 2309.37,62.9921 
  "/>
<polyline clip-path="url(#clip350)" style="stroke:#000000; stroke-linecap:butt; stroke-linejoin:round; stroke-width:4; stroke-opacity:1; fill:none" points="
  1302.74,1505.26 2352.76,1505.26 
  "/>
<polyline clip-path="url(#clip350)" style="stroke:#000000; stroke-linecap:butt; stroke-linejoin:round; stroke-width:4; stroke-opacity:1; fill:none" points="
  1483.92,1505.26 1483.92,1487.95 
  "/>
<polyline clip-path="url(#clip350)" style="stroke:#000000; stroke-linecap:butt; stroke-linejoin:round; stroke-width:4; stroke-opacity:1; fill:none" points="
  1690.28,1505.26 1690.28,1487.95 
  "/>
<polyline clip-path="url(#clip350)" style="stroke:#000000; stroke-linecap:butt; stroke-linejoin:round; stroke-width:4; stroke-opacity:1; fill:none" points="
  1896.64,1505.26 1896.64,1487.95 
  "/>
<polyline clip-path="url(#clip350)" style="stroke:#000000; stroke-linecap:butt; stroke-linejoin:round; stroke-width:4; stroke-opacity:1; fill:none" points="
  2103,1505.26 2103,1487.95 
  "/>
<polyline clip-path="url(#clip350)" style="stroke:#000000; stroke-linecap:butt; stroke-linejoin:round; stroke-width:4; stroke-opacity:1; fill:none" points="
  2309.37,1505.26 2309.37,1487.95 
  "/>
<path clip-path="url(#clip350)" d="M1462.69 1562 L1479.01 1562 L1479.01 1565.93 L1457.06 1565.93 L1457.06 1562 Q1459.73 1559.24 1464.31 1554.61 Q1468.92 1549.96 1470.1 1548.62 Q1472.34 1546.09 1473.22 1544.36 Q1474.12 1542.6 1474.12 1540.91 Q1474.12 1538.15 1472.18 1536.42 Q1470.26 1534.68 1467.16 1534.68 Q1464.96 1534.68 1462.5 1535.45 Q1460.07 1536.21 1457.3 1537.76 L1457.3 1533.04 Q1460.12 1531.9 1462.57 1531.33 Q1465.03 1530.75 1467.06 1530.75 Q1472.43 1530.75 1475.63 1533.43 Q1478.82 1536.12 1478.82 1540.61 Q1478.82 1542.74 1478.01 1544.66 Q1477.23 1546.56 1475.12 1549.15 Q1474.54 1549.82 1471.44 1553.04 Q1468.34 1556.23 1462.69 1562 Z" fill="#000000" fill-rule="evenodd" fill-opacity="1" /><path clip-path="url(#clip350)" d="M1498.82 1534.45 Q1495.21 1534.45 1493.38 1538.02 Q1491.58 1541.56 1491.58 1548.69 Q1491.58 1555.79 1493.38 1559.36 Q1495.21 1562.9 1498.82 1562.9 Q1502.46 1562.9 1504.26 1559.36 Q1506.09 1555.79 1506.09 1548.69 Q1506.09 1541.56 1504.26 1538.02 Q1502.46 1534.45 1498.82 1534.45 M1498.82 1530.75 Q1504.63 1530.75 1507.69 1535.35 Q1510.77 1539.94 1510.77 1548.69 Q1510.77 1557.41 1507.69 1562.02 Q1504.63 1566.6 1498.82 1566.6 Q1493.01 1566.6 1489.93 1562.02 Q1486.88 1557.41 1486.88 1548.69 Q1486.88 1539.94 1489.93 1535.35 Q1493.01 1530.75 1498.82 1530.75 Z" fill="#000000" fill-rule="evenodd" fill-opacity="1" /><path clip-path="url(#clip350)" d="M1678.45 1535.45 L1666.64 1553.89 L1678.45 1553.89 L1678.45 1535.45 M1677.22 1531.37 L1683.1 1531.37 L1683.1 1553.89 L1688.03 1553.89 L1688.03 1557.78 L1683.1 1557.78 L1683.1 1565.93 L1678.45 1565.93 L1678.45 1557.78 L1662.85 1557.78 L1662.85 1553.27 L1677.22 1531.37 Z" fill="#000000" fill-rule="evenodd" fill-opacity="1" /><path clip-path="url(#clip350)" d="M1705.76 1534.45 Q1702.15 1534.45 1700.32 1538.02 Q1698.52 1541.56 1698.52 1548.69 Q1698.52 1555.79 1700.32 1559.36 Q1702.15 1562.9 1705.76 1562.9 Q1709.4 1562.9 1711.2 1559.36 Q1713.03 1555.79 1713.03 1548.69 Q1713.03 1541.56 1711.2 1538.02 Q1709.4 1534.45 1705.76 1534.45 M1705.76 1530.75 Q1711.57 1530.75 1714.63 1535.35 Q1717.71 1539.94 1717.71 1548.69 Q1717.71 1557.41 1714.63 1562.02 Q1711.57 1566.6 1705.76 1566.6 Q1699.95 1566.6 1696.88 1562.02 Q1693.82 1557.41 1693.82 1548.69 Q1693.82 1539.94 1696.88 1535.35 Q1699.95 1530.75 1705.76 1530.75 Z" fill="#000000" fill-rule="evenodd" fill-opacity="1" /><path clip-path="url(#clip350)" d="M1882.05 1546.79 Q1878.9 1546.79 1877.05 1548.94 Q1875.22 1551.09 1875.22 1554.84 Q1875.22 1558.57 1877.05 1560.75 Q1878.9 1562.9 1882.05 1562.9 Q1885.19 1562.9 1887.02 1560.75 Q1888.87 1558.57 1888.87 1554.84 Q1888.87 1551.09 1887.02 1548.94 Q1885.19 1546.79 1882.05 1546.79 M1891.33 1532.14 L1891.33 1536.39 Q1889.57 1535.56 1887.76 1535.12 Q1885.98 1534.68 1884.22 1534.68 Q1879.59 1534.68 1877.14 1537.81 Q1874.71 1540.93 1874.36 1547.25 Q1875.73 1545.24 1877.79 1544.17 Q1879.85 1543.08 1882.32 1543.08 Q1887.53 1543.08 1890.54 1546.26 Q1893.57 1549.4 1893.57 1554.84 Q1893.57 1560.17 1890.43 1563.39 Q1887.28 1566.6 1882.05 1566.6 Q1876.05 1566.6 1872.88 1562.02 Q1869.71 1557.41 1869.71 1548.69 Q1869.71 1540.49 1873.6 1535.63 Q1877.49 1530.75 1884.04 1530.75 Q1885.8 1530.75 1887.58 1531.09 Q1889.38 1531.44 1891.33 1532.14 Z" fill="#000000" fill-rule="evenodd" fill-opacity="1" /><path clip-path="url(#clip350)" d="M1911.63 1534.45 Q1908.02 1534.45 1906.19 1538.02 Q1904.38 1541.56 1904.38 1548.69 Q1904.38 1555.79 1906.19 1559.36 Q1908.02 1562.9 1911.63 1562.9 Q1915.26 1562.9 1917.07 1559.36 Q1918.9 1555.79 1918.9 1548.69 Q1918.9 1541.56 1917.07 1538.02 Q1915.26 1534.45 1911.63 1534.45 M1911.63 1530.75 Q1917.44 1530.75 1920.5 1535.35 Q1923.57 1539.94 1923.57 1548.69 Q1923.57 1557.41 1920.5 1562.02 Q1917.44 1566.6 1911.63 1566.6 Q1905.82 1566.6 1902.74 1562.02 Q1899.69 1557.41 1899.69 1548.69 Q1899.69 1539.94 1902.74 1535.35 Q1905.82 1530.75 1911.63 1530.75 Z" fill="#000000" fill-rule="evenodd" fill-opacity="1" /><path clip-path="url(#clip350)" d="M2087.88 1549.52 Q2084.54 1549.52 2082.62 1551.3 Q2080.72 1553.08 2080.72 1556.21 Q2080.72 1559.33 2082.62 1561.12 Q2084.54 1562.9 2087.88 1562.9 Q2091.21 1562.9 2093.13 1561.12 Q2095.05 1559.31 2095.05 1556.21 Q2095.05 1553.08 2093.13 1551.3 Q2091.23 1549.52 2087.88 1549.52 M2083.2 1547.53 Q2080.19 1546.79 2078.5 1544.73 Q2076.84 1542.67 2076.84 1539.71 Q2076.84 1535.56 2079.77 1533.15 Q2082.74 1530.75 2087.88 1530.75 Q2093.04 1530.75 2095.98 1533.15 Q2098.92 1535.56 2098.92 1539.71 Q2098.92 1542.67 2097.23 1544.73 Q2095.56 1546.79 2092.58 1547.53 Q2095.96 1548.32 2097.83 1550.61 Q2099.73 1552.9 2099.73 1556.21 Q2099.73 1561.23 2096.65 1563.92 Q2093.59 1566.6 2087.88 1566.6 Q2082.16 1566.6 2079.08 1563.92 Q2076.03 1561.23 2076.03 1556.21 Q2076.03 1552.9 2077.92 1550.61 Q2079.82 1548.32 2083.2 1547.53 M2081.49 1540.14 Q2081.49 1542.83 2083.15 1544.33 Q2084.84 1545.84 2087.88 1545.84 Q2090.89 1545.84 2092.58 1544.33 Q2094.29 1542.83 2094.29 1540.14 Q2094.29 1537.46 2092.58 1535.96 Q2090.89 1534.45 2087.88 1534.45 Q2084.84 1534.45 2083.15 1535.96 Q2081.49 1537.46 2081.49 1540.14 Z" fill="#000000" fill-rule="evenodd" fill-opacity="1" /><path clip-path="url(#clip350)" d="M2118.04 1534.45 Q2114.43 1534.45 2112.6 1538.02 Q2110.79 1541.56 2110.79 1548.69 Q2110.79 1555.79 2112.6 1559.36 Q2114.43 1562.9 2118.04 1562.9 Q2121.67 1562.9 2123.48 1559.36 Q2125.31 1555.79 2125.31 1548.69 Q2125.31 1541.56 2123.48 1538.02 Q2121.67 1534.45 2118.04 1534.45 M2118.04 1530.75 Q2123.85 1530.75 2126.9 1535.35 Q2129.98 1539.94 2129.98 1548.69 Q2129.98 1557.41 2126.9 1562.02 Q2123.85 1566.6 2118.04 1566.6 Q2112.23 1566.6 2109.15 1562.02 Q2106.09 1557.41 2106.09 1548.69 Q2106.09 1539.94 2109.15 1535.35 Q2112.23 1530.75 2118.04 1530.75 Z" fill="#000000" fill-rule="evenodd" fill-opacity="1" /><path clip-path="url(#clip350)" d="M2268.97 1562 L2276.61 1562 L2276.61 1535.63 L2268.3 1537.3 L2268.3 1533.04 L2276.57 1531.37 L2281.24 1531.37 L2281.24 1562 L2288.88 1562 L2288.88 1565.93 L2268.97 1565.93 L2268.97 1562 Z" fill="#000000" fill-rule="evenodd" fill-opacity="1" /><path clip-path="url(#clip350)" d="M2308.33 1534.45 Q2304.71 1534.45 2302.89 1538.02 Q2301.08 1541.56 2301.08 1548.69 Q2301.08 1555.79 2302.89 1559.36 Q2304.71 1562.9 2308.33 1562.9 Q2311.96 1562.9 2313.77 1559.36 Q2315.59 1555.79 2315.59 1548.69 Q2315.59 1541.56 2313.77 1538.02 Q2311.96 1534.45 2308.33 1534.45 M2308.33 1530.75 Q2314.14 1530.75 2317.19 1535.35 Q2320.27 1539.94 2320.27 1548.69 Q2320.27 1557.41 2317.19 1562.02 Q2314.14 1566.6 2308.33 1566.6 Q2302.52 1566.6 2299.44 1562.02 Q2296.38 1557.41 2296.38 1548.69 Q2296.38 1539.94 2299.44 1535.35 Q2302.52 1530.75 2308.33 1530.75 Z" fill="#000000" fill-rule="evenodd" fill-opacity="1" /><path clip-path="url(#clip350)" d="M2338.49 1534.45 Q2334.88 1534.45 2333.05 1538.02 Q2331.24 1541.56 2331.24 1548.69 Q2331.24 1555.79 2333.05 1559.36 Q2334.88 1562.9 2338.49 1562.9 Q2342.12 1562.9 2343.93 1559.36 Q2345.76 1555.79 2345.76 1548.69 Q2345.76 1541.56 2343.93 1538.02 Q2342.12 1534.45 2338.49 1534.45 M2338.49 1530.75 Q2344.3 1530.75 2347.35 1535.35 Q2350.43 1539.94 2350.43 1548.69 Q2350.43 1557.41 2347.35 1562.02 Q2344.3 1566.6 2338.49 1566.6 Q2332.68 1566.6 2329.6 1562.02 Q2326.54 1557.41 2326.54 1548.69 Q2326.54 1539.94 2329.6 1535.35 Q2332.68 1530.75 2338.49 1530.75 Z" fill="#000000" fill-rule="evenodd" fill-opacity="1" /><path clip-path="url(#clip350)" d="M1608.18 1607.89 L1608.18 1625.74 L1616.26 1625.74 Q1620.75 1625.74 1623.2 1623.42 Q1625.65 1621.1 1625.65 1616.8 Q1625.65 1612.53 1623.2 1610.21 Q1620.75 1607.89 1616.26 1607.89 L1608.18 1607.89 M1601.75 1602.6 L1616.26 1602.6 Q1624.25 1602.6 1628.33 1606.23 Q1632.43 1609.83 1632.43 1616.8 Q1632.43 1623.83 1628.33 1627.43 Q1624.25 1631.03 1616.26 1631.03 L1608.18 1631.03 L1608.18 1650.12 L1601.75 1650.12 L1601.75 1602.6 Z" fill="#000000" fill-rule="evenodd" fill-opacity="1" /><path clip-path="url(#clip350)" d="M1660.31 1619.95 Q1659.33 1619.38 1658.15 1619.12 Q1657 1618.84 1655.6 1618.84 Q1650.64 1618.84 1647.96 1622.08 Q1645.32 1625.3 1645.32 1631.35 L1645.32 1650.12 L1639.43 1650.12 L1639.43 1614.48 L1645.32 1614.48 L1645.32 1620.01 Q1647.17 1616.77 1650.13 1615.21 Q1653.09 1613.62 1657.32 1613.62 Q1657.93 1613.62 1658.66 1613.71 Q1659.39 1613.78 1660.28 1613.93 L1660.31 1619.95 Z" fill="#000000" fill-rule="evenodd" fill-opacity="1" /><path clip-path="url(#clip350)" d="M1695.52 1630.84 L1695.52 1633.7 L1668.59 1633.7 Q1668.97 1639.75 1672.22 1642.93 Q1675.5 1646.08 1681.32 1646.08 Q1684.69 1646.08 1687.85 1645.25 Q1691.03 1644.43 1694.15 1642.77 L1694.15 1648.31 Q1691 1649.65 1687.69 1650.35 Q1684.38 1651.05 1680.97 1651.05 Q1672.44 1651.05 1667.44 1646.08 Q1662.48 1641.12 1662.48 1632.65 Q1662.48 1623.9 1667.19 1618.77 Q1671.93 1613.62 1679.95 1613.62 Q1687.15 1613.62 1691.32 1618.26 Q1695.52 1622.88 1695.52 1630.84 M1689.66 1629.12 Q1689.6 1624.31 1686.95 1621.45 Q1684.34 1618.58 1680.02 1618.58 Q1675.11 1618.58 1672.15 1621.35 Q1669.23 1624.12 1668.78 1629.15 L1689.66 1629.12 Z" fill="#000000" fill-rule="evenodd" fill-opacity="1" /><path clip-path="url(#clip350)" d="M1727.85 1615.53 L1727.85 1621.06 Q1725.37 1619.79 1722.7 1619.15 Q1720.02 1618.52 1717.16 1618.52 Q1712.8 1618.52 1710.6 1619.85 Q1708.44 1621.19 1708.44 1623.87 Q1708.44 1625.9 1710 1627.08 Q1711.56 1628.23 1716.27 1629.28 L1718.27 1629.72 Q1724.51 1631.06 1727.12 1633.51 Q1729.76 1635.93 1729.76 1640.29 Q1729.76 1645.25 1725.82 1648.15 Q1721.9 1651.05 1715.03 1651.05 Q1712.16 1651.05 1709.04 1650.47 Q1705.96 1649.93 1702.52 1648.82 L1702.52 1642.77 Q1705.77 1644.46 1708.92 1645.32 Q1712.07 1646.15 1715.15 1646.15 Q1719.29 1646.15 1721.52 1644.74 Q1723.75 1643.31 1723.75 1640.73 Q1723.75 1638.35 1722.13 1637.07 Q1720.53 1635.8 1715.09 1634.62 L1713.05 1634.15 Q1707.61 1633 1705.19 1630.64 Q1702.77 1628.26 1702.77 1624.12 Q1702.77 1619.09 1706.34 1616.35 Q1709.9 1613.62 1716.46 1613.62 Q1719.71 1613.62 1722.57 1614.09 Q1725.44 1614.57 1727.85 1615.53 Z" fill="#000000" fill-rule="evenodd" fill-opacity="1" /><path clip-path="url(#clip350)" d="M1761.82 1615.53 L1761.82 1621.06 Q1759.33 1619.79 1756.66 1619.15 Q1753.99 1618.52 1751.12 1618.52 Q1746.76 1618.52 1744.56 1619.85 Q1742.4 1621.19 1742.4 1623.87 Q1742.4 1625.9 1743.96 1627.08 Q1745.52 1628.23 1750.23 1629.28 L1752.23 1629.72 Q1758.47 1631.06 1761.08 1633.51 Q1763.72 1635.93 1763.72 1640.29 Q1763.72 1645.25 1759.78 1648.15 Q1755.86 1651.05 1748.99 1651.05 Q1746.12 1651.05 1743 1650.47 Q1739.92 1649.93 1736.48 1648.82 L1736.48 1642.77 Q1739.73 1644.46 1742.88 1645.32 Q1746.03 1646.15 1749.12 1646.15 Q1753.25 1646.15 1755.48 1644.74 Q1757.71 1643.31 1757.71 1640.73 Q1757.71 1638.35 1756.09 1637.07 Q1754.49 1635.8 1749.05 1634.62 L1747.01 1634.15 Q1741.57 1633 1739.15 1630.64 Q1736.73 1628.26 1736.73 1624.12 Q1736.73 1619.09 1740.3 1616.35 Q1743.86 1613.62 1750.42 1613.62 Q1753.67 1613.62 1756.53 1614.09 Q1759.4 1614.57 1761.82 1615.53 Z" fill="#000000" fill-rule="evenodd" fill-opacity="1" /><path clip-path="url(#clip350)" d="M1772.45 1636.06 L1772.45 1614.48 L1778.3 1614.48 L1778.3 1635.83 Q1778.3 1640.89 1780.28 1643.44 Q1782.25 1645.95 1786.2 1645.95 Q1790.94 1645.95 1793.68 1642.93 Q1796.44 1639.91 1796.44 1634.69 L1796.44 1614.48 L1802.3 1614.48 L1802.3 1650.12 L1796.44 1650.12 L1796.44 1644.65 Q1794.31 1647.9 1791.48 1649.49 Q1788.68 1651.05 1784.95 1651.05 Q1778.81 1651.05 1775.63 1647.23 Q1772.45 1643.41 1772.45 1636.06 M1787.18 1613.62 L1787.18 1613.62 Z" fill="#000000" fill-rule="evenodd" fill-opacity="1" /><path clip-path="url(#clip350)" d="M1835.02 1619.95 Q1834.03 1619.38 1832.86 1619.12 Q1831.71 1618.84 1830.31 1618.84 Q1825.34 1618.84 1822.67 1622.08 Q1820.03 1625.3 1820.03 1631.35 L1820.03 1650.12 L1814.14 1650.12 L1814.14 1614.48 L1820.03 1614.48 L1820.03 1620.01 Q1821.88 1616.77 1824.84 1615.21 Q1827.8 1613.62 1832.03 1613.62 Q1832.63 1613.62 1833.37 1613.71 Q1834.1 1613.78 1834.99 1613.93 L1835.02 1619.95 Z" fill="#000000" fill-rule="evenodd" fill-opacity="1" /><path clip-path="url(#clip350)" d="M1870.22 1630.84 L1870.22 1633.7 L1843.3 1633.7 Q1843.68 1639.75 1846.92 1642.93 Q1850.2 1646.08 1856.03 1646.08 Q1859.4 1646.08 1862.55 1645.25 Q1865.74 1644.43 1868.85 1642.77 L1868.85 1648.31 Q1865.7 1649.65 1862.39 1650.35 Q1859.08 1651.05 1855.68 1651.05 Q1847.15 1651.05 1842.15 1646.08 Q1837.19 1641.12 1837.19 1632.65 Q1837.19 1623.9 1841.9 1618.77 Q1846.64 1613.62 1854.66 1613.62 Q1861.85 1613.62 1866.02 1618.26 Q1870.22 1622.88 1870.22 1630.84 M1864.37 1629.12 Q1864.3 1624.31 1861.66 1621.45 Q1859.05 1618.58 1854.72 1618.58 Q1849.82 1618.58 1846.86 1621.35 Q1843.93 1624.12 1843.49 1629.15 L1864.37 1629.12 Z" fill="#000000" fill-rule="evenodd" fill-opacity="1" /><path clip-path="url(#clip350)" d="M1900.01 1600.6 L1913.51 1600.6 L1913.51 1605.15 L1905.87 1605.15 L1905.87 1654.17 L1913.51 1654.17 L1913.51 1658.72 L1900.01 1658.72 L1900.01 1600.6 Z" fill="#000000" fill-rule="evenodd" fill-opacity="1" /><path clip-path="url(#clip350)" d="M1925.76 1600.6 L1931.65 1600.6 L1931.65 1629.85 L1949.13 1614.48 L1956.61 1614.48 L1937.7 1631.15 L1957.4 1650.12 L1949.76 1650.12 L1931.65 1632.71 L1931.65 1650.12 L1925.76 1650.12 L1925.76 1600.6 Z" fill="#000000" fill-rule="evenodd" fill-opacity="1" /><path clip-path="url(#clip350)" d="M1970.42 1607.89 L1970.42 1625.74 L1978.5 1625.74 Q1982.99 1625.74 1985.44 1623.42 Q1987.89 1621.1 1987.89 1616.8 Q1987.89 1612.53 1985.44 1610.21 Q1982.99 1607.89 1978.5 1607.89 L1970.42 1607.89 M1963.99 1602.6 L1978.5 1602.6 Q1986.49 1602.6 1990.57 1606.23 Q1994.67 1609.83 1994.67 1616.8 Q1994.67 1623.83 1990.57 1627.43 Q1986.49 1631.03 1978.5 1631.03 L1970.42 1631.03 L1970.42 1650.12 L1963.99 1650.12 L1963.99 1602.6 Z" fill="#000000" fill-rule="evenodd" fill-opacity="1" /><path clip-path="url(#clip350)" d="M2016.32 1632.2 Q2009.22 1632.2 2006.48 1633.83 Q2003.74 1635.45 2003.74 1639.37 Q2003.74 1642.48 2005.78 1644.33 Q2007.85 1646.15 2011.38 1646.15 Q2016.25 1646.15 2019.18 1642.71 Q2022.14 1639.24 2022.14 1633.51 L2022.14 1632.2 L2016.32 1632.2 M2028 1629.79 L2028 1650.12 L2022.14 1650.12 L2022.14 1644.71 Q2020.14 1647.96 2017.14 1649.52 Q2014.15 1651.05 2009.82 1651.05 Q2004.35 1651.05 2001.1 1647.99 Q1997.89 1644.9 1997.89 1639.75 Q1997.89 1633.73 2001.9 1630.68 Q2005.94 1627.62 2013.93 1627.62 L2022.14 1627.62 L2022.14 1627.05 Q2022.14 1623.01 2019.47 1620.81 Q2016.83 1618.58 2012.02 1618.58 Q2008.96 1618.58 2006.07 1619.31 Q2003.17 1620.05 2000.5 1621.51 L2000.5 1616.1 Q2003.71 1614.86 2006.74 1614.25 Q2009.76 1613.62 2012.62 1613.62 Q2020.36 1613.62 2024.18 1617.63 Q2028 1621.64 2028 1629.79 Z" fill="#000000" fill-rule="evenodd" fill-opacity="1" /><path clip-path="url(#clip350)" d="M2053.75 1600.6 L2053.75 1658.72 L2040.25 1658.72 L2040.25 1654.17 L2047.86 1654.17 L2047.86 1605.15 L2040.25 1605.15 L2040.25 1600.6 L2053.75 1600.6 Z" fill="#000000" fill-rule="evenodd" fill-opacity="1" /><polyline clip-path="url(#clip353)" style="stroke:#000000; stroke-linecap:butt; stroke-linejoin:round; stroke-width:2; stroke-opacity:0.1; fill:none" points="
  1302.74,1464.44 2352.76,1464.44 
  "/>
<polyline clip-path="url(#clip353)" style="stroke:#000000; stroke-linecap:butt; stroke-linejoin:round; stroke-width:2; stroke-opacity:0.1; fill:none" points="
  1302.74,1192.31 2352.76,1192.31 
  "/>
<polyline clip-path="url(#clip353)" style="stroke:#000000; stroke-linecap:butt; stroke-linejoin:round; stroke-width:2; stroke-opacity:0.1; fill:none" points="
  1302.74,920.189 2352.76,920.189 
  "/>
<polyline clip-path="url(#clip353)" style="stroke:#000000; stroke-linecap:butt; stroke-linejoin:round; stroke-width:2; stroke-opacity:0.1; fill:none" points="
  1302.74,648.063 2352.76,648.063 
  "/>
<polyline clip-path="url(#clip353)" style="stroke:#000000; stroke-linecap:butt; stroke-linejoin:round; stroke-width:2; stroke-opacity:0.1; fill:none" points="
  1302.74,375.937 2352.76,375.937 
  "/>
<polyline clip-path="url(#clip353)" style="stroke:#000000; stroke-linecap:butt; stroke-linejoin:round; stroke-width:2; stroke-opacity:0.1; fill:none" points="
  1302.74,103.811 2352.76,103.811 
  "/>
<polyline clip-path="url(#clip350)" style="stroke:#000000; stroke-linecap:butt; stroke-linejoin:round; stroke-width:4; stroke-opacity:1; fill:none" points="
  1302.74,1505.26 1302.74,62.9921 
  "/>
<polyline clip-path="url(#clip350)" style="stroke:#000000; stroke-linecap:butt; stroke-linejoin:round; stroke-width:4; stroke-opacity:1; fill:none" points="
  1302.74,1464.44 1315.34,1464.44 
  "/>
<polyline clip-path="url(#clip350)" style="stroke:#000000; stroke-linecap:butt; stroke-linejoin:round; stroke-width:4; stroke-opacity:1; fill:none" points="
  1302.74,1192.31 1315.34,1192.31 
  "/>
<polyline clip-path="url(#clip350)" style="stroke:#000000; stroke-linecap:butt; stroke-linejoin:round; stroke-width:4; stroke-opacity:1; fill:none" points="
  1302.74,920.189 1315.34,920.189 
  "/>
<polyline clip-path="url(#clip350)" style="stroke:#000000; stroke-linecap:butt; stroke-linejoin:round; stroke-width:4; stroke-opacity:1; fill:none" points="
  1302.74,648.063 1315.34,648.063 
  "/>
<polyline clip-path="url(#clip350)" style="stroke:#000000; stroke-linecap:butt; stroke-linejoin:round; stroke-width:4; stroke-opacity:1; fill:none" points="
  1302.74,375.937 1315.34,375.937 
  "/>
<polyline clip-path="url(#clip350)" style="stroke:#000000; stroke-linecap:butt; stroke-linejoin:round; stroke-width:4; stroke-opacity:1; fill:none" points="
  1302.74,103.811 1315.34,103.811 
  "/>
<path clip-path="url(#clip350)" d="M1254.8 1450.24 Q1251.18 1450.24 1249.36 1453.8 Q1247.55 1457.35 1247.55 1464.48 Q1247.55 1471.58 1249.36 1475.15 Q1251.18 1478.69 1254.8 1478.69 Q1258.43 1478.69 1260.24 1475.15 Q1262.06 1471.58 1262.06 1464.48 Q1262.06 1457.35 1260.24 1453.8 Q1258.43 1450.24 1254.8 1450.24 M1254.8 1446.54 Q1260.61 1446.54 1263.66 1451.14 Q1266.74 1455.73 1266.74 1464.48 Q1266.74 1473.2 1263.66 1477.81 Q1260.61 1482.39 1254.8 1482.39 Q1248.99 1482.39 1245.91 1477.81 Q1242.85 1473.2 1242.85 1464.48 Q1242.85 1455.73 1245.91 1451.14 Q1248.99 1446.54 1254.8 1446.54 Z" fill="#000000" fill-rule="evenodd" fill-opacity="1" /><path clip-path="url(#clip350)" d="M1245.84 1175.03 L1264.19 1175.03 L1264.19 1178.97 L1250.12 1178.97 L1250.12 1187.44 Q1251.14 1187.1 1252.16 1186.93 Q1253.18 1186.75 1254.19 1186.75 Q1259.98 1186.75 1263.36 1189.92 Q1266.74 1193.09 1266.74 1198.51 Q1266.74 1204.09 1263.27 1207.19 Q1259.8 1210.27 1253.48 1210.27 Q1251.3 1210.27 1249.03 1209.9 Q1246.79 1209.53 1244.38 1208.78 L1244.38 1204.09 Q1246.46 1205.22 1248.68 1205.78 Q1250.91 1206.33 1253.38 1206.33 Q1257.39 1206.33 1259.73 1204.22 Q1262.06 1202.12 1262.06 1198.51 Q1262.06 1194.9 1259.73 1192.79 Q1257.39 1190.68 1253.38 1190.68 Q1251.51 1190.68 1249.63 1191.1 Q1247.78 1191.52 1245.84 1192.4 L1245.84 1175.03 Z" fill="#000000" fill-rule="evenodd" fill-opacity="1" /><path clip-path="url(#clip350)" d="M1215.44 933.534 L1223.08 933.534 L1223.08 907.168 L1214.77 908.835 L1214.77 904.576 L1223.04 902.909 L1227.71 902.909 L1227.71 933.534 L1235.35 933.534 L1235.35 937.469 L1215.44 937.469 L1215.44 933.534 Z" fill="#000000" fill-rule="evenodd" fill-opacity="1" /><path clip-path="url(#clip350)" d="M1254.8 905.988 Q1251.18 905.988 1249.36 909.552 Q1247.55 913.094 1247.55 920.224 Q1247.55 927.33 1249.36 930.895 Q1251.18 934.437 1254.8 934.437 Q1258.43 934.437 1260.24 930.895 Q1262.06 927.33 1262.06 920.224 Q1262.06 913.094 1260.24 909.552 Q1258.43 905.988 1254.8 905.988 M1254.8 902.284 Q1260.61 902.284 1263.66 906.89 Q1266.74 911.474 1266.74 920.224 Q1266.74 928.951 1263.66 933.557 Q1260.61 938.14 1254.8 938.14 Q1248.99 938.14 1245.91 933.557 Q1242.85 928.951 1242.85 920.224 Q1242.85 911.474 1245.91 906.89 Q1248.99 902.284 1254.8 902.284 Z" fill="#000000" fill-rule="evenodd" fill-opacity="1" /><path clip-path="url(#clip350)" d="M1216.44 661.408 L1224.08 661.408 L1224.08 635.042 L1215.77 636.709 L1215.77 632.45 L1224.03 630.783 L1228.71 630.783 L1228.71 661.408 L1236.35 661.408 L1236.35 665.343 L1216.44 665.343 L1216.44 661.408 Z" fill="#000000" fill-rule="evenodd" fill-opacity="1" /><path clip-path="url(#clip350)" d="M1245.84 630.783 L1264.19 630.783 L1264.19 634.718 L1250.12 634.718 L1250.12 643.19 Q1251.14 642.843 1252.16 642.681 Q1253.18 642.496 1254.19 642.496 Q1259.98 642.496 1263.36 645.667 Q1266.74 648.838 1266.74 654.255 Q1266.74 659.834 1263.27 662.936 Q1259.8 666.014 1253.48 666.014 Q1251.3 666.014 1249.03 665.644 Q1246.79 665.274 1244.38 664.533 L1244.38 659.834 Q1246.46 660.968 1248.68 661.524 Q1250.91 662.079 1253.38 662.079 Q1257.39 662.079 1259.73 659.973 Q1262.06 657.866 1262.06 654.255 Q1262.06 650.644 1259.73 648.538 Q1257.39 646.431 1253.38 646.431 Q1251.51 646.431 1249.63 646.848 Q1247.78 647.264 1245.84 648.144 L1245.84 630.783 Z" fill="#000000" fill-rule="evenodd" fill-opacity="1" /><path clip-path="url(#clip350)" d="M1218.66 389.282 L1234.98 389.282 L1234.98 393.217 L1213.04 393.217 L1213.04 389.282 Q1215.7 386.527 1220.28 381.898 Q1224.89 377.245 1226.07 375.902 Q1228.31 373.379 1229.19 371.643 Q1230.1 369.884 1230.1 368.194 Q1230.1 365.439 1228.15 363.703 Q1226.23 361.967 1223.13 361.967 Q1220.93 361.967 1218.48 362.731 Q1216.05 363.495 1213.27 365.046 L1213.27 360.324 Q1216.09 359.189 1218.55 358.611 Q1221 358.032 1223.04 358.032 Q1228.41 358.032 1231.6 360.717 Q1234.8 363.402 1234.8 367.893 Q1234.8 370.023 1233.99 371.944 Q1233.2 373.842 1231.09 376.435 Q1230.51 377.106 1227.41 380.324 Q1224.31 383.518 1218.66 389.282 Z" fill="#000000" fill-rule="evenodd" fill-opacity="1" /><path clip-path="url(#clip350)" d="M1254.8 361.736 Q1251.18 361.736 1249.36 365.3 Q1247.55 368.842 1247.55 375.972 Q1247.55 383.078 1249.36 386.643 Q1251.18 390.185 1254.8 390.185 Q1258.43 390.185 1260.24 386.643 Q1262.06 383.078 1262.06 375.972 Q1262.06 368.842 1260.24 365.3 Q1258.43 361.736 1254.8 361.736 M1254.8 358.032 Q1260.61 358.032 1263.66 362.638 Q1266.74 367.222 1266.74 375.972 Q1266.74 384.699 1263.66 389.305 Q1260.61 393.888 1254.8 393.888 Q1248.99 393.888 1245.91 389.305 Q1242.85 384.699 1242.85 375.972 Q1242.85 367.222 1245.91 362.638 Q1248.99 358.032 1254.8 358.032 Z" fill="#000000" fill-rule="evenodd" fill-opacity="1" /><path clip-path="url(#clip350)" d="M1219.66 117.156 L1235.98 117.156 L1235.98 121.091 L1214.03 121.091 L1214.03 117.156 Q1216.69 114.401 1221.28 109.772 Q1225.88 105.119 1227.06 103.776 Q1229.31 101.253 1230.19 99.5171 Q1231.09 97.7578 1231.09 96.068 Q1231.09 93.3134 1229.15 91.5773 Q1227.23 89.8412 1224.12 89.8412 Q1221.93 89.8412 1219.47 90.6051 Q1217.04 91.369 1214.26 92.9199 L1214.26 88.1977 Q1217.09 87.0634 1219.54 86.4847 Q1222 85.906 1224.03 85.906 Q1229.4 85.906 1232.6 88.5912 Q1235.79 91.2764 1235.79 95.7671 Q1235.79 97.8967 1234.98 99.818 Q1234.19 101.716 1232.09 104.309 Q1231.51 104.98 1228.41 108.198 Q1225.31 111.392 1219.66 117.156 Z" fill="#000000" fill-rule="evenodd" fill-opacity="1" /><path clip-path="url(#clip350)" d="M1245.84 86.531 L1264.19 86.531 L1264.19 90.4662 L1250.12 90.4662 L1250.12 98.9384 Q1251.14 98.5911 1252.16 98.4291 Q1253.18 98.2439 1254.19 98.2439 Q1259.98 98.2439 1263.36 101.415 Q1266.74 104.586 1266.74 110.003 Q1266.74 115.582 1263.27 118.684 Q1259.8 121.762 1253.48 121.762 Q1251.3 121.762 1249.03 121.392 Q1246.79 121.022 1244.38 120.281 L1244.38 115.582 Q1246.46 116.716 1248.68 117.272 Q1250.91 117.827 1253.38 117.827 Q1257.39 117.827 1259.73 115.721 Q1262.06 113.614 1262.06 110.003 Q1262.06 106.392 1259.73 104.286 Q1257.39 102.179 1253.38 102.179 Q1251.51 102.179 1249.63 102.596 Q1247.78 103.012 1245.84 103.892 L1245.84 86.531 Z" fill="#000000" fill-rule="evenodd" fill-opacity="1" /><path clip-path="url(#clip350)" d="M1127.13 882.651 L1127.13 854.833 L1132.48 854.833 L1158.1 876.858 L1158.1 854.833 L1162.78 854.833 L1162.78 883.447 L1157.43 883.447 L1131.81 861.422 L1131.81 882.651 L1127.13 882.651 Z" fill="#000000" fill-rule="evenodd" fill-opacity="1" /><path clip-path="url(#clip350)" d="M1113.26 825.71 L1113.26 812.215 L1117.81 812.215 L1117.81 819.854 L1166.82 819.854 L1166.82 812.215 L1171.37 812.215 L1171.37 825.71 L1113.26 825.71 Z" fill="#000000" fill-rule="evenodd" fill-opacity="1" /><path clip-path="url(#clip350)" d="M1113.26 799.961 L1113.26 794.072 L1142.51 794.072 L1127.13 776.599 L1127.13 769.119 L1143.81 788.025 L1162.78 768.323 L1162.78 775.962 L1145.37 794.072 L1162.78 794.072 L1162.78 799.961 L1113.26 799.961 Z" fill="#000000" fill-rule="evenodd" fill-opacity="1" /><path clip-path="url(#clip350)" d="M1133.98 734.235 Q1130.03 732.039 1128.15 728.983 Q1126.27 725.928 1126.27 721.79 Q1126.27 716.22 1130.19 713.196 Q1134.07 710.172 1141.26 710.172 L1162.78 710.172 L1162.78 716.061 L1141.46 716.061 Q1136.33 716.061 1133.85 717.875 Q1131.37 719.689 1131.37 723.413 Q1131.37 727.965 1134.39 730.606 Q1137.41 733.248 1142.63 733.248 L1162.78 733.248 L1162.78 739.136 L1141.46 739.136 Q1136.3 739.136 1133.85 740.951 Q1131.37 742.765 1131.37 746.552 Q1131.37 751.04 1134.42 753.682 Q1137.45 756.324 1142.63 756.324 L1162.78 756.324 L1162.78 762.212 L1127.13 762.212 L1127.13 756.324 L1132.67 756.324 Q1129.39 754.319 1127.83 751.518 Q1126.27 748.717 1126.27 744.865 Q1126.27 740.982 1128.25 738.277 Q1130.22 735.54 1133.98 734.235 Z" fill="#000000" fill-rule="evenodd" fill-opacity="1" /><path clip-path="url(#clip350)" d="M1113.26 684.805 L1171.37 684.805 L1171.37 698.3 L1166.82 698.3 L1166.82 690.693 L1117.81 690.693 L1117.81 698.3 L1113.26 698.3 L1113.26 684.805 Z" fill="#000000" fill-rule="evenodd" fill-opacity="1" /><path clip-path="url(#clip350)" d="M1614.73 12.096 L1622.91 12.096 L1622.91 72.576 L1614.73 72.576 L1614.73 12.096 Z" fill="#000000" fill-rule="evenodd" fill-opacity="1" /><path clip-path="url(#clip350)" d="M1667.8 28.5427 L1667.8 35.5912 Q1664.64 33.9709 1661.24 33.1607 Q1657.83 32.3505 1654.19 32.3505 Q1648.64 32.3505 1645.84 34.0519 Q1643.09 35.7533 1643.09 39.156 Q1643.09 41.7486 1645.07 43.2475 Q1647.06 44.7058 1653.05 46.0426 L1655.6 46.6097 Q1663.54 48.3111 1666.87 51.4303 Q1670.23 54.509 1670.23 60.0587 Q1670.23 66.3781 1665.21 70.0644 Q1660.22 73.7508 1651.47 73.7508 Q1647.83 73.7508 1643.86 73.0216 Q1639.93 72.3329 1635.55 70.9151 L1635.55 63.2184 Q1639.68 65.3654 1643.7 66.4591 Q1647.71 67.5124 1651.63 67.5124 Q1656.9 67.5124 1659.74 65.73 Q1662.57 63.9071 1662.57 60.6258 Q1662.57 57.5877 1660.51 55.9673 Q1658.48 54.3469 1651.55 52.8481 L1648.96 52.2405 Q1642.03 50.7821 1638.96 47.7845 Q1635.88 44.7463 1635.88 39.4801 Q1635.88 33.0797 1640.41 29.5959 Q1644.95 26.1121 1653.3 26.1121 Q1657.43 26.1121 1661.07 26.7198 Q1664.72 27.3274 1667.8 28.5427 Z" fill="#000000" fill-rule="evenodd" fill-opacity="1" /><path clip-path="url(#clip350)" d="M1699.68 32.4315 Q1693.68 32.4315 1690.2 37.1306 Q1686.72 41.7891 1686.72 49.9314 Q1686.72 58.0738 1690.16 62.7728 Q1693.64 67.4314 1699.68 67.4314 Q1705.63 67.4314 1709.12 62.7323 Q1712.6 58.0333 1712.6 49.9314 Q1712.6 41.8701 1709.12 37.1711 Q1705.63 32.4315 1699.68 32.4315 M1699.68 26.1121 Q1709.4 26.1121 1714.95 32.4315 Q1720.5 38.7509 1720.5 49.9314 Q1720.5 61.0714 1714.95 67.4314 Q1709.4 73.7508 1699.68 73.7508 Q1689.92 73.7508 1684.37 67.4314 Q1678.86 61.0714 1678.86 49.9314 Q1678.86 38.7509 1684.37 32.4315 Q1689.92 26.1121 1699.68 26.1121 Z" fill="#000000" fill-rule="evenodd" fill-opacity="1" /><path clip-path="url(#clip350)" d="M1740.23 14.324 L1740.23 27.2059 L1755.58 27.2059 L1755.58 32.9987 L1740.23 32.9987 L1740.23 57.6282 Q1740.23 63.1779 1741.73 64.7578 Q1743.27 66.3376 1747.92 66.3376 L1755.58 66.3376 L1755.58 72.576 L1747.92 72.576 Q1739.3 72.576 1736.02 69.3758 Q1732.73 66.1351 1732.73 57.6282 L1732.73 32.9987 L1727.27 32.9987 L1727.27 27.2059 L1732.73 27.2059 L1732.73 14.324 L1740.23 14.324 Z" fill="#000000" fill-rule="evenodd" fill-opacity="1" /><path clip-path="url(#clip350)" d="M1803.1 45.1919 L1803.1 72.576 L1795.64 72.576 L1795.64 45.4349 Q1795.64 38.994 1793.13 35.7938 Q1790.62 32.5936 1785.6 32.5936 Q1779.56 32.5936 1776.08 36.4419 Q1772.59 40.2903 1772.59 46.9338 L1772.59 72.576 L1765.1 72.576 L1765.1 9.54393 L1772.59 9.54393 L1772.59 34.2544 Q1775.27 30.163 1778.87 28.1376 Q1782.52 26.1121 1787.26 26.1121 Q1795.08 26.1121 1799.09 30.9732 Q1803.1 35.7938 1803.1 45.1919 Z" fill="#000000" fill-rule="evenodd" fill-opacity="1" /><path clip-path="url(#clip350)" d="M1856.77 48.0275 L1856.77 51.6733 L1822.5 51.6733 Q1822.99 59.3701 1827.12 63.421 Q1831.29 67.4314 1838.71 67.4314 Q1843 67.4314 1847.01 66.3781 Q1851.06 65.3249 1855.03 63.2184 L1855.03 70.267 Q1851.02 71.9684 1846.81 72.8596 Q1842.59 73.7508 1838.26 73.7508 Q1827.4 73.7508 1821.04 67.4314 Q1814.72 61.1119 1814.72 50.3365 Q1814.72 39.1965 1820.72 32.6746 Q1826.76 26.1121 1836.96 26.1121 Q1846.12 26.1121 1851.43 32.0264 Q1856.77 37.9003 1856.77 48.0275 M1849.32 45.84 Q1849.24 39.7232 1845.88 36.0774 Q1842.55 32.4315 1837.04 32.4315 Q1830.81 32.4315 1827.04 35.9558 Q1823.31 39.4801 1822.75 45.8805 L1849.32 45.84 Z" fill="#000000" fill-rule="evenodd" fill-opacity="1" /><path clip-path="url(#clip350)" d="M1895.3 34.1734 Q1894.04 33.4443 1892.54 33.1202 Q1891.08 32.7556 1889.3 32.7556 Q1882.98 32.7556 1879.58 36.8875 Q1876.22 40.9789 1876.22 48.6757 L1876.22 72.576 L1868.72 72.576 L1868.72 27.2059 L1876.22 27.2059 L1876.22 34.2544 Q1878.57 30.1225 1882.33 28.1376 Q1886.1 26.1121 1891.49 26.1121 Q1892.26 26.1121 1893.19 26.2337 Q1894.12 26.3147 1895.26 26.5172 L1895.3 34.1734 Z" fill="#000000" fill-rule="evenodd" fill-opacity="1" /><path clip-path="url(#clip350)" d="M1936.98 35.9153 Q1939.78 30.8922 1943.66 28.5022 Q1947.55 26.1121 1952.82 26.1121 Q1959.91 26.1121 1963.76 31.0947 Q1967.61 36.0368 1967.61 45.1919 L1967.61 72.576 L1960.11 72.576 L1960.11 45.4349 Q1960.11 38.913 1957.8 35.7533 Q1955.49 32.5936 1950.75 32.5936 Q1944.96 32.5936 1941.6 36.4419 Q1938.24 40.2903 1938.24 46.9338 L1938.24 72.576 L1930.74 72.576 L1930.74 45.4349 Q1930.74 38.8725 1928.43 35.7533 Q1926.12 32.5936 1921.3 32.5936 Q1915.59 32.5936 1912.23 36.4824 Q1908.87 40.3308 1908.87 46.9338 L1908.87 72.576 L1901.37 72.576 L1901.37 27.2059 L1908.87 27.2059 L1908.87 34.2544 Q1911.42 30.082 1914.98 28.0971 Q1918.55 26.1121 1923.45 26.1121 Q1928.39 26.1121 1931.84 28.6237 Q1935.32 31.1352 1936.98 35.9153 Z" fill="#000000" fill-rule="evenodd" fill-opacity="1" /><path clip-path="url(#clip350)" d="M2003.09 49.7694 Q1994.06 49.7694 1990.57 51.8354 Q1987.09 53.9013 1987.09 58.8839 Q1987.09 62.8538 1989.68 65.2034 Q1992.32 67.5124 1996.81 67.5124 Q2003.01 67.5124 2006.74 63.1374 Q2010.5 58.7219 2010.5 51.4303 L2010.5 49.7694 L2003.09 49.7694 M2017.96 46.6907 L2017.96 72.576 L2010.5 72.576 L2010.5 65.6895 Q2007.95 69.8214 2004.14 71.8063 Q2000.34 73.7508 1994.83 73.7508 Q1987.86 73.7508 1983.73 69.8619 Q1979.64 65.9325 1979.64 59.3701 Q1979.64 51.7138 1984.74 47.825 Q1989.89 43.9361 2000.05 43.9361 L2010.5 43.9361 L2010.5 43.2069 Q2010.5 38.0623 2007.1 35.2672 Q2003.74 32.4315 1997.62 32.4315 Q1993.73 32.4315 1990.05 33.3632 Q1986.36 34.295 1982.96 36.1584 L1982.96 29.2718 Q1987.05 27.692 1990.9 26.9223 Q1994.75 26.1121 1998.39 26.1121 Q2008.24 26.1121 2013.1 31.2163 Q2017.96 36.3204 2017.96 46.6907 Z" fill="#000000" fill-rule="evenodd" fill-opacity="1" /><path clip-path="url(#clip350)" d="M2033.31 9.54393 L2040.76 9.54393 L2040.76 72.576 L2033.31 72.576 L2033.31 9.54393 Z" fill="#000000" fill-rule="evenodd" fill-opacity="1" /><polyline clip-path="url(#clip353)" style="stroke:#009af9; stroke-linecap:butt; stroke-linejoin:round; stroke-width:4; stroke-opacity:1; fill:none" points="
  2323.04,1464.44 2262.02,1436.67 2204.56,1408.91 2150.46,1381.14 2099.52,1353.37 2051.54,1325.6 2006.37,1297.83 1963.84,1270.07 1923.78,1242.3 1886.07,1214.53 
  1850.55,1186.76 1817.11,1158.99 1785.62,1131.23 1755.97,1103.46 1728.05,1075.69 1701.75,1047.92 1677,1020.15 1653.68,992.386 1631.73,964.618 1611.06,936.85 
  1591.6,909.082 1573.27,881.314 1556.01,853.546 1539.76,825.778 1524.45,798.01 1510.04,770.242 1496.48,742.474 1483.7,714.706 1471.67,686.938 1460.34,659.17 
  1449.67,631.402 1439.62,603.634 1430.17,575.866 1421.26,548.098 1412.87,520.33 1404.97,492.562 1397.54,464.794 1390.53,437.027 1383.94,409.259 1377.73,381.491 
  1371.88,353.723 1366.38,325.955 1361.2,298.187 1356.31,270.419 1351.72,242.651 1347.39,214.883 1343.31,187.115 1339.47,159.347 1335.86,131.579 1332.46,103.811 
  
  "/>
<path clip-path="url(#clip350)" d="
M2148.66 232.028 L2317.76 232.028 L2317.76 111.068 L2148.66 111.068  Z
  " fill="#ffffff" fill-rule="evenodd" fill-opacity="1"/>
<polyline clip-path="url(#clip350)" style="stroke:#000000; stroke-linecap:butt; stroke-linejoin:round; stroke-width:4; stroke-opacity:1; fill:none" points="
  2148.66,232.028 2317.76,232.028 2317.76,111.068 2148.66,111.068 2148.66,232.028 
  "/>
<polyline clip-path="url(#clip350)" style="stroke:#009af9; stroke-linecap:butt; stroke-linejoin:round; stroke-width:4; stroke-opacity:1; fill:none" points="
  2160.32,171.548 2230.32,171.548 
  "/>
<path clip-path="url(#clip350)" d="M2255.83 191.235 Q2254.03 195.865 2252.32 197.277 Q2250.6 198.689 2247.73 198.689 L2244.33 198.689 L2244.33 195.124 L2246.83 195.124 Q2248.59 195.124 2249.56 194.291 Q2250.53 193.457 2251.71 190.355 L2252.48 188.411 L2241.99 162.902 L2246.51 162.902 L2254.61 183.18 L2262.71 162.902 L2267.22 162.902 L2255.83 191.235 Z" fill="#000000" fill-rule="evenodd" fill-opacity="1" /><path clip-path="url(#clip350)" d="M2274.51 184.893 L2282.15 184.893 L2282.15 158.527 L2273.84 160.194 L2273.84 155.934 L2282.11 154.268 L2286.78 154.268 L2286.78 184.893 L2294.42 184.893 L2294.42 188.828 L2274.51 188.828 L2274.51 184.893 Z" fill="#000000" fill-rule="evenodd" fill-opacity="1" /></svg>
