<?xml version="1.0" encoding="utf-8"?>
<svg xmlns="http://www.w3.org/2000/svg" xmlns:xlink="http://www.w3.org/1999/xlink" width="600" height="400" viewBox="0 0 2400 1600">
<defs>
  <clipPath id="clip100">
    <rect x="0" y="0" width="2400" height="1600"/>
  </clipPath>
</defs>
<path clip-path="url(#clip100)" d="
M0 1600 L2400 1600 L2400 0 L0 0  Z
  " fill="#ffffff" fill-rule="evenodd" fill-opacity="1"/>
<defs>
  <clipPath id="clip101">
    <rect x="480" y="0" width="1681" height="1600"/>
  </clipPath>
</defs>
<path clip-path="url(#clip100)" d="
M203.964 1423.18 L1152.76 1423.18 L1152.76 123.472 L203.964 123.472  Z
  " fill="#ffffff" fill-rule="evenodd" fill-opacity="1"/>
<defs>
  <clipPath id="clip102">
    <rect x="203" y="123" width="950" height="1301"/>
  </clipPath>
</defs>
<polyline clip-path="url(#clip102)" style="stroke:#000000; stroke-linecap:butt; stroke-linejoin:round; stroke-width:2; stroke-opacity:0.1; fill:none" points="
  230.816,1423.18 230.816,123.472 
  "/>
<polyline clip-path="url(#clip102)" style="stroke:#000000; stroke-linecap:butt; stroke-linejoin:round; stroke-width:2; stroke-opacity:0.1; fill:none" points="
  454.588,1423.18 454.588,123.472 
  "/>
<polyline clip-path="url(#clip102)" style="stroke:#000000; stroke-linecap:butt; stroke-linejoin:round; stroke-width:2; stroke-opacity:0.1; fill:none" points="
  678.36,1423.18 678.36,123.472 
  "/>
<polyline clip-path="url(#clip102)" style="stroke:#000000; stroke-linecap:butt; stroke-linejoin:round; stroke-width:2; stroke-opacity:0.1; fill:none" points="
  902.132,1423.18 902.132,123.472 
  "/>
<polyline clip-path="url(#clip102)" style="stroke:#000000; stroke-linecap:butt; stroke-linejoin:round; stroke-width:2; stroke-opacity:0.1; fill:none" points="
  1125.9,1423.18 1125.9,123.472 
  "/>
<polyline clip-path="url(#clip100)" style="stroke:#000000; stroke-linecap:butt; stroke-linejoin:round; stroke-width:4; stroke-opacity:1; fill:none" points="
  203.964,1423.18 1152.76,1423.18 
  "/>
<polyline clip-path="url(#clip100)" style="stroke:#000000; stroke-linecap:butt; stroke-linejoin:round; stroke-width:4; stroke-opacity:1; fill:none" points="
  230.816,1423.18 230.816,1404.28 
  "/>
<polyline clip-path="url(#clip100)" style="stroke:#000000; stroke-linecap:butt; stroke-linejoin:round; stroke-width:4; stroke-opacity:1; fill:none" points="
  454.588,1423.18 454.588,1404.28 
  "/>
<polyline clip-path="url(#clip100)" style="stroke:#000000; stroke-linecap:butt; stroke-linejoin:round; stroke-width:4; stroke-opacity:1; fill:none" points="
  678.36,1423.18 678.36,1404.28 
  "/>
<polyline clip-path="url(#clip100)" style="stroke:#000000; stroke-linecap:butt; stroke-linejoin:round; stroke-width:4; stroke-opacity:1; fill:none" points="
  902.132,1423.18 902.132,1404.28 
  "/>
<polyline clip-path="url(#clip100)" style="stroke:#000000; stroke-linecap:butt; stroke-linejoin:round; stroke-width:4; stroke-opacity:1; fill:none" points="
  1125.9,1423.18 1125.9,1404.28 
  "/>
<path clip-path="url(#clip100)" d="M156.812 1479.92 L173.131 1479.92 L173.131 1483.85 L151.187 1483.85 L151.187 1479.92 Q153.849 1477.16 158.432 1472.53 Q163.039 1467.88 164.219 1466.54 Q166.465 1464.01 167.344 1462.28 Q168.247 1460.52 168.247 1458.83 Q168.247 1456.07 166.303 1454.34 Q164.381 1452.6 161.28 1452.6 Q159.08 1452.6 156.627 1453.37 Q154.196 1454.13 151.418 1455.68 L151.418 1450.96 Q154.243 1449.82 156.696 1449.25 Q159.15 1448.67 161.187 1448.67 Q166.557 1448.67 169.752 1451.35 Q172.946 1454.04 172.946 1458.53 Q172.946 1460.66 172.136 1462.58 Q171.349 1464.48 169.242 1467.07 Q168.664 1467.74 165.562 1470.96 Q162.46 1474.15 156.812 1479.92 Z" fill="#000000" fill-rule="evenodd" fill-opacity="1" /><path clip-path="url(#clip100)" d="M183.085 1483.13 L183.085 1478.88 Q184.844 1479.71 186.65 1480.15 Q188.455 1480.59 190.191 1480.59 Q194.821 1480.59 197.252 1477.49 Q199.705 1474.36 200.052 1468.02 Q198.71 1470.01 196.65 1471.07 Q194.59 1472.14 192.09 1472.14 Q186.904 1472.14 183.872 1469.01 Q180.863 1465.87 180.863 1460.43 Q180.863 1455.1 184.011 1451.88 Q187.159 1448.67 192.39 1448.67 Q198.386 1448.67 201.534 1453.27 Q204.705 1457.86 204.705 1466.61 Q204.705 1474.78 200.816 1479.66 Q196.951 1484.52 190.4 1484.52 Q188.64 1484.52 186.835 1484.18 Q185.029 1483.83 183.085 1483.13 M192.39 1468.48 Q195.539 1468.48 197.367 1466.33 Q199.219 1464.18 199.219 1460.43 Q199.219 1456.7 197.367 1454.55 Q195.539 1452.37 192.39 1452.37 Q189.242 1452.37 187.39 1454.55 Q185.562 1456.7 185.562 1460.43 Q185.562 1464.18 187.39 1466.33 Q189.242 1468.48 192.39 1468.48 Z" fill="#000000" fill-rule="evenodd" fill-opacity="1" /><path clip-path="url(#clip100)" d="M223.108 1452.37 Q219.497 1452.37 217.668 1455.94 Q215.863 1459.48 215.863 1466.61 Q215.863 1473.71 217.668 1477.28 Q219.497 1480.82 223.108 1480.82 Q226.742 1480.82 228.548 1477.28 Q230.376 1473.71 230.376 1466.61 Q230.376 1459.48 228.548 1455.94 Q226.742 1452.37 223.108 1452.37 M223.108 1448.67 Q228.918 1448.67 231.974 1453.27 Q235.052 1457.86 235.052 1466.61 Q235.052 1475.33 231.974 1479.94 Q228.918 1484.52 223.108 1484.52 Q217.298 1484.52 214.219 1479.94 Q211.164 1475.33 211.164 1466.61 Q211.164 1457.86 214.219 1453.27 Q217.298 1448.67 223.108 1448.67 Z" fill="#000000" fill-rule="evenodd" fill-opacity="1" /><path clip-path="url(#clip100)" d="M243.27 1477.97 L248.154 1477.97 L248.154 1483.85 L243.27 1483.85 L243.27 1477.97 Z" fill="#000000" fill-rule="evenodd" fill-opacity="1" /><path clip-path="url(#clip100)" d="M268.339 1452.37 Q264.728 1452.37 262.899 1455.94 Q261.094 1459.48 261.094 1466.61 Q261.094 1473.71 262.899 1477.28 Q264.728 1480.82 268.339 1480.82 Q271.973 1480.82 273.779 1477.28 Q275.608 1473.71 275.608 1466.61 Q275.608 1459.48 273.779 1455.94 Q271.973 1452.37 268.339 1452.37 M268.339 1448.67 Q274.149 1448.67 277.205 1453.27 Q280.284 1457.86 280.284 1466.61 Q280.284 1475.33 277.205 1479.94 Q274.149 1484.52 268.339 1484.52 Q262.529 1484.52 259.45 1479.94 Q256.395 1475.33 256.395 1466.61 Q256.395 1457.86 259.45 1453.27 Q262.529 1448.67 268.339 1448.67 Z" fill="#000000" fill-rule="evenodd" fill-opacity="1" /><path clip-path="url(#clip100)" d="M298.501 1452.37 Q294.89 1452.37 293.061 1455.94 Q291.256 1459.48 291.256 1466.61 Q291.256 1473.71 293.061 1477.28 Q294.89 1480.82 298.501 1480.82 Q302.135 1480.82 303.941 1477.28 Q305.769 1473.71 305.769 1466.61 Q305.769 1459.48 303.941 1455.94 Q302.135 1452.37 298.501 1452.37 M298.501 1448.67 Q304.311 1448.67 307.367 1453.27 Q310.445 1457.86 310.445 1466.61 Q310.445 1475.33 307.367 1479.94 Q304.311 1484.52 298.501 1484.52 Q292.691 1484.52 289.612 1479.94 Q286.557 1475.33 286.557 1466.61 Q286.557 1457.86 289.612 1453.27 Q292.691 1448.67 298.501 1448.67 Z" fill="#000000" fill-rule="evenodd" fill-opacity="1" /><path clip-path="url(#clip100)" d="M381.081 1479.92 L397.401 1479.92 L397.401 1483.85 L375.456 1483.85 L375.456 1479.92 Q378.118 1477.16 382.702 1472.53 Q387.308 1467.88 388.489 1466.54 Q390.734 1464.01 391.614 1462.28 Q392.517 1460.52 392.517 1458.83 Q392.517 1456.07 390.572 1454.34 Q388.651 1452.6 385.549 1452.6 Q383.35 1452.6 380.896 1453.37 Q378.466 1454.13 375.688 1455.68 L375.688 1450.96 Q378.512 1449.82 380.966 1449.25 Q383.419 1448.67 385.456 1448.67 Q390.827 1448.67 394.021 1451.35 Q397.216 1454.04 397.216 1458.53 Q397.216 1460.66 396.405 1462.58 Q395.618 1464.48 393.512 1467.07 Q392.933 1467.74 389.831 1470.96 Q386.73 1474.15 381.081 1479.92 Z" fill="#000000" fill-rule="evenodd" fill-opacity="1" /><path clip-path="url(#clip100)" d="M407.354 1483.13 L407.354 1478.88 Q409.114 1479.71 410.919 1480.15 Q412.725 1480.59 414.461 1480.59 Q419.09 1480.59 421.521 1477.49 Q423.975 1474.36 424.322 1468.02 Q422.979 1470.01 420.919 1471.07 Q418.859 1472.14 416.359 1472.14 Q411.174 1472.14 408.141 1469.01 Q405.132 1465.87 405.132 1460.43 Q405.132 1455.1 408.28 1451.88 Q411.428 1448.67 416.66 1448.67 Q422.655 1448.67 425.803 1453.27 Q428.975 1457.86 428.975 1466.61 Q428.975 1474.78 425.086 1479.66 Q421.22 1484.52 414.669 1484.52 Q412.91 1484.52 411.104 1484.18 Q409.299 1483.83 407.354 1483.13 M416.66 1468.48 Q419.808 1468.48 421.637 1466.33 Q423.489 1464.18 423.489 1460.43 Q423.489 1456.7 421.637 1454.55 Q419.808 1452.37 416.66 1452.37 Q413.512 1452.37 411.66 1454.55 Q409.831 1456.7 409.831 1460.43 Q409.831 1464.18 411.66 1466.33 Q413.512 1468.48 416.66 1468.48 Z" fill="#000000" fill-rule="evenodd" fill-opacity="1" /><path clip-path="url(#clip100)" d="M447.377 1452.37 Q443.766 1452.37 441.938 1455.94 Q440.132 1459.48 440.132 1466.61 Q440.132 1473.71 441.938 1477.28 Q443.766 1480.82 447.377 1480.82 Q451.012 1480.82 452.817 1477.28 Q454.646 1473.71 454.646 1466.61 Q454.646 1459.48 452.817 1455.94 Q451.012 1452.37 447.377 1452.37 M447.377 1448.67 Q453.188 1448.67 456.243 1453.27 Q459.322 1457.86 459.322 1466.61 Q459.322 1475.33 456.243 1479.94 Q453.188 1484.52 447.377 1484.52 Q441.567 1484.52 438.489 1479.94 Q435.433 1475.33 435.433 1466.61 Q435.433 1457.86 438.489 1453.27 Q441.567 1448.67 447.377 1448.67 Z" fill="#000000" fill-rule="evenodd" fill-opacity="1" /><path clip-path="url(#clip100)" d="M467.539 1477.97 L472.424 1477.97 L472.424 1483.85 L467.539 1483.85 L467.539 1477.97 Z" fill="#000000" fill-rule="evenodd" fill-opacity="1" /><path clip-path="url(#clip100)" d="M486.636 1479.92 L502.956 1479.92 L502.956 1483.85 L481.011 1483.85 L481.011 1479.92 Q483.673 1477.16 488.257 1472.53 Q492.863 1467.88 494.044 1466.54 Q496.289 1464.01 497.169 1462.28 Q498.072 1460.52 498.072 1458.83 Q498.072 1456.07 496.127 1454.34 Q494.206 1452.6 491.104 1452.6 Q488.905 1452.6 486.451 1453.37 Q484.021 1454.13 481.243 1455.68 L481.243 1450.96 Q484.067 1449.82 486.521 1449.25 Q488.974 1448.67 491.011 1448.67 Q496.382 1448.67 499.576 1451.35 Q502.771 1454.04 502.771 1458.53 Q502.771 1460.66 501.96 1462.58 Q501.173 1464.48 499.067 1467.07 Q498.488 1467.74 495.386 1470.96 Q492.285 1474.15 486.636 1479.92 Z" fill="#000000" fill-rule="evenodd" fill-opacity="1" /><path clip-path="url(#clip100)" d="M512.817 1449.29 L531.173 1449.29 L531.173 1453.23 L517.099 1453.23 L517.099 1461.7 Q518.118 1461.35 519.136 1461.19 Q520.155 1461 521.173 1461 Q526.96 1461 530.34 1464.18 Q533.719 1467.35 533.719 1472.76 Q533.719 1478.34 530.247 1481.44 Q526.775 1484.52 520.456 1484.52 Q518.28 1484.52 516.011 1484.15 Q513.766 1483.78 511.358 1483.04 L511.358 1478.34 Q513.442 1479.48 515.664 1480.03 Q517.886 1480.59 520.363 1480.59 Q524.368 1480.59 526.706 1478.48 Q529.044 1476.38 529.044 1472.76 Q529.044 1469.15 526.706 1467.05 Q524.368 1464.94 520.363 1464.94 Q518.488 1464.94 516.613 1465.36 Q514.761 1465.77 512.817 1466.65 L512.817 1449.29 Z" fill="#000000" fill-rule="evenodd" fill-opacity="1" /><path clip-path="url(#clip100)" d="M604.356 1479.92 L620.675 1479.92 L620.675 1483.85 L598.731 1483.85 L598.731 1479.92 Q601.393 1477.16 605.976 1472.53 Q610.582 1467.88 611.763 1466.54 Q614.008 1464.01 614.888 1462.28 Q615.791 1460.52 615.791 1458.83 Q615.791 1456.07 613.846 1454.34 Q611.925 1452.6 608.823 1452.6 Q606.624 1452.6 604.17 1453.37 Q601.74 1454.13 598.962 1455.68 L598.962 1450.96 Q601.786 1449.82 604.24 1449.25 Q606.693 1448.67 608.73 1448.67 Q614.101 1448.67 617.295 1451.35 Q620.49 1454.04 620.49 1458.53 Q620.49 1460.66 619.679 1462.58 Q618.892 1464.48 616.786 1467.07 Q616.207 1467.74 613.105 1470.96 Q610.004 1474.15 604.356 1479.92 Z" fill="#000000" fill-rule="evenodd" fill-opacity="1" /><path clip-path="url(#clip100)" d="M630.629 1483.13 L630.629 1478.88 Q632.388 1479.71 634.193 1480.15 Q635.999 1480.59 637.735 1480.59 Q642.365 1480.59 644.795 1477.49 Q647.249 1474.36 647.596 1468.02 Q646.253 1470.01 644.193 1471.07 Q642.133 1472.14 639.633 1472.14 Q634.448 1472.14 631.416 1469.01 Q628.406 1465.87 628.406 1460.43 Q628.406 1455.1 631.554 1451.88 Q634.703 1448.67 639.934 1448.67 Q645.929 1448.67 649.077 1453.27 Q652.249 1457.86 652.249 1466.61 Q652.249 1474.78 648.36 1479.66 Q644.494 1484.52 637.943 1484.52 Q636.184 1484.52 634.378 1484.18 Q632.573 1483.83 630.629 1483.13 M639.934 1468.48 Q643.082 1468.48 644.911 1466.33 Q646.763 1464.18 646.763 1460.43 Q646.763 1456.7 644.911 1454.55 Q643.082 1452.37 639.934 1452.37 Q636.786 1452.37 634.934 1454.55 Q633.105 1456.7 633.105 1460.43 Q633.105 1464.18 634.934 1466.33 Q636.786 1468.48 639.934 1468.48 Z" fill="#000000" fill-rule="evenodd" fill-opacity="1" /><path clip-path="url(#clip100)" d="M670.651 1452.37 Q667.04 1452.37 665.212 1455.94 Q663.406 1459.48 663.406 1466.61 Q663.406 1473.71 665.212 1477.28 Q667.04 1480.82 670.651 1480.82 Q674.286 1480.82 676.091 1477.28 Q677.92 1473.71 677.92 1466.61 Q677.92 1459.48 676.091 1455.94 Q674.286 1452.37 670.651 1452.37 M670.651 1448.67 Q676.462 1448.67 679.517 1453.27 Q682.596 1457.86 682.596 1466.61 Q682.596 1475.33 679.517 1479.94 Q676.462 1484.52 670.651 1484.52 Q664.841 1484.52 661.763 1479.94 Q658.707 1475.33 658.707 1466.61 Q658.707 1457.86 661.763 1453.27 Q664.841 1448.67 670.651 1448.67 Z" fill="#000000" fill-rule="evenodd" fill-opacity="1" /><path clip-path="url(#clip100)" d="M690.813 1477.97 L695.698 1477.97 L695.698 1483.85 L690.813 1483.85 L690.813 1477.97 Z" fill="#000000" fill-rule="evenodd" fill-opacity="1" /><path clip-path="url(#clip100)" d="M705.929 1449.29 L724.285 1449.29 L724.285 1453.23 L710.211 1453.23 L710.211 1461.7 Q711.23 1461.35 712.248 1461.19 Q713.267 1461 714.285 1461 Q720.072 1461 723.452 1464.18 Q726.832 1467.35 726.832 1472.76 Q726.832 1478.34 723.359 1481.44 Q719.887 1484.52 713.568 1484.52 Q711.392 1484.52 709.123 1484.15 Q706.878 1483.78 704.471 1483.04 L704.471 1478.34 Q706.554 1479.48 708.776 1480.03 Q710.998 1480.59 713.475 1480.59 Q717.48 1480.59 719.818 1478.48 Q722.156 1476.38 722.156 1472.76 Q722.156 1469.15 719.818 1467.05 Q717.48 1464.94 713.475 1464.94 Q711.6 1464.94 709.725 1465.36 Q707.873 1465.77 705.929 1466.65 L705.929 1449.29 Z" fill="#000000" fill-rule="evenodd" fill-opacity="1" /><path clip-path="url(#clip100)" d="M746.045 1452.37 Q742.433 1452.37 740.605 1455.94 Q738.799 1459.48 738.799 1466.61 Q738.799 1473.71 740.605 1477.28 Q742.433 1480.82 746.045 1480.82 Q749.679 1480.82 751.484 1477.28 Q753.313 1473.71 753.313 1466.61 Q753.313 1459.48 751.484 1455.94 Q749.679 1452.37 746.045 1452.37 M746.045 1448.67 Q751.855 1448.67 754.91 1453.27 Q757.989 1457.86 757.989 1466.61 Q757.989 1475.33 754.91 1479.94 Q751.855 1484.52 746.045 1484.52 Q740.234 1484.52 737.156 1479.94 Q734.1 1475.33 734.1 1466.61 Q734.1 1457.86 737.156 1453.27 Q740.234 1448.67 746.045 1448.67 Z" fill="#000000" fill-rule="evenodd" fill-opacity="1" /><path clip-path="url(#clip100)" d="M828.625 1479.92 L844.944 1479.92 L844.944 1483.85 L823 1483.85 L823 1479.92 Q825.662 1477.16 830.245 1472.53 Q834.852 1467.88 836.032 1466.54 Q838.278 1464.01 839.157 1462.28 Q840.06 1460.52 840.06 1458.83 Q840.06 1456.07 838.116 1454.34 Q836.194 1452.6 833.093 1452.6 Q830.893 1452.6 828.44 1453.37 Q826.009 1454.13 823.231 1455.68 L823.231 1450.96 Q826.056 1449.82 828.509 1449.25 Q830.963 1448.67 833 1448.67 Q838.37 1448.67 841.565 1451.35 Q844.759 1454.04 844.759 1458.53 Q844.759 1460.66 843.949 1462.58 Q843.162 1464.48 841.055 1467.07 Q840.477 1467.74 837.375 1470.96 Q834.273 1474.15 828.625 1479.92 Z" fill="#000000" fill-rule="evenodd" fill-opacity="1" /><path clip-path="url(#clip100)" d="M854.898 1483.13 L854.898 1478.88 Q856.657 1479.71 858.463 1480.15 Q860.268 1480.59 862.004 1480.59 Q866.634 1480.59 869.065 1477.49 Q871.518 1474.36 871.865 1468.02 Q870.523 1470.01 868.463 1471.07 Q866.403 1472.14 863.903 1472.14 Q858.717 1472.14 855.685 1469.01 Q852.676 1465.87 852.676 1460.43 Q852.676 1455.1 855.824 1451.88 Q858.972 1448.67 864.203 1448.67 Q870.199 1448.67 873.347 1453.27 Q876.518 1457.86 876.518 1466.61 Q876.518 1474.78 872.629 1479.66 Q868.764 1484.52 862.213 1484.52 Q860.453 1484.52 858.648 1484.18 Q856.842 1483.83 854.898 1483.13 M864.203 1468.48 Q867.352 1468.48 869.18 1466.33 Q871.032 1464.18 871.032 1460.43 Q871.032 1456.7 869.18 1454.55 Q867.352 1452.37 864.203 1452.37 Q861.055 1452.37 859.204 1454.55 Q857.375 1456.7 857.375 1460.43 Q857.375 1464.18 859.204 1466.33 Q861.055 1468.48 864.203 1468.48 Z" fill="#000000" fill-rule="evenodd" fill-opacity="1" /><path clip-path="url(#clip100)" d="M894.921 1452.37 Q891.31 1452.37 889.481 1455.94 Q887.676 1459.48 887.676 1466.61 Q887.676 1473.71 889.481 1477.28 Q891.31 1480.82 894.921 1480.82 Q898.555 1480.82 900.361 1477.28 Q902.189 1473.71 902.189 1466.61 Q902.189 1459.48 900.361 1455.94 Q898.555 1452.37 894.921 1452.37 M894.921 1448.67 Q900.731 1448.67 903.787 1453.27 Q906.865 1457.86 906.865 1466.61 Q906.865 1475.33 903.787 1479.94 Q900.731 1484.52 894.921 1484.52 Q889.111 1484.52 886.032 1479.94 Q882.977 1475.33 882.977 1466.61 Q882.977 1457.86 886.032 1453.27 Q889.111 1448.67 894.921 1448.67 Z" fill="#000000" fill-rule="evenodd" fill-opacity="1" /><path clip-path="url(#clip100)" d="M915.083 1477.97 L919.967 1477.97 L919.967 1483.85 L915.083 1483.85 L915.083 1477.97 Z" fill="#000000" fill-rule="evenodd" fill-opacity="1" /><path clip-path="url(#clip100)" d="M928.972 1449.29 L951.194 1449.29 L951.194 1451.28 L938.648 1483.85 L933.763 1483.85 L945.569 1453.23 L928.972 1453.23 L928.972 1449.29 Z" fill="#000000" fill-rule="evenodd" fill-opacity="1" /><path clip-path="url(#clip100)" d="M960.36 1449.29 L978.717 1449.29 L978.717 1453.23 L964.643 1453.23 L964.643 1461.7 Q965.661 1461.35 966.68 1461.19 Q967.698 1461 968.717 1461 Q974.504 1461 977.883 1464.18 Q981.263 1467.35 981.263 1472.76 Q981.263 1478.34 977.791 1481.44 Q974.319 1484.52 967.999 1484.52 Q965.823 1484.52 963.555 1484.15 Q961.309 1483.78 958.902 1483.04 L958.902 1478.34 Q960.985 1479.48 963.208 1480.03 Q965.43 1480.59 967.907 1480.59 Q971.911 1480.59 974.249 1478.48 Q976.587 1476.38 976.587 1472.76 Q976.587 1469.15 974.249 1467.05 Q971.911 1464.94 967.907 1464.94 Q966.032 1464.94 964.157 1465.36 Q962.305 1465.77 960.36 1466.65 L960.36 1449.29 Z" fill="#000000" fill-rule="evenodd" fill-opacity="1" /><path clip-path="url(#clip100)" d="M1051.9 1479.92 L1068.22 1479.92 L1068.22 1483.85 L1046.27 1483.85 L1046.27 1479.92 Q1048.94 1477.16 1053.52 1472.53 Q1058.13 1467.88 1059.31 1466.54 Q1061.55 1464.01 1062.43 1462.28 Q1063.33 1460.52 1063.33 1458.83 Q1063.33 1456.07 1061.39 1454.34 Q1059.47 1452.6 1056.37 1452.6 Q1054.17 1452.6 1051.71 1453.37 Q1049.28 1454.13 1046.51 1455.68 L1046.51 1450.96 Q1049.33 1449.82 1051.78 1449.25 Q1054.24 1448.67 1056.27 1448.67 Q1061.64 1448.67 1064.84 1451.35 Q1068.03 1454.04 1068.03 1458.53 Q1068.03 1460.66 1067.22 1462.58 Q1066.44 1464.48 1064.33 1467.07 Q1063.75 1467.74 1060.65 1470.96 Q1057.55 1474.15 1051.9 1479.92 Z" fill="#000000" fill-rule="evenodd" fill-opacity="1" /><path clip-path="url(#clip100)" d="M1078.17 1483.13 L1078.17 1478.88 Q1079.93 1479.71 1081.74 1480.15 Q1083.54 1480.59 1085.28 1480.59 Q1089.91 1480.59 1092.34 1477.49 Q1094.79 1474.36 1095.14 1468.02 Q1093.8 1470.01 1091.74 1471.07 Q1089.68 1472.14 1087.18 1472.14 Q1081.99 1472.14 1078.96 1469.01 Q1075.95 1465.87 1075.95 1460.43 Q1075.95 1455.1 1079.1 1451.88 Q1082.25 1448.67 1087.48 1448.67 Q1093.47 1448.67 1096.62 1453.27 Q1099.79 1457.86 1099.79 1466.61 Q1099.79 1474.78 1095.9 1479.66 Q1092.04 1484.52 1085.49 1484.52 Q1083.73 1484.52 1081.92 1484.18 Q1080.12 1483.83 1078.17 1483.13 M1087.48 1468.48 Q1090.63 1468.48 1092.45 1466.33 Q1094.31 1464.18 1094.31 1460.43 Q1094.31 1456.7 1092.45 1454.55 Q1090.63 1452.37 1087.48 1452.37 Q1084.33 1452.37 1082.48 1454.55 Q1080.65 1456.7 1080.65 1460.43 Q1080.65 1464.18 1082.48 1466.33 Q1084.33 1468.48 1087.48 1468.48 Z" fill="#000000" fill-rule="evenodd" fill-opacity="1" /><path clip-path="url(#clip100)" d="M1109.01 1479.92 L1116.64 1479.92 L1116.64 1453.55 L1108.33 1455.22 L1108.33 1450.96 L1116.6 1449.29 L1121.27 1449.29 L1121.27 1479.92 L1128.91 1479.92 L1128.91 1483.85 L1109.01 1483.85 L1109.01 1479.92 Z" fill="#000000" fill-rule="evenodd" fill-opacity="1" /><path clip-path="url(#clip100)" d="M1138.36 1477.97 L1143.24 1477.97 L1143.24 1483.85 L1138.36 1483.85 L1138.36 1477.97 Z" fill="#000000" fill-rule="evenodd" fill-opacity="1" /><path clip-path="url(#clip100)" d="M1163.43 1452.37 Q1159.82 1452.37 1157.99 1455.94 Q1156.18 1459.48 1156.18 1466.61 Q1156.18 1473.71 1157.99 1477.28 Q1159.82 1480.82 1163.43 1480.82 Q1167.06 1480.82 1168.87 1477.28 Q1170.69 1473.71 1170.69 1466.61 Q1170.69 1459.48 1168.87 1455.94 Q1167.06 1452.37 1163.43 1452.37 M1163.43 1448.67 Q1169.24 1448.67 1172.29 1453.27 Q1175.37 1457.86 1175.37 1466.61 Q1175.37 1475.33 1172.29 1479.94 Q1169.24 1484.52 1163.43 1484.52 Q1157.62 1484.52 1154.54 1479.94 Q1151.48 1475.33 1151.48 1466.61 Q1151.48 1457.86 1154.54 1453.27 Q1157.62 1448.67 1163.43 1448.67 Z" fill="#000000" fill-rule="evenodd" fill-opacity="1" /><path clip-path="url(#clip100)" d="M1193.59 1452.37 Q1189.98 1452.37 1188.15 1455.94 Q1186.34 1459.48 1186.34 1466.61 Q1186.34 1473.71 1188.15 1477.28 Q1189.98 1480.82 1193.59 1480.82 Q1197.22 1480.82 1199.03 1477.28 Q1200.86 1473.71 1200.86 1466.61 Q1200.86 1459.48 1199.03 1455.94 Q1197.22 1452.37 1193.59 1452.37 M1193.59 1448.67 Q1199.4 1448.67 1202.45 1453.27 Q1205.53 1457.86 1205.53 1466.61 Q1205.53 1475.33 1202.45 1479.94 Q1199.4 1484.52 1193.59 1484.52 Q1187.78 1484.52 1184.7 1479.94 Q1181.64 1475.33 1181.64 1466.61 Q1181.64 1457.86 1184.7 1453.27 Q1187.78 1448.67 1193.59 1448.67 Z" fill="#000000" fill-rule="evenodd" fill-opacity="1" /><path clip-path="url(#clip100)" d="M417.445 1520.52 L457.645 1520.52 L457.645 1525.93 L440.776 1525.93 L440.776 1568.04 L434.314 1568.04 L434.314 1525.93 L417.445 1525.93 L417.445 1520.52 Z" fill="#000000" fill-rule="evenodd" fill-opacity="1" /><path clip-path="url(#clip100)" d="M483.012 1548.76 L483.012 1551.62 L456.085 1551.62 Q456.467 1557.67 459.714 1560.85 Q462.992 1564 468.817 1564 Q472.19 1564 475.341 1563.17 Q478.524 1562.35 481.643 1560.69 L481.643 1566.23 Q478.492 1567.57 475.182 1568.27 Q471.872 1568.97 468.466 1568.97 Q459.936 1568.97 454.939 1564 Q449.974 1559.04 449.974 1550.57 Q449.974 1541.82 454.685 1536.69 Q459.427 1531.54 467.448 1531.54 Q474.641 1531.54 478.811 1536.18 Q483.012 1540.8 483.012 1548.76 M477.156 1547.04 Q477.092 1542.23 474.45 1539.37 Q471.84 1536.5 467.512 1536.5 Q462.61 1536.5 459.65 1539.27 Q456.722 1542.04 456.276 1547.07 L477.156 1547.04 Z" fill="#000000" fill-rule="evenodd" fill-opacity="1" /><path clip-path="url(#clip100)" d="M520.379 1539.24 Q522.575 1535.29 525.631 1533.41 Q528.686 1531.54 532.824 1531.54 Q538.394 1531.54 541.417 1535.45 Q544.441 1539.33 544.441 1546.53 L544.441 1568.04 L538.553 1568.04 L538.553 1546.72 Q538.553 1541.59 536.739 1539.11 Q534.924 1536.63 531.201 1536.63 Q526.649 1536.63 524.007 1539.65 Q521.365 1542.68 521.365 1547.9 L521.365 1568.04 L515.477 1568.04 L515.477 1546.72 Q515.477 1541.56 513.663 1539.11 Q511.849 1536.63 508.061 1536.63 Q503.573 1536.63 500.932 1539.68 Q498.29 1542.71 498.29 1547.9 L498.29 1568.04 L492.402 1568.04 L492.402 1532.4 L498.29 1532.4 L498.29 1537.93 Q500.295 1534.66 503.096 1533.1 Q505.897 1531.54 509.748 1531.54 Q513.631 1531.54 516.337 1533.51 Q519.074 1535.48 520.379 1539.24 Z" fill="#000000" fill-rule="evenodd" fill-opacity="1" /><path clip-path="url(#clip100)" d="M561.788 1562.7 L561.788 1581.6 L555.899 1581.6 L555.899 1532.4 L561.788 1532.4 L561.788 1537.81 Q563.634 1534.62 566.435 1533.1 Q569.267 1531.54 573.182 1531.54 Q579.675 1531.54 583.718 1536.69 Q587.792 1541.85 587.792 1550.25 Q587.792 1558.65 583.718 1563.81 Q579.675 1568.97 573.182 1568.97 Q569.267 1568.97 566.435 1567.44 Q563.634 1565.88 561.788 1562.7 M581.712 1550.25 Q581.712 1543.79 579.039 1540.13 Q576.397 1536.44 571.75 1536.44 Q567.103 1536.44 564.43 1540.13 Q561.788 1543.79 561.788 1550.25 Q561.788 1556.71 564.43 1560.4 Q567.103 1564.07 571.75 1564.07 Q576.397 1564.07 579.039 1560.4 Q581.712 1556.71 581.712 1550.25 Z" fill="#000000" fill-rule="evenodd" fill-opacity="1" /><path clip-path="url(#clip100)" d="M627.991 1548.76 L627.991 1551.62 L601.064 1551.62 Q601.446 1557.67 604.693 1560.85 Q607.971 1564 613.796 1564 Q617.169 1564 620.32 1563.17 Q623.503 1562.35 626.622 1560.69 L626.622 1566.23 Q623.471 1567.57 620.161 1568.27 Q616.851 1568.97 613.445 1568.97 Q604.915 1568.97 599.918 1564 Q594.953 1559.04 594.953 1550.57 Q594.953 1541.82 599.664 1536.69 Q604.406 1531.54 612.427 1531.54 Q619.62 1531.54 623.79 1536.18 Q627.991 1540.8 627.991 1548.76 M622.135 1547.04 Q622.071 1542.23 619.429 1539.37 Q616.819 1536.5 612.491 1536.5 Q607.589 1536.5 604.629 1539.27 Q601.701 1542.04 601.255 1547.07 L622.135 1547.04 Z" fill="#000000" fill-rule="evenodd" fill-opacity="1" /><path clip-path="url(#clip100)" d="M658.26 1537.87 Q657.273 1537.3 656.096 1537.04 Q654.95 1536.76 653.549 1536.76 Q648.584 1536.76 645.911 1540 Q643.269 1543.22 643.269 1549.27 L643.269 1568.04 L637.381 1568.04 L637.381 1532.4 L643.269 1532.4 L643.269 1537.93 Q645.115 1534.69 648.075 1533.13 Q651.035 1531.54 655.268 1531.54 Q655.873 1531.54 656.605 1531.63 Q657.337 1531.7 658.228 1531.85 L658.26 1537.87 Z" fill="#000000" fill-rule="evenodd" fill-opacity="1" /><path clip-path="url(#clip100)" d="M680.604 1550.12 Q673.506 1550.12 670.769 1551.75 Q668.031 1553.37 668.031 1557.29 Q668.031 1560.4 670.068 1562.25 Q672.137 1564.07 675.67 1564.07 Q680.54 1564.07 683.468 1560.63 Q686.428 1557.16 686.428 1551.43 L686.428 1550.12 L680.604 1550.12 M692.285 1547.71 L692.285 1568.04 L686.428 1568.04 L686.428 1562.63 Q684.423 1565.88 681.431 1567.44 Q678.439 1568.97 674.111 1568.97 Q668.636 1568.97 665.39 1565.91 Q662.175 1562.82 662.175 1557.67 Q662.175 1551.65 666.185 1548.6 Q670.228 1545.54 678.217 1545.54 L686.428 1545.54 L686.428 1544.97 Q686.428 1540.93 683.755 1538.73 Q681.113 1536.5 676.307 1536.5 Q673.251 1536.5 670.355 1537.23 Q667.458 1537.97 664.785 1539.43 L664.785 1534.02 Q668 1532.78 671.023 1532.17 Q674.047 1531.54 676.912 1531.54 Q684.646 1531.54 688.465 1535.55 Q692.285 1539.56 692.285 1547.71 Z" fill="#000000" fill-rule="evenodd" fill-opacity="1" /><path clip-path="url(#clip100)" d="M710.141 1522.27 L710.141 1532.4 L722.204 1532.4 L722.204 1536.95 L710.141 1536.95 L710.141 1556.3 Q710.141 1560.66 711.318 1561.9 Q712.528 1563.14 716.188 1563.14 L722.204 1563.14 L722.204 1568.04 L716.188 1568.04 Q709.408 1568.04 706.83 1565.53 Q704.252 1562.98 704.252 1556.3 L704.252 1536.95 L699.955 1536.95 L699.955 1532.4 L704.252 1532.4 L704.252 1522.27 L710.141 1522.27 Z" fill="#000000" fill-rule="evenodd" fill-opacity="1" /><path clip-path="url(#clip100)" d="M729.301 1553.98 L729.301 1532.4 L735.158 1532.4 L735.158 1553.75 Q735.158 1558.81 737.131 1561.36 Q739.104 1563.87 743.051 1563.87 Q747.794 1563.87 750.531 1560.85 Q753.3 1557.83 753.3 1552.61 L753.3 1532.4 L759.156 1532.4 L759.156 1568.04 L753.3 1568.04 L753.3 1562.57 Q751.168 1565.82 748.335 1567.41 Q745.534 1568.97 741.81 1568.97 Q735.667 1568.97 732.484 1565.15 Q729.301 1561.33 729.301 1553.98 M744.038 1531.54 L744.038 1531.54 Z" fill="#000000" fill-rule="evenodd" fill-opacity="1" /><path clip-path="url(#clip100)" d="M791.876 1537.87 Q790.89 1537.3 789.712 1537.04 Q788.566 1536.76 787.166 1536.76 Q782.2 1536.76 779.527 1540 Q776.885 1543.22 776.885 1549.27 L776.885 1568.04 L770.997 1568.04 L770.997 1532.4 L776.885 1532.4 L776.885 1537.93 Q778.731 1534.69 781.691 1533.13 Q784.651 1531.54 788.884 1531.54 Q789.489 1531.54 790.221 1531.63 Q790.953 1531.7 791.844 1531.85 L791.876 1537.87 Z" fill="#000000" fill-rule="evenodd" fill-opacity="1" /><path clip-path="url(#clip100)" d="M827.079 1548.76 L827.079 1551.62 L800.152 1551.62 Q800.534 1557.67 803.78 1560.85 Q807.058 1564 812.883 1564 Q816.257 1564 819.408 1563.17 Q822.591 1562.35 825.71 1560.69 L825.71 1566.23 Q822.559 1567.57 819.249 1568.27 Q815.939 1568.97 812.533 1568.97 Q804.003 1568.97 799.006 1564 Q794.041 1559.04 794.041 1550.57 Q794.041 1541.82 798.751 1536.69 Q803.494 1531.54 811.514 1531.54 Q818.708 1531.54 822.877 1536.18 Q827.079 1540.8 827.079 1548.76 M821.222 1547.04 Q821.158 1542.23 818.517 1539.37 Q815.907 1536.5 811.578 1536.5 Q806.676 1536.5 803.716 1539.27 Q800.788 1542.04 800.343 1547.07 L821.222 1547.04 Z" fill="#000000" fill-rule="evenodd" fill-opacity="1" /><path clip-path="url(#clip100)" d="M856.87 1518.52 L870.365 1518.52 L870.365 1523.07 L862.727 1523.07 L862.727 1572.09 L870.365 1572.09 L870.365 1576.64 L856.87 1576.64 L856.87 1518.52 Z" fill="#000000" fill-rule="evenodd" fill-opacity="1" /><path clip-path="url(#clip100)" d="M883.097 1520.52 L889.526 1520.52 L889.526 1540.61 L910.851 1520.52 L919.127 1520.52 L895.542 1542.68 L920.814 1568.04 L912.347 1568.04 L889.526 1545.16 L889.526 1568.04 L883.097 1568.04 L883.097 1520.52 Z" fill="#000000" fill-rule="evenodd" fill-opacity="1" /><path clip-path="url(#clip100)" d="M939.274 1518.52 L939.274 1576.64 L925.779 1576.64 L925.779 1572.09 L933.386 1572.09 L933.386 1523.07 L925.779 1523.07 L925.779 1518.52 L939.274 1518.52 Z" fill="#000000" fill-rule="evenodd" fill-opacity="1" /><polyline clip-path="url(#clip102)" style="stroke:#000000; stroke-linecap:butt; stroke-linejoin:round; stroke-width:2; stroke-opacity:0.1; fill:none" points="
  203.964,1386.4 1152.76,1386.4 
  "/>
<polyline clip-path="url(#clip102)" style="stroke:#000000; stroke-linecap:butt; stroke-linejoin:round; stroke-width:2; stroke-opacity:0.1; fill:none" points="
  203.964,1141.17 1152.76,1141.17 
  "/>
<polyline clip-path="url(#clip102)" style="stroke:#000000; stroke-linecap:butt; stroke-linejoin:round; stroke-width:2; stroke-opacity:0.1; fill:none" points="
  203.964,895.94 1152.76,895.94 
  "/>
<polyline clip-path="url(#clip102)" style="stroke:#000000; stroke-linecap:butt; stroke-linejoin:round; stroke-width:2; stroke-opacity:0.1; fill:none" points="
  203.964,650.712 1152.76,650.712 
  "/>
<polyline clip-path="url(#clip102)" style="stroke:#000000; stroke-linecap:butt; stroke-linejoin:round; stroke-width:2; stroke-opacity:0.1; fill:none" points="
  203.964,405.484 1152.76,405.484 
  "/>
<polyline clip-path="url(#clip102)" style="stroke:#000000; stroke-linecap:butt; stroke-linejoin:round; stroke-width:2; stroke-opacity:0.1; fill:none" points="
  203.964,160.256 1152.76,160.256 
  "/>
<polyline clip-path="url(#clip100)" style="stroke:#000000; stroke-linecap:butt; stroke-linejoin:round; stroke-width:4; stroke-opacity:1; fill:none" points="
  203.964,1423.18 203.964,123.472 
  "/>
<polyline clip-path="url(#clip100)" style="stroke:#000000; stroke-linecap:butt; stroke-linejoin:round; stroke-width:4; stroke-opacity:1; fill:none" points="
  203.964,1386.4 222.861,1386.4 
  "/>
<polyline clip-path="url(#clip100)" style="stroke:#000000; stroke-linecap:butt; stroke-linejoin:round; stroke-width:4; stroke-opacity:1; fill:none" points="
  203.964,1141.17 222.861,1141.17 
  "/>
<polyline clip-path="url(#clip100)" style="stroke:#000000; stroke-linecap:butt; stroke-linejoin:round; stroke-width:4; stroke-opacity:1; fill:none" points="
  203.964,895.94 222.861,895.94 
  "/>
<polyline clip-path="url(#clip100)" style="stroke:#000000; stroke-linecap:butt; stroke-linejoin:round; stroke-width:4; stroke-opacity:1; fill:none" points="
  203.964,650.712 222.861,650.712 
  "/>
<polyline clip-path="url(#clip100)" style="stroke:#000000; stroke-linecap:butt; stroke-linejoin:round; stroke-width:4; stroke-opacity:1; fill:none" points="
  203.964,405.484 222.861,405.484 
  "/>
<polyline clip-path="url(#clip100)" style="stroke:#000000; stroke-linecap:butt; stroke-linejoin:round; stroke-width:4; stroke-opacity:1; fill:none" points="
  203.964,160.256 222.861,160.256 
  "/>
<path clip-path="url(#clip100)" d="M156.019 1372.19 Q152.408 1372.19 150.579 1375.76 Q148.774 1379.3 148.774 1386.43 Q148.774 1393.54 150.579 1397.1 Q152.408 1400.64 156.019 1400.64 Q159.653 1400.64 161.459 1397.1 Q163.288 1393.54 163.288 1386.43 Q163.288 1379.3 161.459 1375.76 Q159.653 1372.19 156.019 1372.19 M156.019 1368.49 Q161.829 1368.49 164.885 1373.1 Q167.964 1377.68 167.964 1386.43 Q167.964 1395.16 164.885 1399.76 Q161.829 1404.35 156.019 1404.35 Q150.209 1404.35 147.13 1399.76 Q144.075 1395.16 144.075 1386.43 Q144.075 1377.68 147.13 1373.1 Q150.209 1368.49 156.019 1368.49 Z" fill="#000000" fill-rule="evenodd" fill-opacity="1" /><path clip-path="url(#clip100)" d="M147.061 1123.89 L165.417 1123.89 L165.417 1127.82 L151.343 1127.82 L151.343 1136.3 Q152.362 1135.95 153.38 1135.79 Q154.399 1135.6 155.417 1135.6 Q161.204 1135.6 164.584 1138.77 Q167.964 1141.94 167.964 1147.36 Q167.964 1152.94 164.491 1156.04 Q161.019 1159.12 154.7 1159.12 Q152.524 1159.12 150.255 1158.75 Q148.01 1158.38 145.603 1157.64 L145.603 1152.94 Q147.686 1154.07 149.908 1154.63 Q152.13 1155.18 154.607 1155.18 Q158.612 1155.18 160.95 1153.08 Q163.288 1150.97 163.288 1147.36 Q163.288 1143.75 160.95 1141.64 Q158.612 1139.54 154.607 1139.54 Q152.732 1139.54 150.857 1139.95 Q149.005 1140.37 147.061 1141.25 L147.061 1123.89 Z" fill="#000000" fill-rule="evenodd" fill-opacity="1" /><path clip-path="url(#clip100)" d="M116.668 909.285 L124.306 909.285 L124.306 882.919 L115.996 884.586 L115.996 880.327 L124.26 878.66 L128.936 878.66 L128.936 909.285 L136.575 909.285 L136.575 913.22 L116.668 913.22 L116.668 909.285 Z" fill="#000000" fill-rule="evenodd" fill-opacity="1" /><path clip-path="url(#clip100)" d="M156.019 881.739 Q152.408 881.739 150.579 885.303 Q148.774 888.845 148.774 895.975 Q148.774 903.081 150.579 906.646 Q152.408 910.188 156.019 910.188 Q159.653 910.188 161.459 906.646 Q163.288 903.081 163.288 895.975 Q163.288 888.845 161.459 885.303 Q159.653 881.739 156.019 881.739 M156.019 878.035 Q161.829 878.035 164.885 882.641 Q167.964 887.225 167.964 895.975 Q167.964 904.701 164.885 909.308 Q161.829 913.891 156.019 913.891 Q150.209 913.891 147.13 909.308 Q144.075 904.701 144.075 895.975 Q144.075 887.225 147.13 882.641 Q150.209 878.035 156.019 878.035 Z" fill="#000000" fill-rule="evenodd" fill-opacity="1" /><path clip-path="url(#clip100)" d="M117.663 664.057 L125.302 664.057 L125.302 637.691 L116.992 639.358 L116.992 635.099 L125.255 633.432 L129.931 633.432 L129.931 664.057 L137.57 664.057 L137.57 667.992 L117.663 667.992 L117.663 664.057 Z" fill="#000000" fill-rule="evenodd" fill-opacity="1" /><path clip-path="url(#clip100)" d="M147.061 633.432 L165.417 633.432 L165.417 637.367 L151.343 637.367 L151.343 645.839 Q152.362 645.492 153.38 645.33 Q154.399 645.145 155.417 645.145 Q161.204 645.145 164.584 648.316 Q167.964 651.488 167.964 656.904 Q167.964 662.483 164.491 665.585 Q161.019 668.663 154.7 668.663 Q152.524 668.663 150.255 668.293 Q148.01 667.923 145.603 667.182 L145.603 662.483 Q147.686 663.617 149.908 664.173 Q152.13 664.728 154.607 664.728 Q158.612 664.728 160.95 662.622 Q163.288 660.515 163.288 656.904 Q163.288 653.293 160.95 651.187 Q158.612 649.08 154.607 649.08 Q152.732 649.08 150.857 649.497 Q149.005 649.913 147.061 650.793 L147.061 633.432 Z" fill="#000000" fill-rule="evenodd" fill-opacity="1" /><path clip-path="url(#clip100)" d="M119.885 418.829 L136.204 418.829 L136.204 422.764 L114.26 422.764 L114.26 418.829 Q116.922 416.074 121.505 411.445 Q126.112 406.792 127.292 405.449 Q129.538 402.926 130.417 401.19 Q131.32 399.431 131.32 397.741 Q131.32 394.987 129.376 393.25 Q127.455 391.514 124.353 391.514 Q122.154 391.514 119.7 392.278 Q117.269 393.042 114.492 394.593 L114.492 389.871 Q117.316 388.737 119.769 388.158 Q122.223 387.579 124.26 387.579 Q129.63 387.579 132.825 390.264 Q136.019 392.95 136.019 397.44 Q136.019 399.57 135.209 401.491 Q134.422 403.389 132.316 405.982 Q131.737 406.653 128.635 409.871 Q125.533 413.065 119.885 418.829 Z" fill="#000000" fill-rule="evenodd" fill-opacity="1" /><path clip-path="url(#clip100)" d="M156.019 391.283 Q152.408 391.283 150.579 394.848 Q148.774 398.389 148.774 405.519 Q148.774 412.625 150.579 416.19 Q152.408 419.732 156.019 419.732 Q159.653 419.732 161.459 416.19 Q163.288 412.625 163.288 405.519 Q163.288 398.389 161.459 394.848 Q159.653 391.283 156.019 391.283 M156.019 387.579 Q161.829 387.579 164.885 392.186 Q167.964 396.769 167.964 405.519 Q167.964 414.246 164.885 418.852 Q161.829 423.435 156.019 423.435 Q150.209 423.435 147.13 418.852 Q144.075 414.246 144.075 405.519 Q144.075 396.769 147.13 392.186 Q150.209 387.579 156.019 387.579 Z" fill="#000000" fill-rule="evenodd" fill-opacity="1" /><path clip-path="url(#clip100)" d="M120.88 173.601 L137.2 173.601 L137.2 177.536 L115.256 177.536 L115.256 173.601 Q117.918 170.847 122.501 166.217 Q127.107 161.564 128.288 160.222 Q130.533 157.698 131.413 155.962 Q132.316 154.203 132.316 152.513 Q132.316 149.759 130.371 148.023 Q128.45 146.286 125.348 146.286 Q123.149 146.286 120.695 147.05 Q118.265 147.814 115.487 149.365 L115.487 144.643 Q118.311 143.509 120.765 142.93 Q123.218 142.351 125.255 142.351 Q130.626 142.351 133.82 145.036 Q137.015 147.722 137.015 152.212 Q137.015 154.342 136.204 156.263 Q135.417 158.161 133.311 160.754 Q132.732 161.425 129.63 164.643 Q126.529 167.837 120.88 173.601 Z" fill="#000000" fill-rule="evenodd" fill-opacity="1" /><path clip-path="url(#clip100)" d="M147.061 142.976 L165.417 142.976 L165.417 146.911 L151.343 146.911 L151.343 155.384 Q152.362 155.036 153.38 154.874 Q154.399 154.689 155.417 154.689 Q161.204 154.689 164.584 157.86 Q167.964 161.032 167.964 166.448 Q167.964 172.027 164.491 175.129 Q161.019 178.208 154.7 178.208 Q152.524 178.208 150.255 177.837 Q148.01 177.467 145.603 176.726 L145.603 172.027 Q147.686 173.161 149.908 173.717 Q152.13 174.272 154.607 174.272 Q158.612 174.272 160.95 172.166 Q163.288 170.059 163.288 166.448 Q163.288 162.837 160.95 160.731 Q158.612 158.624 154.607 158.624 Q152.732 158.624 150.857 159.041 Q149.005 159.458 147.061 160.337 L147.061 142.976 Z" fill="#000000" fill-rule="evenodd" fill-opacity="1" /><path clip-path="url(#clip100)" d="M28.3562 871.851 L28.3562 844.033 L33.7034 844.033 L59.3254 866.058 L59.3254 844.033 L64.0042 844.033 L64.0042 872.647 L58.657 872.647 L33.035 850.622 L33.035 871.851 L28.3562 871.851 Z" fill="#000000" fill-rule="evenodd" fill-opacity="1" /><path clip-path="url(#clip100)" d="M14.479 814.91 L14.479 801.415 L19.0304 801.415 L19.0304 809.054 L68.0464 809.054 L68.0464 801.415 L72.5979 801.415 L72.5979 814.91 L14.479 814.91 Z" fill="#000000" fill-rule="evenodd" fill-opacity="1" /><path clip-path="url(#clip100)" d="M14.479 789.161 L14.479 783.272 L43.7294 783.272 L28.3562 765.799 L28.3562 758.319 L45.0344 777.225 L64.0042 757.523 L64.0042 765.162 L46.5939 783.272 L64.0042 783.272 L64.0042 789.161 L14.479 789.161 Z" fill="#000000" fill-rule="evenodd" fill-opacity="1" /><path clip-path="url(#clip100)" d="M35.1993 723.435 Q31.2526 721.239 29.3747 718.183 Q27.4968 715.128 27.4968 710.99 Q27.4968 705.42 31.4117 702.396 Q35.2948 699.372 42.4881 699.372 L64.0042 699.372 L64.0042 705.261 L42.679 705.261 Q37.5546 705.261 35.072 707.075 Q32.5894 708.889 32.5894 712.613 Q32.5894 717.165 35.6131 719.806 Q38.6368 722.448 43.8567 722.448 L64.0042 722.448 L64.0042 728.336 L42.679 728.336 Q37.5228 728.336 35.072 730.151 Q32.5894 731.965 32.5894 735.752 Q32.5894 740.24 35.6449 742.882 Q38.6686 745.524 43.8567 745.524 L64.0042 745.524 L64.0042 751.412 L28.3562 751.412 L28.3562 745.524 L33.8944 745.524 Q30.616 743.519 29.0564 740.718 Q27.4968 737.917 27.4968 734.065 Q27.4968 730.182 29.4702 727.477 Q31.4436 724.74 35.1993 723.435 Z" fill="#000000" fill-rule="evenodd" fill-opacity="1" /><path clip-path="url(#clip100)" d="M14.479 674.005 L72.5979 674.005 L72.5979 687.5 L68.0464 687.5 L68.0464 679.893 L19.0304 679.893 L19.0304 687.5 L14.479 687.5 L14.479 674.005 Z" fill="#000000" fill-rule="evenodd" fill-opacity="1" /><path clip-path="url(#clip100)" d="M465.343 12.096 L473.526 12.096 L473.526 72.576 L465.343 72.576 L465.343 12.096 Z" fill="#000000" fill-rule="evenodd" fill-opacity="1" /><path clip-path="url(#clip100)" d="M518.41 28.5427 L518.41 35.5912 Q515.25 33.9709 511.847 33.1607 Q508.445 32.3505 504.799 32.3505 Q499.249 32.3505 496.454 34.0519 Q493.699 35.7533 493.699 39.156 Q493.699 41.7486 495.684 43.2475 Q497.669 44.7058 503.664 46.0426 L506.217 46.6097 Q514.156 48.3111 517.478 51.4303 Q520.84 54.509 520.84 60.0587 Q520.84 66.3781 515.817 70.0644 Q510.835 73.7508 502.085 73.7508 Q498.439 73.7508 494.469 73.0216 Q490.54 72.3329 486.165 70.9151 L486.165 63.2184 Q490.297 65.3654 494.307 66.4591 Q498.317 67.5124 502.247 67.5124 Q507.513 67.5124 510.348 65.73 Q513.184 63.9071 513.184 60.6258 Q513.184 57.5877 511.118 55.9673 Q509.093 54.3469 502.166 52.8481 L499.573 52.2405 Q492.646 50.7821 489.567 47.7845 Q486.489 44.7463 486.489 39.4801 Q486.489 33.0797 491.026 29.5959 Q495.563 26.1121 503.908 26.1121 Q508.039 26.1121 511.685 26.7198 Q515.331 27.3274 518.41 28.5427 Z" fill="#000000" fill-rule="evenodd" fill-opacity="1" /><path clip-path="url(#clip100)" d="M550.29 32.4315 Q544.295 32.4315 540.811 37.1306 Q537.328 41.7891 537.328 49.9314 Q537.328 58.0738 540.771 62.7728 Q544.255 67.4314 550.29 67.4314 Q556.245 67.4314 559.729 62.7323 Q563.213 58.0333 563.213 49.9314 Q563.213 41.8701 559.729 37.1711 Q556.245 32.4315 550.29 32.4315 M550.29 26.1121 Q560.013 26.1121 565.562 32.4315 Q571.112 38.7509 571.112 49.9314 Q571.112 61.0714 565.562 67.4314 Q560.013 73.7508 550.29 73.7508 Q540.528 73.7508 534.978 67.4314 Q529.469 61.0714 529.469 49.9314 Q529.469 38.7509 534.978 32.4315 Q540.528 26.1121 550.29 26.1121 Z" fill="#000000" fill-rule="evenodd" fill-opacity="1" /><path clip-path="url(#clip100)" d="M590.84 14.324 L590.84 27.2059 L606.193 27.2059 L606.193 32.9987 L590.84 32.9987 L590.84 57.6282 Q590.84 63.1779 592.339 64.7578 Q593.878 66.3376 598.537 66.3376 L606.193 66.3376 L606.193 72.576 L598.537 72.576 Q589.908 72.576 586.627 69.3758 Q583.346 66.1351 583.346 57.6282 L583.346 32.9987 L577.877 32.9987 L577.877 27.2059 L583.346 27.2059 L583.346 14.324 L590.84 14.324 Z" fill="#000000" fill-rule="evenodd" fill-opacity="1" /><path clip-path="url(#clip100)" d="M653.71 45.1919 L653.71 72.576 L646.256 72.576 L646.256 45.4349 Q646.256 38.994 643.745 35.7938 Q641.233 32.5936 636.21 32.5936 Q630.174 32.5936 626.69 36.4419 Q623.207 40.2903 623.207 46.9338 L623.207 72.576 L615.713 72.576 L615.713 9.54393 L623.207 9.54393 L623.207 34.2544 Q625.88 30.163 629.486 28.1376 Q633.131 26.1121 637.871 26.1121 Q645.689 26.1121 649.7 30.9732 Q653.71 35.7938 653.71 45.1919 Z" fill="#000000" fill-rule="evenodd" fill-opacity="1" /><path clip-path="url(#clip100)" d="M707.384 48.0275 L707.384 51.6733 L673.114 51.6733 Q673.6 59.3701 677.732 63.421 Q681.904 67.4314 689.317 67.4314 Q693.611 67.4314 697.622 66.3781 Q701.673 65.3249 705.643 63.2184 L705.643 70.267 Q701.632 71.9684 697.419 72.8596 Q693.206 73.7508 688.872 73.7508 Q678.015 73.7508 671.655 67.4314 Q665.336 61.1119 665.336 50.3365 Q665.336 39.1965 671.331 32.6746 Q677.367 26.1121 687.576 26.1121 Q696.731 26.1121 702.037 32.0264 Q707.384 37.9003 707.384 48.0275 M699.931 45.84 Q699.85 39.7232 696.488 36.0774 Q693.166 32.4315 687.657 32.4315 Q681.418 32.4315 677.651 35.9558 Q673.924 39.4801 673.357 45.8805 L699.931 45.84 Z" fill="#000000" fill-rule="evenodd" fill-opacity="1" /><path clip-path="url(#clip100)" d="M745.909 34.1734 Q744.653 33.4443 743.154 33.1202 Q741.696 32.7556 739.913 32.7556 Q733.594 32.7556 730.191 36.8875 Q726.829 40.9789 726.829 48.6757 L726.829 72.576 L719.335 72.576 L719.335 27.2059 L726.829 27.2059 L726.829 34.2544 Q729.178 30.1225 732.946 28.1376 Q736.713 26.1121 742.101 26.1121 Q742.87 26.1121 743.802 26.2337 Q744.734 26.3147 745.868 26.5172 L745.909 34.1734 Z" fill="#000000" fill-rule="evenodd" fill-opacity="1" /><path clip-path="url(#clip100)" d="M787.592 35.9153 Q790.387 30.8922 794.276 28.5022 Q798.165 26.1121 803.431 26.1121 Q810.52 26.1121 814.369 31.0947 Q818.217 36.0368 818.217 45.1919 L818.217 72.576 L810.723 72.576 L810.723 45.4349 Q810.723 38.913 808.414 35.7533 Q806.105 32.5936 801.365 32.5936 Q795.573 32.5936 792.21 36.4419 Q788.848 40.2903 788.848 46.9338 L788.848 72.576 L781.354 72.576 L781.354 45.4349 Q781.354 38.8725 779.045 35.7533 Q776.736 32.5936 771.915 32.5936 Q766.204 32.5936 762.841 36.4824 Q759.479 40.3308 759.479 46.9338 L759.479 72.576 L751.985 72.576 L751.985 27.2059 L759.479 27.2059 L759.479 34.2544 Q762.031 30.082 765.596 28.0971 Q769.161 26.1121 774.062 26.1121 Q779.004 26.1121 782.448 28.6237 Q785.932 31.1352 787.592 35.9153 Z" fill="#000000" fill-rule="evenodd" fill-opacity="1" /><path clip-path="url(#clip100)" d="M853.703 49.7694 Q844.67 49.7694 841.186 51.8354 Q837.702 53.9013 837.702 58.8839 Q837.702 62.8538 840.295 65.2034 Q842.928 67.5124 847.424 67.5124 Q853.622 67.5124 857.349 63.1374 Q861.116 58.7219 861.116 51.4303 L861.116 49.7694 L853.703 49.7694 M868.57 46.6907 L868.57 72.576 L861.116 72.576 L861.116 65.6895 Q858.564 69.8214 854.756 71.8063 Q850.949 73.7508 845.439 73.7508 Q838.472 73.7508 834.34 69.8619 Q830.248 65.9325 830.248 59.3701 Q830.248 51.7138 835.353 47.825 Q840.497 43.9361 850.665 43.9361 L861.116 43.9361 L861.116 43.2069 Q861.116 38.0623 857.714 35.2672 Q854.351 32.4315 848.234 32.4315 Q844.346 32.4315 840.659 33.3632 Q836.973 34.295 833.57 36.1584 L833.57 29.2718 Q837.662 27.692 841.51 26.9223 Q845.358 26.1121 849.004 26.1121 Q858.848 26.1121 863.709 31.2163 Q868.57 36.3204 868.57 46.6907 Z" fill="#000000" fill-rule="evenodd" fill-opacity="1" /><path clip-path="url(#clip100)" d="M883.923 9.54393 L891.377 9.54393 L891.377 72.576 L883.923 72.576 L883.923 9.54393 Z" fill="#000000" fill-rule="evenodd" fill-opacity="1" /><polyline clip-path="url(#clip102)" style="stroke:#009af9; stroke-linecap:butt; stroke-linejoin:round; stroke-width:4; stroke-opacity:1; fill:none" points="
  230.816,1386.4 230.816,1361.37 230.816,1336.35 230.816,1311.33 230.816,1286.3 230.816,1261.28 230.816,1236.26 230.816,1211.23 230.816,1186.21 230.816,1161.19 
  230.816,1136.16 230.816,1111.14 230.816,1086.12 230.816,1061.09 230.816,1036.07 230.816,1011.05 230.816,986.024 230.816,961 230.816,935.977 230.816,910.954 
  230.816,885.931 230.816,860.907 230.816,835.884 230.816,810.861 230.816,785.838 230.816,760.814 230.816,735.791 230.816,710.768 230.816,685.745 230.816,660.721 
  230.816,635.698 230.816,610.675 230.816,585.652 230.816,560.628 230.816,535.605 230.816,510.582 230.816,485.559 230.816,460.535 230.816,435.512 230.816,410.489 
  230.816,385.466 230.816,360.442 230.816,335.419 230.816,310.396 230.816,285.373 230.816,260.349 230.816,235.326 230.816,210.303 230.816,185.28 230.816,160.256 
  
  "/>
<path clip-path="url(#clip100)" d="
M963.278 270.476 L1121.13 270.476 L1121.13 166.796 L963.278 166.796  Z
  " fill="#ffffff" fill-rule="evenodd" fill-opacity="1"/>
<polyline clip-path="url(#clip100)" style="stroke:#000000; stroke-linecap:butt; stroke-linejoin:round; stroke-width:4; stroke-opacity:1; fill:none" points="
  963.278,270.476 1121.13,270.476 1121.13,166.796 963.278,166.796 963.278,270.476 
  "/>
<polyline clip-path="url(#clip100)" style="stroke:#009af9; stroke-linecap:butt; stroke-linejoin:round; stroke-width:4; stroke-opacity:1; fill:none" points="
  973.82,218.636 1037.07,218.636 
  "/>
<path clip-path="url(#clip100)" d="M1061.46 238.323 Q1059.65 242.953 1057.94 244.365 Q1056.23 245.777 1053.36 245.777 L1049.95 245.777 L1049.95 242.212 L1052.45 242.212 Q1054.21 242.212 1055.18 241.379 Q1056.16 240.545 1057.34 237.443 L1058.1 235.499 L1047.61 209.99 L1052.13 209.99 L1060.23 230.268 L1068.33 209.99 L1072.85 209.99 L1061.46 238.323 Z" fill="#000000" fill-rule="evenodd" fill-opacity="1" /><path clip-path="url(#clip100)" d="M1080.14 231.981 L1087.78 231.981 L1087.78 205.615 L1079.47 207.282 L1079.47 203.022 L1087.73 201.356 L1092.41 201.356 L1092.41 231.981 L1100.05 231.981 L1100.05 235.916 L1080.14 235.916 L1080.14 231.981 Z" fill="#000000" fill-rule="evenodd" fill-opacity="1" /><path clip-path="url(#clip100)" d="
M1403.96 1423.18 L2352.76 1423.18 L2352.76 123.472 L1403.96 123.472  Z
  " fill="#ffffff" fill-rule="evenodd" fill-opacity="1"/>
<defs>
  <clipPath id="clip103">
    <rect x="1403" y="123" width="950" height="1301"/>
  </clipPath>
</defs>
<polyline clip-path="url(#clip103)" style="stroke:#000000; stroke-linecap:butt; stroke-linejoin:round; stroke-width:2; stroke-opacity:0.1; fill:none" points="
  1567.67,1423.18 1567.67,123.472 
  "/>
<polyline clip-path="url(#clip103)" style="stroke:#000000; stroke-linecap:butt; stroke-linejoin:round; stroke-width:2; stroke-opacity:0.1; fill:none" points="
  1754.14,1423.18 1754.14,123.472 
  "/>
<polyline clip-path="url(#clip103)" style="stroke:#000000; stroke-linecap:butt; stroke-linejoin:round; stroke-width:2; stroke-opacity:0.1; fill:none" points="
  1940.61,1423.18 1940.61,123.472 
  "/>
<polyline clip-path="url(#clip103)" style="stroke:#000000; stroke-linecap:butt; stroke-linejoin:round; stroke-width:2; stroke-opacity:0.1; fill:none" points="
  2127.08,1423.18 2127.08,123.472 
  "/>
<polyline clip-path="url(#clip103)" style="stroke:#000000; stroke-linecap:butt; stroke-linejoin:round; stroke-width:2; stroke-opacity:0.1; fill:none" points="
  2313.55,1423.18 2313.55,123.472 
  "/>
<polyline clip-path="url(#clip100)" style="stroke:#000000; stroke-linecap:butt; stroke-linejoin:round; stroke-width:4; stroke-opacity:1; fill:none" points="
  1403.96,1423.18 2352.76,1423.18 
  "/>
<polyline clip-path="url(#clip100)" style="stroke:#000000; stroke-linecap:butt; stroke-linejoin:round; stroke-width:4; stroke-opacity:1; fill:none" points="
  1567.67,1423.18 1567.67,1404.28 
  "/>
<polyline clip-path="url(#clip100)" style="stroke:#000000; stroke-linecap:butt; stroke-linejoin:round; stroke-width:4; stroke-opacity:1; fill:none" points="
  1754.14,1423.18 1754.14,1404.28 
  "/>
<polyline clip-path="url(#clip100)" style="stroke:#000000; stroke-linecap:butt; stroke-linejoin:round; stroke-width:4; stroke-opacity:1; fill:none" points="
  1940.61,1423.18 1940.61,1404.28 
  "/>
<polyline clip-path="url(#clip100)" style="stroke:#000000; stroke-linecap:butt; stroke-linejoin:round; stroke-width:4; stroke-opacity:1; fill:none" points="
  2127.08,1423.18 2127.08,1404.28 
  "/>
<polyline clip-path="url(#clip100)" style="stroke:#000000; stroke-linecap:butt; stroke-linejoin:round; stroke-width:4; stroke-opacity:1; fill:none" points="
  2313.55,1423.18 2313.55,1404.28 
  "/>
<path clip-path="url(#clip100)" d="M1546.45 1479.92 L1562.77 1479.92 L1562.77 1483.85 L1540.82 1483.85 L1540.82 1479.92 Q1543.48 1477.16 1548.07 1472.53 Q1552.67 1467.88 1553.85 1466.54 Q1556.1 1464.01 1556.98 1462.28 Q1557.88 1460.52 1557.88 1458.83 Q1557.88 1456.07 1555.94 1454.34 Q1554.02 1452.6 1550.91 1452.6 Q1548.71 1452.6 1546.26 1453.37 Q1543.83 1454.13 1541.05 1455.68 L1541.05 1450.96 Q1543.88 1449.82 1546.33 1449.25 Q1548.78 1448.67 1550.82 1448.67 Q1556.19 1448.67 1559.39 1451.35 Q1562.58 1454.04 1562.58 1458.53 Q1562.58 1460.66 1561.77 1462.58 Q1560.98 1464.48 1558.88 1467.07 Q1558.3 1467.74 1555.2 1470.96 Q1552.09 1474.15 1546.45 1479.92 Z" fill="#000000" fill-rule="evenodd" fill-opacity="1" /><path clip-path="url(#clip100)" d="M1582.58 1452.37 Q1578.97 1452.37 1577.14 1455.94 Q1575.34 1459.48 1575.34 1466.61 Q1575.34 1473.71 1577.14 1477.28 Q1578.97 1480.82 1582.58 1480.82 Q1586.21 1480.82 1588.02 1477.28 Q1589.85 1473.71 1589.85 1466.61 Q1589.85 1459.48 1588.02 1455.94 Q1586.21 1452.37 1582.58 1452.37 M1582.58 1448.67 Q1588.39 1448.67 1591.45 1453.27 Q1594.52 1457.86 1594.52 1466.61 Q1594.52 1475.33 1591.45 1479.94 Q1588.39 1484.52 1582.58 1484.52 Q1576.77 1484.52 1573.69 1479.94 Q1570.64 1475.33 1570.64 1466.61 Q1570.64 1457.86 1573.69 1453.27 Q1576.77 1448.67 1582.58 1448.67 Z" fill="#000000" fill-rule="evenodd" fill-opacity="1" /><path clip-path="url(#clip100)" d="M1742.31 1453.37 L1730.51 1471.81 L1742.31 1471.81 L1742.31 1453.37 M1741.09 1449.29 L1746.97 1449.29 L1746.97 1471.81 L1751.9 1471.81 L1751.9 1475.7 L1746.97 1475.7 L1746.97 1483.85 L1742.31 1483.85 L1742.31 1475.7 L1726.71 1475.7 L1726.71 1471.19 L1741.09 1449.29 Z" fill="#000000" fill-rule="evenodd" fill-opacity="1" /><path clip-path="url(#clip100)" d="M1769.63 1452.37 Q1766.02 1452.37 1764.19 1455.94 Q1762.38 1459.48 1762.38 1466.61 Q1762.38 1473.71 1764.19 1477.28 Q1766.02 1480.82 1769.63 1480.82 Q1773.26 1480.82 1775.07 1477.28 Q1776.9 1473.71 1776.9 1466.61 Q1776.9 1459.48 1775.07 1455.94 Q1773.26 1452.37 1769.63 1452.37 M1769.63 1448.67 Q1775.44 1448.67 1778.49 1453.27 Q1781.57 1457.86 1781.57 1466.61 Q1781.57 1475.33 1778.49 1479.94 Q1775.44 1484.52 1769.63 1484.52 Q1763.82 1484.52 1760.74 1479.94 Q1757.68 1475.33 1757.68 1466.61 Q1757.68 1457.86 1760.74 1453.27 Q1763.82 1448.67 1769.63 1448.67 Z" fill="#000000" fill-rule="evenodd" fill-opacity="1" /><path clip-path="url(#clip100)" d="M1926.02 1464.71 Q1922.87 1464.71 1921.02 1466.86 Q1919.19 1469.01 1919.19 1472.76 Q1919.19 1476.49 1921.02 1478.67 Q1922.87 1480.82 1926.02 1480.82 Q1929.16 1480.82 1930.99 1478.67 Q1932.85 1476.49 1932.85 1472.76 Q1932.85 1469.01 1930.99 1466.86 Q1929.16 1464.71 1926.02 1464.71 M1935.3 1450.06 L1935.3 1454.31 Q1933.54 1453.48 1931.73 1453.04 Q1929.95 1452.6 1928.19 1452.6 Q1923.56 1452.6 1921.11 1455.73 Q1918.68 1458.85 1918.33 1465.17 Q1919.7 1463.16 1921.76 1462.09 Q1923.82 1461 1926.29 1461 Q1931.5 1461 1934.51 1464.18 Q1937.54 1467.32 1937.54 1472.76 Q1937.54 1478.09 1934.4 1481.31 Q1931.25 1484.52 1926.02 1484.52 Q1920.02 1484.52 1916.85 1479.94 Q1913.68 1475.33 1913.68 1466.61 Q1913.68 1458.41 1917.57 1453.55 Q1921.46 1448.67 1928.01 1448.67 Q1929.77 1448.67 1931.55 1449.01 Q1933.35 1449.36 1935.3 1450.06 Z" fill="#000000" fill-rule="evenodd" fill-opacity="1" /><path clip-path="url(#clip100)" d="M1955.6 1452.37 Q1951.99 1452.37 1950.16 1455.94 Q1948.35 1459.48 1948.35 1466.61 Q1948.35 1473.71 1950.16 1477.28 Q1951.99 1480.82 1955.6 1480.82 Q1959.23 1480.82 1961.04 1477.28 Q1962.87 1473.71 1962.87 1466.61 Q1962.87 1459.48 1961.04 1455.94 Q1959.23 1452.37 1955.6 1452.37 M1955.6 1448.67 Q1961.41 1448.67 1964.47 1453.27 Q1967.54 1457.86 1967.54 1466.61 Q1967.54 1475.33 1964.47 1479.94 Q1961.41 1484.52 1955.6 1484.52 Q1949.79 1484.52 1946.71 1479.94 Q1943.66 1475.33 1943.66 1466.61 Q1943.66 1457.86 1946.71 1453.27 Q1949.79 1448.67 1955.6 1448.67 Z" fill="#000000" fill-rule="evenodd" fill-opacity="1" /><path clip-path="url(#clip100)" d="M2111.95 1467.44 Q2108.62 1467.44 2106.7 1469.22 Q2104.8 1471 2104.8 1474.13 Q2104.8 1477.25 2106.7 1479.04 Q2108.62 1480.82 2111.95 1480.82 Q2115.29 1480.82 2117.21 1479.04 Q2119.13 1477.23 2119.13 1474.13 Q2119.13 1471 2117.21 1469.22 Q2115.31 1467.44 2111.95 1467.44 M2107.28 1465.45 Q2104.27 1464.71 2102.58 1462.65 Q2100.91 1460.59 2100.91 1457.63 Q2100.91 1453.48 2103.85 1451.07 Q2106.81 1448.67 2111.95 1448.67 Q2117.12 1448.67 2120.06 1451.07 Q2122.99 1453.48 2122.99 1457.63 Q2122.99 1460.59 2121.31 1462.65 Q2119.64 1464.71 2116.65 1465.45 Q2120.03 1466.24 2121.91 1468.53 Q2123.81 1470.82 2123.81 1474.13 Q2123.81 1479.15 2120.73 1481.84 Q2117.67 1484.52 2111.95 1484.52 Q2106.24 1484.52 2103.16 1481.84 Q2100.1 1479.15 2100.1 1474.13 Q2100.1 1470.82 2102 1468.53 Q2103.9 1466.24 2107.28 1465.45 M2105.56 1458.06 Q2105.56 1460.75 2107.23 1462.25 Q2108.92 1463.76 2111.95 1463.76 Q2114.96 1463.76 2116.65 1462.25 Q2118.37 1460.75 2118.37 1458.06 Q2118.37 1455.38 2116.65 1453.88 Q2114.96 1452.37 2111.95 1452.37 Q2108.92 1452.37 2107.23 1453.88 Q2105.56 1455.38 2105.56 1458.06 Z" fill="#000000" fill-rule="evenodd" fill-opacity="1" /><path clip-path="url(#clip100)" d="M2142.12 1452.37 Q2138.5 1452.37 2136.68 1455.94 Q2134.87 1459.48 2134.87 1466.61 Q2134.87 1473.71 2136.68 1477.28 Q2138.5 1480.82 2142.12 1480.82 Q2145.75 1480.82 2147.55 1477.28 Q2149.38 1473.71 2149.38 1466.61 Q2149.38 1459.48 2147.55 1455.94 Q2145.75 1452.37 2142.12 1452.37 M2142.12 1448.67 Q2147.93 1448.67 2150.98 1453.27 Q2154.06 1457.86 2154.06 1466.61 Q2154.06 1475.33 2150.98 1479.94 Q2147.93 1484.52 2142.12 1484.52 Q2136.31 1484.52 2133.23 1479.94 Q2130.17 1475.33 2130.17 1466.61 Q2130.17 1457.86 2133.23 1453.27 Q2136.31 1448.67 2142.12 1448.67 Z" fill="#000000" fill-rule="evenodd" fill-opacity="1" /><path clip-path="url(#clip100)" d="M2273.16 1479.92 L2280.8 1479.92 L2280.8 1453.55 L2272.49 1455.22 L2272.49 1450.96 L2280.75 1449.29 L2285.42 1449.29 L2285.42 1479.92 L2293.06 1479.92 L2293.06 1483.85 L2273.16 1483.85 L2273.16 1479.92 Z" fill="#000000" fill-rule="evenodd" fill-opacity="1" /><path clip-path="url(#clip100)" d="M2312.51 1452.37 Q2308.9 1452.37 2307.07 1455.94 Q2305.26 1459.48 2305.26 1466.61 Q2305.26 1473.71 2307.07 1477.28 Q2308.9 1480.82 2312.51 1480.82 Q2316.14 1480.82 2317.95 1477.28 Q2319.78 1473.71 2319.78 1466.61 Q2319.78 1459.48 2317.95 1455.94 Q2316.14 1452.37 2312.51 1452.37 M2312.51 1448.67 Q2318.32 1448.67 2321.37 1453.27 Q2324.45 1457.86 2324.45 1466.61 Q2324.45 1475.33 2321.37 1479.94 Q2318.32 1484.52 2312.51 1484.52 Q2306.7 1484.52 2303.62 1479.94 Q2300.56 1475.33 2300.56 1466.61 Q2300.56 1457.86 2303.62 1453.27 Q2306.7 1448.67 2312.51 1448.67 Z" fill="#000000" fill-rule="evenodd" fill-opacity="1" /><path clip-path="url(#clip100)" d="M2342.67 1452.37 Q2339.06 1452.37 2337.23 1455.94 Q2335.42 1459.48 2335.42 1466.61 Q2335.42 1473.71 2337.23 1477.28 Q2339.06 1480.82 2342.67 1480.82 Q2346.3 1480.82 2348.11 1477.28 Q2349.94 1473.71 2349.94 1466.61 Q2349.94 1459.48 2348.11 1455.94 Q2346.3 1452.37 2342.67 1452.37 M2342.67 1448.67 Q2348.48 1448.67 2351.54 1453.27 Q2354.61 1457.86 2354.61 1466.61 Q2354.61 1475.33 2351.54 1479.94 Q2348.48 1484.52 2342.67 1484.52 Q2336.86 1484.52 2333.78 1479.94 Q2330.73 1475.33 2330.73 1466.61 Q2330.73 1457.86 2333.78 1453.27 Q2336.86 1448.67 2342.67 1448.67 Z" fill="#000000" fill-rule="evenodd" fill-opacity="1" /><path clip-path="url(#clip100)" d="M1658.79 1525.81 L1658.79 1543.66 L1666.88 1543.66 Q1671.36 1543.66 1673.81 1541.34 Q1676.26 1539.02 1676.26 1534.72 Q1676.26 1530.45 1673.81 1528.13 Q1671.36 1525.81 1666.88 1525.81 L1658.79 1525.81 M1652.36 1520.52 L1666.88 1520.52 Q1674.86 1520.52 1678.94 1524.15 Q1683.04 1527.75 1683.04 1534.72 Q1683.04 1541.75 1678.94 1545.35 Q1674.86 1548.95 1666.88 1548.95 L1658.79 1548.95 L1658.79 1568.04 L1652.36 1568.04 L1652.36 1520.52 Z" fill="#000000" fill-rule="evenodd" fill-opacity="1" /><path clip-path="url(#clip100)" d="M1710.93 1537.87 Q1709.94 1537.3 1708.76 1537.04 Q1707.62 1536.76 1706.22 1536.76 Q1701.25 1536.76 1698.58 1540 Q1695.93 1543.22 1695.93 1549.27 L1695.93 1568.04 L1690.05 1568.04 L1690.05 1532.4 L1695.93 1532.4 L1695.93 1537.93 Q1697.78 1534.69 1700.74 1533.13 Q1703.7 1531.54 1707.93 1531.54 Q1708.54 1531.54 1709.27 1531.63 Q1710 1531.7 1710.89 1531.85 L1710.93 1537.87 Z" fill="#000000" fill-rule="evenodd" fill-opacity="1" /><path clip-path="url(#clip100)" d="M1746.13 1548.76 L1746.13 1551.62 L1719.2 1551.62 Q1719.58 1557.67 1722.83 1560.85 Q1726.11 1564 1731.93 1564 Q1735.31 1564 1738.46 1563.17 Q1741.64 1562.35 1744.76 1560.69 L1744.76 1566.23 Q1741.61 1567.57 1738.3 1568.27 Q1734.99 1568.97 1731.58 1568.97 Q1723.05 1568.97 1718.06 1564 Q1713.09 1559.04 1713.09 1550.57 Q1713.09 1541.82 1717.8 1536.69 Q1722.54 1531.54 1730.56 1531.54 Q1737.76 1531.54 1741.93 1536.18 Q1746.13 1540.8 1746.13 1548.76 M1740.27 1547.04 Q1740.21 1542.23 1737.57 1539.37 Q1734.96 1536.5 1730.63 1536.5 Q1725.73 1536.5 1722.77 1539.27 Q1719.84 1542.04 1719.39 1547.07 L1740.27 1547.04 Z" fill="#000000" fill-rule="evenodd" fill-opacity="1" /><path clip-path="url(#clip100)" d="M1778.47 1533.45 L1778.47 1538.98 Q1775.98 1537.71 1773.31 1537.07 Q1770.64 1536.44 1767.77 1536.44 Q1763.41 1536.44 1761.21 1537.77 Q1759.05 1539.11 1759.05 1541.79 Q1759.05 1543.82 1760.61 1545 Q1762.17 1546.15 1766.88 1547.2 L1768.89 1547.64 Q1775.12 1548.98 1777.73 1551.43 Q1780.38 1553.85 1780.38 1558.21 Q1780.38 1563.17 1776.43 1566.07 Q1772.51 1568.97 1765.64 1568.97 Q1762.77 1568.97 1759.66 1568.39 Q1756.57 1567.85 1753.13 1566.74 L1753.13 1560.69 Q1756.38 1562.38 1759.53 1563.24 Q1762.68 1564.07 1765.77 1564.07 Q1769.9 1564.07 1772.13 1562.66 Q1774.36 1561.23 1774.36 1558.65 Q1774.36 1556.27 1772.74 1554.99 Q1771.15 1553.72 1765.7 1552.54 L1763.67 1552.07 Q1758.22 1550.92 1755.8 1548.56 Q1753.39 1546.18 1753.39 1542.04 Q1753.39 1537.01 1756.95 1534.27 Q1760.51 1531.54 1767.07 1531.54 Q1770.32 1531.54 1773.18 1532.01 Q1776.05 1532.49 1778.47 1533.45 Z" fill="#000000" fill-rule="evenodd" fill-opacity="1" /><path clip-path="url(#clip100)" d="M1812.43 1533.45 L1812.43 1538.98 Q1809.94 1537.71 1807.27 1537.07 Q1804.6 1536.44 1801.73 1536.44 Q1797.37 1536.44 1795.18 1537.77 Q1793.01 1539.11 1793.01 1541.79 Q1793.01 1543.82 1794.57 1545 Q1796.13 1546.15 1800.84 1547.2 L1802.85 1547.64 Q1809.08 1548.98 1811.69 1551.43 Q1814.34 1553.85 1814.34 1558.21 Q1814.34 1563.17 1810.39 1566.07 Q1806.47 1568.97 1799.6 1568.97 Q1796.74 1568.97 1793.62 1568.39 Q1790.53 1567.85 1787.09 1566.74 L1787.09 1560.69 Q1790.34 1562.38 1793.49 1563.24 Q1796.64 1564.07 1799.73 1564.07 Q1803.87 1564.07 1806.09 1562.66 Q1808.32 1561.23 1808.32 1558.65 Q1808.32 1556.27 1806.7 1554.99 Q1805.11 1553.72 1799.66 1552.54 L1797.63 1552.07 Q1792.18 1550.92 1789.77 1548.56 Q1787.35 1546.18 1787.35 1542.04 Q1787.35 1537.01 1790.91 1534.27 Q1794.48 1531.54 1801.03 1531.54 Q1804.28 1531.54 1807.14 1532.01 Q1810.01 1532.49 1812.43 1533.45 Z" fill="#000000" fill-rule="evenodd" fill-opacity="1" /><path clip-path="url(#clip100)" d="M1823.06 1553.98 L1823.06 1532.4 L1828.91 1532.4 L1828.91 1553.75 Q1828.91 1558.81 1830.89 1561.36 Q1832.86 1563.87 1836.81 1563.87 Q1841.55 1563.87 1844.29 1560.85 Q1847.06 1557.83 1847.06 1552.61 L1847.06 1532.4 L1852.91 1532.4 L1852.91 1568.04 L1847.06 1568.04 L1847.06 1562.57 Q1844.92 1565.82 1842.09 1567.41 Q1839.29 1568.97 1835.57 1568.97 Q1829.42 1568.97 1826.24 1565.15 Q1823.06 1561.33 1823.06 1553.98 M1837.79 1531.54 L1837.79 1531.54 Z" fill="#000000" fill-rule="evenodd" fill-opacity="1" /><path clip-path="url(#clip100)" d="M1885.63 1537.87 Q1884.65 1537.3 1883.47 1537.04 Q1882.32 1536.76 1880.92 1536.76 Q1875.96 1536.76 1873.28 1540 Q1870.64 1543.22 1870.64 1549.27 L1870.64 1568.04 L1864.75 1568.04 L1864.75 1532.4 L1870.64 1532.4 L1870.64 1537.93 Q1872.49 1534.69 1875.45 1533.13 Q1878.41 1531.54 1882.64 1531.54 Q1883.25 1531.54 1883.98 1531.63 Q1884.71 1531.7 1885.6 1531.85 L1885.63 1537.87 Z" fill="#000000" fill-rule="evenodd" fill-opacity="1" /><path clip-path="url(#clip100)" d="M1920.83 1548.76 L1920.83 1551.62 L1893.91 1551.62 Q1894.29 1557.67 1897.54 1560.85 Q1900.81 1564 1906.64 1564 Q1910.01 1564 1913.16 1563.17 Q1916.35 1562.35 1919.47 1560.69 L1919.47 1566.23 Q1916.32 1567.57 1913.01 1568.27 Q1909.69 1568.97 1906.29 1568.97 Q1897.76 1568.97 1892.76 1564 Q1887.8 1559.04 1887.8 1550.57 Q1887.8 1541.82 1892.51 1536.69 Q1897.25 1531.54 1905.27 1531.54 Q1912.46 1531.54 1916.63 1536.18 Q1920.83 1540.8 1920.83 1548.76 M1914.98 1547.04 Q1914.91 1542.23 1912.27 1539.37 Q1909.66 1536.5 1905.33 1536.5 Q1900.43 1536.5 1897.47 1539.27 Q1894.54 1542.04 1894.1 1547.07 L1914.98 1547.04 Z" fill="#000000" fill-rule="evenodd" fill-opacity="1" /><path clip-path="url(#clip100)" d="M1950.63 1518.52 L1964.12 1518.52 L1964.12 1523.07 L1956.48 1523.07 L1956.48 1572.09 L1964.12 1572.09 L1964.12 1576.64 L1950.63 1576.64 L1950.63 1518.52 Z" fill="#000000" fill-rule="evenodd" fill-opacity="1" /><path clip-path="url(#clip100)" d="M1976.38 1518.52 L1982.26 1518.52 L1982.26 1547.77 L1999.74 1532.4 L2007.22 1532.4 L1988.31 1549.07 L2008.01 1568.04 L2000.37 1568.04 L1982.26 1550.63 L1982.26 1568.04 L1976.38 1568.04 L1976.38 1518.52 Z" fill="#000000" fill-rule="evenodd" fill-opacity="1" /><path clip-path="url(#clip100)" d="M2021.03 1525.81 L2021.03 1543.66 L2029.12 1543.66 Q2033.6 1543.66 2036.05 1541.34 Q2038.51 1539.02 2038.51 1534.72 Q2038.51 1530.45 2036.05 1528.13 Q2033.6 1525.81 2029.12 1525.81 L2021.03 1525.81 M2014.6 1520.52 L2029.12 1520.52 Q2037.1 1520.52 2041.18 1524.15 Q2045.28 1527.75 2045.28 1534.72 Q2045.28 1541.75 2041.18 1545.35 Q2037.1 1548.95 2029.12 1548.95 L2021.03 1548.95 L2021.03 1568.04 L2014.6 1568.04 L2014.6 1520.52 Z" fill="#000000" fill-rule="evenodd" fill-opacity="1" /><path clip-path="url(#clip100)" d="M2066.93 1550.12 Q2059.83 1550.12 2057.09 1551.75 Q2054.36 1553.37 2054.36 1557.29 Q2054.36 1560.4 2056.39 1562.25 Q2058.46 1564.07 2061.99 1564.07 Q2066.86 1564.07 2069.79 1560.63 Q2072.75 1557.16 2072.75 1551.43 L2072.75 1550.12 L2066.93 1550.12 M2078.61 1547.71 L2078.61 1568.04 L2072.75 1568.04 L2072.75 1562.63 Q2070.75 1565.88 2067.76 1567.44 Q2064.76 1568.97 2060.43 1568.97 Q2054.96 1568.97 2051.71 1565.91 Q2048.5 1562.82 2048.5 1557.67 Q2048.5 1551.65 2052.51 1548.6 Q2056.55 1545.54 2064.54 1545.54 L2072.75 1545.54 L2072.75 1544.97 Q2072.75 1540.93 2070.08 1538.73 Q2067.44 1536.5 2062.63 1536.5 Q2059.58 1536.5 2056.68 1537.23 Q2053.78 1537.97 2051.11 1539.43 L2051.11 1534.02 Q2054.32 1532.78 2057.35 1532.17 Q2060.37 1531.54 2063.24 1531.54 Q2070.97 1531.54 2074.79 1535.55 Q2078.61 1539.56 2078.61 1547.71 Z" fill="#000000" fill-rule="evenodd" fill-opacity="1" /><path clip-path="url(#clip100)" d="M2104.36 1518.52 L2104.36 1576.64 L2090.86 1576.64 L2090.86 1572.09 L2098.47 1572.09 L2098.47 1523.07 L2090.86 1523.07 L2090.86 1518.52 L2104.36 1518.52 Z" fill="#000000" fill-rule="evenodd" fill-opacity="1" /><polyline clip-path="url(#clip103)" style="stroke:#000000; stroke-linecap:butt; stroke-linejoin:round; stroke-width:2; stroke-opacity:0.1; fill:none" points="
  1403.96,1386.4 2352.76,1386.4 
  "/>
<polyline clip-path="url(#clip103)" style="stroke:#000000; stroke-linecap:butt; stroke-linejoin:round; stroke-width:2; stroke-opacity:0.1; fill:none" points="
  1403.96,1141.17 2352.76,1141.17 
  "/>
<polyline clip-path="url(#clip103)" style="stroke:#000000; stroke-linecap:butt; stroke-linejoin:round; stroke-width:2; stroke-opacity:0.1; fill:none" points="
  1403.96,895.94 2352.76,895.94 
  "/>
<polyline clip-path="url(#clip103)" style="stroke:#000000; stroke-linecap:butt; stroke-linejoin:round; stroke-width:2; stroke-opacity:0.1; fill:none" points="
  1403.96,650.712 2352.76,650.712 
  "/>
<polyline clip-path="url(#clip103)" style="stroke:#000000; stroke-linecap:butt; stroke-linejoin:round; stroke-width:2; stroke-opacity:0.1; fill:none" points="
  1403.96,405.484 2352.76,405.484 
  "/>
<polyline clip-path="url(#clip103)" style="stroke:#000000; stroke-linecap:butt; stroke-linejoin:round; stroke-width:2; stroke-opacity:0.1; fill:none" points="
  1403.96,160.256 2352.76,160.256 
  "/>
<polyline clip-path="url(#clip100)" style="stroke:#000000; stroke-linecap:butt; stroke-linejoin:round; stroke-width:4; stroke-opacity:1; fill:none" points="
  1403.96,1423.18 1403.96,123.472 
  "/>
<polyline clip-path="url(#clip100)" style="stroke:#000000; stroke-linecap:butt; stroke-linejoin:round; stroke-width:4; stroke-opacity:1; fill:none" points="
  1403.96,1386.4 1422.86,1386.4 
  "/>
<polyline clip-path="url(#clip100)" style="stroke:#000000; stroke-linecap:butt; stroke-linejoin:round; stroke-width:4; stroke-opacity:1; fill:none" points="
  1403.96,1141.17 1422.86,1141.17 
  "/>
<polyline clip-path="url(#clip100)" style="stroke:#000000; stroke-linecap:butt; stroke-linejoin:round; stroke-width:4; stroke-opacity:1; fill:none" points="
  1403.96,895.94 1422.86,895.94 
  "/>
<polyline clip-path="url(#clip100)" style="stroke:#000000; stroke-linecap:butt; stroke-linejoin:round; stroke-width:4; stroke-opacity:1; fill:none" points="
  1403.96,650.712 1422.86,650.712 
  "/>
<polyline clip-path="url(#clip100)" style="stroke:#000000; stroke-linecap:butt; stroke-linejoin:round; stroke-width:4; stroke-opacity:1; fill:none" points="
  1403.96,405.484 1422.86,405.484 
  "/>
<polyline clip-path="url(#clip100)" style="stroke:#000000; stroke-linecap:butt; stroke-linejoin:round; stroke-width:4; stroke-opacity:1; fill:none" points="
  1403.96,160.256 1422.86,160.256 
  "/>
<path clip-path="url(#clip100)" d="M1356.02 1372.19 Q1352.41 1372.19 1350.58 1375.76 Q1348.77 1379.3 1348.77 1386.43 Q1348.77 1393.54 1350.58 1397.1 Q1352.41 1400.64 1356.02 1400.64 Q1359.65 1400.64 1361.46 1397.1 Q1363.29 1393.54 1363.29 1386.43 Q1363.29 1379.3 1361.46 1375.76 Q1359.65 1372.19 1356.02 1372.19 M1356.02 1368.49 Q1361.83 1368.49 1364.88 1373.1 Q1367.96 1377.68 1367.96 1386.43 Q1367.96 1395.16 1364.88 1399.76 Q1361.83 1404.35 1356.02 1404.35 Q1350.21 1404.35 1347.13 1399.76 Q1344.07 1395.16 1344.07 1386.43 Q1344.07 1377.68 1347.13 1373.1 Q1350.21 1368.49 1356.02 1368.49 Z" fill="#000000" fill-rule="evenodd" fill-opacity="1" /><path clip-path="url(#clip100)" d="M1347.06 1123.89 L1365.42 1123.89 L1365.42 1127.82 L1351.34 1127.82 L1351.34 1136.3 Q1352.36 1135.95 1353.38 1135.79 Q1354.4 1135.6 1355.42 1135.6 Q1361.2 1135.6 1364.58 1138.77 Q1367.96 1141.94 1367.96 1147.36 Q1367.96 1152.94 1364.49 1156.04 Q1361.02 1159.12 1354.7 1159.12 Q1352.52 1159.12 1350.26 1158.75 Q1348.01 1158.38 1345.6 1157.64 L1345.6 1152.94 Q1347.69 1154.07 1349.91 1154.63 Q1352.13 1155.18 1354.61 1155.18 Q1358.61 1155.18 1360.95 1153.08 Q1363.29 1150.97 1363.29 1147.36 Q1363.29 1143.75 1360.95 1141.64 Q1358.61 1139.54 1354.61 1139.54 Q1352.73 1139.54 1350.86 1139.95 Q1349.01 1140.37 1347.06 1141.25 L1347.06 1123.89 Z" fill="#000000" fill-rule="evenodd" fill-opacity="1" /><path clip-path="url(#clip100)" d="M1316.67 909.285 L1324.31 909.285 L1324.31 882.919 L1316 884.586 L1316 880.327 L1324.26 878.66 L1328.94 878.66 L1328.94 909.285 L1336.57 909.285 L1336.57 913.22 L1316.67 913.22 L1316.67 909.285 Z" fill="#000000" fill-rule="evenodd" fill-opacity="1" /><path clip-path="url(#clip100)" d="M1356.02 881.739 Q1352.41 881.739 1350.58 885.303 Q1348.77 888.845 1348.77 895.975 Q1348.77 903.081 1350.58 906.646 Q1352.41 910.188 1356.02 910.188 Q1359.65 910.188 1361.46 906.646 Q1363.29 903.081 1363.29 895.975 Q1363.29 888.845 1361.46 885.303 Q1359.65 881.739 1356.02 881.739 M1356.02 878.035 Q1361.83 878.035 1364.88 882.641 Q1367.96 887.225 1367.96 895.975 Q1367.96 904.701 1364.88 909.308 Q1361.83 913.891 1356.02 913.891 Q1350.21 913.891 1347.13 909.308 Q1344.07 904.701 1344.07 895.975 Q1344.07 887.225 1347.13 882.641 Q1350.21 878.035 1356.02 878.035 Z" fill="#000000" fill-rule="evenodd" fill-opacity="1" /><path clip-path="url(#clip100)" d="M1317.66 664.057 L1325.3 664.057 L1325.3 637.691 L1316.99 639.358 L1316.99 635.099 L1325.26 633.432 L1329.93 633.432 L1329.93 664.057 L1337.57 664.057 L1337.57 667.992 L1317.66 667.992 L1317.66 664.057 Z" fill="#000000" fill-rule="evenodd" fill-opacity="1" /><path clip-path="url(#clip100)" d="M1347.06 633.432 L1365.42 633.432 L1365.42 637.367 L1351.34 637.367 L1351.34 645.839 Q1352.36 645.492 1353.38 645.33 Q1354.4 645.145 1355.42 645.145 Q1361.2 645.145 1364.58 648.316 Q1367.96 651.488 1367.96 656.904 Q1367.96 662.483 1364.49 665.585 Q1361.02 668.663 1354.7 668.663 Q1352.52 668.663 1350.26 668.293 Q1348.01 667.923 1345.6 667.182 L1345.6 662.483 Q1347.69 663.617 1349.91 664.173 Q1352.13 664.728 1354.61 664.728 Q1358.61 664.728 1360.95 662.622 Q1363.29 660.515 1363.29 656.904 Q1363.29 653.293 1360.95 651.187 Q1358.61 649.08 1354.61 649.08 Q1352.73 649.08 1350.86 649.497 Q1349.01 649.913 1347.06 650.793 L1347.06 633.432 Z" fill="#000000" fill-rule="evenodd" fill-opacity="1" /><path clip-path="url(#clip100)" d="M1319.89 418.829 L1336.2 418.829 L1336.2 422.764 L1314.26 422.764 L1314.26 418.829 Q1316.92 416.074 1321.51 411.445 Q1326.11 406.792 1327.29 405.449 Q1329.54 402.926 1330.42 401.19 Q1331.32 399.431 1331.32 397.741 Q1331.32 394.987 1329.38 393.25 Q1327.45 391.514 1324.35 391.514 Q1322.15 391.514 1319.7 392.278 Q1317.27 393.042 1314.49 394.593 L1314.49 389.871 Q1317.32 388.737 1319.77 388.158 Q1322.22 387.579 1324.26 387.579 Q1329.63 387.579 1332.82 390.264 Q1336.02 392.95 1336.02 397.44 Q1336.02 399.57 1335.21 401.491 Q1334.42 403.389 1332.32 405.982 Q1331.74 406.653 1328.64 409.871 Q1325.53 413.065 1319.89 418.829 Z" fill="#000000" fill-rule="evenodd" fill-opacity="1" /><path clip-path="url(#clip100)" d="M1356.02 391.283 Q1352.41 391.283 1350.58 394.848 Q1348.77 398.389 1348.77 405.519 Q1348.77 412.625 1350.58 416.19 Q1352.41 419.732 1356.02 419.732 Q1359.65 419.732 1361.46 416.19 Q1363.29 412.625 1363.29 405.519 Q1363.29 398.389 1361.46 394.848 Q1359.65 391.283 1356.02 391.283 M1356.02 387.579 Q1361.83 387.579 1364.88 392.186 Q1367.96 396.769 1367.96 405.519 Q1367.96 414.246 1364.88 418.852 Q1361.83 423.435 1356.02 423.435 Q1350.21 423.435 1347.13 418.852 Q1344.07 414.246 1344.07 405.519 Q1344.07 396.769 1347.13 392.186 Q1350.21 387.579 1356.02 387.579 Z" fill="#000000" fill-rule="evenodd" fill-opacity="1" /><path clip-path="url(#clip100)" d="M1320.88 173.601 L1337.2 173.601 L1337.2 177.536 L1315.26 177.536 L1315.26 173.601 Q1317.92 170.847 1322.5 166.217 Q1327.11 161.564 1328.29 160.222 Q1330.53 157.698 1331.41 155.962 Q1332.32 154.203 1332.32 152.513 Q1332.32 149.759 1330.37 148.023 Q1328.45 146.286 1325.35 146.286 Q1323.15 146.286 1320.7 147.05 Q1318.26 147.814 1315.49 149.365 L1315.49 144.643 Q1318.31 143.509 1320.76 142.93 Q1323.22 142.351 1325.26 142.351 Q1330.63 142.351 1333.82 145.036 Q1337.01 147.722 1337.01 152.212 Q1337.01 154.342 1336.2 156.263 Q1335.42 158.161 1333.31 160.754 Q1332.73 161.425 1329.63 164.643 Q1326.53 167.837 1320.88 173.601 Z" fill="#000000" fill-rule="evenodd" fill-opacity="1" /><path clip-path="url(#clip100)" d="M1347.06 142.976 L1365.42 142.976 L1365.42 146.911 L1351.34 146.911 L1351.34 155.384 Q1352.36 155.036 1353.38 154.874 Q1354.4 154.689 1355.42 154.689 Q1361.2 154.689 1364.58 157.86 Q1367.96 161.032 1367.96 166.448 Q1367.96 172.027 1364.49 175.129 Q1361.02 178.208 1354.7 178.208 Q1352.52 178.208 1350.26 177.837 Q1348.01 177.467 1345.6 176.726 L1345.6 172.027 Q1347.69 173.161 1349.91 173.717 Q1352.13 174.272 1354.61 174.272 Q1358.61 174.272 1360.95 172.166 Q1363.29 170.059 1363.29 166.448 Q1363.29 162.837 1360.95 160.731 Q1358.61 158.624 1354.61 158.624 Q1352.73 158.624 1350.86 159.041 Q1349.01 159.458 1347.06 160.337 L1347.06 142.976 Z" fill="#000000" fill-rule="evenodd" fill-opacity="1" /><path clip-path="url(#clip100)" d="M1228.36 871.851 L1228.36 844.033 L1233.7 844.033 L1259.33 866.058 L1259.33 844.033 L1264 844.033 L1264 872.647 L1258.66 872.647 L1233.03 850.622 L1233.03 871.851 L1228.36 871.851 Z" fill="#000000" fill-rule="evenodd" fill-opacity="1" /><path clip-path="url(#clip100)" d="M1214.48 814.91 L1214.48 801.415 L1219.03 801.415 L1219.03 809.054 L1268.05 809.054 L1268.05 801.415 L1272.6 801.415 L1272.6 814.91 L1214.48 814.91 Z" fill="#000000" fill-rule="evenodd" fill-opacity="1" /><path clip-path="url(#clip100)" d="M1214.48 789.161 L1214.48 783.272 L1243.73 783.272 L1228.36 765.799 L1228.36 758.319 L1245.03 777.225 L1264 757.523 L1264 765.162 L1246.59 783.272 L1264 783.272 L1264 789.161 L1214.48 789.161 Z" fill="#000000" fill-rule="evenodd" fill-opacity="1" /><path clip-path="url(#clip100)" d="M1235.2 723.435 Q1231.25 721.239 1229.37 718.183 Q1227.5 715.128 1227.5 710.99 Q1227.5 705.42 1231.41 702.396 Q1235.29 699.372 1242.49 699.372 L1264 699.372 L1264 705.261 L1242.68 705.261 Q1237.55 705.261 1235.07 707.075 Q1232.59 708.889 1232.59 712.613 Q1232.59 717.165 1235.61 719.806 Q1238.64 722.448 1243.86 722.448 L1264 722.448 L1264 728.336 L1242.68 728.336 Q1237.52 728.336 1235.07 730.151 Q1232.59 731.965 1232.59 735.752 Q1232.59 740.24 1235.64 742.882 Q1238.67 745.524 1243.86 745.524 L1264 745.524 L1264 751.412 L1228.36 751.412 L1228.36 745.524 L1233.89 745.524 Q1230.62 743.519 1229.06 740.718 Q1227.5 737.917 1227.5 734.065 Q1227.5 730.182 1229.47 727.477 Q1231.44 724.74 1235.2 723.435 Z" fill="#000000" fill-rule="evenodd" fill-opacity="1" /><path clip-path="url(#clip100)" d="M1214.48 674.005 L1272.6 674.005 L1272.6 687.5 L1268.05 687.5 L1268.05 679.893 L1219.03 679.893 L1219.03 687.5 L1214.48 687.5 L1214.48 674.005 Z" fill="#000000" fill-rule="evenodd" fill-opacity="1" /><path clip-path="url(#clip100)" d="M1665.34 12.096 L1673.53 12.096 L1673.53 72.576 L1665.34 72.576 L1665.34 12.096 Z" fill="#000000" fill-rule="evenodd" fill-opacity="1" /><path clip-path="url(#clip100)" d="M1718.41 28.5427 L1718.41 35.5912 Q1715.25 33.9709 1711.85 33.1607 Q1708.44 32.3505 1704.8 32.3505 Q1699.25 32.3505 1696.45 34.0519 Q1693.7 35.7533 1693.7 39.156 Q1693.7 41.7486 1695.68 43.2475 Q1697.67 44.7058 1703.66 46.0426 L1706.22 46.6097 Q1714.16 48.3111 1717.48 51.4303 Q1720.84 54.509 1720.84 60.0587 Q1720.84 66.3781 1715.82 70.0644 Q1710.83 73.7508 1702.08 73.7508 Q1698.44 73.7508 1694.47 73.0216 Q1690.54 72.3329 1686.16 70.9151 L1686.16 63.2184 Q1690.3 65.3654 1694.31 66.4591 Q1698.32 67.5124 1702.25 67.5124 Q1707.51 67.5124 1710.35 65.73 Q1713.18 63.9071 1713.18 60.6258 Q1713.18 57.5877 1711.12 55.9673 Q1709.09 54.3469 1702.17 52.8481 L1699.57 52.2405 Q1692.65 50.7821 1689.57 47.7845 Q1686.49 44.7463 1686.49 39.4801 Q1686.49 33.0797 1691.03 29.5959 Q1695.56 26.1121 1703.91 26.1121 Q1708.04 26.1121 1711.69 26.7198 Q1715.33 27.3274 1718.41 28.5427 Z" fill="#000000" fill-rule="evenodd" fill-opacity="1" /><path clip-path="url(#clip100)" d="M1750.29 32.4315 Q1744.3 32.4315 1740.81 37.1306 Q1737.33 41.7891 1737.33 49.9314 Q1737.33 58.0738 1740.77 62.7728 Q1744.25 67.4314 1750.29 67.4314 Q1756.25 67.4314 1759.73 62.7323 Q1763.21 58.0333 1763.21 49.9314 Q1763.21 41.8701 1759.73 37.1711 Q1756.25 32.4315 1750.29 32.4315 M1750.29 26.1121 Q1760.01 26.1121 1765.56 32.4315 Q1771.11 38.7509 1771.11 49.9314 Q1771.11 61.0714 1765.56 67.4314 Q1760.01 73.7508 1750.29 73.7508 Q1740.53 73.7508 1734.98 67.4314 Q1729.47 61.0714 1729.47 49.9314 Q1729.47 38.7509 1734.98 32.4315 Q1740.53 26.1121 1750.29 26.1121 Z" fill="#000000" fill-rule="evenodd" fill-opacity="1" /><path clip-path="url(#clip100)" d="M1790.84 14.324 L1790.84 27.2059 L1806.19 27.2059 L1806.19 32.9987 L1790.84 32.9987 L1790.84 57.6282 Q1790.84 63.1779 1792.34 64.7578 Q1793.88 66.3376 1798.54 66.3376 L1806.19 66.3376 L1806.19 72.576 L1798.54 72.576 Q1789.91 72.576 1786.63 69.3758 Q1783.35 66.1351 1783.35 57.6282 L1783.35 32.9987 L1777.88 32.9987 L1777.88 27.2059 L1783.35 27.2059 L1783.35 14.324 L1790.84 14.324 Z" fill="#000000" fill-rule="evenodd" fill-opacity="1" /><path clip-path="url(#clip100)" d="M1853.71 45.1919 L1853.71 72.576 L1846.26 72.576 L1846.26 45.4349 Q1846.26 38.994 1843.74 35.7938 Q1841.23 32.5936 1836.21 32.5936 Q1830.17 32.5936 1826.69 36.4419 Q1823.21 40.2903 1823.21 46.9338 L1823.21 72.576 L1815.71 72.576 L1815.71 9.54393 L1823.21 9.54393 L1823.21 34.2544 Q1825.88 30.163 1829.49 28.1376 Q1833.13 26.1121 1837.87 26.1121 Q1845.69 26.1121 1849.7 30.9732 Q1853.71 35.7938 1853.71 45.1919 Z" fill="#000000" fill-rule="evenodd" fill-opacity="1" /><path clip-path="url(#clip100)" d="M1907.38 48.0275 L1907.38 51.6733 L1873.11 51.6733 Q1873.6 59.3701 1877.73 63.421 Q1881.9 67.4314 1889.32 67.4314 Q1893.61 67.4314 1897.62 66.3781 Q1901.67 65.3249 1905.64 63.2184 L1905.64 70.267 Q1901.63 71.9684 1897.42 72.8596 Q1893.21 73.7508 1888.87 73.7508 Q1878.02 73.7508 1871.66 67.4314 Q1865.34 61.1119 1865.34 50.3365 Q1865.34 39.1965 1871.33 32.6746 Q1877.37 26.1121 1887.58 26.1121 Q1896.73 26.1121 1902.04 32.0264 Q1907.38 37.9003 1907.38 48.0275 M1899.93 45.84 Q1899.85 39.7232 1896.49 36.0774 Q1893.17 32.4315 1887.66 32.4315 Q1881.42 32.4315 1877.65 35.9558 Q1873.92 39.4801 1873.36 45.8805 L1899.93 45.84 Z" fill="#000000" fill-rule="evenodd" fill-opacity="1" /><path clip-path="url(#clip100)" d="M1945.91 34.1734 Q1944.65 33.4443 1943.15 33.1202 Q1941.7 32.7556 1939.91 32.7556 Q1933.59 32.7556 1930.19 36.8875 Q1926.83 40.9789 1926.83 48.6757 L1926.83 72.576 L1919.33 72.576 L1919.33 27.2059 L1926.83 27.2059 L1926.83 34.2544 Q1929.18 30.1225 1932.95 28.1376 Q1936.71 26.1121 1942.1 26.1121 Q1942.87 26.1121 1943.8 26.2337 Q1944.73 26.3147 1945.87 26.5172 L1945.91 34.1734 Z" fill="#000000" fill-rule="evenodd" fill-opacity="1" /><path clip-path="url(#clip100)" d="M1987.59 35.9153 Q1990.39 30.8922 1994.28 28.5022 Q1998.17 26.1121 2003.43 26.1121 Q2010.52 26.1121 2014.37 31.0947 Q2018.22 36.0368 2018.22 45.1919 L2018.22 72.576 L2010.72 72.576 L2010.72 45.4349 Q2010.72 38.913 2008.41 35.7533 Q2006.11 32.5936 2001.37 32.5936 Q1995.57 32.5936 1992.21 36.4419 Q1988.85 40.2903 1988.85 46.9338 L1988.85 72.576 L1981.35 72.576 L1981.35 45.4349 Q1981.35 38.8725 1979.04 35.7533 Q1976.74 32.5936 1971.92 32.5936 Q1966.2 32.5936 1962.84 36.4824 Q1959.48 40.3308 1959.48 46.9338 L1959.48 72.576 L1951.98 72.576 L1951.98 27.2059 L1959.48 27.2059 L1959.48 34.2544 Q1962.03 30.082 1965.6 28.0971 Q1969.16 26.1121 1974.06 26.1121 Q1979 26.1121 1982.45 28.6237 Q1985.93 31.1352 1987.59 35.9153 Z" fill="#000000" fill-rule="evenodd" fill-opacity="1" /><path clip-path="url(#clip100)" d="M2053.7 49.7694 Q2044.67 49.7694 2041.19 51.8354 Q2037.7 53.9013 2037.7 58.8839 Q2037.7 62.8538 2040.29 65.2034 Q2042.93 67.5124 2047.42 67.5124 Q2053.62 67.5124 2057.35 63.1374 Q2061.12 58.7219 2061.12 51.4303 L2061.12 49.7694 L2053.7 49.7694 M2068.57 46.6907 L2068.57 72.576 L2061.12 72.576 L2061.12 65.6895 Q2058.56 69.8214 2054.76 71.8063 Q2050.95 73.7508 2045.44 73.7508 Q2038.47 73.7508 2034.34 69.8619 Q2030.25 65.9325 2030.25 59.3701 Q2030.25 51.7138 2035.35 47.825 Q2040.5 43.9361 2050.66 43.9361 L2061.12 43.9361 L2061.12 43.2069 Q2061.12 38.0623 2057.71 35.2672 Q2054.35 32.4315 2048.23 32.4315 Q2044.35 32.4315 2040.66 33.3632 Q2036.97 34.295 2033.57 36.1584 L2033.57 29.2718 Q2037.66 27.692 2041.51 26.9223 Q2045.36 26.1121 2049 26.1121 Q2058.85 26.1121 2063.71 31.2163 Q2068.57 36.3204 2068.57 46.6907 Z" fill="#000000" fill-rule="evenodd" fill-opacity="1" /><path clip-path="url(#clip100)" d="M2083.92 9.54393 L2091.38 9.54393 L2091.38 72.576 L2083.92 72.576 L2083.92 9.54393 Z" fill="#000000" fill-rule="evenodd" fill-opacity="1" /><polyline clip-path="url(#clip103)" style="stroke:#009af9; stroke-linecap:butt; stroke-linejoin:round; stroke-width:4; stroke-opacity:1; fill:none" points="
  2325.9,1386.4 2270.77,1361.37 2218.85,1336.35 2169.96,1311.33 2123.93,1286.3 2080.58,1261.28 2039.76,1236.26 2001.33,1211.23 1965.14,1186.21 1931.06,1161.19 
  1898.96,1136.16 1868.75,1111.14 1840.29,1086.12 1813.5,1061.09 1788.27,1036.07 1764.51,1011.05 1742.14,986.024 1721.08,961 1701.24,935.977 1682.56,910.954 
  1664.97,885.931 1648.41,860.907 1632.82,835.884 1618.13,810.861 1604.3,785.838 1591.28,760.814 1579.02,735.791 1567.48,710.768 1556.61,685.745 1546.37,660.721 
  1536.73,635.698 1527.65,610.675 1519.11,585.652 1511.06,560.628 1503.48,535.605 1496.34,510.582 1489.62,485.559 1483.29,460.535 1477.34,435.512 1471.73,410.489 
  1466.44,385.466 1461.47,360.442 1456.78,335.419 1452.37,310.396 1448.22,285.373 1444.31,260.349 1440.62,235.326 1437.16,210.303 1433.89,185.28 1430.82,160.256 
  
  "/>
<path clip-path="url(#clip100)" d="
M2163.28 270.476 L2321.13 270.476 L2321.13 166.796 L2163.28 166.796  Z
  " fill="#ffffff" fill-rule="evenodd" fill-opacity="1"/>
<polyline clip-path="url(#clip100)" style="stroke:#000000; stroke-linecap:butt; stroke-linejoin:round; stroke-width:4; stroke-opacity:1; fill:none" points="
  2163.28,270.476 2321.13,270.476 2321.13,166.796 2163.28,166.796 2163.28,270.476 
  "/>
<polyline clip-path="url(#clip100)" style="stroke:#009af9; stroke-linecap:butt; stroke-linejoin:round; stroke-width:4; stroke-opacity:1; fill:none" points="
  2173.82,218.636 2237.07,218.636 
  "/>
<path clip-path="url(#clip100)" d="M2261.46 238.323 Q2259.65 242.953 2257.94 244.365 Q2256.23 245.777 2253.36 245.777 L2249.95 245.777 L2249.95 242.212 L2252.45 242.212 Q2254.21 242.212 2255.18 241.379 Q2256.16 240.545 2257.34 237.443 L2258.1 235.499 L2247.61 209.99 L2252.13 209.99 L2260.23 230.268 L2268.33 209.99 L2272.85 209.99 L2261.46 238.323 Z" fill="#000000" fill-rule="evenodd" fill-opacity="1" /><path clip-path="url(#clip100)" d="M2280.14 231.981 L2287.78 231.981 L2287.78 205.615 L2279.47 207.282 L2279.47 203.022 L2287.73 201.356 L2292.41 201.356 L2292.41 231.981 L2300.05 231.981 L2300.05 235.916 L2280.14 235.916 L2280.14 231.981 Z" fill="#000000" fill-rule="evenodd" fill-opacity="1" /></svg>
