<?xml version="1.0" encoding="utf-8"?>
<svg xmlns="http://www.w3.org/2000/svg" xmlns:xlink="http://www.w3.org/1999/xlink" width="600" height="400" viewBox="0 0 2400 1600">
<defs>
  <clipPath id="clip890">
    <rect x="0" y="0" width="2400" height="1600"/>
  </clipPath>
</defs>
<path clip-path="url(#clip890)" d="M0 1600 L2400 1600 L2400 0 L0 0  Z" fill="#ffffff" fill-rule="evenodd" fill-opacity="1"/>
<defs>
  <clipPath id="clip891">
    <rect x="480" y="0" width="1681" height="1600"/>
  </clipPath>
</defs>
<path clip-path="url(#clip890)" d="M203.964 1423.18 L1152.76 1423.18 L1152.76 123.472 L203.964 123.472  Z" fill="#ffffff" fill-rule="evenodd" fill-opacity="1"/>
<defs>
  <clipPath id="clip892">
    <rect x="203" y="123" width="950" height="1301"/>
  </clipPath>
</defs>
<polyline clip-path="url(#clip892)" style="stroke:#000000; stroke-linecap:round; stroke-linejoin:round; stroke-width:2; stroke-opacity:0.1; fill:none" points="225.865,1423.18 225.865,123.472 "/>
<polyline clip-path="url(#clip892)" style="stroke:#000000; stroke-linecap:round; stroke-linejoin:round; stroke-width:2; stroke-opacity:0.1; fill:none" points="483.019,1423.18 483.019,123.472 "/>
<polyline clip-path="url(#clip892)" style="stroke:#000000; stroke-linecap:round; stroke-linejoin:round; stroke-width:2; stroke-opacity:0.1; fill:none" points="740.173,1423.18 740.173,123.472 "/>
<polyline clip-path="url(#clip892)" style="stroke:#000000; stroke-linecap:round; stroke-linejoin:round; stroke-width:2; stroke-opacity:0.1; fill:none" points="997.326,1423.18 997.326,123.472 "/>
<polyline clip-path="url(#clip892)" style="stroke:#000000; stroke-linecap:round; stroke-linejoin:round; stroke-width:2; stroke-opacity:0.1; fill:none" points="203.964,1386.4 1152.76,1386.4 "/>
<polyline clip-path="url(#clip892)" style="stroke:#000000; stroke-linecap:round; stroke-linejoin:round; stroke-width:2; stroke-opacity:0.1; fill:none" points="203.964,1141.17 1152.76,1141.17 "/>
<polyline clip-path="url(#clip892)" style="stroke:#000000; stroke-linecap:round; stroke-linejoin:round; stroke-width:2; stroke-opacity:0.1; fill:none" points="203.964,895.94 1152.76,895.94 "/>
<polyline clip-path="url(#clip892)" style="stroke:#000000; stroke-linecap:round; stroke-linejoin:round; stroke-width:2; stroke-opacity:0.1; fill:none" points="203.964,650.712 1152.76,650.712 "/>
<polyline clip-path="url(#clip892)" style="stroke:#000000; stroke-linecap:round; stroke-linejoin:round; stroke-width:2; stroke-opacity:0.1; fill:none" points="203.964,405.484 1152.76,405.484 "/>
<polyline clip-path="url(#clip892)" style="stroke:#000000; stroke-linecap:round; stroke-linejoin:round; stroke-width:2; stroke-opacity:0.1; fill:none" points="203.964,160.256 1152.76,160.256 "/>
<polyline clip-path="url(#clip890)" style="stroke:#000000; stroke-linecap:round; stroke-linejoin:round; stroke-width:4; stroke-opacity:1; fill:none" points="203.964,1423.18 1152.76,1423.18 "/>
<polyline clip-path="url(#clip890)" style="stroke:#000000; stroke-linecap:round; stroke-linejoin:round; stroke-width:4; stroke-opacity:1; fill:none" points="225.865,1423.18 225.865,1404.28 "/>
<polyline clip-path="url(#clip890)" style="stroke:#000000; stroke-linecap:round; stroke-linejoin:round; stroke-width:4; stroke-opacity:1; fill:none" points="483.019,1423.18 483.019,1404.28 "/>
<polyline clip-path="url(#clip890)" style="stroke:#000000; stroke-linecap:round; stroke-linejoin:round; stroke-width:4; stroke-opacity:1; fill:none" points="740.173,1423.18 740.173,1404.28 "/>
<polyline clip-path="url(#clip890)" style="stroke:#000000; stroke-linecap:round; stroke-linejoin:round; stroke-width:4; stroke-opacity:1; fill:none" points="997.326,1423.18 997.326,1404.28 "/>
<path clip-path="url(#clip890)" d="M189.558 1481.64 L205.877 1481.64 L205.877 1485.58 L183.933 1485.58 L183.933 1481.64 Q186.595 1478.89 191.178 1474.26 Q195.784 1469.61 196.965 1468.27 Q199.21 1465.74 200.09 1464.01 Q200.993 1462.25 200.993 1460.56 Q200.993 1457.8 199.048 1456.07 Q197.127 1454.33 194.025 1454.33 Q191.826 1454.33 189.372 1455.09 Q186.942 1455.86 184.164 1457.41 L184.164 1452.69 Q186.988 1451.55 189.442 1450.97 Q191.896 1450.39 193.933 1450.39 Q199.303 1450.39 202.497 1453.08 Q205.692 1455.77 205.692 1460.26 Q205.692 1462.39 204.882 1464.31 Q204.095 1466.2 201.988 1468.8 Q201.409 1469.47 198.308 1472.69 Q195.206 1475.88 189.558 1481.64 Z" fill="#000000" fill-rule="nonzero" fill-opacity="1" /><path clip-path="url(#clip890)" d="M219.719 1481.64 L236.039 1481.64 L236.039 1485.58 L214.095 1485.58 L214.095 1481.64 Q216.757 1478.89 221.34 1474.26 Q225.946 1469.61 227.127 1468.27 Q229.372 1465.74 230.252 1464.01 Q231.155 1462.25 231.155 1460.56 Q231.155 1457.8 229.21 1456.07 Q227.289 1454.33 224.187 1454.33 Q221.988 1454.33 219.534 1455.09 Q217.104 1455.86 214.326 1457.41 L214.326 1452.69 Q217.15 1451.55 219.604 1450.97 Q222.057 1450.39 224.094 1450.39 Q229.465 1450.39 232.659 1453.08 Q235.854 1455.77 235.854 1460.26 Q235.854 1462.39 235.043 1464.31 Q234.256 1466.2 232.15 1468.8 Q231.571 1469.47 228.469 1472.69 Q225.368 1475.88 219.719 1481.64 Z" fill="#000000" fill-rule="nonzero" fill-opacity="1" /><path clip-path="url(#clip890)" d="M255.854 1454.1 Q252.242 1454.1 250.414 1457.66 Q248.608 1461.2 248.608 1468.33 Q248.608 1475.44 250.414 1479.01 Q252.242 1482.55 255.854 1482.55 Q259.488 1482.55 261.293 1479.01 Q263.122 1475.44 263.122 1468.33 Q263.122 1461.2 261.293 1457.66 Q259.488 1454.1 255.854 1454.1 M255.854 1450.39 Q261.664 1450.39 264.719 1455 Q267.798 1459.58 267.798 1468.33 Q267.798 1477.06 264.719 1481.67 Q261.664 1486.25 255.854 1486.25 Q250.043 1486.25 246.965 1481.67 Q243.909 1477.06 243.909 1468.33 Q243.909 1459.58 246.965 1455 Q250.043 1450.39 255.854 1450.39 Z" fill="#000000" fill-rule="nonzero" fill-opacity="1" /><path clip-path="url(#clip890)" d="M446.711 1481.64 L463.031 1481.64 L463.031 1485.58 L441.086 1485.58 L441.086 1481.64 Q443.748 1478.89 448.332 1474.26 Q452.938 1469.61 454.119 1468.27 Q456.364 1465.74 457.244 1464.01 Q458.146 1462.25 458.146 1460.56 Q458.146 1457.8 456.202 1456.07 Q454.281 1454.33 451.179 1454.33 Q448.98 1454.33 446.526 1455.09 Q444.096 1455.86 441.318 1457.41 L441.318 1452.69 Q444.142 1451.55 446.596 1450.97 Q449.049 1450.39 451.086 1450.39 Q456.457 1450.39 459.651 1453.08 Q462.845 1455.77 462.845 1460.26 Q462.845 1462.39 462.035 1464.31 Q461.248 1466.2 459.142 1468.8 Q458.563 1469.47 455.461 1472.69 Q452.359 1475.88 446.711 1481.64 Z" fill="#000000" fill-rule="nonzero" fill-opacity="1" /><path clip-path="url(#clip890)" d="M485.693 1455.09 L473.887 1473.54 L485.693 1473.54 L485.693 1455.09 M484.466 1451.02 L490.345 1451.02 L490.345 1473.54 L495.276 1473.54 L495.276 1477.43 L490.345 1477.43 L490.345 1485.58 L485.693 1485.58 L485.693 1477.43 L470.091 1477.43 L470.091 1472.92 L484.466 1451.02 Z" fill="#000000" fill-rule="nonzero" fill-opacity="1" /><path clip-path="url(#clip890)" d="M513.007 1454.1 Q509.396 1454.1 507.567 1457.66 Q505.762 1461.2 505.762 1468.33 Q505.762 1475.44 507.567 1479.01 Q509.396 1482.55 513.007 1482.55 Q516.641 1482.55 518.447 1479.01 Q520.276 1475.44 520.276 1468.33 Q520.276 1461.2 518.447 1457.66 Q516.641 1454.1 513.007 1454.1 M513.007 1450.39 Q518.817 1450.39 521.873 1455 Q524.952 1459.58 524.952 1468.33 Q524.952 1477.06 521.873 1481.67 Q518.817 1486.25 513.007 1486.25 Q507.197 1486.25 504.118 1481.67 Q501.063 1477.06 501.063 1468.33 Q501.063 1459.58 504.118 1455 Q507.197 1450.39 513.007 1450.39 Z" fill="#000000" fill-rule="nonzero" fill-opacity="1" /><path clip-path="url(#clip890)" d="M703.865 1481.64 L720.184 1481.64 L720.184 1485.58 L698.24 1485.58 L698.24 1481.64 Q700.902 1478.89 705.485 1474.26 Q710.092 1469.61 711.272 1468.27 Q713.518 1465.74 714.397 1464.01 Q715.3 1462.25 715.3 1460.56 Q715.3 1457.8 713.356 1456.07 Q711.434 1454.33 708.333 1454.33 Q706.134 1454.33 703.68 1455.09 Q701.249 1455.86 698.472 1457.41 L698.472 1452.69 Q701.296 1451.55 703.749 1450.97 Q706.203 1450.39 708.24 1450.39 Q713.61 1450.39 716.805 1453.08 Q719.999 1455.77 719.999 1460.26 Q719.999 1462.39 719.189 1464.31 Q718.402 1466.2 716.296 1468.8 Q715.717 1469.47 712.615 1472.69 Q709.513 1475.88 703.865 1481.64 Z" fill="#000000" fill-rule="nonzero" fill-opacity="1" /><path clip-path="url(#clip890)" d="M740.578 1466.44 Q737.43 1466.44 735.578 1468.59 Q733.749 1470.74 733.749 1474.49 Q733.749 1478.22 735.578 1480.39 Q737.43 1482.55 740.578 1482.55 Q743.726 1482.55 745.555 1480.39 Q747.406 1478.22 747.406 1474.49 Q747.406 1470.74 745.555 1468.59 Q743.726 1466.44 740.578 1466.44 M749.86 1451.78 L749.86 1456.04 Q748.101 1455.21 746.295 1454.77 Q744.513 1454.33 742.754 1454.33 Q738.124 1454.33 735.67 1457.45 Q733.24 1460.58 732.893 1466.9 Q734.258 1464.89 736.319 1463.82 Q738.379 1462.73 740.856 1462.73 Q746.064 1462.73 749.073 1465.9 Q752.106 1469.05 752.106 1474.49 Q752.106 1479.82 748.957 1483.03 Q745.809 1486.25 740.578 1486.25 Q734.582 1486.25 731.411 1481.67 Q728.24 1477.06 728.24 1468.33 Q728.24 1460.14 732.129 1455.28 Q736.018 1450.39 742.569 1450.39 Q744.328 1450.39 746.11 1450.74 Q747.916 1451.09 749.86 1451.78 Z" fill="#000000" fill-rule="nonzero" fill-opacity="1" /><path clip-path="url(#clip890)" d="M770.161 1454.1 Q766.55 1454.1 764.721 1457.66 Q762.916 1461.2 762.916 1468.33 Q762.916 1475.44 764.721 1479.01 Q766.55 1482.55 770.161 1482.55 Q773.795 1482.55 775.601 1479.01 Q777.429 1475.44 777.429 1468.33 Q777.429 1461.2 775.601 1457.66 Q773.795 1454.1 770.161 1454.1 M770.161 1450.39 Q775.971 1450.39 779.027 1455 Q782.105 1459.58 782.105 1468.33 Q782.105 1477.06 779.027 1481.67 Q775.971 1486.25 770.161 1486.25 Q764.351 1486.25 761.272 1481.67 Q758.217 1477.06 758.217 1468.33 Q758.217 1459.58 761.272 1455 Q764.351 1450.39 770.161 1450.39 Z" fill="#000000" fill-rule="nonzero" fill-opacity="1" /><path clip-path="url(#clip890)" d="M961.019 1481.64 L977.338 1481.64 L977.338 1485.58 L955.394 1485.58 L955.394 1481.64 Q958.056 1478.89 962.639 1474.26 Q967.246 1469.61 968.426 1468.27 Q970.671 1465.74 971.551 1464.01 Q972.454 1462.25 972.454 1460.56 Q972.454 1457.8 970.509 1456.07 Q968.588 1454.33 965.486 1454.33 Q963.287 1454.33 960.834 1455.09 Q958.403 1455.86 955.625 1457.41 L955.625 1452.69 Q958.449 1451.55 960.903 1450.97 Q963.357 1450.39 965.394 1450.39 Q970.764 1450.39 973.959 1453.08 Q977.153 1455.77 977.153 1460.26 Q977.153 1462.39 976.343 1464.31 Q975.556 1466.2 973.449 1468.8 Q972.871 1469.47 969.769 1472.69 Q966.667 1475.88 961.019 1481.64 Z" fill="#000000" fill-rule="nonzero" fill-opacity="1" /><path clip-path="url(#clip890)" d="M997.153 1469.17 Q993.82 1469.17 991.898 1470.95 Q990 1472.73 990 1475.86 Q990 1478.98 991.898 1480.77 Q993.82 1482.55 997.153 1482.55 Q1000.49 1482.55 1002.41 1480.77 Q1004.33 1478.96 1004.33 1475.86 Q1004.33 1472.73 1002.41 1470.95 Q1000.51 1469.17 997.153 1469.17 M992.477 1467.18 Q989.468 1466.44 987.778 1464.38 Q986.111 1462.32 986.111 1459.35 Q986.111 1455.21 989.051 1452.8 Q992.014 1450.39 997.153 1450.39 Q1002.31 1450.39 1005.25 1452.8 Q1008.19 1455.21 1008.19 1459.35 Q1008.19 1462.32 1006.5 1464.38 Q1004.84 1466.44 1001.85 1467.18 Q1005.23 1467.96 1007.11 1470.26 Q1009 1472.55 1009 1475.86 Q1009 1480.88 1005.93 1483.57 Q1002.87 1486.25 997.153 1486.25 Q991.435 1486.25 988.357 1483.57 Q985.301 1480.88 985.301 1475.86 Q985.301 1472.55 987.199 1470.26 Q989.097 1467.96 992.477 1467.18 M990.764 1459.79 Q990.764 1462.48 992.431 1463.98 Q994.12 1465.49 997.153 1465.49 Q1000.16 1465.49 1001.85 1463.98 Q1003.56 1462.48 1003.56 1459.79 Q1003.56 1457.11 1001.85 1455.6 Q1000.16 1454.1 997.153 1454.1 Q994.12 1454.1 992.431 1455.6 Q990.764 1457.11 990.764 1459.79 Z" fill="#000000" fill-rule="nonzero" fill-opacity="1" /><path clip-path="url(#clip890)" d="M1027.31 1454.1 Q1023.7 1454.1 1021.87 1457.66 Q1020.07 1461.2 1020.07 1468.33 Q1020.07 1475.44 1021.87 1479.01 Q1023.7 1482.55 1027.31 1482.55 Q1030.95 1482.55 1032.75 1479.01 Q1034.58 1475.44 1034.58 1468.33 Q1034.58 1461.2 1032.75 1457.66 Q1030.95 1454.1 1027.31 1454.1 M1027.31 1450.39 Q1033.12 1450.39 1036.18 1455 Q1039.26 1459.58 1039.26 1468.33 Q1039.26 1477.06 1036.18 1481.67 Q1033.12 1486.25 1027.31 1486.25 Q1021.5 1486.25 1018.43 1481.67 Q1015.37 1477.06 1015.37 1468.33 Q1015.37 1459.58 1018.43 1455 Q1021.5 1450.39 1027.31 1450.39 Z" fill="#000000" fill-rule="nonzero" fill-opacity="1" /><path clip-path="url(#clip890)" d="M417.445 1520.52 L457.645 1520.52 L457.645 1525.93 L440.776 1525.93 L440.776 1568.04 L434.314 1568.04 L434.314 1525.93 L417.445 1525.93 L417.445 1520.52 Z" fill="#000000" fill-rule="nonzero" fill-opacity="1" /><path clip-path="url(#clip890)" d="M483.012 1548.76 L483.012 1551.62 L456.085 1551.62 Q456.467 1557.67 459.714 1560.85 Q462.992 1564 468.817 1564 Q472.19 1564 475.341 1563.17 Q478.524 1562.35 481.643 1560.69 L481.643 1566.23 Q478.492 1567.57 475.182 1568.27 Q471.872 1568.97 468.466 1568.97 Q459.936 1568.97 454.939 1564 Q449.974 1559.04 449.974 1550.57 Q449.974 1541.82 454.685 1536.69 Q459.427 1531.54 467.448 1531.54 Q474.641 1531.54 478.811 1536.18 Q483.012 1540.8 483.012 1548.76 M477.156 1547.04 Q477.092 1542.23 474.45 1539.37 Q471.84 1536.5 467.512 1536.5 Q462.61 1536.5 459.65 1539.27 Q456.722 1542.04 456.276 1547.07 L477.156 1547.04 Z" fill="#000000" fill-rule="nonzero" fill-opacity="1" /><path clip-path="url(#clip890)" d="M520.379 1539.24 Q522.575 1535.29 525.631 1533.41 Q528.686 1531.54 532.824 1531.54 Q538.394 1531.54 541.417 1535.45 Q544.441 1539.33 544.441 1546.53 L544.441 1568.04 L538.553 1568.04 L538.553 1546.72 Q538.553 1541.59 536.739 1539.11 Q534.924 1536.63 531.201 1536.63 Q526.649 1536.63 524.007 1539.65 Q521.365 1542.68 521.365 1547.9 L521.365 1568.04 L515.477 1568.04 L515.477 1546.72 Q515.477 1541.56 513.663 1539.11 Q511.849 1536.63 508.061 1536.63 Q503.573 1536.63 500.932 1539.68 Q498.29 1542.71 498.29 1547.9 L498.29 1568.04 L492.402 1568.04 L492.402 1532.4 L498.29 1532.4 L498.29 1537.93 Q500.295 1534.66 503.096 1533.1 Q505.897 1531.54 509.748 1531.54 Q513.631 1531.54 516.337 1533.51 Q519.074 1535.48 520.379 1539.24 Z" fill="#000000" fill-rule="nonzero" fill-opacity="1" /><path clip-path="url(#clip890)" d="M561.788 1562.7 L561.788 1581.6 L555.899 1581.6 L555.899 1532.4 L561.788 1532.4 L561.788 1537.81 Q563.634 1534.62 566.435 1533.1 Q569.267 1531.54 573.182 1531.54 Q579.675 1531.54 583.718 1536.69 Q587.792 1541.85 587.792 1550.25 Q587.792 1558.65 583.718 1563.81 Q579.675 1568.97 573.182 1568.97 Q569.267 1568.97 566.435 1567.44 Q563.634 1565.88 561.788 1562.7 M581.712 1550.25 Q581.712 1543.79 579.039 1540.13 Q576.397 1536.44 571.75 1536.44 Q567.103 1536.44 564.43 1540.13 Q561.788 1543.79 561.788 1550.25 Q561.788 1556.71 564.43 1560.4 Q567.103 1564.07 571.75 1564.07 Q576.397 1564.07 579.039 1560.4 Q581.712 1556.71 581.712 1550.25 Z" fill="#000000" fill-rule="nonzero" fill-opacity="1" /><path clip-path="url(#clip890)" d="M627.991 1548.76 L627.991 1551.62 L601.064 1551.62 Q601.446 1557.67 604.693 1560.85 Q607.971 1564 613.796 1564 Q617.169 1564 620.32 1563.17 Q623.503 1562.35 626.622 1560.69 L626.622 1566.23 Q623.471 1567.57 620.161 1568.27 Q616.851 1568.97 613.445 1568.97 Q604.915 1568.97 599.918 1564 Q594.953 1559.04 594.953 1550.57 Q594.953 1541.82 599.664 1536.69 Q604.406 1531.54 612.427 1531.54 Q619.62 1531.54 623.79 1536.18 Q627.991 1540.8 627.991 1548.76 M622.135 1547.04 Q622.071 1542.23 619.429 1539.37 Q616.819 1536.5 612.491 1536.5 Q607.589 1536.5 604.629 1539.27 Q601.701 1542.04 601.255 1547.07 L622.135 1547.04 Z" fill="#000000" fill-rule="nonzero" fill-opacity="1" /><path clip-path="url(#clip890)" d="M658.26 1537.87 Q657.273 1537.3 656.096 1537.04 Q654.95 1536.76 653.549 1536.76 Q648.584 1536.76 645.911 1540 Q643.269 1543.22 643.269 1549.27 L643.269 1568.04 L637.381 1568.04 L637.381 1532.4 L643.269 1532.4 L643.269 1537.93 Q645.115 1534.69 648.075 1533.13 Q651.035 1531.54 655.268 1531.54 Q655.873 1531.54 656.605 1531.63 Q657.337 1531.7 658.228 1531.85 L658.26 1537.87 Z" fill="#000000" fill-rule="nonzero" fill-opacity="1" /><path clip-path="url(#clip890)" d="M680.604 1550.12 Q673.506 1550.12 670.769 1551.75 Q668.031 1553.37 668.031 1557.29 Q668.031 1560.4 670.068 1562.25 Q672.137 1564.07 675.67 1564.07 Q680.54 1564.07 683.468 1560.63 Q686.428 1557.16 686.428 1551.43 L686.428 1550.12 L680.604 1550.12 M692.285 1547.71 L692.285 1568.04 L686.428 1568.04 L686.428 1562.63 Q684.423 1565.88 681.431 1567.44 Q678.439 1568.97 674.111 1568.97 Q668.636 1568.97 665.39 1565.91 Q662.175 1562.82 662.175 1557.67 Q662.175 1551.65 666.185 1548.6 Q670.228 1545.54 678.217 1545.54 L686.428 1545.54 L686.428 1544.97 Q686.428 1540.93 683.755 1538.73 Q681.113 1536.5 676.307 1536.5 Q673.251 1536.5 670.355 1537.23 Q667.458 1537.97 664.785 1539.43 L664.785 1534.02 Q668 1532.78 671.023 1532.17 Q674.047 1531.54 676.912 1531.54 Q684.646 1531.54 688.465 1535.55 Q692.285 1539.56 692.285 1547.71 Z" fill="#000000" fill-rule="nonzero" fill-opacity="1" /><path clip-path="url(#clip890)" d="M710.141 1522.27 L710.141 1532.4 L722.204 1532.4 L722.204 1536.95 L710.141 1536.95 L710.141 1556.3 Q710.141 1560.66 711.318 1561.9 Q712.528 1563.14 716.188 1563.14 L722.204 1563.14 L722.204 1568.04 L716.188 1568.04 Q709.408 1568.04 706.83 1565.53 Q704.252 1562.98 704.252 1556.3 L704.252 1536.95 L699.955 1536.95 L699.955 1532.4 L704.252 1532.4 L704.252 1522.27 L710.141 1522.27 Z" fill="#000000" fill-rule="nonzero" fill-opacity="1" /><path clip-path="url(#clip890)" d="M729.301 1553.98 L729.301 1532.4 L735.158 1532.4 L735.158 1553.75 Q735.158 1558.81 737.131 1561.36 Q739.104 1563.87 743.051 1563.87 Q747.794 1563.87 750.531 1560.85 Q753.3 1557.83 753.3 1552.61 L753.3 1532.4 L759.156 1532.4 L759.156 1568.04 L753.3 1568.04 L753.3 1562.57 Q751.168 1565.82 748.335 1567.41 Q745.534 1568.97 741.81 1568.97 Q735.667 1568.97 732.484 1565.15 Q729.301 1561.33 729.301 1553.98 M744.038 1531.54 L744.038 1531.54 Z" fill="#000000" fill-rule="nonzero" fill-opacity="1" /><path clip-path="url(#clip890)" d="M791.876 1537.87 Q790.89 1537.3 789.712 1537.04 Q788.566 1536.76 787.166 1536.76 Q782.2 1536.76 779.527 1540 Q776.885 1543.22 776.885 1549.27 L776.885 1568.04 L770.997 1568.04 L770.997 1532.4 L776.885 1532.4 L776.885 1537.93 Q778.731 1534.69 781.691 1533.13 Q784.651 1531.54 788.884 1531.54 Q789.489 1531.54 790.221 1531.63 Q790.953 1531.7 791.844 1531.85 L791.876 1537.87 Z" fill="#000000" fill-rule="nonzero" fill-opacity="1" /><path clip-path="url(#clip890)" d="M827.079 1548.76 L827.079 1551.62 L800.152 1551.62 Q800.534 1557.67 803.78 1560.85 Q807.058 1564 812.883 1564 Q816.257 1564 819.408 1563.17 Q822.591 1562.35 825.71 1560.69 L825.71 1566.23 Q822.559 1567.57 819.249 1568.27 Q815.939 1568.97 812.533 1568.97 Q804.003 1568.97 799.006 1564 Q794.041 1559.04 794.041 1550.57 Q794.041 1541.82 798.751 1536.69 Q803.494 1531.54 811.514 1531.54 Q818.708 1531.54 822.877 1536.18 Q827.079 1540.8 827.079 1548.76 M821.222 1547.04 Q821.158 1542.23 818.517 1539.37 Q815.907 1536.5 811.578 1536.5 Q806.676 1536.5 803.716 1539.27 Q800.788 1542.04 800.343 1547.07 L821.222 1547.04 Z" fill="#000000" fill-rule="nonzero" fill-opacity="1" /><path clip-path="url(#clip890)" d="M856.87 1518.52 L870.365 1518.52 L870.365 1523.07 L862.727 1523.07 L862.727 1572.09 L870.365 1572.09 L870.365 1576.64 L856.87 1576.64 L856.87 1518.52 Z" fill="#000000" fill-rule="nonzero" fill-opacity="1" /><path clip-path="url(#clip890)" d="M883.097 1520.52 L889.526 1520.52 L889.526 1540.61 L910.851 1520.52 L919.127 1520.52 L895.542 1542.68 L920.814 1568.04 L912.347 1568.04 L889.526 1545.16 L889.526 1568.04 L883.097 1568.04 L883.097 1520.52 Z" fill="#000000" fill-rule="nonzero" fill-opacity="1" /><path clip-path="url(#clip890)" d="M939.274 1518.52 L939.274 1576.64 L925.779 1576.64 L925.779 1572.09 L933.386 1572.09 L933.386 1523.07 L925.779 1523.07 L925.779 1518.52 L939.274 1518.52 Z" fill="#000000" fill-rule="nonzero" fill-opacity="1" /><polyline clip-path="url(#clip890)" style="stroke:#000000; stroke-linecap:round; stroke-linejoin:round; stroke-width:4; stroke-opacity:1; fill:none" points="203.964,1423.18 203.964,123.472 "/>
<polyline clip-path="url(#clip890)" style="stroke:#000000; stroke-linecap:round; stroke-linejoin:round; stroke-width:4; stroke-opacity:1; fill:none" points="203.964,1386.4 222.861,1386.4 "/>
<polyline clip-path="url(#clip890)" style="stroke:#000000; stroke-linecap:round; stroke-linejoin:round; stroke-width:4; stroke-opacity:1; fill:none" points="203.964,1141.17 222.861,1141.17 "/>
<polyline clip-path="url(#clip890)" style="stroke:#000000; stroke-linecap:round; stroke-linejoin:round; stroke-width:4; stroke-opacity:1; fill:none" points="203.964,895.94 222.861,895.94 "/>
<polyline clip-path="url(#clip890)" style="stroke:#000000; stroke-linecap:round; stroke-linejoin:round; stroke-width:4; stroke-opacity:1; fill:none" points="203.964,650.712 222.861,650.712 "/>
<polyline clip-path="url(#clip890)" style="stroke:#000000; stroke-linecap:round; stroke-linejoin:round; stroke-width:4; stroke-opacity:1; fill:none" points="203.964,405.484 222.861,405.484 "/>
<polyline clip-path="url(#clip890)" style="stroke:#000000; stroke-linecap:round; stroke-linejoin:round; stroke-width:4; stroke-opacity:1; fill:none" points="203.964,160.256 222.861,160.256 "/>
<path clip-path="url(#clip890)" d="M156.019 1372.19 Q152.408 1372.19 150.579 1375.76 Q148.774 1379.3 148.774 1386.43 Q148.774 1393.54 150.579 1397.1 Q152.408 1400.64 156.019 1400.64 Q159.653 1400.64 161.459 1397.1 Q163.288 1393.54 163.288 1386.43 Q163.288 1379.3 161.459 1375.76 Q159.653 1372.19 156.019 1372.19 M156.019 1368.49 Q161.829 1368.49 164.885 1373.1 Q167.964 1377.68 167.964 1386.43 Q167.964 1395.16 164.885 1399.76 Q161.829 1404.35 156.019 1404.35 Q150.209 1404.35 147.13 1399.76 Q144.075 1395.16 144.075 1386.43 Q144.075 1377.68 147.13 1373.1 Q150.209 1368.49 156.019 1368.49 Z" fill="#000000" fill-rule="nonzero" fill-opacity="1" /><path clip-path="url(#clip890)" d="M147.061 1123.89 L165.417 1123.89 L165.417 1127.82 L151.343 1127.82 L151.343 1136.3 Q152.362 1135.95 153.38 1135.79 Q154.399 1135.6 155.417 1135.6 Q161.204 1135.6 164.584 1138.77 Q167.964 1141.94 167.964 1147.36 Q167.964 1152.94 164.491 1156.04 Q161.019 1159.12 154.7 1159.12 Q152.524 1159.12 150.255 1158.75 Q148.01 1158.38 145.603 1157.64 L145.603 1152.94 Q147.686 1154.07 149.908 1154.63 Q152.13 1155.18 154.607 1155.18 Q158.612 1155.18 160.95 1153.08 Q163.288 1150.97 163.288 1147.36 Q163.288 1143.75 160.95 1141.64 Q158.612 1139.54 154.607 1139.54 Q152.732 1139.54 150.857 1139.95 Q149.005 1140.37 147.061 1141.25 L147.061 1123.89 Z" fill="#000000" fill-rule="nonzero" fill-opacity="1" /><path clip-path="url(#clip890)" d="M116.668 909.285 L124.306 909.285 L124.306 882.919 L115.996 884.586 L115.996 880.327 L124.26 878.66 L128.936 878.66 L128.936 909.285 L136.575 909.285 L136.575 913.22 L116.668 913.22 L116.668 909.285 Z" fill="#000000" fill-rule="nonzero" fill-opacity="1" /><path clip-path="url(#clip890)" d="M156.019 881.739 Q152.408 881.739 150.579 885.303 Q148.774 888.845 148.774 895.975 Q148.774 903.081 150.579 906.646 Q152.408 910.188 156.019 910.188 Q159.653 910.188 161.459 906.646 Q163.288 903.081 163.288 895.975 Q163.288 888.845 161.459 885.303 Q159.653 881.739 156.019 881.739 M156.019 878.035 Q161.829 878.035 164.885 882.641 Q167.964 887.225 167.964 895.975 Q167.964 904.701 164.885 909.308 Q161.829 913.891 156.019 913.891 Q150.209 913.891 147.13 909.308 Q144.075 904.701 144.075 895.975 Q144.075 887.225 147.13 882.641 Q150.209 878.035 156.019 878.035 Z" fill="#000000" fill-rule="nonzero" fill-opacity="1" /><path clip-path="url(#clip890)" d="M117.663 664.057 L125.302 664.057 L125.302 637.691 L116.992 639.358 L116.992 635.099 L125.255 633.432 L129.931 633.432 L129.931 664.057 L137.57 664.057 L137.57 667.992 L117.663 667.992 L117.663 664.057 Z" fill="#000000" fill-rule="nonzero" fill-opacity="1" /><path clip-path="url(#clip890)" d="M147.061 633.432 L165.417 633.432 L165.417 637.367 L151.343 637.367 L151.343 645.839 Q152.362 645.492 153.38 645.33 Q154.399 645.145 155.417 645.145 Q161.204 645.145 164.584 648.316 Q167.964 651.488 167.964 656.904 Q167.964 662.483 164.491 665.585 Q161.019 668.663 154.7 668.663 Q152.524 668.663 150.255 668.293 Q148.01 667.923 145.603 667.182 L145.603 662.483 Q147.686 663.617 149.908 664.173 Q152.13 664.728 154.607 664.728 Q158.612 664.728 160.95 662.622 Q163.288 660.515 163.288 656.904 Q163.288 653.293 160.95 651.187 Q158.612 649.08 154.607 649.08 Q152.732 649.08 150.857 649.497 Q149.005 649.913 147.061 650.793 L147.061 633.432 Z" fill="#000000" fill-rule="nonzero" fill-opacity="1" /><path clip-path="url(#clip890)" d="M119.885 418.829 L136.204 418.829 L136.204 422.764 L114.26 422.764 L114.26 418.829 Q116.922 416.074 121.505 411.445 Q126.112 406.792 127.292 405.449 Q129.538 402.926 130.417 401.19 Q131.32 399.431 131.32 397.741 Q131.32 394.987 129.376 393.25 Q127.455 391.514 124.353 391.514 Q122.154 391.514 119.7 392.278 Q117.269 393.042 114.492 394.593 L114.492 389.871 Q117.316 388.737 119.769 388.158 Q122.223 387.579 124.26 387.579 Q129.63 387.579 132.825 390.264 Q136.019 392.95 136.019 397.44 Q136.019 399.57 135.209 401.491 Q134.422 403.389 132.316 405.982 Q131.737 406.653 128.635 409.871 Q125.533 413.065 119.885 418.829 Z" fill="#000000" fill-rule="nonzero" fill-opacity="1" /><path clip-path="url(#clip890)" d="M156.019 391.283 Q152.408 391.283 150.579 394.848 Q148.774 398.389 148.774 405.519 Q148.774 412.625 150.579 416.19 Q152.408 419.732 156.019 419.732 Q159.653 419.732 161.459 416.19 Q163.288 412.625 163.288 405.519 Q163.288 398.389 161.459 394.848 Q159.653 391.283 156.019 391.283 M156.019 387.579 Q161.829 387.579 164.885 392.186 Q167.964 396.769 167.964 405.519 Q167.964 414.246 164.885 418.852 Q161.829 423.435 156.019 423.435 Q150.209 423.435 147.13 418.852 Q144.075 414.246 144.075 405.519 Q144.075 396.769 147.13 392.186 Q150.209 387.579 156.019 387.579 Z" fill="#000000" fill-rule="nonzero" fill-opacity="1" /><path clip-path="url(#clip890)" d="M120.88 173.601 L137.2 173.601 L137.2 177.536 L115.256 177.536 L115.256 173.601 Q117.918 170.847 122.501 166.217 Q127.107 161.564 128.288 160.222 Q130.533 157.698 131.413 155.962 Q132.316 154.203 132.316 152.513 Q132.316 149.759 130.371 148.023 Q128.45 146.286 125.348 146.286 Q123.149 146.286 120.695 147.05 Q118.265 147.814 115.487 149.365 L115.487 144.643 Q118.311 143.509 120.765 142.93 Q123.218 142.351 125.255 142.351 Q130.626 142.351 133.82 145.036 Q137.015 147.722 137.015 152.212 Q137.015 154.342 136.204 156.263 Q135.417 158.161 133.311 160.754 Q132.732 161.425 129.63 164.643 Q126.529 167.837 120.88 173.601 Z" fill="#000000" fill-rule="nonzero" fill-opacity="1" /><path clip-path="url(#clip890)" d="M147.061 142.976 L165.417 142.976 L165.417 146.911 L151.343 146.911 L151.343 155.384 Q152.362 155.036 153.38 154.874 Q154.399 154.689 155.417 154.689 Q161.204 154.689 164.584 157.86 Q167.964 161.032 167.964 166.448 Q167.964 172.027 164.491 175.129 Q161.019 178.208 154.7 178.208 Q152.524 178.208 150.255 177.837 Q148.01 177.467 145.603 176.726 L145.603 172.027 Q147.686 173.161 149.908 173.717 Q152.13 174.272 154.607 174.272 Q158.612 174.272 160.95 172.166 Q163.288 170.059 163.288 166.448 Q163.288 162.837 160.95 160.731 Q158.612 158.624 154.607 158.624 Q152.732 158.624 150.857 159.041 Q149.005 159.458 147.061 160.337 L147.061 142.976 Z" fill="#000000" fill-rule="nonzero" fill-opacity="1" /><path clip-path="url(#clip890)" d="M28.3562 871.851 L28.3562 844.033 L33.7034 844.033 L59.3254 866.058 L59.3254 844.033 L64.0042 844.033 L64.0042 872.647 L58.657 872.647 L33.035 850.622 L33.035 871.851 L28.3562 871.851 Z" fill="#000000" fill-rule="nonzero" fill-opacity="1" /><path clip-path="url(#clip890)" d="M14.479 814.91 L14.479 801.415 L19.0304 801.415 L19.0304 809.054 L68.0464 809.054 L68.0464 801.415 L72.5979 801.415 L72.5979 814.91 L14.479 814.91 Z" fill="#000000" fill-rule="nonzero" fill-opacity="1" /><path clip-path="url(#clip890)" d="M14.479 789.161 L14.479 783.272 L43.7294 783.272 L28.3562 765.799 L28.3562 758.319 L45.0344 777.225 L64.0042 757.523 L64.0042 765.162 L46.5939 783.272 L64.0042 783.272 L64.0042 789.161 L14.479 789.161 Z" fill="#000000" fill-rule="nonzero" fill-opacity="1" /><path clip-path="url(#clip890)" d="M35.1993 723.435 Q31.2526 721.239 29.3747 718.183 Q27.4968 715.128 27.4968 710.99 Q27.4968 705.42 31.4117 702.396 Q35.2948 699.372 42.4881 699.372 L64.0042 699.372 L64.0042 705.261 L42.679 705.261 Q37.5546 705.261 35.072 707.075 Q32.5894 708.889 32.5894 712.613 Q32.5894 717.165 35.6131 719.806 Q38.6368 722.448 43.8567 722.448 L64.0042 722.448 L64.0042 728.336 L42.679 728.336 Q37.5228 728.336 35.072 730.151 Q32.5894 731.965 32.5894 735.752 Q32.5894 740.24 35.6449 742.882 Q38.6686 745.524 43.8567 745.524 L64.0042 745.524 L64.0042 751.412 L28.3562 751.412 L28.3562 745.524 L33.8944 745.524 Q30.616 743.519 29.0564 740.718 Q27.4968 737.917 27.4968 734.065 Q27.4968 730.182 29.4702 727.477 Q31.4436 724.74 35.1993 723.435 Z" fill="#000000" fill-rule="nonzero" fill-opacity="1" /><path clip-path="url(#clip890)" d="M14.479 674.005 L72.5979 674.005 L72.5979 687.5 L68.0464 687.5 L68.0464 679.893 L19.0304 679.893 L19.0304 687.5 L14.479 687.5 L14.479 674.005 Z" fill="#000000" fill-rule="nonzero" fill-opacity="1" /><path clip-path="url(#clip890)" d="M499.998 18.8205 L499.998 65.8515 L509.883 65.8515 Q522.4 65.8515 528.193 60.1802 Q534.026 54.509 534.026 42.2752 Q534.026 30.1225 528.193 24.4918 Q522.4 18.8205 509.883 18.8205 L499.998 18.8205 M491.816 12.096 L508.627 12.096 Q526.208 12.096 534.431 19.4281 Q542.654 26.7198 542.654 42.2752 Q542.654 57.9117 534.391 65.2439 Q526.127 72.576 508.627 72.576 L491.816 72.576 L491.816 12.096 Z" fill="#000000" fill-rule="nonzero" fill-opacity="1" /><path clip-path="url(#clip890)" d="M594.182 48.0275 L594.182 51.6733 L559.911 51.6733 Q560.397 59.3701 564.529 63.421 Q568.702 67.4314 576.115 67.4314 Q580.409 67.4314 584.419 66.3781 Q588.47 65.3249 592.44 63.2184 L592.44 70.267 Q588.43 71.9684 584.217 72.8596 Q580.004 73.7508 575.669 73.7508 Q564.813 73.7508 558.453 67.4314 Q552.134 61.1119 552.134 50.3365 Q552.134 39.1965 558.129 32.6746 Q564.165 26.1121 574.373 26.1121 Q583.528 26.1121 588.835 32.0264 Q594.182 37.9003 594.182 48.0275 M586.728 45.84 Q586.647 39.7232 583.285 36.0774 Q579.963 32.4315 574.454 32.4315 Q568.216 32.4315 564.448 35.9558 Q560.721 39.4801 560.154 45.8805 L586.728 45.84 Z" fill="#000000" fill-rule="nonzero" fill-opacity="1" /><path clip-path="url(#clip890)" d="M639.066 28.9478 L639.066 35.9153 Q635.906 34.1734 632.706 33.3227 Q629.546 32.4315 626.306 32.4315 Q619.055 32.4315 615.044 37.0496 Q611.034 41.6271 611.034 49.9314 Q611.034 58.2358 615.044 62.8538 Q619.055 67.4314 626.306 67.4314 Q629.546 67.4314 632.706 66.5807 Q635.906 65.6895 639.066 63.9476 L639.066 70.8341 Q635.947 72.2924 632.585 73.0216 Q629.263 73.7508 625.495 73.7508 Q615.247 73.7508 609.211 67.3098 Q603.175 60.8689 603.175 49.9314 Q603.175 38.832 609.251 32.472 Q615.368 26.1121 625.982 26.1121 Q629.425 26.1121 632.706 26.8413 Q635.987 27.5299 639.066 28.9478 Z" fill="#000000" fill-rule="nonzero" fill-opacity="1" /><path clip-path="url(#clip890)" d="M672.648 49.7694 Q663.614 49.7694 660.131 51.8354 Q656.647 53.9013 656.647 58.8839 Q656.647 62.8538 659.239 65.2034 Q661.873 67.5124 666.369 67.5124 Q672.567 67.5124 676.294 63.1374 Q680.061 58.7219 680.061 51.4303 L680.061 49.7694 L672.648 49.7694 M687.515 46.6907 L687.515 72.576 L680.061 72.576 L680.061 65.6895 Q677.509 69.8214 673.701 71.8063 Q669.893 73.7508 664.384 73.7508 Q657.417 73.7508 653.285 69.8619 Q649.193 65.9325 649.193 59.3701 Q649.193 51.7138 654.297 47.825 Q659.442 43.9361 669.61 43.9361 L680.061 43.9361 L680.061 43.2069 Q680.061 38.0623 676.658 35.2672 Q673.296 32.4315 667.179 32.4315 Q663.29 32.4315 659.604 33.3632 Q655.918 34.295 652.515 36.1584 L652.515 29.2718 Q656.606 27.692 660.455 26.9223 Q664.303 26.1121 667.949 26.1121 Q677.793 26.1121 682.654 31.2163 Q687.515 36.3204 687.515 46.6907 Z" fill="#000000" fill-rule="nonzero" fill-opacity="1" /><path clip-path="url(#clip890)" d="M721.745 76.7889 Q718.585 84.8907 715.588 87.3618 Q712.59 89.8329 707.567 89.8329 L701.612 89.8329 L701.612 83.5945 L705.987 83.5945 Q709.066 83.5945 710.767 82.1361 Q712.468 80.6778 714.534 75.2496 L715.871 71.8468 L697.521 27.2059 L705.42 27.2059 L719.598 62.6918 L733.776 27.2059 L741.675 27.2059 L721.745 76.7889 Z" fill="#000000" fill-rule="nonzero" fill-opacity="1" /><path clip-path="url(#clip890)" d="M751.965 27.2059 L759.418 27.2059 L759.418 72.576 L751.965 72.576 L751.965 27.2059 M751.965 9.54393 L759.418 9.54393 L759.418 18.9825 L751.965 18.9825 L751.965 9.54393 Z" fill="#000000" fill-rule="nonzero" fill-opacity="1" /><path clip-path="url(#clip890)" d="M812.728 45.1919 L812.728 72.576 L805.275 72.576 L805.275 45.4349 Q805.275 38.994 802.763 35.7938 Q800.251 32.5936 795.228 32.5936 Q789.192 32.5936 785.709 36.4419 Q782.225 40.2903 782.225 46.9338 L782.225 72.576 L774.731 72.576 L774.731 27.2059 L782.225 27.2059 L782.225 34.2544 Q784.899 30.163 788.504 28.1376 Q792.15 26.1121 796.889 26.1121 Q804.707 26.1121 808.718 30.9732 Q812.728 35.7938 812.728 45.1919 Z" fill="#000000" fill-rule="nonzero" fill-opacity="1" /><path clip-path="url(#clip890)" d="M857.45 49.3643 Q857.45 41.2625 854.088 36.8065 Q850.766 32.3505 844.73 32.3505 Q838.735 32.3505 835.373 36.8065 Q832.051 41.2625 832.051 49.3643 Q832.051 57.4256 835.373 61.8816 Q838.735 66.3376 844.73 66.3376 Q850.766 66.3376 854.088 61.8816 Q857.45 57.4256 857.45 49.3643 M864.904 66.9452 Q864.904 78.5308 859.759 84.1616 Q854.615 89.8329 844.001 89.8329 Q840.072 89.8329 836.588 89.2252 Q833.104 88.6581 829.823 87.4428 L829.823 80.1917 Q833.104 81.9741 836.304 82.8248 Q839.505 83.6755 842.826 83.6755 Q850.159 83.6755 853.804 79.8271 Q857.45 76.0193 857.45 68.282 L857.45 64.5957 Q855.141 68.6061 851.536 70.5911 Q847.931 72.576 842.907 72.576 Q834.563 72.576 829.458 66.2161 Q824.354 59.8562 824.354 49.3643 Q824.354 38.832 829.458 32.472 Q834.563 26.1121 842.907 26.1121 Q847.931 26.1121 851.536 28.0971 Q855.141 30.082 857.45 34.0924 L857.45 27.2059 L864.904 27.2059 L864.904 66.9452 Z" fill="#000000" fill-rule="nonzero" fill-opacity="1" /><polyline clip-path="url(#clip892)" style="stroke:#009af9; stroke-linecap:round; stroke-linejoin:round; stroke-width:4; stroke-opacity:1; fill:none" points="1125.9,1386.4 1071.84,1361.37 1018.17,1336.35 965.27,1311.33 913.488,1286.3 863.154,1261.28 814.554,1236.26 767.933,1211.23 723.487,1186.21 681.366,1161.19 641.672,1136.16 604.464,1111.14 569.757,1086.12 537.535,1061.09 507.747,1036.07 480.32,1011.05 455.158,986.024 432.153,961 411.183,935.977 392.122,910.954 374.841,885.931 359.21,860.907 345.1,835.884 332.388,810.861 320.955,785.838 310.687,760.814 301.479,735.791 293.231,710.768 285.852,685.745 279.256,660.721 273.365,635.698 268.109,610.675 263.422,585.652 259.245,560.628 255.524,535.605 252.213,510.582 249.266,485.559 246.645,460.535 244.314,435.512 242.243,410.489 240.402,385.466 238.766,360.442 237.314,335.419 236.024,310.396 234.878,285.373 233.861,260.349 232.959,235.326 232.158,210.303 231.447,185.28 230.816,160.256 "/>
<path clip-path="url(#clip890)" d="M973.82 270.476 L1121.13 270.476 L1121.13 166.796 L973.82 166.796  Z" fill="#ffffff" fill-rule="evenodd" fill-opacity="1"/>
<polyline clip-path="url(#clip890)" style="stroke:#000000; stroke-linecap:round; stroke-linejoin:round; stroke-width:4; stroke-opacity:1; fill:none" points="973.82,270.476 1121.13,270.476 1121.13,166.796 973.82,166.796 973.82,270.476 "/>
<polyline clip-path="url(#clip890)" style="stroke:#009af9; stroke-linecap:round; stroke-linejoin:round; stroke-width:4; stroke-opacity:1; fill:none" points="984.362,218.636 1047.61,218.636 "/>
<path clip-path="url(#clip890)" d="M1072 238.323 Q1070.19 242.953 1068.48 244.365 Q1066.77 245.777 1063.9 245.777 L1060.5 245.777 L1060.5 242.212 L1063 242.212 Q1064.75 242.212 1065.73 241.379 Q1066.7 240.545 1067.88 237.443 L1068.64 235.499 L1058.16 209.99 L1062.67 209.99 L1070.77 230.268 L1078.87 209.99 L1083.39 209.99 L1072 238.323 Z" fill="#000000" fill-rule="nonzero" fill-opacity="1" /><path clip-path="url(#clip890)" d="M1090.68 231.981 L1098.32 231.981 L1098.32 205.615 L1090.01 207.282 L1090.01 203.022 L1098.27 201.356 L1102.95 201.356 L1102.95 231.981 L1110.59 231.981 L1110.59 235.916 L1090.68 235.916 L1090.68 231.981 Z" fill="#000000" fill-rule="nonzero" fill-opacity="1" /><path clip-path="url(#clip890)" d="M1403.96 1423.18 L2352.76 1423.18 L2352.76 123.472 L1403.96 123.472  Z" fill="#ffffff" fill-rule="evenodd" fill-opacity="1"/>
<defs>
  <clipPath id="clip893">
    <rect x="1403" y="123" width="950" height="1301"/>
  </clipPath>
</defs>
<polyline clip-path="url(#clip893)" style="stroke:#000000; stroke-linecap:round; stroke-linejoin:round; stroke-width:2; stroke-opacity:0.1; fill:none" points="1406.61,1423.18 1406.61,123.472 "/>
<polyline clip-path="url(#clip893)" style="stroke:#000000; stroke-linecap:round; stroke-linejoin:round; stroke-width:2; stroke-opacity:0.1; fill:none" points="1633.43,1423.18 1633.43,123.472 "/>
<polyline clip-path="url(#clip893)" style="stroke:#000000; stroke-linecap:round; stroke-linejoin:round; stroke-width:2; stroke-opacity:0.1; fill:none" points="1860.24,1423.18 1860.24,123.472 "/>
<polyline clip-path="url(#clip893)" style="stroke:#000000; stroke-linecap:round; stroke-linejoin:round; stroke-width:2; stroke-opacity:0.1; fill:none" points="2087.06,1423.18 2087.06,123.472 "/>
<polyline clip-path="url(#clip893)" style="stroke:#000000; stroke-linecap:round; stroke-linejoin:round; stroke-width:2; stroke-opacity:0.1; fill:none" points="2313.88,1423.18 2313.88,123.472 "/>
<polyline clip-path="url(#clip893)" style="stroke:#000000; stroke-linecap:round; stroke-linejoin:round; stroke-width:2; stroke-opacity:0.1; fill:none" points="1403.96,1386.4 2352.76,1386.4 "/>
<polyline clip-path="url(#clip893)" style="stroke:#000000; stroke-linecap:round; stroke-linejoin:round; stroke-width:2; stroke-opacity:0.1; fill:none" points="1403.96,1141.17 2352.76,1141.17 "/>
<polyline clip-path="url(#clip893)" style="stroke:#000000; stroke-linecap:round; stroke-linejoin:round; stroke-width:2; stroke-opacity:0.1; fill:none" points="1403.96,895.94 2352.76,895.94 "/>
<polyline clip-path="url(#clip893)" style="stroke:#000000; stroke-linecap:round; stroke-linejoin:round; stroke-width:2; stroke-opacity:0.1; fill:none" points="1403.96,650.712 2352.76,650.712 "/>
<polyline clip-path="url(#clip893)" style="stroke:#000000; stroke-linecap:round; stroke-linejoin:round; stroke-width:2; stroke-opacity:0.1; fill:none" points="1403.96,405.484 2352.76,405.484 "/>
<polyline clip-path="url(#clip893)" style="stroke:#000000; stroke-linecap:round; stroke-linejoin:round; stroke-width:2; stroke-opacity:0.1; fill:none" points="1403.96,160.256 2352.76,160.256 "/>
<polyline clip-path="url(#clip890)" style="stroke:#000000; stroke-linecap:round; stroke-linejoin:round; stroke-width:4; stroke-opacity:1; fill:none" points="1403.96,1423.18 2352.76,1423.18 "/>
<polyline clip-path="url(#clip890)" style="stroke:#000000; stroke-linecap:round; stroke-linejoin:round; stroke-width:4; stroke-opacity:1; fill:none" points="1406.61,1423.18 1406.61,1404.28 "/>
<polyline clip-path="url(#clip890)" style="stroke:#000000; stroke-linecap:round; stroke-linejoin:round; stroke-width:4; stroke-opacity:1; fill:none" points="1633.43,1423.18 1633.43,1404.28 "/>
<polyline clip-path="url(#clip890)" style="stroke:#000000; stroke-linecap:round; stroke-linejoin:round; stroke-width:4; stroke-opacity:1; fill:none" points="1860.24,1423.18 1860.24,1404.28 "/>
<polyline clip-path="url(#clip890)" style="stroke:#000000; stroke-linecap:round; stroke-linejoin:round; stroke-width:4; stroke-opacity:1; fill:none" points="2087.06,1423.18 2087.06,1404.28 "/>
<polyline clip-path="url(#clip890)" style="stroke:#000000; stroke-linecap:round; stroke-linejoin:round; stroke-width:4; stroke-opacity:1; fill:none" points="2313.88,1423.18 2313.88,1404.28 "/>
<path clip-path="url(#clip890)" d="M1406.61 1454.1 Q1403 1454.1 1401.17 1457.66 Q1399.36 1461.2 1399.36 1468.33 Q1399.36 1475.44 1401.17 1479.01 Q1403 1482.55 1406.61 1482.55 Q1410.24 1482.55 1412.05 1479.01 Q1413.88 1475.44 1413.88 1468.33 Q1413.88 1461.2 1412.05 1457.66 Q1410.24 1454.1 1406.61 1454.1 M1406.61 1450.39 Q1412.42 1450.39 1415.47 1455 Q1418.55 1459.58 1418.55 1468.33 Q1418.55 1477.06 1415.47 1481.67 Q1412.42 1486.25 1406.61 1486.25 Q1400.8 1486.25 1397.72 1481.67 Q1394.66 1477.06 1394.66 1468.33 Q1394.66 1459.58 1397.72 1455 Q1400.8 1450.39 1406.61 1450.39 Z" fill="#000000" fill-rule="nonzero" fill-opacity="1" /><path clip-path="url(#clip890)" d="M1612.7 1481.64 L1629.02 1481.64 L1629.02 1485.58 L1607.07 1485.58 L1607.07 1481.64 Q1609.73 1478.89 1614.32 1474.26 Q1618.92 1469.61 1620.1 1468.27 Q1622.35 1465.74 1623.23 1464.01 Q1624.13 1462.25 1624.13 1460.56 Q1624.13 1457.8 1622.19 1456.07 Q1620.27 1454.33 1617.16 1454.33 Q1614.97 1454.33 1612.51 1455.09 Q1610.08 1455.86 1607.3 1457.41 L1607.3 1452.69 Q1610.13 1451.55 1612.58 1450.97 Q1615.03 1450.39 1617.07 1450.39 Q1622.44 1450.39 1625.64 1453.08 Q1628.83 1455.77 1628.83 1460.26 Q1628.83 1462.39 1628.02 1464.31 Q1627.23 1466.2 1625.13 1468.8 Q1624.55 1469.47 1621.45 1472.69 Q1618.34 1475.88 1612.7 1481.64 Z" fill="#000000" fill-rule="nonzero" fill-opacity="1" /><path clip-path="url(#clip890)" d="M1638.88 1451.02 L1657.23 1451.02 L1657.23 1454.96 L1643.16 1454.96 L1643.16 1463.43 Q1644.18 1463.08 1645.2 1462.92 Q1646.22 1462.73 1647.23 1462.73 Q1653.02 1462.73 1656.4 1465.9 Q1659.78 1469.08 1659.78 1474.49 Q1659.78 1480.07 1656.31 1483.17 Q1652.84 1486.25 1646.52 1486.25 Q1644.34 1486.25 1642.07 1485.88 Q1639.83 1485.51 1637.42 1484.77 L1637.42 1480.07 Q1639.5 1481.2 1641.72 1481.76 Q1643.95 1482.32 1646.42 1482.32 Q1650.43 1482.32 1652.77 1480.21 Q1655.1 1478.1 1655.1 1474.49 Q1655.1 1470.88 1652.77 1468.77 Q1650.43 1466.67 1646.42 1466.67 Q1644.55 1466.67 1642.67 1467.08 Q1640.82 1467.5 1638.88 1468.38 L1638.88 1451.02 Z" fill="#000000" fill-rule="nonzero" fill-opacity="1" /><path clip-path="url(#clip890)" d="M1834.94 1451.02 L1853.3 1451.02 L1853.3 1454.96 L1839.23 1454.96 L1839.23 1463.43 Q1840.24 1463.08 1841.26 1462.92 Q1842.28 1462.73 1843.3 1462.73 Q1849.09 1462.73 1852.47 1465.9 Q1855.85 1469.08 1855.85 1474.49 Q1855.85 1480.07 1852.37 1483.17 Q1848.9 1486.25 1842.58 1486.25 Q1840.41 1486.25 1838.14 1485.88 Q1835.89 1485.51 1833.49 1484.77 L1833.49 1480.07 Q1835.57 1481.2 1837.79 1481.76 Q1840.01 1482.32 1842.49 1482.32 Q1846.49 1482.32 1848.83 1480.21 Q1851.17 1478.1 1851.17 1474.49 Q1851.17 1470.88 1848.83 1468.77 Q1846.49 1466.67 1842.49 1466.67 Q1840.61 1466.67 1838.74 1467.08 Q1836.89 1467.5 1834.94 1468.38 L1834.94 1451.02 Z" fill="#000000" fill-rule="nonzero" fill-opacity="1" /><path clip-path="url(#clip890)" d="M1875.06 1454.1 Q1871.45 1454.1 1869.62 1457.66 Q1867.81 1461.2 1867.81 1468.33 Q1867.81 1475.44 1869.62 1479.01 Q1871.45 1482.55 1875.06 1482.55 Q1878.69 1482.55 1880.5 1479.01 Q1882.33 1475.44 1882.33 1468.33 Q1882.33 1461.2 1880.5 1457.66 Q1878.69 1454.1 1875.06 1454.1 M1875.06 1450.39 Q1880.87 1450.39 1883.92 1455 Q1887 1459.58 1887 1468.33 Q1887 1477.06 1883.92 1481.67 Q1880.87 1486.25 1875.06 1486.25 Q1869.25 1486.25 1866.17 1481.67 Q1863.11 1477.06 1863.11 1468.33 Q1863.11 1459.58 1866.17 1455 Q1869.25 1450.39 1875.06 1450.39 Z" fill="#000000" fill-rule="nonzero" fill-opacity="1" /><path clip-path="url(#clip890)" d="M2060.92 1451.02 L2083.14 1451.02 L2083.14 1453.01 L2070.59 1485.58 L2065.71 1485.58 L2077.51 1454.96 L2060.92 1454.96 L2060.92 1451.02 Z" fill="#000000" fill-rule="nonzero" fill-opacity="1" /><path clip-path="url(#clip890)" d="M2092.31 1451.02 L2110.66 1451.02 L2110.66 1454.96 L2096.59 1454.96 L2096.59 1463.43 Q2097.61 1463.08 2098.63 1462.92 Q2099.64 1462.73 2100.66 1462.73 Q2106.45 1462.73 2109.83 1465.9 Q2113.21 1469.08 2113.21 1474.49 Q2113.21 1480.07 2109.74 1483.17 Q2106.26 1486.25 2099.95 1486.25 Q2097.77 1486.25 2095.5 1485.88 Q2093.26 1485.51 2090.85 1484.77 L2090.85 1480.07 Q2092.93 1481.2 2095.15 1481.76 Q2097.38 1482.32 2099.85 1482.32 Q2103.86 1482.32 2106.2 1480.21 Q2108.53 1478.1 2108.53 1474.49 Q2108.53 1470.88 2106.2 1468.77 Q2103.86 1466.67 2099.85 1466.67 Q2097.98 1466.67 2096.1 1467.08 Q2094.25 1467.5 2092.31 1468.38 L2092.31 1451.02 Z" fill="#000000" fill-rule="nonzero" fill-opacity="1" /><path clip-path="url(#clip890)" d="M2273.49 1481.64 L2281.13 1481.64 L2281.13 1455.28 L2272.82 1456.95 L2272.82 1452.69 L2281.08 1451.02 L2285.76 1451.02 L2285.76 1481.64 L2293.4 1481.64 L2293.4 1485.58 L2273.49 1485.58 L2273.49 1481.64 Z" fill="#000000" fill-rule="nonzero" fill-opacity="1" /><path clip-path="url(#clip890)" d="M2312.84 1454.1 Q2309.23 1454.1 2307.4 1457.66 Q2305.59 1461.2 2305.59 1468.33 Q2305.59 1475.44 2307.4 1479.01 Q2309.23 1482.55 2312.84 1482.55 Q2316.47 1482.55 2318.28 1479.01 Q2320.11 1475.44 2320.11 1468.33 Q2320.11 1461.2 2318.28 1457.66 Q2316.47 1454.1 2312.84 1454.1 M2312.84 1450.39 Q2318.65 1450.39 2321.71 1455 Q2324.78 1459.58 2324.78 1468.33 Q2324.78 1477.06 2321.71 1481.67 Q2318.65 1486.25 2312.84 1486.25 Q2307.03 1486.25 2303.95 1481.67 Q2300.9 1477.06 2300.9 1468.33 Q2300.9 1459.58 2303.95 1455 Q2307.03 1450.39 2312.84 1450.39 Z" fill="#000000" fill-rule="nonzero" fill-opacity="1" /><path clip-path="url(#clip890)" d="M2343 1454.1 Q2339.39 1454.1 2337.56 1457.66 Q2335.76 1461.2 2335.76 1468.33 Q2335.76 1475.44 2337.56 1479.01 Q2339.39 1482.55 2343 1482.55 Q2346.64 1482.55 2348.44 1479.01 Q2350.27 1475.44 2350.27 1468.33 Q2350.27 1461.2 2348.44 1457.66 Q2346.64 1454.1 2343 1454.1 M2343 1450.39 Q2348.81 1450.39 2351.87 1455 Q2354.95 1459.58 2354.95 1468.33 Q2354.95 1477.06 2351.87 1481.67 Q2348.81 1486.25 2343 1486.25 Q2337.19 1486.25 2334.11 1481.67 Q2331.06 1477.06 2331.06 1468.33 Q2331.06 1459.58 2334.11 1455 Q2337.19 1450.39 2343 1450.39 Z" fill="#000000" fill-rule="nonzero" fill-opacity="1" /><path clip-path="url(#clip890)" d="M1658.79 1525.81 L1658.79 1543.66 L1666.88 1543.66 Q1671.36 1543.66 1673.81 1541.34 Q1676.26 1539.02 1676.26 1534.72 Q1676.26 1530.45 1673.81 1528.13 Q1671.36 1525.81 1666.88 1525.81 L1658.79 1525.81 M1652.36 1520.52 L1666.88 1520.52 Q1674.86 1520.52 1678.94 1524.15 Q1683.04 1527.75 1683.04 1534.72 Q1683.04 1541.75 1678.94 1545.35 Q1674.86 1548.95 1666.88 1548.95 L1658.79 1548.95 L1658.79 1568.04 L1652.36 1568.04 L1652.36 1520.52 Z" fill="#000000" fill-rule="nonzero" fill-opacity="1" /><path clip-path="url(#clip890)" d="M1710.93 1537.87 Q1709.94 1537.3 1708.76 1537.04 Q1707.62 1536.76 1706.22 1536.76 Q1701.25 1536.76 1698.58 1540 Q1695.93 1543.22 1695.93 1549.27 L1695.93 1568.04 L1690.05 1568.04 L1690.05 1532.4 L1695.93 1532.4 L1695.93 1537.93 Q1697.78 1534.69 1700.74 1533.13 Q1703.7 1531.54 1707.93 1531.54 Q1708.54 1531.54 1709.27 1531.63 Q1710 1531.7 1710.89 1531.85 L1710.93 1537.87 Z" fill="#000000" fill-rule="nonzero" fill-opacity="1" /><path clip-path="url(#clip890)" d="M1746.13 1548.76 L1746.13 1551.62 L1719.2 1551.62 Q1719.58 1557.67 1722.83 1560.85 Q1726.11 1564 1731.93 1564 Q1735.31 1564 1738.46 1563.17 Q1741.64 1562.35 1744.76 1560.69 L1744.76 1566.23 Q1741.61 1567.57 1738.3 1568.27 Q1734.99 1568.97 1731.58 1568.97 Q1723.05 1568.97 1718.06 1564 Q1713.09 1559.04 1713.09 1550.57 Q1713.09 1541.82 1717.8 1536.69 Q1722.54 1531.54 1730.56 1531.54 Q1737.76 1531.54 1741.93 1536.18 Q1746.13 1540.8 1746.13 1548.76 M1740.27 1547.04 Q1740.21 1542.23 1737.57 1539.37 Q1734.96 1536.5 1730.63 1536.5 Q1725.73 1536.5 1722.77 1539.27 Q1719.84 1542.04 1719.39 1547.07 L1740.27 1547.04 Z" fill="#000000" fill-rule="nonzero" fill-opacity="1" /><path clip-path="url(#clip890)" d="M1778.47 1533.45 L1778.47 1538.98 Q1775.98 1537.71 1773.31 1537.07 Q1770.64 1536.44 1767.77 1536.44 Q1763.41 1536.44 1761.21 1537.77 Q1759.05 1539.11 1759.05 1541.79 Q1759.05 1543.82 1760.61 1545 Q1762.17 1546.15 1766.88 1547.2 L1768.89 1547.64 Q1775.12 1548.98 1777.73 1551.43 Q1780.38 1553.85 1780.38 1558.21 Q1780.38 1563.17 1776.43 1566.07 Q1772.51 1568.97 1765.64 1568.97 Q1762.77 1568.97 1759.66 1568.39 Q1756.57 1567.85 1753.13 1566.74 L1753.13 1560.69 Q1756.38 1562.38 1759.53 1563.24 Q1762.68 1564.07 1765.77 1564.07 Q1769.9 1564.07 1772.13 1562.66 Q1774.36 1561.23 1774.36 1558.65 Q1774.36 1556.27 1772.74 1554.99 Q1771.15 1553.72 1765.7 1552.54 L1763.67 1552.07 Q1758.22 1550.92 1755.8 1548.56 Q1753.39 1546.18 1753.39 1542.04 Q1753.39 1537.01 1756.95 1534.27 Q1760.51 1531.54 1767.07 1531.54 Q1770.32 1531.54 1773.18 1532.01 Q1776.05 1532.49 1778.47 1533.45 Z" fill="#000000" fill-rule="nonzero" fill-opacity="1" /><path clip-path="url(#clip890)" d="M1812.43 1533.45 L1812.43 1538.98 Q1809.94 1537.71 1807.27 1537.07 Q1804.6 1536.44 1801.73 1536.44 Q1797.37 1536.44 1795.18 1537.77 Q1793.01 1539.11 1793.01 1541.79 Q1793.01 1543.82 1794.57 1545 Q1796.13 1546.15 1800.84 1547.2 L1802.85 1547.64 Q1809.08 1548.98 1811.69 1551.43 Q1814.34 1553.85 1814.34 1558.21 Q1814.34 1563.17 1810.39 1566.07 Q1806.47 1568.97 1799.6 1568.97 Q1796.74 1568.97 1793.62 1568.39 Q1790.53 1567.85 1787.09 1566.74 L1787.09 1560.69 Q1790.34 1562.38 1793.49 1563.24 Q1796.64 1564.07 1799.73 1564.07 Q1803.87 1564.07 1806.09 1562.66 Q1808.32 1561.23 1808.32 1558.65 Q1808.32 1556.27 1806.7 1554.99 Q1805.11 1553.72 1799.66 1552.54 L1797.63 1552.07 Q1792.18 1550.92 1789.77 1548.56 Q1787.35 1546.18 1787.35 1542.04 Q1787.35 1537.01 1790.91 1534.27 Q1794.48 1531.54 1801.03 1531.54 Q1804.28 1531.54 1807.14 1532.01 Q1810.01 1532.49 1812.43 1533.45 Z" fill="#000000" fill-rule="nonzero" fill-opacity="1" /><path clip-path="url(#clip890)" d="M1823.06 1553.98 L1823.06 1532.4 L1828.91 1532.4 L1828.91 1553.75 Q1828.91 1558.81 1830.89 1561.36 Q1832.86 1563.87 1836.81 1563.87 Q1841.55 1563.87 1844.29 1560.85 Q1847.06 1557.83 1847.06 1552.61 L1847.06 1532.4 L1852.91 1532.4 L1852.91 1568.04 L1847.06 1568.04 L1847.06 1562.57 Q1844.92 1565.82 1842.09 1567.41 Q1839.29 1568.97 1835.57 1568.97 Q1829.42 1568.97 1826.24 1565.15 Q1823.06 1561.33 1823.06 1553.98 M1837.79 1531.54 L1837.79 1531.54 Z" fill="#000000" fill-rule="nonzero" fill-opacity="1" /><path clip-path="url(#clip890)" d="M1885.63 1537.87 Q1884.65 1537.3 1883.47 1537.04 Q1882.32 1536.76 1880.92 1536.76 Q1875.96 1536.76 1873.28 1540 Q1870.64 1543.22 1870.64 1549.27 L1870.64 1568.04 L1864.75 1568.04 L1864.75 1532.4 L1870.64 1532.4 L1870.64 1537.93 Q1872.49 1534.69 1875.45 1533.13 Q1878.41 1531.54 1882.64 1531.54 Q1883.25 1531.54 1883.98 1531.63 Q1884.71 1531.7 1885.6 1531.85 L1885.63 1537.87 Z" fill="#000000" fill-rule="nonzero" fill-opacity="1" /><path clip-path="url(#clip890)" d="M1920.83 1548.76 L1920.83 1551.62 L1893.91 1551.62 Q1894.29 1557.67 1897.54 1560.85 Q1900.81 1564 1906.64 1564 Q1910.01 1564 1913.16 1563.17 Q1916.35 1562.35 1919.47 1560.69 L1919.47 1566.23 Q1916.32 1567.57 1913.01 1568.27 Q1909.69 1568.97 1906.29 1568.97 Q1897.76 1568.97 1892.76 1564 Q1887.8 1559.04 1887.8 1550.57 Q1887.8 1541.82 1892.51 1536.69 Q1897.25 1531.54 1905.27 1531.54 Q1912.46 1531.54 1916.63 1536.18 Q1920.83 1540.8 1920.83 1548.76 M1914.98 1547.04 Q1914.91 1542.23 1912.27 1539.37 Q1909.66 1536.5 1905.33 1536.5 Q1900.43 1536.5 1897.47 1539.27 Q1894.54 1542.04 1894.1 1547.07 L1914.98 1547.04 Z" fill="#000000" fill-rule="nonzero" fill-opacity="1" /><path clip-path="url(#clip890)" d="M1950.63 1518.52 L1964.12 1518.52 L1964.12 1523.07 L1956.48 1523.07 L1956.48 1572.09 L1964.12 1572.09 L1964.12 1576.64 L1950.63 1576.64 L1950.63 1518.52 Z" fill="#000000" fill-rule="nonzero" fill-opacity="1" /><path clip-path="url(#clip890)" d="M1976.38 1518.52 L1982.26 1518.52 L1982.26 1547.77 L1999.74 1532.4 L2007.22 1532.4 L1988.31 1549.07 L2008.01 1568.04 L2000.37 1568.04 L1982.26 1550.63 L1982.26 1568.04 L1976.38 1568.04 L1976.38 1518.52 Z" fill="#000000" fill-rule="nonzero" fill-opacity="1" /><path clip-path="url(#clip890)" d="M2021.03 1525.81 L2021.03 1543.66 L2029.12 1543.66 Q2033.6 1543.66 2036.05 1541.34 Q2038.51 1539.02 2038.51 1534.72 Q2038.51 1530.45 2036.05 1528.13 Q2033.6 1525.81 2029.12 1525.81 L2021.03 1525.81 M2014.6 1520.52 L2029.12 1520.52 Q2037.1 1520.52 2041.18 1524.15 Q2045.28 1527.75 2045.28 1534.72 Q2045.28 1541.75 2041.18 1545.35 Q2037.1 1548.95 2029.12 1548.95 L2021.03 1548.95 L2021.03 1568.04 L2014.6 1568.04 L2014.6 1520.52 Z" fill="#000000" fill-rule="nonzero" fill-opacity="1" /><path clip-path="url(#clip890)" d="M2066.93 1550.12 Q2059.83 1550.12 2057.09 1551.75 Q2054.36 1553.37 2054.36 1557.29 Q2054.36 1560.4 2056.39 1562.25 Q2058.46 1564.07 2061.99 1564.07 Q2066.86 1564.07 2069.79 1560.63 Q2072.75 1557.16 2072.75 1551.43 L2072.75 1550.12 L2066.93 1550.12 M2078.61 1547.71 L2078.61 1568.04 L2072.75 1568.04 L2072.75 1562.63 Q2070.75 1565.88 2067.76 1567.44 Q2064.76 1568.97 2060.43 1568.97 Q2054.96 1568.97 2051.71 1565.91 Q2048.5 1562.82 2048.5 1557.67 Q2048.5 1551.65 2052.51 1548.6 Q2056.55 1545.54 2064.54 1545.54 L2072.75 1545.54 L2072.75 1544.97 Q2072.75 1540.93 2070.08 1538.73 Q2067.44 1536.5 2062.63 1536.5 Q2059.58 1536.5 2056.68 1537.23 Q2053.78 1537.97 2051.11 1539.43 L2051.11 1534.02 Q2054.32 1532.78 2057.35 1532.17 Q2060.37 1531.54 2063.24 1531.54 Q2070.97 1531.54 2074.79 1535.55 Q2078.61 1539.56 2078.61 1547.71 Z" fill="#000000" fill-rule="nonzero" fill-opacity="1" /><path clip-path="url(#clip890)" d="M2104.36 1518.52 L2104.36 1576.64 L2090.86 1576.64 L2090.86 1572.09 L2098.47 1572.09 L2098.47 1523.07 L2090.86 1523.07 L2090.86 1518.52 L2104.36 1518.52 Z" fill="#000000" fill-rule="nonzero" fill-opacity="1" /><polyline clip-path="url(#clip890)" style="stroke:#000000; stroke-linecap:round; stroke-linejoin:round; stroke-width:4; stroke-opacity:1; fill:none" points="1403.96,1423.18 1403.96,123.472 "/>
<polyline clip-path="url(#clip890)" style="stroke:#000000; stroke-linecap:round; stroke-linejoin:round; stroke-width:4; stroke-opacity:1; fill:none" points="1403.96,1386.4 1422.86,1386.4 "/>
<polyline clip-path="url(#clip890)" style="stroke:#000000; stroke-linecap:round; stroke-linejoin:round; stroke-width:4; stroke-opacity:1; fill:none" points="1403.96,1141.17 1422.86,1141.17 "/>
<polyline clip-path="url(#clip890)" style="stroke:#000000; stroke-linecap:round; stroke-linejoin:round; stroke-width:4; stroke-opacity:1; fill:none" points="1403.96,895.94 1422.86,895.94 "/>
<polyline clip-path="url(#clip890)" style="stroke:#000000; stroke-linecap:round; stroke-linejoin:round; stroke-width:4; stroke-opacity:1; fill:none" points="1403.96,650.712 1422.86,650.712 "/>
<polyline clip-path="url(#clip890)" style="stroke:#000000; stroke-linecap:round; stroke-linejoin:round; stroke-width:4; stroke-opacity:1; fill:none" points="1403.96,405.484 1422.86,405.484 "/>
<polyline clip-path="url(#clip890)" style="stroke:#000000; stroke-linecap:round; stroke-linejoin:round; stroke-width:4; stroke-opacity:1; fill:none" points="1403.96,160.256 1422.86,160.256 "/>
<path clip-path="url(#clip890)" d="M1356.02 1372.19 Q1352.41 1372.19 1350.58 1375.76 Q1348.77 1379.3 1348.77 1386.43 Q1348.77 1393.54 1350.58 1397.1 Q1352.41 1400.64 1356.02 1400.64 Q1359.65 1400.64 1361.46 1397.1 Q1363.29 1393.54 1363.29 1386.43 Q1363.29 1379.3 1361.46 1375.76 Q1359.65 1372.19 1356.02 1372.19 M1356.02 1368.49 Q1361.83 1368.49 1364.88 1373.1 Q1367.96 1377.68 1367.96 1386.43 Q1367.96 1395.16 1364.88 1399.76 Q1361.83 1404.35 1356.02 1404.35 Q1350.21 1404.35 1347.13 1399.76 Q1344.07 1395.16 1344.07 1386.43 Q1344.07 1377.68 1347.13 1373.1 Q1350.21 1368.49 1356.02 1368.49 Z" fill="#000000" fill-rule="nonzero" fill-opacity="1" /><path clip-path="url(#clip890)" d="M1347.06 1123.89 L1365.42 1123.89 L1365.42 1127.82 L1351.34 1127.82 L1351.34 1136.3 Q1352.36 1135.95 1353.38 1135.79 Q1354.4 1135.6 1355.42 1135.6 Q1361.2 1135.6 1364.58 1138.77 Q1367.96 1141.94 1367.96 1147.36 Q1367.96 1152.94 1364.49 1156.04 Q1361.02 1159.12 1354.7 1159.12 Q1352.52 1159.12 1350.26 1158.75 Q1348.01 1158.38 1345.6 1157.64 L1345.6 1152.94 Q1347.69 1154.07 1349.91 1154.63 Q1352.13 1155.18 1354.61 1155.18 Q1358.61 1155.18 1360.95 1153.08 Q1363.29 1150.97 1363.29 1147.36 Q1363.29 1143.75 1360.95 1141.64 Q1358.61 1139.54 1354.61 1139.54 Q1352.73 1139.54 1350.86 1139.95 Q1349.01 1140.37 1347.06 1141.25 L1347.06 1123.89 Z" fill="#000000" fill-rule="nonzero" fill-opacity="1" /><path clip-path="url(#clip890)" d="M1316.67 909.285 L1324.31 909.285 L1324.31 882.919 L1316 884.586 L1316 880.327 L1324.26 878.66 L1328.94 878.66 L1328.94 909.285 L1336.57 909.285 L1336.57 913.22 L1316.67 913.22 L1316.67 909.285 Z" fill="#000000" fill-rule="nonzero" fill-opacity="1" /><path clip-path="url(#clip890)" d="M1356.02 881.739 Q1352.41 881.739 1350.58 885.303 Q1348.77 888.845 1348.77 895.975 Q1348.77 903.081 1350.58 906.646 Q1352.41 910.188 1356.02 910.188 Q1359.65 910.188 1361.46 906.646 Q1363.29 903.081 1363.29 895.975 Q1363.29 888.845 1361.46 885.303 Q1359.65 881.739 1356.02 881.739 M1356.02 878.035 Q1361.83 878.035 1364.88 882.641 Q1367.96 887.225 1367.96 895.975 Q1367.96 904.701 1364.88 909.308 Q1361.83 913.891 1356.02 913.891 Q1350.21 913.891 1347.13 909.308 Q1344.07 904.701 1344.07 895.975 Q1344.07 887.225 1347.13 882.641 Q1350.21 878.035 1356.02 878.035 Z" fill="#000000" fill-rule="nonzero" fill-opacity="1" /><path clip-path="url(#clip890)" d="M1317.66 664.057 L1325.3 664.057 L1325.3 637.691 L1316.99 639.358 L1316.99 635.099 L1325.26 633.432 L1329.93 633.432 L1329.93 664.057 L1337.57 664.057 L1337.57 667.992 L1317.66 667.992 L1317.66 664.057 Z" fill="#000000" fill-rule="nonzero" fill-opacity="1" /><path clip-path="url(#clip890)" d="M1347.06 633.432 L1365.42 633.432 L1365.42 637.367 L1351.34 637.367 L1351.34 645.839 Q1352.36 645.492 1353.38 645.33 Q1354.4 645.145 1355.42 645.145 Q1361.2 645.145 1364.58 648.316 Q1367.96 651.488 1367.96 656.904 Q1367.96 662.483 1364.49 665.585 Q1361.02 668.663 1354.7 668.663 Q1352.52 668.663 1350.26 668.293 Q1348.01 667.923 1345.6 667.182 L1345.6 662.483 Q1347.69 663.617 1349.91 664.173 Q1352.13 664.728 1354.61 664.728 Q1358.61 664.728 1360.95 662.622 Q1363.29 660.515 1363.29 656.904 Q1363.29 653.293 1360.95 651.187 Q1358.61 649.08 1354.61 649.08 Q1352.73 649.08 1350.86 649.497 Q1349.01 649.913 1347.06 650.793 L1347.06 633.432 Z" fill="#000000" fill-rule="nonzero" fill-opacity="1" /><path clip-path="url(#clip890)" d="M1319.89 418.829 L1336.2 418.829 L1336.2 422.764 L1314.26 422.764 L1314.26 418.829 Q1316.92 416.074 1321.51 411.445 Q1326.11 406.792 1327.29 405.449 Q1329.54 402.926 1330.42 401.19 Q1331.32 399.431 1331.32 397.741 Q1331.32 394.987 1329.38 393.25 Q1327.45 391.514 1324.35 391.514 Q1322.15 391.514 1319.7 392.278 Q1317.27 393.042 1314.49 394.593 L1314.49 389.871 Q1317.32 388.737 1319.77 388.158 Q1322.22 387.579 1324.26 387.579 Q1329.63 387.579 1332.82 390.264 Q1336.02 392.95 1336.02 397.44 Q1336.02 399.57 1335.21 401.491 Q1334.42 403.389 1332.32 405.982 Q1331.74 406.653 1328.64 409.871 Q1325.53 413.065 1319.89 418.829 Z" fill="#000000" fill-rule="nonzero" fill-opacity="1" /><path clip-path="url(#clip890)" d="M1356.02 391.283 Q1352.41 391.283 1350.58 394.848 Q1348.77 398.389 1348.77 405.519 Q1348.77 412.625 1350.58 416.19 Q1352.41 419.732 1356.02 419.732 Q1359.65 419.732 1361.46 416.19 Q1363.29 412.625 1363.29 405.519 Q1363.29 398.389 1361.46 394.848 Q1359.65 391.283 1356.02 391.283 M1356.02 387.579 Q1361.83 387.579 1364.88 392.186 Q1367.96 396.769 1367.96 405.519 Q1367.96 414.246 1364.88 418.852 Q1361.83 423.435 1356.02 423.435 Q1350.21 423.435 1347.13 418.852 Q1344.07 414.246 1344.07 405.519 Q1344.07 396.769 1347.13 392.186 Q1350.21 387.579 1356.02 387.579 Z" fill="#000000" fill-rule="nonzero" fill-opacity="1" /><path clip-path="url(#clip890)" d="M1320.88 173.601 L1337.2 173.601 L1337.2 177.536 L1315.26 177.536 L1315.26 173.601 Q1317.92 170.847 1322.5 166.217 Q1327.11 161.564 1328.29 160.222 Q1330.53 157.698 1331.41 155.962 Q1332.32 154.203 1332.32 152.513 Q1332.32 149.759 1330.37 148.023 Q1328.45 146.286 1325.35 146.286 Q1323.15 146.286 1320.7 147.05 Q1318.26 147.814 1315.49 149.365 L1315.49 144.643 Q1318.31 143.509 1320.76 142.93 Q1323.22 142.351 1325.26 142.351 Q1330.63 142.351 1333.82 145.036 Q1337.01 147.722 1337.01 152.212 Q1337.01 154.342 1336.2 156.263 Q1335.42 158.161 1333.31 160.754 Q1332.73 161.425 1329.63 164.643 Q1326.53 167.837 1320.88 173.601 Z" fill="#000000" fill-rule="nonzero" fill-opacity="1" /><path clip-path="url(#clip890)" d="M1347.06 142.976 L1365.42 142.976 L1365.42 146.911 L1351.34 146.911 L1351.34 155.384 Q1352.36 155.036 1353.38 154.874 Q1354.4 154.689 1355.42 154.689 Q1361.2 154.689 1364.58 157.86 Q1367.96 161.032 1367.96 166.448 Q1367.96 172.027 1364.49 175.129 Q1361.02 178.208 1354.7 178.208 Q1352.52 178.208 1350.26 177.837 Q1348.01 177.467 1345.6 176.726 L1345.6 172.027 Q1347.69 173.161 1349.91 173.717 Q1352.13 174.272 1354.61 174.272 Q1358.61 174.272 1360.95 172.166 Q1363.29 170.059 1363.29 166.448 Q1363.29 162.837 1360.95 160.731 Q1358.61 158.624 1354.61 158.624 Q1352.73 158.624 1350.86 159.041 Q1349.01 159.458 1347.06 160.337 L1347.06 142.976 Z" fill="#000000" fill-rule="nonzero" fill-opacity="1" /><path clip-path="url(#clip890)" d="M1228.36 871.851 L1228.36 844.033 L1233.7 844.033 L1259.33 866.058 L1259.33 844.033 L1264 844.033 L1264 872.647 L1258.66 872.647 L1233.03 850.622 L1233.03 871.851 L1228.36 871.851 Z" fill="#000000" fill-rule="nonzero" fill-opacity="1" /><path clip-path="url(#clip890)" d="M1214.48 814.91 L1214.48 801.415 L1219.03 801.415 L1219.03 809.054 L1268.05 809.054 L1268.05 801.415 L1272.6 801.415 L1272.6 814.91 L1214.48 814.91 Z" fill="#000000" fill-rule="nonzero" fill-opacity="1" /><path clip-path="url(#clip890)" d="M1214.48 789.161 L1214.48 783.272 L1243.73 783.272 L1228.36 765.799 L1228.36 758.319 L1245.03 777.225 L1264 757.523 L1264 765.162 L1246.59 783.272 L1264 783.272 L1264 789.161 L1214.48 789.161 Z" fill="#000000" fill-rule="nonzero" fill-opacity="1" /><path clip-path="url(#clip890)" d="M1235.2 723.435 Q1231.25 721.239 1229.37 718.183 Q1227.5 715.128 1227.5 710.99 Q1227.5 705.42 1231.41 702.396 Q1235.29 699.372 1242.49 699.372 L1264 699.372 L1264 705.261 L1242.68 705.261 Q1237.55 705.261 1235.07 707.075 Q1232.59 708.889 1232.59 712.613 Q1232.59 717.165 1235.61 719.806 Q1238.64 722.448 1243.86 722.448 L1264 722.448 L1264 728.336 L1242.68 728.336 Q1237.52 728.336 1235.07 730.151 Q1232.59 731.965 1232.59 735.752 Q1232.59 740.24 1235.64 742.882 Q1238.67 745.524 1243.86 745.524 L1264 745.524 L1264 751.412 L1228.36 751.412 L1228.36 745.524 L1233.89 745.524 Q1230.62 743.519 1229.06 740.718 Q1227.5 737.917 1227.5 734.065 Q1227.5 730.182 1229.47 727.477 Q1231.44 724.74 1235.2 723.435 Z" fill="#000000" fill-rule="nonzero" fill-opacity="1" /><path clip-path="url(#clip890)" d="M1214.48 674.005 L1272.6 674.005 L1272.6 687.5 L1268.05 687.5 L1268.05 679.893 L1219.03 679.893 L1219.03 687.5 L1214.48 687.5 L1214.48 674.005 Z" fill="#000000" fill-rule="nonzero" fill-opacity="1" /><path clip-path="url(#clip890)" d="M1700 18.8205 L1700 65.8515 L1709.88 65.8515 Q1722.4 65.8515 1728.19 60.1802 Q1734.03 54.509 1734.03 42.2752 Q1734.03 30.1225 1728.19 24.4918 Q1722.4 18.8205 1709.88 18.8205 L1700 18.8205 M1691.82 12.096 L1708.63 12.096 Q1726.21 12.096 1734.43 19.4281 Q1742.65 26.7198 1742.65 42.2752 Q1742.65 57.9117 1734.39 65.2439 Q1726.13 72.576 1708.63 72.576 L1691.82 72.576 L1691.82 12.096 Z" fill="#000000" fill-rule="nonzero" fill-opacity="1" /><path clip-path="url(#clip890)" d="M1794.18 48.0275 L1794.18 51.6733 L1759.91 51.6733 Q1760.4 59.3701 1764.53 63.421 Q1768.7 67.4314 1776.11 67.4314 Q1780.41 67.4314 1784.42 66.3781 Q1788.47 65.3249 1792.44 63.2184 L1792.44 70.267 Q1788.43 71.9684 1784.22 72.8596 Q1780 73.7508 1775.67 73.7508 Q1764.81 73.7508 1758.45 67.4314 Q1752.13 61.1119 1752.13 50.3365 Q1752.13 39.1965 1758.13 32.6746 Q1764.16 26.1121 1774.37 26.1121 Q1783.53 26.1121 1788.83 32.0264 Q1794.18 37.9003 1794.18 48.0275 M1786.73 45.84 Q1786.65 39.7232 1783.29 36.0774 Q1779.96 32.4315 1774.45 32.4315 Q1768.22 32.4315 1764.45 35.9558 Q1760.72 39.4801 1760.15 45.8805 L1786.73 45.84 Z" fill="#000000" fill-rule="nonzero" fill-opacity="1" /><path clip-path="url(#clip890)" d="M1839.07 28.9478 L1839.07 35.9153 Q1835.91 34.1734 1832.71 33.3227 Q1829.55 32.4315 1826.31 32.4315 Q1819.05 32.4315 1815.04 37.0496 Q1811.03 41.6271 1811.03 49.9314 Q1811.03 58.2358 1815.04 62.8538 Q1819.05 67.4314 1826.31 67.4314 Q1829.55 67.4314 1832.71 66.5807 Q1835.91 65.6895 1839.07 63.9476 L1839.07 70.8341 Q1835.95 72.2924 1832.58 73.0216 Q1829.26 73.7508 1825.5 73.7508 Q1815.25 73.7508 1809.21 67.3098 Q1803.17 60.8689 1803.17 49.9314 Q1803.17 38.832 1809.25 32.472 Q1815.37 26.1121 1825.98 26.1121 Q1829.42 26.1121 1832.71 26.8413 Q1835.99 27.5299 1839.07 28.9478 Z" fill="#000000" fill-rule="nonzero" fill-opacity="1" /><path clip-path="url(#clip890)" d="M1872.65 49.7694 Q1863.61 49.7694 1860.13 51.8354 Q1856.65 53.9013 1856.65 58.8839 Q1856.65 62.8538 1859.24 65.2034 Q1861.87 67.5124 1866.37 67.5124 Q1872.57 67.5124 1876.29 63.1374 Q1880.06 58.7219 1880.06 51.4303 L1880.06 49.7694 L1872.65 49.7694 M1887.51 46.6907 L1887.51 72.576 L1880.06 72.576 L1880.06 65.6895 Q1877.51 69.8214 1873.7 71.8063 Q1869.89 73.7508 1864.38 73.7508 Q1857.42 73.7508 1853.28 69.8619 Q1849.19 65.9325 1849.19 59.3701 Q1849.19 51.7138 1854.3 47.825 Q1859.44 43.9361 1869.61 43.9361 L1880.06 43.9361 L1880.06 43.2069 Q1880.06 38.0623 1876.66 35.2672 Q1873.3 32.4315 1867.18 32.4315 Q1863.29 32.4315 1859.6 33.3632 Q1855.92 34.295 1852.51 36.1584 L1852.51 29.2718 Q1856.61 27.692 1860.45 26.9223 Q1864.3 26.1121 1867.95 26.1121 Q1877.79 26.1121 1882.65 31.2163 Q1887.51 36.3204 1887.51 46.6907 Z" fill="#000000" fill-rule="nonzero" fill-opacity="1" /><path clip-path="url(#clip890)" d="M1921.74 76.7889 Q1918.59 84.8907 1915.59 87.3618 Q1912.59 89.8329 1907.57 89.8329 L1901.61 89.8329 L1901.61 83.5945 L1905.99 83.5945 Q1909.07 83.5945 1910.77 82.1361 Q1912.47 80.6778 1914.53 75.2496 L1915.87 71.8468 L1897.52 27.2059 L1905.42 27.2059 L1919.6 62.6918 L1933.78 27.2059 L1941.68 27.2059 L1921.74 76.7889 Z" fill="#000000" fill-rule="nonzero" fill-opacity="1" /><path clip-path="url(#clip890)" d="M1951.96 27.2059 L1959.42 27.2059 L1959.42 72.576 L1951.96 72.576 L1951.96 27.2059 M1951.96 9.54393 L1959.42 9.54393 L1959.42 18.9825 L1951.96 18.9825 L1951.96 9.54393 Z" fill="#000000" fill-rule="nonzero" fill-opacity="1" /><path clip-path="url(#clip890)" d="M2012.73 45.1919 L2012.73 72.576 L2005.27 72.576 L2005.27 45.4349 Q2005.27 38.994 2002.76 35.7938 Q2000.25 32.5936 1995.23 32.5936 Q1989.19 32.5936 1985.71 36.4419 Q1982.22 40.2903 1982.22 46.9338 L1982.22 72.576 L1974.73 72.576 L1974.73 27.2059 L1982.22 27.2059 L1982.22 34.2544 Q1984.9 30.163 1988.5 28.1376 Q1992.15 26.1121 1996.89 26.1121 Q2004.71 26.1121 2008.72 30.9732 Q2012.73 35.7938 2012.73 45.1919 Z" fill="#000000" fill-rule="nonzero" fill-opacity="1" /><path clip-path="url(#clip890)" d="M2057.45 49.3643 Q2057.45 41.2625 2054.09 36.8065 Q2050.77 32.3505 2044.73 32.3505 Q2038.74 32.3505 2035.37 36.8065 Q2032.05 41.2625 2032.05 49.3643 Q2032.05 57.4256 2035.37 61.8816 Q2038.74 66.3376 2044.73 66.3376 Q2050.77 66.3376 2054.09 61.8816 Q2057.45 57.4256 2057.45 49.3643 M2064.9 66.9452 Q2064.9 78.5308 2059.76 84.1616 Q2054.61 89.8329 2044 89.8329 Q2040.07 89.8329 2036.59 89.2252 Q2033.1 88.6581 2029.82 87.4428 L2029.82 80.1917 Q2033.1 81.9741 2036.3 82.8248 Q2039.5 83.6755 2042.83 83.6755 Q2050.16 83.6755 2053.8 79.8271 Q2057.45 76.0193 2057.45 68.282 L2057.45 64.5957 Q2055.14 68.6061 2051.54 70.5911 Q2047.93 72.576 2042.91 72.576 Q2034.56 72.576 2029.46 66.2161 Q2024.35 59.8562 2024.35 49.3643 Q2024.35 38.832 2029.46 32.472 Q2034.56 26.1121 2042.91 26.1121 Q2047.93 26.1121 2051.54 28.0971 Q2055.14 30.082 2057.45 34.0924 L2057.45 27.2059 L2064.9 27.2059 L2064.9 66.9452 Z" fill="#000000" fill-rule="nonzero" fill-opacity="1" /><polyline clip-path="url(#clip893)" style="stroke:#009af9; stroke-linecap:round; stroke-linejoin:round; stroke-width:4; stroke-opacity:1; fill:none" points="2325.9,1386.4 2271.87,1361.37 2220.28,1336.35 2171.07,1311.33 2124.18,1286.3 2079.54,1261.28 2037.09,1236.26 1996.78,1211.23 1958.55,1186.21 1922.35,1161.19 1888.11,1136.16 1855.78,1111.14 1825.28,1086.12 1796.57,1061.09 1769.57,1036.07 1744.22,1011.05 1720.44,986.024 1698.17,961 1677.34,935.977 1657.87,910.954 1639.69,885.931 1622.74,860.907 1606.95,835.884 1592.24,810.861 1578.56,785.838 1565.85,760.814 1554.03,735.791 1543.06,710.768 1532.88,685.745 1523.44,660.721 1514.69,635.698 1506.57,610.675 1499.06,585.652 1492.1,560.628 1485.65,535.605 1479.68,510.582 1474.16,485.559 1469.05,460.535 1464.32,435.512 1459.95,410.489 1455.91,385.466 1452.17,360.442 1448.71,335.419 1445.51,310.396 1442.56,285.373 1439.83,260.349 1437.3,235.326 1434.97,210.303 1432.81,185.28 1430.82,160.256 "/>
<path clip-path="url(#clip890)" d="M2173.82 270.476 L2321.13 270.476 L2321.13 166.796 L2173.82 166.796  Z" fill="#ffffff" fill-rule="evenodd" fill-opacity="1"/>
<polyline clip-path="url(#clip890)" style="stroke:#000000; stroke-linecap:round; stroke-linejoin:round; stroke-width:4; stroke-opacity:1; fill:none" points="2173.82,270.476 2321.13,270.476 2321.13,166.796 2173.82,166.796 2173.82,270.476 "/>
<polyline clip-path="url(#clip890)" style="stroke:#009af9; stroke-linecap:round; stroke-linejoin:round; stroke-width:4; stroke-opacity:1; fill:none" points="2184.36,218.636 2247.61,218.636 "/>
<path clip-path="url(#clip890)" d="M2272 238.323 Q2270.19 242.953 2268.48 244.365 Q2266.77 245.777 2263.9 245.777 L2260.5 245.777 L2260.5 242.212 L2263 242.212 Q2264.75 242.212 2265.73 241.379 Q2266.7 240.545 2267.88 237.443 L2268.64 235.499 L2258.16 209.99 L2262.67 209.99 L2270.77 230.268 L2278.87 209.99 L2283.39 209.99 L2272 238.323 Z" fill="#000000" fill-rule="nonzero" fill-opacity="1" /><path clip-path="url(#clip890)" d="M2290.68 231.981 L2298.32 231.981 L2298.32 205.615 L2290.01 207.282 L2290.01 203.022 L2298.27 201.356 L2302.95 201.356 L2302.95 231.981 L2310.59 231.981 L2310.59 235.916 L2290.68 235.916 L2290.68 231.981 Z" fill="#000000" fill-rule="nonzero" fill-opacity="1" /></svg>
