<?xml version="1.0" encoding="utf-8"?>
<svg xmlns="http://www.w3.org/2000/svg" xmlns:xlink="http://www.w3.org/1999/xlink" width="600" height="400" viewBox="0 0 2400 1600">
<defs>
  <clipPath id="clip340">
    <rect x="0" y="0" width="2400" height="1600"/>
  </clipPath>
</defs>
<path clip-path="url(#clip340)" d="
M0 1600 L2400 1600 L2400 0 L0 0  Z
  " fill="#ffffff" fill-rule="evenodd" fill-opacity="1"/>
<defs>
  <clipPath id="clip341">
    <rect x="480" y="0" width="1681" height="1600"/>
  </clipPath>
</defs>
<path clip-path="url(#clip340)" d="
M102.74 1505.26 L2352.76 1505.26 L2352.76 62.9921 L102.74 62.9921  Z
  " fill="#ffffff" fill-rule="evenodd" fill-opacity="1"/>
<defs>
  <clipPath id="clip342">
    <rect x="102" y="62" width="2251" height="1443"/>
  </clipPath>
</defs>
<polyline clip-path="url(#clip342)" style="stroke:#000000; stroke-width:2; stroke-opacity:0.1; fill:none" points="
  351.618,1505.26 351.618,62.9921 
  "/>
<polyline clip-path="url(#clip342)" style="stroke:#000000; stroke-width:2; stroke-opacity:0.1; fill:none" points="
  830.77,1505.26 830.77,62.9921 
  "/>
<polyline clip-path="url(#clip342)" style="stroke:#000000; stroke-width:2; stroke-opacity:0.1; fill:none" points="
  1309.92,1505.26 1309.92,62.9921 
  "/>
<polyline clip-path="url(#clip342)" style="stroke:#000000; stroke-width:2; stroke-opacity:0.1; fill:none" points="
  1789.08,1505.26 1789.08,62.9921 
  "/>
<polyline clip-path="url(#clip342)" style="stroke:#000000; stroke-width:2; stroke-opacity:0.1; fill:none" points="
  2268.23,1505.26 2268.23,62.9921 
  "/>
<polyline clip-path="url(#clip340)" style="stroke:#000000; stroke-width:4; stroke-opacity:1; fill:none" points="
  102.74,1505.26 2352.76,1505.26 
  "/>
<polyline clip-path="url(#clip340)" style="stroke:#000000; stroke-width:4; stroke-opacity:1; fill:none" points="
  351.618,1505.26 351.618,1487.95 
  "/>
<polyline clip-path="url(#clip340)" style="stroke:#000000; stroke-width:4; stroke-opacity:1; fill:none" points="
  830.77,1505.26 830.77,1487.95 
  "/>
<polyline clip-path="url(#clip340)" style="stroke:#000000; stroke-width:4; stroke-opacity:1; fill:none" points="
  1309.92,1505.26 1309.92,1487.95 
  "/>
<polyline clip-path="url(#clip340)" style="stroke:#000000; stroke-width:4; stroke-opacity:1; fill:none" points="
  1789.08,1505.26 1789.08,1487.95 
  "/>
<polyline clip-path="url(#clip340)" style="stroke:#000000; stroke-width:4; stroke-opacity:1; fill:none" points="
  2268.23,1505.26 2268.23,1487.95 
  "/>
<path clip-path="url(#clip340)" d="M 0 0 M329.801 1534.45 Q326.19 1534.45 324.361 1538.02 Q322.556 1541.56 322.556 1548.69 Q322.556 1555.79 324.361 1559.36 Q326.19 1562.9 329.801 1562.9 Q333.435 1562.9 335.241 1559.36 Q337.069 1555.79 337.069 1548.69 Q337.069 1541.56 335.241 1538.02 Q333.435 1534.45 329.801 1534.45 M329.801 1530.75 Q335.611 1530.75 338.667 1535.35 Q341.745 1539.94 341.745 1548.69 Q341.745 1557.41 338.667 1562.02 Q335.611 1566.6 329.801 1566.6 Q323.991 1566.6 320.912 1562.02 Q317.856 1557.41 317.856 1548.69 Q317.856 1539.94 320.912 1535.35 Q323.991 1530.75 329.801 1530.75 Z" fill="#000000" fill-rule="evenodd" fill-opacity="1" /><path clip-path="url(#clip340)" d="M 0 0 M349.963 1560.05 L354.847 1560.05 L354.847 1565.93 L349.963 1565.93 L349.963 1560.05 Z" fill="#000000" fill-rule="evenodd" fill-opacity="1" /><path clip-path="url(#clip340)" d="M 0 0 M369.06 1562 L385.379 1562 L385.379 1565.93 L363.435 1565.93 L363.435 1562 Q366.097 1559.24 370.68 1554.61 Q375.287 1549.96 376.467 1548.62 Q378.713 1546.09 379.592 1544.36 Q380.495 1542.6 380.495 1540.91 Q380.495 1538.15 378.551 1536.42 Q376.629 1534.68 373.527 1534.68 Q371.328 1534.68 368.875 1535.45 Q366.444 1536.21 363.666 1537.76 L363.666 1533.04 Q366.49 1531.9 368.944 1531.33 Q371.398 1530.75 373.435 1530.75 Q378.805 1530.75 382 1533.43 Q385.194 1536.12 385.194 1540.61 Q385.194 1542.74 384.384 1544.66 Q383.597 1546.56 381.49 1549.15 Q380.912 1549.82 377.81 1553.04 Q374.708 1556.23 369.06 1562 Z" fill="#000000" fill-rule="evenodd" fill-opacity="1" /><path clip-path="url(#clip340)" d="M 0 0 M807.912 1534.45 Q804.301 1534.45 802.472 1538.02 Q800.666 1541.56 800.666 1548.69 Q800.666 1555.79 802.472 1559.36 Q804.301 1562.9 807.912 1562.9 Q811.546 1562.9 813.351 1559.36 Q815.18 1555.79 815.18 1548.69 Q815.18 1541.56 813.351 1538.02 Q811.546 1534.45 807.912 1534.45 M807.912 1530.75 Q813.722 1530.75 816.777 1535.35 Q819.856 1539.94 819.856 1548.69 Q819.856 1557.41 816.777 1562.02 Q813.722 1566.6 807.912 1566.6 Q802.101 1566.6 799.023 1562.02 Q795.967 1557.41 795.967 1548.69 Q795.967 1539.94 799.023 1535.35 Q802.101 1530.75 807.912 1530.75 Z" fill="#000000" fill-rule="evenodd" fill-opacity="1" /><path clip-path="url(#clip340)" d="M 0 0 M828.074 1560.05 L832.958 1560.05 L832.958 1565.93 L828.074 1565.93 L828.074 1560.05 Z" fill="#000000" fill-rule="evenodd" fill-opacity="1" /><path clip-path="url(#clip340)" d="M 0 0 M855.99 1535.45 L844.185 1553.89 L855.99 1553.89 L855.99 1535.45 M854.763 1531.37 L860.643 1531.37 L860.643 1553.89 L865.573 1553.89 L865.573 1557.78 L860.643 1557.78 L860.643 1565.93 L855.99 1565.93 L855.99 1557.78 L840.388 1557.78 L840.388 1553.27 L854.763 1531.37 Z" fill="#000000" fill-rule="evenodd" fill-opacity="1" /><path clip-path="url(#clip340)" d="M 0 0 M1287.23 1534.45 Q1283.61 1534.45 1281.79 1538.02 Q1279.98 1541.56 1279.98 1548.69 Q1279.98 1555.79 1281.79 1559.36 Q1283.61 1562.9 1287.23 1562.9 Q1290.86 1562.9 1292.67 1559.36 Q1294.49 1555.79 1294.49 1548.69 Q1294.49 1541.56 1292.67 1538.02 Q1290.86 1534.45 1287.23 1534.45 M1287.23 1530.75 Q1293.04 1530.75 1296.09 1535.35 Q1299.17 1539.94 1299.17 1548.69 Q1299.17 1557.41 1296.09 1562.02 Q1293.04 1566.6 1287.23 1566.6 Q1281.42 1566.6 1278.34 1562.02 Q1275.28 1557.41 1275.28 1548.69 Q1275.28 1539.94 1278.34 1535.35 Q1281.42 1530.75 1287.23 1530.75 Z" fill="#000000" fill-rule="evenodd" fill-opacity="1" /><path clip-path="url(#clip340)" d="M 0 0 M1307.39 1560.05 L1312.27 1560.05 L1312.27 1565.93 L1307.39 1565.93 L1307.39 1560.05 Z" fill="#000000" fill-rule="evenodd" fill-opacity="1" /><path clip-path="url(#clip340)" d="M 0 0 M1333.04 1546.79 Q1329.89 1546.79 1328.04 1548.94 Q1326.21 1551.09 1326.21 1554.84 Q1326.21 1558.57 1328.04 1560.75 Q1329.89 1562.9 1333.04 1562.9 Q1336.18 1562.9 1338.01 1560.75 Q1339.86 1558.57 1339.86 1554.84 Q1339.86 1551.09 1338.01 1548.94 Q1336.18 1546.79 1333.04 1546.79 M1342.32 1532.14 L1342.32 1536.39 Q1340.56 1535.56 1338.75 1535.12 Q1336.97 1534.68 1335.21 1534.68 Q1330.58 1534.68 1328.13 1537.81 Q1325.7 1540.93 1325.35 1547.25 Q1326.72 1545.24 1328.78 1544.17 Q1330.84 1543.08 1333.31 1543.08 Q1338.52 1543.08 1341.53 1546.26 Q1344.56 1549.4 1344.56 1554.84 Q1344.56 1560.17 1341.42 1563.39 Q1338.27 1566.6 1333.04 1566.6 Q1327.04 1566.6 1323.87 1562.02 Q1320.7 1557.41 1320.7 1548.69 Q1320.7 1540.49 1324.59 1535.63 Q1328.48 1530.75 1335.03 1530.75 Q1336.79 1530.75 1338.57 1531.09 Q1340.37 1531.44 1342.32 1532.14 Z" fill="#000000" fill-rule="evenodd" fill-opacity="1" /><path clip-path="url(#clip340)" d="M 0 0 M1766.51 1534.45 Q1762.89 1534.45 1761.07 1538.02 Q1759.26 1541.56 1759.26 1548.69 Q1759.26 1555.79 1761.07 1559.36 Q1762.89 1562.9 1766.51 1562.9 Q1770.14 1562.9 1771.95 1559.36 Q1773.77 1555.79 1773.77 1548.69 Q1773.77 1541.56 1771.95 1538.02 Q1770.14 1534.45 1766.51 1534.45 M1766.51 1530.75 Q1772.32 1530.75 1775.37 1535.35 Q1778.45 1539.94 1778.45 1548.69 Q1778.45 1557.41 1775.37 1562.02 Q1772.32 1566.6 1766.51 1566.6 Q1760.7 1566.6 1757.62 1562.02 Q1754.56 1557.41 1754.56 1548.69 Q1754.56 1539.94 1757.62 1535.35 Q1760.7 1530.75 1766.51 1530.75 Z" fill="#000000" fill-rule="evenodd" fill-opacity="1" /><path clip-path="url(#clip340)" d="M 0 0 M1786.67 1560.05 L1791.55 1560.05 L1791.55 1565.93 L1786.67 1565.93 L1786.67 1560.05 Z" fill="#000000" fill-rule="evenodd" fill-opacity="1" /><path clip-path="url(#clip340)" d="M 0 0 M1811.74 1549.52 Q1808.4 1549.52 1806.48 1551.3 Q1804.58 1553.08 1804.58 1556.21 Q1804.58 1559.33 1806.48 1561.12 Q1808.4 1562.9 1811.74 1562.9 Q1815.07 1562.9 1816.99 1561.12 Q1818.91 1559.31 1818.91 1556.21 Q1818.91 1553.08 1816.99 1551.3 Q1815.09 1549.52 1811.74 1549.52 M1807.06 1547.53 Q1804.05 1546.79 1802.36 1544.73 Q1800.7 1542.67 1800.7 1539.71 Q1800.7 1535.56 1803.64 1533.15 Q1806.6 1530.75 1811.74 1530.75 Q1816.9 1530.75 1819.84 1533.15 Q1822.78 1535.56 1822.78 1539.71 Q1822.78 1542.67 1821.09 1544.73 Q1819.42 1546.79 1816.44 1547.53 Q1819.82 1548.32 1821.69 1550.61 Q1823.59 1552.9 1823.59 1556.21 Q1823.59 1561.23 1820.51 1563.92 Q1817.45 1566.6 1811.74 1566.6 Q1806.02 1566.6 1802.94 1563.92 Q1799.89 1561.23 1799.89 1556.21 Q1799.89 1552.9 1801.78 1550.61 Q1803.68 1548.32 1807.06 1547.53 M1805.35 1540.14 Q1805.35 1542.83 1807.01 1544.33 Q1808.7 1545.84 1811.74 1545.84 Q1814.75 1545.84 1816.44 1544.33 Q1818.15 1542.83 1818.15 1540.14 Q1818.15 1537.46 1816.44 1535.96 Q1814.75 1534.45 1811.74 1534.45 Q1808.7 1534.45 1807.01 1535.96 Q1805.35 1537.46 1805.35 1540.14 Z" fill="#000000" fill-rule="evenodd" fill-opacity="1" /><path clip-path="url(#clip340)" d="M 0 0 M2235.38 1562 L2243.02 1562 L2243.02 1535.63 L2234.71 1537.3 L2234.71 1533.04 L2242.97 1531.37 L2247.65 1531.37 L2247.65 1562 L2255.29 1562 L2255.29 1565.93 L2235.38 1565.93 L2235.38 1562 Z" fill="#000000" fill-rule="evenodd" fill-opacity="1" /><path clip-path="url(#clip340)" d="M 0 0 M2264.73 1560.05 L2269.62 1560.05 L2269.62 1565.93 L2264.73 1565.93 L2264.73 1560.05 Z" fill="#000000" fill-rule="evenodd" fill-opacity="1" /><path clip-path="url(#clip340)" d="M 0 0 M2289.8 1534.45 Q2286.19 1534.45 2284.36 1538.02 Q2282.56 1541.56 2282.56 1548.69 Q2282.56 1555.79 2284.36 1559.36 Q2286.19 1562.9 2289.8 1562.9 Q2293.44 1562.9 2295.24 1559.36 Q2297.07 1555.79 2297.07 1548.69 Q2297.07 1541.56 2295.24 1538.02 Q2293.44 1534.45 2289.8 1534.45 M2289.8 1530.75 Q2295.61 1530.75 2298.67 1535.35 Q2301.75 1539.94 2301.75 1548.69 Q2301.75 1557.41 2298.67 1562.02 Q2295.61 1566.6 2289.8 1566.6 Q2283.99 1566.6 2280.91 1562.02 Q2277.86 1557.41 2277.86 1548.69 Q2277.86 1539.94 2280.91 1535.35 Q2283.99 1530.75 2289.8 1530.75 Z" fill="#000000" fill-rule="evenodd" fill-opacity="1" /><path clip-path="url(#clip340)" d="M 0 0 M972.722 1619.89 L972.722 1600.6 L978.578 1600.6 L978.578 1650.12 L972.722 1650.12 L972.722 1644.78 Q970.876 1647.96 968.043 1649.52 Q965.242 1651.05 961.295 1651.05 Q954.834 1651.05 950.76 1645.89 Q946.718 1640.73 946.718 1632.33 Q946.718 1623.93 950.76 1618.77 Q954.834 1613.62 961.295 1613.62 Q965.242 1613.62 968.043 1615.18 Q970.876 1616.7 972.722 1619.89 M952.765 1632.33 Q952.765 1638.79 955.407 1642.48 Q958.081 1646.15 962.728 1646.15 Q967.375 1646.15 970.048 1642.48 Q972.722 1638.79 972.722 1632.33 Q972.722 1625.87 970.048 1622.21 Q967.375 1618.52 962.728 1618.52 Q958.081 1618.52 955.407 1622.21 Q952.765 1625.87 952.765 1632.33 Z" fill="#000000" fill-rule="evenodd" fill-opacity="1" /><path clip-path="url(#clip340)" d="M 0 0 M1021.13 1630.84 L1021.13 1633.7 L994.206 1633.7 Q994.588 1639.75 997.835 1642.93 Q1001.11 1646.08 1006.94 1646.08 Q1010.31 1646.08 1013.46 1645.25 Q1016.65 1644.43 1019.76 1642.77 L1019.76 1648.31 Q1016.61 1649.65 1013.3 1650.35 Q1009.99 1651.05 1006.59 1651.05 Q998.057 1651.05 993.06 1646.08 Q988.095 1641.12 988.095 1632.65 Q988.095 1623.9 992.806 1618.77 Q997.548 1613.62 1005.57 1613.62 Q1012.76 1613.62 1016.93 1618.26 Q1021.13 1622.88 1021.13 1630.84 M1015.28 1629.12 Q1015.21 1624.31 1012.57 1621.45 Q1009.96 1618.58 1005.63 1618.58 Q1000.73 1618.58 997.771 1621.35 Q994.843 1624.12 994.397 1629.15 L1015.28 1629.12 Z" fill="#000000" fill-rule="evenodd" fill-opacity="1" /><path clip-path="url(#clip340)" d="M 0 0 M1060.38 1628.61 L1060.38 1650.12 L1054.52 1650.12 L1054.52 1628.8 Q1054.52 1623.74 1052.55 1621.22 Q1050.57 1618.71 1046.63 1618.71 Q1041.89 1618.71 1039.15 1621.73 Q1036.41 1624.76 1036.41 1629.98 L1036.41 1650.12 L1030.52 1650.12 L1030.52 1614.48 L1036.41 1614.48 L1036.41 1620.01 Q1038.51 1616.8 1041.34 1615.21 Q1044.21 1613.62 1047.93 1613.62 Q1054.08 1613.62 1057.23 1617.44 Q1060.38 1621.22 1060.38 1628.61 Z" fill="#000000" fill-rule="evenodd" fill-opacity="1" /><path clip-path="url(#clip340)" d="M 0 0 M1094.78 1615.53 L1094.78 1621.06 Q1092.3 1619.79 1089.63 1619.15 Q1086.95 1618.52 1084.09 1618.52 Q1079.73 1618.52 1077.53 1619.85 Q1075.37 1621.19 1075.37 1623.87 Q1075.37 1625.9 1076.93 1627.08 Q1078.49 1628.23 1083.2 1629.28 L1085.2 1629.72 Q1091.44 1631.06 1094.05 1633.51 Q1096.69 1635.93 1096.69 1640.29 Q1096.69 1645.25 1092.75 1648.15 Q1088.83 1651.05 1081.96 1651.05 Q1079.09 1651.05 1075.97 1650.47 Q1072.89 1649.93 1069.45 1648.82 L1069.45 1642.77 Q1072.7 1644.46 1075.85 1645.32 Q1079 1646.15 1082.08 1646.15 Q1086.22 1646.15 1088.45 1644.74 Q1090.68 1643.31 1090.68 1640.73 Q1090.68 1638.35 1089.06 1637.07 Q1087.46 1635.8 1082.02 1634.62 L1079.98 1634.15 Q1074.54 1633 1072.12 1630.64 Q1069.7 1628.26 1069.7 1624.12 Q1069.7 1619.09 1073.27 1616.35 Q1076.83 1613.62 1083.39 1613.62 Q1086.64 1613.62 1089.5 1614.09 Q1092.37 1614.57 1094.78 1615.53 Z" fill="#000000" fill-rule="evenodd" fill-opacity="1" /><path clip-path="url(#clip340)" d="M 0 0 M1106.02 1614.48 L1111.88 1614.48 L1111.88 1650.12 L1106.02 1650.12 L1106.02 1614.48 M1106.02 1600.6 L1111.88 1600.6 L1111.88 1608.01 L1106.02 1608.01 L1106.02 1600.6 Z" fill="#000000" fill-rule="evenodd" fill-opacity="1" /><path clip-path="url(#clip340)" d="M 0 0 M1129.92 1604.35 L1129.92 1614.48 L1141.99 1614.48 L1141.99 1619.03 L1129.92 1619.03 L1129.92 1638.38 Q1129.92 1642.74 1131.1 1643.98 Q1132.31 1645.22 1135.97 1645.22 L1141.99 1645.22 L1141.99 1650.12 L1135.97 1650.12 Q1129.19 1650.12 1126.61 1647.61 Q1124.03 1645.06 1124.03 1638.38 L1124.03 1619.03 L1119.74 1619.03 L1119.74 1614.48 L1124.03 1614.48 L1124.03 1604.35 L1129.92 1604.35 Z" fill="#000000" fill-rule="evenodd" fill-opacity="1" /><path clip-path="url(#clip340)" d="M 0 0 M1164.52 1653.43 Q1162.04 1659.8 1159.68 1661.74 Q1157.33 1663.68 1153.38 1663.68 L1148.7 1663.68 L1148.7 1658.78 L1152.14 1658.78 Q1154.56 1658.78 1155.9 1657.64 Q1157.23 1656.49 1158.86 1652.22 L1159.91 1649.55 L1145.49 1614.48 L1151.69 1614.48 L1162.83 1642.36 L1173.97 1614.48 L1180.18 1614.48 L1164.52 1653.43 Z" fill="#000000" fill-rule="evenodd" fill-opacity="1" /><path clip-path="url(#clip340)" d="M 0 0 M1208.44 1600.6 L1221.94 1600.6 L1221.94 1605.15 L1214.3 1605.15 L1214.3 1654.17 L1221.94 1654.17 L1221.94 1658.72 L1208.44 1658.72 L1208.44 1600.6 Z" fill="#000000" fill-rule="evenodd" fill-opacity="1" /><path clip-path="url(#clip340)" d="M 0 0 M1234.19 1600.6 L1240.08 1600.6 L1240.08 1629.85 L1257.56 1614.48 L1265.04 1614.48 L1246.13 1631.15 L1265.83 1650.12 L1258.19 1650.12 L1240.08 1632.71 L1240.08 1650.12 L1234.19 1650.12 L1234.19 1600.6 Z" fill="#000000" fill-rule="evenodd" fill-opacity="1" /><path clip-path="url(#clip340)" d="M 0 0 M1295.62 1631.89 Q1295.62 1625.52 1292.98 1622.02 Q1290.37 1618.52 1285.63 1618.52 Q1280.92 1618.52 1278.28 1622.02 Q1275.67 1625.52 1275.67 1631.89 Q1275.67 1638.22 1278.28 1641.72 Q1280.92 1645.22 1285.63 1645.22 Q1290.37 1645.22 1292.98 1641.72 Q1295.62 1638.22 1295.62 1631.89 M1301.48 1645.7 Q1301.48 1654.8 1297.44 1659.23 Q1293.39 1663.68 1285.06 1663.68 Q1281.97 1663.68 1279.23 1663.21 Q1276.49 1662.76 1273.92 1661.8 L1273.92 1656.11 Q1276.49 1657.51 1279.01 1658.18 Q1281.52 1658.84 1284.13 1658.84 Q1289.89 1658.84 1292.76 1655.82 Q1295.62 1652.83 1295.62 1646.75 L1295.62 1643.85 Q1293.81 1647 1290.98 1648.56 Q1288.14 1650.12 1284.2 1650.12 Q1277.64 1650.12 1273.63 1645.13 Q1269.62 1640.13 1269.62 1631.89 Q1269.62 1623.61 1273.63 1618.61 Q1277.64 1613.62 1284.2 1613.62 Q1288.14 1613.62 1290.98 1615.18 Q1293.81 1616.74 1295.62 1619.89 L1295.62 1614.48 L1301.48 1614.48 L1301.48 1645.7 Z" fill="#000000" fill-rule="evenodd" fill-opacity="1" /><path clip-path="url(#clip340)" d="M 0 0 M1323.95 1602.6 L1329.36 1602.6 L1312.81 1656.17 L1307.4 1656.17 L1323.95 1602.6 Z" fill="#000000" fill-rule="evenodd" fill-opacity="1" /><path clip-path="url(#clip340)" d="M 0 0 M1363.26 1621.32 Q1365.45 1617.37 1368.51 1615.49 Q1371.57 1613.62 1375.7 1613.62 Q1381.27 1613.62 1384.3 1617.53 Q1387.32 1621.41 1387.32 1628.61 L1387.32 1650.12 L1381.43 1650.12 L1381.43 1628.8 Q1381.43 1623.67 1379.62 1621.19 Q1377.8 1618.71 1374.08 1618.71 Q1369.53 1618.71 1366.89 1621.73 Q1364.24 1624.76 1364.24 1629.98 L1364.24 1650.12 L1358.36 1650.12 L1358.36 1628.8 Q1358.36 1623.64 1356.54 1621.19 Q1354.73 1618.71 1350.94 1618.71 Q1346.45 1618.71 1343.81 1621.76 Q1341.17 1624.79 1341.17 1629.98 L1341.17 1650.12 L1335.28 1650.12 L1335.28 1614.48 L1341.17 1614.48 L1341.17 1620.01 Q1343.17 1616.74 1345.98 1615.18 Q1348.78 1613.62 1352.63 1613.62 Q1356.51 1613.62 1359.22 1615.59 Q1361.95 1617.56 1363.26 1621.32 Z" fill="#000000" fill-rule="evenodd" fill-opacity="1" /><path clip-path="url(#clip340)" d="M 0 0 M1423.29 1602.6 L1440.57 1620.33 L1434.17 1620.33 L1420.17 1607.76 L1406.16 1620.33 L1399.77 1620.33 L1417.05 1602.6 L1423.29 1602.6 Z" fill="#000000" fill-rule="evenodd" fill-opacity="1" /><path clip-path="url(#clip340)" d="M 0 0 M1473.93 1624.5 Q1478.54 1625.49 1481.12 1628.61 Q1483.73 1631.73 1483.73 1636.31 Q1483.73 1643.34 1478.89 1647.2 Q1474.05 1651.05 1465.14 1651.05 Q1462.15 1651.05 1458.97 1650.44 Q1455.82 1649.87 1452.44 1648.69 L1452.44 1642.48 Q1455.12 1644.04 1458.3 1644.84 Q1461.48 1645.64 1464.95 1645.64 Q1471 1645.64 1474.15 1643.25 Q1477.33 1640.86 1477.33 1636.31 Q1477.33 1632.11 1474.37 1629.75 Q1471.44 1627.37 1466.19 1627.37 L1460.65 1627.37 L1460.65 1622.08 L1466.45 1622.08 Q1471.19 1622.08 1473.7 1620.21 Q1476.22 1618.3 1476.22 1614.73 Q1476.22 1611.07 1473.61 1609.13 Q1471.03 1607.16 1466.19 1607.16 Q1463.55 1607.16 1460.53 1607.73 Q1457.5 1608.3 1453.87 1609.51 L1453.87 1603.78 Q1457.53 1602.76 1460.72 1602.25 Q1463.93 1601.74 1466.76 1601.74 Q1474.08 1601.74 1478.35 1605.09 Q1482.62 1608.4 1482.62 1614.06 Q1482.62 1618.01 1480.36 1620.75 Q1478.1 1623.45 1473.93 1624.5 Z" fill="#000000" fill-rule="evenodd" fill-opacity="1" /><path clip-path="url(#clip340)" d="M 0 0 M1508.78 1600.6 L1508.78 1658.72 L1495.28 1658.72 L1495.28 1654.17 L1502.89 1654.17 L1502.89 1605.15 L1495.28 1605.15 L1495.28 1600.6 L1508.78 1600.6 Z" fill="#000000" fill-rule="evenodd" fill-opacity="1" /><polyline clip-path="url(#clip342)" style="stroke:#000000; stroke-width:2; stroke-opacity:0.1; fill:none" points="
  102.74,1469.18 2352.76,1469.18 
  "/>
<polyline clip-path="url(#clip342)" style="stroke:#000000; stroke-width:2; stroke-opacity:0.1; fill:none" points="
  102.74,1127.84 2352.76,1127.84 
  "/>
<polyline clip-path="url(#clip342)" style="stroke:#000000; stroke-width:2; stroke-opacity:0.1; fill:none" points="
  102.74,786.497 2352.76,786.497 
  "/>
<polyline clip-path="url(#clip342)" style="stroke:#000000; stroke-width:2; stroke-opacity:0.1; fill:none" points="
  102.74,445.154 2352.76,445.154 
  "/>
<polyline clip-path="url(#clip342)" style="stroke:#000000; stroke-width:2; stroke-opacity:0.1; fill:none" points="
  102.74,103.811 2352.76,103.811 
  "/>
<polyline clip-path="url(#clip340)" style="stroke:#000000; stroke-width:4; stroke-opacity:1; fill:none" points="
  102.74,1505.26 102.74,62.9921 
  "/>
<polyline clip-path="url(#clip340)" style="stroke:#000000; stroke-width:4; stroke-opacity:1; fill:none" points="
  102.74,1469.18 129.74,1469.18 
  "/>
<polyline clip-path="url(#clip340)" style="stroke:#000000; stroke-width:4; stroke-opacity:1; fill:none" points="
  102.74,1127.84 129.74,1127.84 
  "/>
<polyline clip-path="url(#clip340)" style="stroke:#000000; stroke-width:4; stroke-opacity:1; fill:none" points="
  102.74,786.497 129.74,786.497 
  "/>
<polyline clip-path="url(#clip340)" style="stroke:#000000; stroke-width:4; stroke-opacity:1; fill:none" points="
  102.74,445.154 129.74,445.154 
  "/>
<polyline clip-path="url(#clip340)" style="stroke:#000000; stroke-width:4; stroke-opacity:1; fill:none" points="
  102.74,103.811 129.74,103.811 
  "/>
<path clip-path="url(#clip340)" d="M 0 0 M-14.7177 1482.53 L-7.07889 1482.53 L-7.07889 1456.16 L-15.389 1457.83 L-15.389 1453.57 L-7.12519 1451.9 L-2.44929 1451.9 L-2.44929 1482.53 L5.18956 1482.53 L5.18956 1486.46 L-14.7177 1486.46 L-14.7177 1482.53 Z" fill="#000000" fill-rule="evenodd" fill-opacity="1" /><path clip-path="url(#clip340)" d="M 0 0 M14.6803 1451.9 L33.0366 1451.9 L33.0366 1455.84 L18.9626 1455.84 L18.9626 1464.31 Q19.9811 1463.96 20.9997 1463.8 Q22.0182 1463.61 23.0367 1463.61 Q28.8237 1463.61 32.2033 1466.79 Q35.5829 1469.96 35.5829 1475.37 Q35.5829 1480.95 32.1107 1484.05 Q28.6385 1487.13 22.3191 1487.13 Q20.1432 1487.13 17.8747 1486.76 Q15.6293 1486.39 13.2219 1485.65 L13.2219 1480.95 Q15.3052 1482.09 17.5275 1482.64 Q19.7497 1483.2 22.2265 1483.2 Q26.2311 1483.2 28.5691 1481.09 Q30.907 1478.99 30.907 1475.37 Q30.907 1471.76 28.5691 1469.66 Q26.2311 1467.55 22.2265 1467.55 Q20.3515 1467.55 18.4765 1467.97 Q16.6247 1468.38 14.6803 1469.26 L14.6803 1451.9 Z" fill="#000000" fill-rule="evenodd" fill-opacity="1" /><path clip-path="url(#clip340)" d="M 0 0 M54.7958 1454.98 Q51.1847 1454.98 49.356 1458.55 Q47.5504 1462.09 47.5504 1469.22 Q47.5504 1476.32 49.356 1479.89 Q51.1847 1483.43 54.7958 1483.43 Q58.43 1483.43 60.2356 1479.89 Q62.0643 1476.32 62.0643 1469.22 Q62.0643 1462.09 60.2356 1458.55 Q58.43 1454.98 54.7958 1454.98 M54.7958 1451.28 Q60.6059 1451.28 63.6615 1455.88 Q66.7402 1460.47 66.7402 1469.22 Q66.7402 1477.94 63.6615 1482.55 Q60.6059 1487.13 54.7958 1487.13 Q48.9856 1487.13 45.9069 1482.55 Q42.8514 1477.94 42.8514 1469.22 Q42.8514 1460.47 45.9069 1455.88 Q48.9856 1451.28 54.7958 1451.28 Z" fill="#000000" fill-rule="evenodd" fill-opacity="1" /><path clip-path="url(#clip340)" d="M 0 0 M-11.5002 1141.18 L4.81919 1141.18 L4.81919 1145.12 L-17.1251 1145.12 L-17.1251 1141.18 Q-14.4631 1138.43 -9.8798 1133.8 Q-5.27335 1129.15 -4.0928 1127.8 Q-1.84744 1125.28 -0.967813 1123.55 Q-0.0650401 1121.79 -0.0650401 1120.1 Q-0.0650401 1117.34 -2.00947 1115.61 Q-3.93076 1113.87 -7.0326 1113.87 Q-9.23166 1113.87 -11.6853 1114.63 Q-14.1159 1115.4 -16.8937 1116.95 L-16.8937 1112.23 Q-14.0696 1111.09 -11.6159 1110.51 Q-9.16221 1109.93 -7.12519 1109.93 Q-1.75485 1109.93 1.43958 1112.62 Q4.63401 1115.3 4.63401 1119.8 Q4.63401 1121.92 3.82383 1123.85 Q3.0368 1125.74 0.930325 1128.34 Q0.351624 1129.01 -2.75021 1132.23 Q-5.85205 1135.42 -11.5002 1141.18 Z" fill="#000000" fill-rule="evenodd" fill-opacity="1" /><path clip-path="url(#clip340)" d="M 0 0 M24.6339 1113.64 Q21.0228 1113.64 19.1941 1117.2 Q17.3886 1120.74 17.3886 1127.87 Q17.3886 1134.98 19.1941 1138.55 Q21.0228 1142.09 24.6339 1142.09 Q28.2681 1142.09 30.0737 1138.55 Q31.9024 1134.98 31.9024 1127.87 Q31.9024 1120.74 30.0737 1117.2 Q28.2681 1113.64 24.6339 1113.64 M24.6339 1109.93 Q30.4441 1109.93 33.4996 1114.54 Q36.5783 1119.12 36.5783 1127.87 Q36.5783 1136.6 33.4996 1141.21 Q30.4441 1145.79 24.6339 1145.79 Q18.8237 1145.79 15.7451 1141.21 Q12.6895 1136.6 12.6895 1127.87 Q12.6895 1119.12 15.7451 1114.54 Q18.8237 1109.93 24.6339 1109.93 Z" fill="#000000" fill-rule="evenodd" fill-opacity="1" /><path clip-path="url(#clip340)" d="M 0 0 M54.7958 1113.64 Q51.1847 1113.64 49.356 1117.2 Q47.5504 1120.74 47.5504 1127.87 Q47.5504 1134.98 49.356 1138.55 Q51.1847 1142.09 54.7958 1142.09 Q58.43 1142.09 60.2356 1138.55 Q62.0643 1134.98 62.0643 1127.87 Q62.0643 1120.74 60.2356 1117.2 Q58.43 1113.64 54.7958 1113.64 M54.7958 1109.93 Q60.6059 1109.93 63.6615 1114.54 Q66.7402 1119.12 66.7402 1127.87 Q66.7402 1136.6 63.6615 1141.21 Q60.6059 1145.79 54.7958 1145.79 Q48.9856 1145.79 45.9069 1141.21 Q42.8514 1136.6 42.8514 1127.87 Q42.8514 1119.12 45.9069 1114.54 Q48.9856 1109.93 54.7958 1109.93 Z" fill="#000000" fill-rule="evenodd" fill-opacity="1" /><path clip-path="url(#clip340)" d="M 0 0 M-11.5002 799.841 L4.81919 799.841 L4.81919 803.777 L-17.1251 803.777 L-17.1251 799.841 Q-14.4631 797.087 -9.8798 792.457 Q-5.27335 787.804 -4.0928 786.462 Q-1.84744 783.939 -0.967813 782.203 Q-0.0650401 780.443 -0.0650401 778.754 Q-0.0650401 775.999 -2.00947 774.263 Q-3.93076 772.527 -7.0326 772.527 Q-9.23166 772.527 -11.6853 773.291 Q-14.1159 774.054 -16.8937 775.605 L-16.8937 770.883 Q-14.0696 769.749 -11.6159 769.17 Q-9.16221 768.592 -7.12519 768.592 Q-1.75485 768.592 1.43958 771.277 Q4.63401 773.962 4.63401 778.453 Q4.63401 780.582 3.82383 782.503 Q3.0368 784.402 0.930325 786.994 Q0.351624 787.665 -2.75021 790.883 Q-5.85205 794.077 -11.5002 799.841 Z" fill="#000000" fill-rule="evenodd" fill-opacity="1" /><path clip-path="url(#clip340)" d="M 0 0 M14.6803 769.217 L33.0366 769.217 L33.0366 773.152 L18.9626 773.152 L18.9626 781.624 Q19.9811 781.277 20.9997 781.115 Q22.0182 780.929 23.0367 780.929 Q28.8237 780.929 32.2033 784.101 Q35.5829 787.272 35.5829 792.689 Q35.5829 798.267 32.1107 801.369 Q28.6385 804.448 22.3191 804.448 Q20.1432 804.448 17.8747 804.077 Q15.6293 803.707 13.2219 802.966 L13.2219 798.267 Q15.3052 799.402 17.5275 799.957 Q19.7497 800.513 22.2265 800.513 Q26.2311 800.513 28.5691 798.406 Q30.907 796.3 30.907 792.689 Q30.907 789.078 28.5691 786.971 Q26.2311 784.865 22.2265 784.865 Q20.3515 784.865 18.4765 785.281 Q16.6247 785.698 14.6803 786.578 L14.6803 769.217 Z" fill="#000000" fill-rule="evenodd" fill-opacity="1" /><path clip-path="url(#clip340)" d="M 0 0 M54.7958 772.295 Q51.1847 772.295 49.356 775.86 Q47.5504 779.402 47.5504 786.531 Q47.5504 793.638 49.356 797.202 Q51.1847 800.744 54.7958 800.744 Q58.43 800.744 60.2356 797.202 Q62.0643 793.638 62.0643 786.531 Q62.0643 779.402 60.2356 775.86 Q58.43 772.295 54.7958 772.295 M54.7958 768.592 Q60.6059 768.592 63.6615 773.198 Q66.7402 777.781 66.7402 786.531 Q66.7402 795.258 63.6615 799.865 Q60.6059 804.448 54.7958 804.448 Q48.9856 804.448 45.9069 799.865 Q42.8514 795.258 42.8514 786.531 Q42.8514 777.781 45.9069 773.198 Q48.9856 768.592 54.7958 768.592 Z" fill="#000000" fill-rule="evenodd" fill-opacity="1" /><path clip-path="url(#clip340)" d="M 0 0 M-1.36133 443.8 Q1.99513 444.517 3.87012 446.786 Q5.76826 449.054 5.76826 452.388 Q5.76826 457.503 2.24976 460.304 Q-1.26874 463.105 -7.75018 463.105 Q-9.9261 463.105 -12.2409 462.665 Q-14.5326 462.249 -16.9862 461.392 L-16.9862 456.878 Q-15.0418 458.012 -12.727 458.591 Q-10.4122 459.17 -7.88907 459.17 Q-3.49095 459.17 -1.19929 457.434 Q1.11551 455.698 1.11551 452.388 Q1.11551 449.332 -1.03726 447.619 Q-3.16688 445.883 -6.9863 445.883 L-11.0141 445.883 L-11.0141 442.04 L-6.80112 442.04 Q-3.35206 442.04 -1.52337 440.675 Q0.305328 439.286 0.305328 436.693 Q0.305328 434.031 -1.59281 432.619 Q-3.4678 431.184 -6.9863 431.184 Q-8.90759 431.184 -11.1066 431.601 Q-13.3057 432.017 -15.9446 432.897 L-15.9446 428.73 Q-13.2826 427.99 -10.9678 427.619 Q-8.62981 427.249 -6.56963 427.249 Q-1.24559 427.249 1.85625 429.679 Q4.95808 432.087 4.95808 436.207 Q4.95808 439.077 3.31457 441.068 Q1.67106 443.036 -1.36133 443.8 Z" fill="#000000" fill-rule="evenodd" fill-opacity="1" /><path clip-path="url(#clip340)" d="M 0 0 M24.6339 430.952 Q21.0228 430.952 19.1941 434.517 Q17.3886 438.059 17.3886 445.188 Q17.3886 452.295 19.1941 455.86 Q21.0228 459.401 24.6339 459.401 Q28.2681 459.401 30.0737 455.86 Q31.9024 452.295 31.9024 445.188 Q31.9024 438.059 30.0737 434.517 Q28.2681 430.952 24.6339 430.952 M24.6339 427.249 Q30.4441 427.249 33.4996 431.855 Q36.5783 436.439 36.5783 445.188 Q36.5783 453.915 33.4996 458.522 Q30.4441 463.105 24.6339 463.105 Q18.8237 463.105 15.7451 458.522 Q12.6895 453.915 12.6895 445.188 Q12.6895 436.439 15.7451 431.855 Q18.8237 427.249 24.6339 427.249 Z" fill="#000000" fill-rule="evenodd" fill-opacity="1" /><path clip-path="url(#clip340)" d="M 0 0 M54.7958 430.952 Q51.1847 430.952 49.356 434.517 Q47.5504 438.059 47.5504 445.188 Q47.5504 452.295 49.356 455.86 Q51.1847 459.401 54.7958 459.401 Q58.43 459.401 60.2356 455.86 Q62.0643 452.295 62.0643 445.188 Q62.0643 438.059 60.2356 434.517 Q58.43 430.952 54.7958 430.952 M54.7958 427.249 Q60.6059 427.249 63.6615 431.855 Q66.7402 436.439 66.7402 445.188 Q66.7402 453.915 63.6615 458.522 Q60.6059 463.105 54.7958 463.105 Q48.9856 463.105 45.9069 458.522 Q42.8514 453.915 42.8514 445.188 Q42.8514 436.439 45.9069 431.855 Q48.9856 427.249 54.7958 427.249 Z" fill="#000000" fill-rule="evenodd" fill-opacity="1" /><path clip-path="url(#clip340)" d="M 0 0 M-1.36133 102.457 Q1.99513 103.174 3.87012 105.443 Q5.76826 107.711 5.76826 111.045 Q5.76826 116.16 2.24976 118.961 Q-1.26874 121.762 -7.75018 121.762 Q-9.9261 121.762 -12.2409 121.323 Q-14.5326 120.906 -16.9862 120.049 L-16.9862 115.535 Q-15.0418 116.67 -12.727 117.248 Q-10.4122 117.827 -7.88907 117.827 Q-3.49095 117.827 -1.19929 116.091 Q1.11551 114.355 1.11551 111.045 Q1.11551 107.989 -1.03726 106.276 Q-3.16688 104.54 -6.9863 104.54 L-11.0141 104.54 L-11.0141 100.698 L-6.80112 100.698 Q-3.35206 100.698 -1.52337 99.3319 Q0.305328 97.943 0.305328 95.3504 Q0.305328 92.6884 -1.59281 91.2764 Q-3.4678 89.8412 -6.9863 89.8412 Q-8.90759 89.8412 -11.1066 90.2579 Q-13.3057 90.6745 -15.9446 91.5541 L-15.9446 87.3875 Q-13.2826 86.6468 -10.9678 86.2764 Q-8.62981 85.906 -6.56963 85.906 Q-1.24559 85.906 1.85625 88.3366 Q4.95808 90.744 4.95808 94.8643 Q4.95808 97.7347 3.31457 99.7254 Q1.67106 101.693 -1.36133 102.457 Z" fill="#000000" fill-rule="evenodd" fill-opacity="1" /><path clip-path="url(#clip340)" d="M 0 0 M14.6803 86.531 L33.0366 86.531 L33.0366 90.4662 L18.9626 90.4662 L18.9626 98.9384 Q19.9811 98.5911 20.9997 98.4291 Q22.0182 98.2439 23.0367 98.2439 Q28.8237 98.2439 32.2033 101.415 Q35.5829 104.586 35.5829 110.003 Q35.5829 115.582 32.1107 118.684 Q28.6385 121.762 22.3191 121.762 Q20.1432 121.762 17.8747 121.392 Q15.6293 121.022 13.2219 120.281 L13.2219 115.582 Q15.3052 116.716 17.5275 117.272 Q19.7497 117.827 22.2265 117.827 Q26.2311 117.827 28.5691 115.721 Q30.907 113.614 30.907 110.003 Q30.907 106.392 28.5691 104.286 Q26.2311 102.179 22.2265 102.179 Q20.3515 102.179 18.4765 102.596 Q16.6247 103.012 14.6803 103.892 L14.6803 86.531 Z" fill="#000000" fill-rule="evenodd" fill-opacity="1" /><path clip-path="url(#clip340)" d="M 0 0 M54.7958 89.6097 Q51.1847 89.6097 49.356 93.1745 Q47.5504 96.7162 47.5504 103.846 Q47.5504 110.952 49.356 114.517 Q51.1847 118.059 54.7958 118.059 Q58.43 118.059 60.2356 114.517 Q62.0643 110.952 62.0643 103.846 Q62.0643 96.7162 60.2356 93.1745 Q58.43 89.6097 54.7958 89.6097 M54.7958 85.906 Q60.6059 85.906 63.6615 90.5125 Q66.7402 95.0958 66.7402 103.846 Q66.7402 112.573 63.6615 117.179 Q60.6059 121.762 54.7958 121.762 Q48.9856 121.762 45.9069 117.179 Q42.8514 112.573 42.8514 103.846 Q42.8514 95.0958 45.9069 90.5125 Q48.9856 85.906 54.7958 85.906 Z" fill="#000000" fill-rule="evenodd" fill-opacity="1" /><path clip-path="url(#clip340)" d="M 0 0 M-114.901 858.493 L-114.901 818.294 L-109.49 818.294 L-109.49 835.163 L-67.3811 835.163 L-67.3811 841.624 L-109.49 841.624 L-109.49 858.493 L-114.901 858.493 Z" fill="#000000" fill-rule="evenodd" fill-opacity="1" /><path clip-path="url(#clip340)" d="M 0 0 M-116.906 792.163 L-116.906 778.667 L-112.355 778.667 L-112.355 786.306 L-63.3389 786.306 L-63.3389 778.667 L-58.7874 778.667 L-58.7874 792.163 L-116.906 792.163 Z" fill="#000000" fill-rule="evenodd" fill-opacity="1" /><path clip-path="url(#clip340)" d="M 0 0 M-114.901 765.936 L-114.901 759.507 L-94.8173 759.507 L-114.901 738.181 L-114.901 729.906 L-92.7485 753.491 L-67.3811 728.219 L-67.3811 736.686 L-90.2658 759.507 L-67.3811 759.507 L-67.3811 765.936 L-114.901 765.936 Z" fill="#000000" fill-rule="evenodd" fill-opacity="1" /><path clip-path="url(#clip340)" d="M 0 0 M-116.906 709.759 L-58.7874 709.759 L-58.7874 723.254 L-63.3389 723.254 L-63.3389 715.647 L-112.355 715.647 L-112.355 723.254 L-116.906 723.254 L-116.906 709.759 Z" fill="#000000" fill-rule="evenodd" fill-opacity="1" /><path clip-path="url(#clip340)" d="M 0 0 M326.017 12.096 L377.18 12.096 L377.18 18.9825 L355.71 18.9825 L355.71 72.576 L347.487 72.576 L347.487 18.9825 L326.017 18.9825 L326.017 12.096 Z" fill="#000000" fill-rule="evenodd" fill-opacity="1" /><path clip-path="url(#clip340)" d="M 0 0 M409.465 48.0275 L409.465 51.6733 L375.195 51.6733 Q375.681 59.3701 379.813 63.421 Q383.985 67.4314 391.398 67.4314 Q395.692 67.4314 399.703 66.3781 Q403.754 65.3249 407.723 63.2184 L407.723 70.267 Q403.713 71.9684 399.5 72.8596 Q395.287 73.7508 390.953 73.7508 Q380.096 73.7508 373.736 67.4314 Q367.417 61.1119 367.417 50.3365 Q367.417 39.1965 373.412 32.6746 Q379.448 26.1121 389.656 26.1121 Q398.812 26.1121 404.118 32.0264 Q409.465 37.9003 409.465 48.0275 M402.012 45.84 Q401.931 39.7232 398.568 36.0774 Q395.247 32.4315 389.737 32.4315 Q383.499 32.4315 379.732 35.9558 Q376.005 39.4801 375.438 45.8805 L402.012 45.84 Z" fill="#000000" fill-rule="evenodd" fill-opacity="1" /><path clip-path="url(#clip340)" d="M 0 0 M450.623 28.5427 L450.623 35.5912 Q447.463 33.9709 444.06 33.1607 Q440.657 32.3505 437.012 32.3505 Q431.462 32.3505 428.667 34.0519 Q425.912 35.7533 425.912 39.156 Q425.912 41.7486 427.897 43.2475 Q429.882 44.7058 435.877 46.0426 L438.429 46.6097 Q446.369 48.3111 449.691 51.4303 Q453.053 54.509 453.053 60.0587 Q453.053 66.3781 448.03 70.0644 Q443.047 73.7508 434.297 73.7508 Q430.652 73.7508 426.682 73.0216 Q422.752 72.3329 418.377 70.9151 L418.377 63.2184 Q422.509 65.3654 426.52 66.4591 Q430.53 67.5124 434.459 67.5124 Q439.726 67.5124 442.561 65.73 Q445.397 63.9071 445.397 60.6258 Q445.397 57.5877 443.331 55.9673 Q441.305 54.3469 434.378 52.8481 L431.786 52.2405 Q424.859 50.7821 421.78 47.7845 Q418.701 44.7463 418.701 39.4801 Q418.701 33.0797 423.238 29.5959 Q427.775 26.1121 436.12 26.1121 Q440.252 26.1121 443.898 26.7198 Q447.544 27.3274 450.623 28.5427 Z" fill="#000000" fill-rule="evenodd" fill-opacity="1" /><path clip-path="url(#clip340)" d="M 0 0 M472.295 14.324 L472.295 27.2059 L487.648 27.2059 L487.648 32.9987 L472.295 32.9987 L472.295 57.6282 Q472.295 63.1779 473.794 64.7578 Q475.333 66.3376 479.992 66.3376 L487.648 66.3376 L487.648 72.576 L479.992 72.576 Q471.363 72.576 468.082 69.3758 Q464.801 66.1351 464.801 57.6282 L464.801 32.9987 L459.332 32.9987 L459.332 27.2059 L464.801 27.2059 L464.801 14.324 L472.295 14.324 Z" fill="#000000" fill-rule="evenodd" fill-opacity="1" /><path clip-path="url(#clip340)" d="M 0 0 M536.259 48.0275 L536.259 51.6733 L501.988 51.6733 Q502.474 59.3701 506.606 63.421 Q510.778 67.4314 518.192 67.4314 Q522.486 67.4314 526.496 66.3781 Q530.547 65.3249 534.517 63.2184 L534.517 70.267 Q530.506 71.9684 526.293 72.8596 Q522.081 73.7508 517.746 73.7508 Q506.89 73.7508 500.53 67.4314 Q494.21 61.1119 494.21 50.3365 Q494.21 39.1965 500.206 32.6746 Q506.241 26.1121 516.45 26.1121 Q525.605 26.1121 530.911 32.0264 Q536.259 37.9003 536.259 48.0275 M528.805 45.84 Q528.724 39.7232 525.362 36.0774 Q522.04 32.4315 516.531 32.4315 Q510.292 32.4315 506.525 35.9558 Q502.798 39.4801 502.231 45.8805 L528.805 45.84 Z" fill="#000000" fill-rule="evenodd" fill-opacity="1" /><path clip-path="url(#clip340)" d="M 0 0 M578.348 34.0924 L578.348 9.54393 L585.801 9.54393 L585.801 72.576 L578.348 72.576 L578.348 65.7705 Q575.998 69.8214 572.393 71.8063 Q568.828 73.7508 563.805 73.7508 Q555.581 73.7508 550.396 67.1883 Q545.252 60.6258 545.252 49.9314 Q545.252 39.2371 550.396 32.6746 Q555.581 26.1121 563.805 26.1121 Q568.828 26.1121 572.393 28.0971 Q575.998 30.0415 578.348 34.0924 M552.948 49.9314 Q552.948 58.1548 556.311 62.8538 Q559.713 67.5124 565.628 67.5124 Q571.542 67.5124 574.945 62.8538 Q578.348 58.1548 578.348 49.9314 Q578.348 41.7081 574.945 37.0496 Q571.542 32.3505 565.628 32.3505 Q559.713 32.3505 556.311 37.0496 Q552.948 41.7081 552.948 49.9314 Z" fill="#000000" fill-rule="evenodd" fill-opacity="1" /><path clip-path="url(#clip340)" d="M 0 0 M656.449 28.5427 L656.449 35.5912 Q653.289 33.9709 649.887 33.1607 Q646.484 32.3505 642.838 32.3505 Q637.288 32.3505 634.493 34.0519 Q631.738 35.7533 631.738 39.156 Q631.738 41.7486 633.723 43.2475 Q635.708 44.7058 641.704 46.0426 L644.256 46.6097 Q652.196 48.3111 655.517 51.4303 Q658.88 54.509 658.88 60.0587 Q658.88 66.3781 653.856 70.0644 Q648.874 73.7508 640.124 73.7508 Q636.478 73.7508 632.508 73.0216 Q628.579 72.3329 624.204 70.9151 L624.204 63.2184 Q628.336 65.3654 632.346 66.4591 Q636.357 67.5124 640.286 67.5124 Q645.552 67.5124 648.388 65.73 Q651.223 63.9071 651.223 60.6258 Q651.223 57.5877 649.157 55.9673 Q647.132 54.3469 640.205 52.8481 L637.612 52.2405 Q630.685 50.7821 627.607 47.7845 Q624.528 44.7463 624.528 39.4801 Q624.528 33.0797 629.065 29.5959 Q633.602 26.1121 641.947 26.1121 Q646.079 26.1121 649.725 26.7198 Q653.37 27.3274 656.449 28.5427 Z" fill="#000000" fill-rule="evenodd" fill-opacity="1" /><path clip-path="url(#clip340)" d="M 0 0 M678.121 14.324 L678.121 27.2059 L693.474 27.2059 L693.474 32.9987 L678.121 32.9987 L678.121 57.6282 Q678.121 63.1779 679.62 64.7578 Q681.16 66.3376 685.818 66.3376 L693.474 66.3376 L693.474 72.576 L685.818 72.576 Q677.19 72.576 673.908 69.3758 Q670.627 66.1351 670.627 57.6282 L670.627 32.9987 L665.158 32.9987 L665.158 27.2059 L670.627 27.2059 L670.627 14.324 L678.121 14.324 Z" fill="#000000" fill-rule="evenodd" fill-opacity="1" /><path clip-path="url(#clip340)" d="M 0 0 M723.897 49.7694 Q714.863 49.7694 711.379 51.8354 Q707.895 53.9013 707.895 58.8839 Q707.895 62.8538 710.488 65.2034 Q713.121 67.5124 717.618 67.5124 Q723.816 67.5124 727.542 63.1374 Q731.31 58.7219 731.31 51.4303 L731.31 49.7694 L723.897 49.7694 M738.763 46.6907 L738.763 72.576 L731.31 72.576 L731.31 65.6895 Q728.758 69.8214 724.95 71.8063 Q721.142 73.7508 715.633 73.7508 Q708.665 73.7508 704.533 69.8619 Q700.442 65.9325 700.442 59.3701 Q700.442 51.7138 705.546 47.825 Q710.691 43.9361 720.858 43.9361 L731.31 43.9361 L731.31 43.2069 Q731.31 38.0623 727.907 35.2672 Q724.545 32.4315 718.428 32.4315 Q714.539 32.4315 710.853 33.3632 Q707.166 34.295 703.764 36.1584 L703.764 29.2718 Q707.855 27.692 711.703 26.9223 Q715.552 26.1121 719.198 26.1121 Q729.041 26.1121 733.902 31.2163 Q738.763 36.3204 738.763 46.6907 Z" fill="#000000" fill-rule="evenodd" fill-opacity="1" /><path clip-path="url(#clip340)" d="M 0 0 M761.489 14.324 L761.489 27.2059 L776.842 27.2059 L776.842 32.9987 L761.489 32.9987 L761.489 57.6282 Q761.489 63.1779 762.988 64.7578 Q764.527 66.3376 769.186 66.3376 L776.842 66.3376 L776.842 72.576 L769.186 72.576 Q760.557 72.576 757.276 69.3758 Q753.995 66.1351 753.995 57.6282 L753.995 32.9987 L748.526 32.9987 L748.526 27.2059 L753.995 27.2059 L753.995 14.324 L761.489 14.324 Z" fill="#000000" fill-rule="evenodd" fill-opacity="1" /><path clip-path="url(#clip340)" d="M 0 0 M825.453 48.0275 L825.453 51.6733 L791.182 51.6733 Q791.668 59.3701 795.8 63.421 Q799.973 67.4314 807.386 67.4314 Q811.68 67.4314 815.69 66.3781 Q819.741 65.3249 823.711 63.2184 L823.711 70.267 Q819.7 71.9684 815.488 72.8596 Q811.275 73.7508 806.94 73.7508 Q796.084 73.7508 789.724 67.4314 Q783.404 61.1119 783.404 50.3365 Q783.404 39.1965 789.4 32.6746 Q795.436 26.1121 805.644 26.1121 Q814.799 26.1121 820.106 32.0264 Q825.453 37.9003 825.453 48.0275 M817.999 45.84 Q817.918 39.7232 814.556 36.0774 Q811.234 32.4315 805.725 32.4315 Q799.486 32.4315 795.719 35.9558 Q791.992 39.4801 791.425 45.8805 L817.999 45.84 Z" fill="#000000" fill-rule="evenodd" fill-opacity="1" /><path clip-path="url(#clip340)" d="M 0 0 M866.61 28.5427 L866.61 35.5912 Q863.45 33.9709 860.047 33.1607 Q856.645 32.3505 852.999 32.3505 Q847.449 32.3505 844.654 34.0519 Q841.899 35.7533 841.899 39.156 Q841.899 41.7486 843.884 43.2475 Q845.869 44.7058 851.865 46.0426 L854.417 46.6097 Q862.356 48.3111 865.678 51.4303 Q869.04 54.509 869.04 60.0587 Q869.04 66.3781 864.017 70.0644 Q859.035 73.7508 850.285 73.7508 Q846.639 73.7508 842.669 73.0216 Q838.74 72.3329 834.365 70.9151 L834.365 63.2184 Q838.497 65.3654 842.507 66.4591 Q846.517 67.5124 850.447 67.5124 Q855.713 67.5124 858.549 65.73 Q861.384 63.9071 861.384 60.6258 Q861.384 57.5877 859.318 55.9673 Q857.293 54.3469 850.366 52.8481 L847.773 52.2405 Q840.846 50.7821 837.767 47.7845 Q834.689 44.7463 834.689 39.4801 Q834.689 33.0797 839.226 29.5959 Q843.763 26.1121 852.108 26.1121 Q856.24 26.1121 859.885 26.7198 Q863.531 27.3274 866.61 28.5427 Z" fill="#000000" fill-rule="evenodd" fill-opacity="1" /><path clip-path="url(#clip340)" d="M 0 0 M930.25 9.54393 L930.25 15.7418 L923.12 15.7418 Q919.11 15.7418 917.53 17.3622 Q915.99 18.9825 915.99 23.1955 L915.99 27.2059 L928.265 27.2059 L928.265 32.9987 L915.99 32.9987 L915.99 72.576 L908.496 72.576 L908.496 32.9987 L901.367 32.9987 L901.367 27.2059 L908.496 27.2059 L908.496 24.0462 Q908.496 16.471 912.021 13.0277 Q915.545 9.54393 923.201 9.54393 L930.25 9.54393 Z" fill="#000000" fill-rule="evenodd" fill-opacity="1" /><path clip-path="url(#clip340)" d="M 0 0 M954.069 32.4315 Q948.074 32.4315 944.59 37.1306 Q941.106 41.7891 941.106 49.9314 Q941.106 58.0738 944.549 62.7728 Q948.033 67.4314 954.069 67.4314 Q960.024 67.4314 963.508 62.7323 Q966.991 58.0333 966.991 49.9314 Q966.991 41.8701 963.508 37.1711 Q960.024 32.4315 954.069 32.4315 M954.069 26.1121 Q963.791 26.1121 969.341 32.4315 Q974.891 38.7509 974.891 49.9314 Q974.891 61.0714 969.341 67.4314 Q963.791 73.7508 954.069 73.7508 Q944.306 73.7508 938.757 67.4314 Q933.247 61.0714 933.247 49.9314 Q933.247 38.7509 938.757 32.4315 Q944.306 26.1121 954.069 26.1121 Z" fill="#000000" fill-rule="evenodd" fill-opacity="1" /><path clip-path="url(#clip340)" d="M 0 0 M1013.54 34.1734 Q1012.28 33.4443 1010.78 33.1202 Q1009.32 32.7556 1007.54 32.7556 Q1001.22 32.7556 997.819 36.8875 Q994.456 40.9789 994.456 48.6757 L994.456 72.576 L986.962 72.576 L986.962 27.2059 L994.456 27.2059 L994.456 34.2544 Q996.806 30.1225 1000.57 28.1376 Q1004.34 26.1121 1009.73 26.1121 Q1010.5 26.1121 1011.43 26.2337 Q1012.36 26.3147 1013.5 26.5172 L1013.54 34.1734 Z" fill="#000000" fill-rule="evenodd" fill-opacity="1" /><path clip-path="url(#clip340)" d="M 0 0 M1077.58 34.0924 L1077.58 9.54393 L1085.03 9.54393 L1085.03 72.576 L1077.58 72.576 L1077.58 65.7705 Q1075.23 69.8214 1071.63 71.8063 Q1068.06 73.7508 1063.04 73.7508 Q1054.81 73.7508 1049.63 67.1883 Q1044.49 60.6258 1044.49 49.9314 Q1044.49 39.2371 1049.63 32.6746 Q1054.81 26.1121 1063.04 26.1121 Q1068.06 26.1121 1071.63 28.0971 Q1075.23 30.0415 1077.58 34.0924 M1052.18 49.9314 Q1052.18 58.1548 1055.54 62.8538 Q1058.95 67.5124 1064.86 67.5124 Q1070.78 67.5124 1074.18 62.8538 Q1077.58 58.1548 1077.58 49.9314 Q1077.58 41.7081 1074.18 37.0496 Q1070.78 32.3505 1064.86 32.3505 Q1058.95 32.3505 1055.54 37.0496 Q1052.18 41.7081 1052.18 49.9314 Z" fill="#000000" fill-rule="evenodd" fill-opacity="1" /><path clip-path="url(#clip340)" d="M 0 0 M1126.68 34.1734 Q1125.42 33.4443 1123.92 33.1202 Q1122.47 32.7556 1120.68 32.7556 Q1114.36 32.7556 1110.96 36.8875 Q1107.6 40.9789 1107.6 48.6757 L1107.6 72.576 L1100.1 72.576 L1100.1 27.2059 L1107.6 27.2059 L1107.6 34.2544 Q1109.95 30.1225 1113.72 28.1376 Q1117.48 26.1121 1122.87 26.1121 Q1123.64 26.1121 1124.57 26.2337 Q1125.5 26.3147 1126.64 26.5172 L1126.68 34.1734 Z" fill="#000000" fill-rule="evenodd" fill-opacity="1" /><path clip-path="url(#clip340)" d="M 0 0 M1153.37 76.7889 Q1150.21 84.8907 1147.22 87.3618 Q1144.22 89.8329 1139.2 89.8329 L1133.24 89.8329 L1133.24 83.5945 L1137.62 83.5945 Q1140.69 83.5945 1142.4 82.1361 Q1144.1 80.6778 1146.16 75.2496 L1147.5 71.8468 L1129.15 27.2059 L1137.05 27.2059 L1151.23 62.6918 L1165.4 27.2059 L1173.3 27.2059 L1153.37 76.7889 Z" fill="#000000" fill-rule="evenodd" fill-opacity="1" /><path clip-path="url(#clip340)" d="M 0 0 M1217.34 14.324 L1217.34 27.2059 L1232.69 27.2059 L1232.69 32.9987 L1217.34 32.9987 L1217.34 57.6282 Q1217.34 63.1779 1218.84 64.7578 Q1220.38 66.3376 1225.03 66.3376 L1232.69 66.3376 L1232.69 72.576 L1225.03 72.576 Q1216.41 72.576 1213.12 69.3758 Q1209.84 66.1351 1209.84 57.6282 L1209.84 32.9987 L1204.37 32.9987 L1204.37 27.2059 L1209.84 27.2059 L1209.84 14.324 L1217.34 14.324 Z" fill="#000000" fill-rule="evenodd" fill-opacity="1" /><path clip-path="url(#clip340)" d="M 0 0 M1280.21 45.1919 L1280.21 72.576 L1272.75 72.576 L1272.75 45.4349 Q1272.75 38.994 1270.24 35.7938 Q1267.73 32.5936 1262.71 32.5936 Q1256.67 32.5936 1253.19 36.4419 Q1249.7 40.2903 1249.7 46.9338 L1249.7 72.576 L1242.21 72.576 L1242.21 9.54393 L1249.7 9.54393 L1249.7 34.2544 Q1252.38 30.163 1255.98 28.1376 Q1259.63 26.1121 1264.37 26.1121 Q1272.19 26.1121 1276.2 30.9732 Q1280.21 35.7938 1280.21 45.1919 Z" fill="#000000" fill-rule="evenodd" fill-opacity="1" /><path clip-path="url(#clip340)" d="M 0 0 M1333.88 48.0275 L1333.88 51.6733 L1299.61 51.6733 Q1300.1 59.3701 1304.23 63.421 Q1308.4 67.4314 1315.81 67.4314 Q1320.11 67.4314 1324.12 66.3781 Q1328.17 65.3249 1332.14 63.2184 L1332.14 70.267 Q1328.13 71.9684 1323.92 72.8596 Q1319.7 73.7508 1315.37 73.7508 Q1304.51 73.7508 1298.15 67.4314 Q1291.83 61.1119 1291.83 50.3365 Q1291.83 39.1965 1297.83 32.6746 Q1303.86 26.1121 1314.07 26.1121 Q1323.23 26.1121 1328.53 32.0264 Q1333.88 37.9003 1333.88 48.0275 M1326.43 45.84 Q1326.35 39.7232 1322.98 36.0774 Q1319.66 32.4315 1314.15 32.4315 Q1307.92 32.4315 1304.15 35.9558 Q1300.42 39.4801 1299.85 45.8805 L1326.43 45.84 Z" fill="#000000" fill-rule="evenodd" fill-opacity="1" /><path clip-path="url(#clip340)" d="M 0 0 M1372.41 34.1734 Q1371.15 33.4443 1369.65 33.1202 Q1368.19 32.7556 1366.41 32.7556 Q1360.09 32.7556 1356.69 36.8875 Q1353.33 40.9789 1353.33 48.6757 L1353.33 72.576 L1345.83 72.576 L1345.83 27.2059 L1353.33 27.2059 L1353.33 34.2544 Q1355.68 30.1225 1359.44 28.1376 Q1363.21 26.1121 1368.6 26.1121 Q1369.37 26.1121 1370.3 26.2337 Q1371.23 26.3147 1372.37 26.5172 L1372.41 34.1734 Z" fill="#000000" fill-rule="evenodd" fill-opacity="1" /><path clip-path="url(#clip340)" d="M 0 0 M1414.09 35.9153 Q1416.88 30.8922 1420.77 28.5022 Q1424.66 26.1121 1429.93 26.1121 Q1437.02 26.1121 1440.87 31.0947 Q1444.71 36.0368 1444.71 45.1919 L1444.71 72.576 L1437.22 72.576 L1437.22 45.4349 Q1437.22 38.913 1434.91 35.7533 Q1432.6 32.5936 1427.86 32.5936 Q1422.07 32.5936 1418.71 36.4419 Q1415.35 40.2903 1415.35 46.9338 L1415.35 72.576 L1407.85 72.576 L1407.85 45.4349 Q1407.85 38.8725 1405.54 35.7533 Q1403.23 32.5936 1398.41 32.5936 Q1392.7 32.5936 1389.34 36.4824 Q1385.98 40.3308 1385.98 46.9338 L1385.98 72.576 L1378.48 72.576 L1378.48 27.2059 L1385.98 27.2059 L1385.98 34.2544 Q1388.53 30.082 1392.09 28.0971 Q1395.66 26.1121 1400.56 26.1121 Q1405.5 26.1121 1408.94 28.6237 Q1412.43 31.1352 1414.09 35.9153 Z" fill="#000000" fill-rule="evenodd" fill-opacity="1" /><path clip-path="url(#clip340)" d="M 0 0 M1477.16 32.4315 Q1471.17 32.4315 1467.68 37.1306 Q1464.2 41.7891 1464.2 49.9314 Q1464.2 58.0738 1467.64 62.7728 Q1471.13 67.4314 1477.16 67.4314 Q1483.12 67.4314 1486.6 62.7323 Q1490.08 58.0333 1490.08 49.9314 Q1490.08 41.8701 1486.6 37.1711 Q1483.12 32.4315 1477.16 32.4315 M1477.16 26.1121 Q1486.88 26.1121 1492.43 32.4315 Q1497.98 38.7509 1497.98 49.9314 Q1497.98 61.0714 1492.43 67.4314 Q1486.88 73.7508 1477.16 73.7508 Q1467.4 73.7508 1461.85 67.4314 Q1456.34 61.0714 1456.34 49.9314 Q1456.34 38.7509 1461.85 32.4315 Q1467.4 26.1121 1477.16 26.1121 Z" fill="#000000" fill-rule="evenodd" fill-opacity="1" /><path clip-path="url(#clip340)" d="M 0 0 M1540.19 34.0924 L1540.19 9.54393 L1547.65 9.54393 L1547.65 72.576 L1540.19 72.576 L1540.19 65.7705 Q1537.84 69.8214 1534.24 71.8063 Q1530.67 73.7508 1525.65 73.7508 Q1517.43 73.7508 1512.24 67.1883 Q1507.1 60.6258 1507.1 49.9314 Q1507.1 39.2371 1512.24 32.6746 Q1517.43 26.1121 1525.65 26.1121 Q1530.67 26.1121 1534.24 28.0971 Q1537.84 30.0415 1540.19 34.0924 M1514.8 49.9314 Q1514.8 58.1548 1518.16 62.8538 Q1521.56 67.5124 1527.47 67.5124 Q1533.39 67.5124 1536.79 62.8538 Q1540.19 58.1548 1540.19 49.9314 Q1540.19 41.7081 1536.79 37.0496 Q1533.39 32.3505 1527.47 32.3505 Q1521.56 32.3505 1518.16 37.0496 Q1514.8 41.7081 1514.8 49.9314 Z" fill="#000000" fill-rule="evenodd" fill-opacity="1" /><path clip-path="url(#clip340)" d="M 0 0 M1581.88 76.7889 Q1578.72 84.8907 1575.72 87.3618 Q1572.72 89.8329 1567.7 89.8329 L1561.75 89.8329 L1561.75 83.5945 L1566.12 83.5945 Q1569.2 83.5945 1570.9 82.1361 Q1572.6 80.6778 1574.67 75.2496 L1576 71.8468 L1557.65 27.2059 L1565.55 27.2059 L1579.73 62.6918 L1593.91 27.2059 L1601.81 27.2059 L1581.88 76.7889 Z" fill="#000000" fill-rule="evenodd" fill-opacity="1" /><path clip-path="url(#clip340)" d="M 0 0 M1649.81 45.1919 L1649.81 72.576 L1642.36 72.576 L1642.36 45.4349 Q1642.36 38.994 1639.85 35.7938 Q1637.33 32.5936 1632.31 32.5936 Q1626.28 32.5936 1622.79 36.4419 Q1619.31 40.2903 1619.31 46.9338 L1619.31 72.576 L1611.81 72.576 L1611.81 27.2059 L1619.31 27.2059 L1619.31 34.2544 Q1621.98 30.163 1625.59 28.1376 Q1629.23 26.1121 1633.97 26.1121 Q1641.79 26.1121 1645.8 30.9732 Q1649.81 35.7938 1649.81 45.1919 Z" fill="#000000" fill-rule="evenodd" fill-opacity="1" /><path clip-path="url(#clip340)" d="M 0 0 M1685.3 49.7694 Q1676.26 49.7694 1672.78 51.8354 Q1669.3 53.9013 1669.3 58.8839 Q1669.3 62.8538 1671.89 65.2034 Q1674.52 67.5124 1679.02 67.5124 Q1685.22 67.5124 1688.94 63.1374 Q1692.71 58.7219 1692.71 51.4303 L1692.71 49.7694 L1685.3 49.7694 M1700.16 46.6907 L1700.16 72.576 L1692.71 72.576 L1692.71 65.6895 Q1690.16 69.8214 1686.35 71.8063 Q1682.54 73.7508 1677.03 73.7508 Q1670.07 73.7508 1665.93 69.8619 Q1661.84 65.9325 1661.84 59.3701 Q1661.84 51.7138 1666.95 47.825 Q1672.09 43.9361 1682.26 43.9361 L1692.71 43.9361 L1692.71 43.2069 Q1692.71 38.0623 1689.31 35.2672 Q1685.95 32.4315 1679.83 32.4315 Q1675.94 32.4315 1672.25 33.3632 Q1668.57 34.295 1665.16 36.1584 L1665.16 29.2718 Q1669.26 27.692 1673.1 26.9223 Q1676.95 26.1121 1680.6 26.1121 Q1690.44 26.1121 1695.3 31.2163 Q1700.16 36.3204 1700.16 46.6907 Z" fill="#000000" fill-rule="evenodd" fill-opacity="1" /><path clip-path="url(#clip340)" d="M 0 0 M1750.84 35.9153 Q1753.64 30.8922 1757.53 28.5022 Q1761.41 26.1121 1766.68 26.1121 Q1773.77 26.1121 1777.62 31.0947 Q1781.47 36.0368 1781.47 45.1919 L1781.47 72.576 L1773.97 72.576 L1773.97 45.4349 Q1773.97 38.913 1771.66 35.7533 Q1769.35 32.5936 1764.61 32.5936 Q1758.82 32.5936 1755.46 36.4419 Q1752.1 40.2903 1752.1 46.9338 L1752.1 72.576 L1744.6 72.576 L1744.6 45.4349 Q1744.6 38.8725 1742.29 35.7533 Q1739.98 32.5936 1735.16 32.5936 Q1729.45 32.5936 1726.09 36.4824 Q1722.73 40.3308 1722.73 46.9338 L1722.73 72.576 L1715.23 72.576 L1715.23 27.2059 L1722.73 27.2059 L1722.73 34.2544 Q1725.28 30.082 1728.84 28.0971 Q1732.41 26.1121 1737.31 26.1121 Q1742.25 26.1121 1745.7 28.6237 Q1749.18 31.1352 1750.84 35.9153 Z" fill="#000000" fill-rule="evenodd" fill-opacity="1" /><path clip-path="url(#clip340)" d="M 0 0 M1796.33 27.2059 L1803.79 27.2059 L1803.79 72.576 L1796.33 72.576 L1796.33 27.2059 M1796.33 9.54393 L1803.79 9.54393 L1803.79 18.9825 L1796.33 18.9825 L1796.33 9.54393 Z" fill="#000000" fill-rule="evenodd" fill-opacity="1" /><path clip-path="url(#clip340)" d="M 0 0 M1852.03 28.9478 L1852.03 35.9153 Q1848.87 34.1734 1845.67 33.3227 Q1842.51 32.4315 1839.27 32.4315 Q1832.02 32.4315 1828.01 37.0496 Q1824 41.6271 1824 49.9314 Q1824 58.2358 1828.01 62.8538 Q1832.02 67.4314 1839.27 67.4314 Q1842.51 67.4314 1845.67 66.5807 Q1848.87 65.6895 1852.03 63.9476 L1852.03 70.8341 Q1848.91 72.2924 1845.55 73.0216 Q1842.23 73.7508 1838.46 73.7508 Q1828.21 73.7508 1822.18 67.3098 Q1816.14 60.8689 1816.14 49.9314 Q1816.14 38.832 1822.22 32.472 Q1828.34 26.1121 1838.95 26.1121 Q1842.39 26.1121 1845.67 26.8413 Q1848.95 27.5299 1852.03 28.9478 Z" fill="#000000" fill-rule="evenodd" fill-opacity="1" /><path clip-path="url(#clip340)" d="M 0 0 M1898.58 65.7705 L1898.58 89.8329 L1891.08 89.8329 L1891.08 27.2059 L1898.58 27.2059 L1898.58 34.0924 Q1900.93 30.0415 1904.49 28.0971 Q1908.1 26.1121 1913.08 26.1121 Q1921.34 26.1121 1926.49 32.6746 Q1931.67 39.2371 1931.67 49.9314 Q1931.67 60.6258 1926.49 67.1883 Q1921.34 73.7508 1913.08 73.7508 Q1908.1 73.7508 1904.49 71.8063 Q1900.93 69.8214 1898.58 65.7705 M1923.94 49.9314 Q1923.94 41.7081 1920.53 37.0496 Q1917.17 32.3505 1911.26 32.3505 Q1905.34 32.3505 1901.94 37.0496 Q1898.58 41.7081 1898.58 49.9314 Q1898.58 58.1548 1901.94 62.8538 Q1905.34 67.5124 1911.26 67.5124 Q1917.17 67.5124 1920.53 62.8538 Q1923.94 58.1548 1923.94 49.9314 Z" fill="#000000" fill-rule="evenodd" fill-opacity="1" /><path clip-path="url(#clip340)" d="M 0 0 M1981.74 45.1919 L1981.74 72.576 L1974.29 72.576 L1974.29 45.4349 Q1974.29 38.994 1971.78 35.7938 Q1969.27 32.5936 1964.24 32.5936 Q1958.21 32.5936 1954.72 36.4419 Q1951.24 40.2903 1951.24 46.9338 L1951.24 72.576 L1943.75 72.576 L1943.75 9.54393 L1951.24 9.54393 L1951.24 34.2544 Q1953.91 30.163 1957.52 28.1376 Q1961.16 26.1121 1965.9 26.1121 Q1973.72 26.1121 1977.73 30.9732 Q1981.74 35.7938 1981.74 45.1919 Z" fill="#000000" fill-rule="evenodd" fill-opacity="1" /><path clip-path="url(#clip340)" d="M 0 0 M2017.23 49.7694 Q2008.2 49.7694 2004.71 51.8354 Q2001.23 53.9013 2001.23 58.8839 Q2001.23 62.8538 2003.82 65.2034 Q2006.45 67.5124 2010.95 67.5124 Q2017.15 67.5124 2020.87 63.1374 Q2024.64 58.7219 2024.64 51.4303 L2024.64 49.7694 L2017.23 49.7694 M2032.1 46.6907 L2032.1 72.576 L2024.64 72.576 L2024.64 65.6895 Q2022.09 69.8214 2018.28 71.8063 Q2014.47 73.7508 2008.96 73.7508 Q2002 73.7508 1997.87 69.8619 Q1993.77 65.9325 1993.77 59.3701 Q1993.77 51.7138 1998.88 47.825 Q2004.02 43.9361 2014.19 43.9361 L2024.64 43.9361 L2024.64 43.2069 Q2024.64 38.0623 2021.24 35.2672 Q2017.88 32.4315 2011.76 32.4315 Q2007.87 32.4315 2004.18 33.3632 Q2000.5 34.295 1997.1 36.1584 L1997.1 29.2718 Q2001.19 27.692 2005.04 26.9223 Q2008.88 26.1121 2012.53 26.1121 Q2022.37 26.1121 2027.23 31.2163 Q2032.1 36.3204 2032.1 46.6907 Z" fill="#000000" fill-rule="evenodd" fill-opacity="1" /><path clip-path="url(#clip340)" d="M 0 0 M2076.37 28.5427 L2076.37 35.5912 Q2073.21 33.9709 2069.81 33.1607 Q2066.41 32.3505 2062.76 32.3505 Q2057.21 32.3505 2054.42 34.0519 Q2051.66 35.7533 2051.66 39.156 Q2051.66 41.7486 2053.65 43.2475 Q2055.63 44.7058 2061.63 46.0426 L2064.18 46.6097 Q2072.12 48.3111 2075.44 51.4303 Q2078.8 54.509 2078.8 60.0587 Q2078.8 66.3781 2073.78 70.0644 Q2068.8 73.7508 2060.05 73.7508 Q2056.4 73.7508 2052.43 73.0216 Q2048.5 72.3329 2044.13 70.9151 L2044.13 63.2184 Q2048.26 65.3654 2052.27 66.4591 Q2056.28 67.5124 2060.21 67.5124 Q2065.48 67.5124 2068.31 65.73 Q2071.15 63.9071 2071.15 60.6258 Q2071.15 57.5877 2069.08 55.9673 Q2067.05 54.3469 2060.13 52.8481 L2057.54 52.2405 Q2050.61 50.7821 2047.53 47.7845 Q2044.45 44.7463 2044.45 39.4801 Q2044.45 33.0797 2048.99 29.5959 Q2053.52 26.1121 2061.87 26.1121 Q2066 26.1121 2069.65 26.7198 Q2073.29 27.3274 2076.37 28.5427 Z" fill="#000000" fill-rule="evenodd" fill-opacity="1" /><path clip-path="url(#clip340)" d="M 0 0 M2129.48 48.0275 L2129.48 51.6733 L2095.21 51.6733 Q2095.69 59.3701 2099.83 63.421 Q2104 67.4314 2111.41 67.4314 Q2115.71 67.4314 2119.72 66.3781 Q2123.77 65.3249 2127.74 63.2184 L2127.74 70.267 Q2123.73 71.9684 2119.51 72.8596 Q2115.3 73.7508 2110.97 73.7508 Q2100.11 73.7508 2093.75 67.4314 Q2087.43 61.1119 2087.43 50.3365 Q2087.43 39.1965 2093.43 32.6746 Q2099.46 26.1121 2109.67 26.1121 Q2118.83 26.1121 2124.13 32.0264 Q2129.48 37.9003 2129.48 48.0275 M2122.03 45.84 Q2121.94 39.7232 2118.58 36.0774 Q2115.26 32.4315 2109.75 32.4315 Q2103.51 32.4315 2099.75 35.9558 Q2096.02 39.4801 2095.45 45.8805 L2122.03 45.84 Z" fill="#000000" fill-rule="evenodd" fill-opacity="1" /><circle clip-path="url(#clip342)" cx="2289.08" cy="103.811" r="14" fill="#009af9" fill-rule="evenodd" fill-opacity="1" stroke="#000000" stroke-opacity="1" stroke-width="3.2"/>
<circle clip-path="url(#clip342)" cx="472.858" cy="1124.28" r="14" fill="#009af9" fill-rule="evenodd" fill-opacity="1" stroke="#000000" stroke-opacity="1" stroke-width="3.2"/>
<circle clip-path="url(#clip342)" cx="1518.61" cy="443.969" r="14" fill="#009af9" fill-rule="evenodd" fill-opacity="1" stroke="#000000" stroke-opacity="1" stroke-width="3.2"/>
<circle clip-path="url(#clip342)" cx="166.42" cy="1464.44" r="14" fill="#009af9" fill-rule="evenodd" fill-opacity="1" stroke="#000000" stroke-opacity="1" stroke-width="3.2"/>
<circle clip-path="url(#clip342)" cx="918.133" cy="784.126" r="14" fill="#009af9" fill-rule="evenodd" fill-opacity="1" stroke="#000000" stroke-opacity="1" stroke-width="3.2"/>
<circle clip-path="url(#clip342)" cx="2289.08" cy="103.811" r="14" fill="#009af9" fill-rule="evenodd" fill-opacity="1" stroke="#000000" stroke-opacity="1" stroke-width="3.2"/>
<circle clip-path="url(#clip342)" cx="472.858" cy="1124.28" r="14" fill="#009af9" fill-rule="evenodd" fill-opacity="1" stroke="#000000" stroke-opacity="1" stroke-width="3.2"/>
<circle clip-path="url(#clip342)" cx="1518.61" cy="443.969" r="14" fill="#009af9" fill-rule="evenodd" fill-opacity="1" stroke="#000000" stroke-opacity="1" stroke-width="3.2"/>
<circle clip-path="url(#clip342)" cx="166.42" cy="1464.44" r="14" fill="#009af9" fill-rule="evenodd" fill-opacity="1" stroke="#000000" stroke-opacity="1" stroke-width="3.2"/>
<circle clip-path="url(#clip342)" cx="918.133" cy="784.126" r="14" fill="#009af9" fill-rule="evenodd" fill-opacity="1" stroke="#000000" stroke-opacity="1" stroke-width="3.2"/>
<circle clip-path="url(#clip342)" cx="2289.08" cy="103.811" r="14" fill="#009af9" fill-rule="evenodd" fill-opacity="1" stroke="#000000" stroke-opacity="1" stroke-width="3.2"/>
<circle clip-path="url(#clip342)" cx="472.858" cy="1124.28" r="14" fill="#009af9" fill-rule="evenodd" fill-opacity="1" stroke="#000000" stroke-opacity="1" stroke-width="3.2"/>
<circle clip-path="url(#clip342)" cx="1518.61" cy="443.969" r="14" fill="#009af9" fill-rule="evenodd" fill-opacity="1" stroke="#000000" stroke-opacity="1" stroke-width="3.2"/>
<circle clip-path="url(#clip342)" cx="166.42" cy="1464.44" r="14" fill="#009af9" fill-rule="evenodd" fill-opacity="1" stroke="#000000" stroke-opacity="1" stroke-width="3.2"/>
<circle clip-path="url(#clip342)" cx="918.133" cy="784.126" r="14" fill="#009af9" fill-rule="evenodd" fill-opacity="1" stroke="#000000" stroke-opacity="1" stroke-width="3.2"/>
<circle clip-path="url(#clip342)" cx="2289.08" cy="103.811" r="14" fill="#009af9" fill-rule="evenodd" fill-opacity="1" stroke="#000000" stroke-opacity="1" stroke-width="3.2"/>
<circle clip-path="url(#clip342)" cx="472.858" cy="1124.28" r="14" fill="#009af9" fill-rule="evenodd" fill-opacity="1" stroke="#000000" stroke-opacity="1" stroke-width="3.2"/>
<circle clip-path="url(#clip342)" cx="1518.61" cy="443.969" r="14" fill="#009af9" fill-rule="evenodd" fill-opacity="1" stroke="#000000" stroke-opacity="1" stroke-width="3.2"/>
<circle clip-path="url(#clip342)" cx="166.42" cy="1464.44" r="14" fill="#009af9" fill-rule="evenodd" fill-opacity="1" stroke="#000000" stroke-opacity="1" stroke-width="3.2"/>
<circle clip-path="url(#clip342)" cx="918.133" cy="784.126" r="14" fill="#009af9" fill-rule="evenodd" fill-opacity="1" stroke="#000000" stroke-opacity="1" stroke-width="3.2"/>
<circle clip-path="url(#clip342)" cx="2289.08" cy="103.811" r="14" fill="#009af9" fill-rule="evenodd" fill-opacity="1" stroke="#000000" stroke-opacity="1" stroke-width="3.2"/>
<circle clip-path="url(#clip342)" cx="472.858" cy="1124.28" r="14" fill="#009af9" fill-rule="evenodd" fill-opacity="1" stroke="#000000" stroke-opacity="1" stroke-width="3.2"/>
<circle clip-path="url(#clip342)" cx="1518.61" cy="443.969" r="14" fill="#009af9" fill-rule="evenodd" fill-opacity="1" stroke="#000000" stroke-opacity="1" stroke-width="3.2"/>
<circle clip-path="url(#clip342)" cx="166.42" cy="1464.44" r="14" fill="#009af9" fill-rule="evenodd" fill-opacity="1" stroke="#000000" stroke-opacity="1" stroke-width="3.2"/>
<circle clip-path="url(#clip342)" cx="918.133" cy="784.126" r="14" fill="#009af9" fill-rule="evenodd" fill-opacity="1" stroke="#000000" stroke-opacity="1" stroke-width="3.2"/>
<circle clip-path="url(#clip342)" cx="2289.08" cy="103.811" r="14" fill="#009af9" fill-rule="evenodd" fill-opacity="1" stroke="#000000" stroke-opacity="1" stroke-width="3.2"/>
<circle clip-path="url(#clip342)" cx="472.858" cy="1124.28" r="14" fill="#009af9" fill-rule="evenodd" fill-opacity="1" stroke="#000000" stroke-opacity="1" stroke-width="3.2"/>
<circle clip-path="url(#clip342)" cx="1518.61" cy="443.969" r="14" fill="#009af9" fill-rule="evenodd" fill-opacity="1" stroke="#000000" stroke-opacity="1" stroke-width="3.2"/>
<circle clip-path="url(#clip342)" cx="166.42" cy="1464.44" r="14" fill="#009af9" fill-rule="evenodd" fill-opacity="1" stroke="#000000" stroke-opacity="1" stroke-width="3.2"/>
<circle clip-path="url(#clip342)" cx="918.133" cy="784.126" r="14" fill="#009af9" fill-rule="evenodd" fill-opacity="1" stroke="#000000" stroke-opacity="1" stroke-width="3.2"/>
<circle clip-path="url(#clip342)" cx="2289.08" cy="103.811" r="14" fill="#009af9" fill-rule="evenodd" fill-opacity="1" stroke="#000000" stroke-opacity="1" stroke-width="3.2"/>
<circle clip-path="url(#clip342)" cx="472.858" cy="1124.28" r="14" fill="#009af9" fill-rule="evenodd" fill-opacity="1" stroke="#000000" stroke-opacity="1" stroke-width="3.2"/>
<circle clip-path="url(#clip342)" cx="1518.61" cy="443.969" r="14" fill="#009af9" fill-rule="evenodd" fill-opacity="1" stroke="#000000" stroke-opacity="1" stroke-width="3.2"/>
<circle clip-path="url(#clip342)" cx="166.42" cy="1464.44" r="14" fill="#009af9" fill-rule="evenodd" fill-opacity="1" stroke="#000000" stroke-opacity="1" stroke-width="3.2"/>
<circle clip-path="url(#clip342)" cx="918.133" cy="784.126" r="14" fill="#009af9" fill-rule="evenodd" fill-opacity="1" stroke="#000000" stroke-opacity="1" stroke-width="3.2"/>
<circle clip-path="url(#clip342)" cx="2289.08" cy="103.811" r="14" fill="#009af9" fill-rule="evenodd" fill-opacity="1" stroke="#000000" stroke-opacity="1" stroke-width="3.2"/>
<circle clip-path="url(#clip342)" cx="472.858" cy="1124.28" r="14" fill="#009af9" fill-rule="evenodd" fill-opacity="1" stroke="#000000" stroke-opacity="1" stroke-width="3.2"/>
<circle clip-path="url(#clip342)" cx="1518.61" cy="443.969" r="14" fill="#009af9" fill-rule="evenodd" fill-opacity="1" stroke="#000000" stroke-opacity="1" stroke-width="3.2"/>
<circle clip-path="url(#clip342)" cx="166.42" cy="1464.44" r="14" fill="#009af9" fill-rule="evenodd" fill-opacity="1" stroke="#000000" stroke-opacity="1" stroke-width="3.2"/>
<circle clip-path="url(#clip342)" cx="918.133" cy="784.126" r="14" fill="#009af9" fill-rule="evenodd" fill-opacity="1" stroke="#000000" stroke-opacity="1" stroke-width="3.2"/>
<circle clip-path="url(#clip342)" cx="2289.08" cy="103.811" r="14" fill="#009af9" fill-rule="evenodd" fill-opacity="1" stroke="#000000" stroke-opacity="1" stroke-width="3.2"/>
<circle clip-path="url(#clip342)" cx="472.858" cy="1124.28" r="14" fill="#009af9" fill-rule="evenodd" fill-opacity="1" stroke="#000000" stroke-opacity="1" stroke-width="3.2"/>
<circle clip-path="url(#clip342)" cx="1518.61" cy="443.969" r="14" fill="#009af9" fill-rule="evenodd" fill-opacity="1" stroke="#000000" stroke-opacity="1" stroke-width="3.2"/>
<circle clip-path="url(#clip342)" cx="166.42" cy="1464.44" r="14" fill="#009af9" fill-rule="evenodd" fill-opacity="1" stroke="#000000" stroke-opacity="1" stroke-width="3.2"/>
<circle clip-path="url(#clip342)" cx="918.133" cy="784.126" r="14" fill="#009af9" fill-rule="evenodd" fill-opacity="1" stroke="#000000" stroke-opacity="1" stroke-width="3.2"/>
<circle clip-path="url(#clip342)" cx="2289.08" cy="103.811" r="14" fill="#009af9" fill-rule="evenodd" fill-opacity="1" stroke="#000000" stroke-opacity="1" stroke-width="3.2"/>
<circle clip-path="url(#clip342)" cx="472.858" cy="1124.28" r="14" fill="#009af9" fill-rule="evenodd" fill-opacity="1" stroke="#000000" stroke-opacity="1" stroke-width="3.2"/>
<circle clip-path="url(#clip342)" cx="1518.61" cy="443.969" r="14" fill="#009af9" fill-rule="evenodd" fill-opacity="1" stroke="#000000" stroke-opacity="1" stroke-width="3.2"/>
<circle clip-path="url(#clip342)" cx="166.42" cy="1464.44" r="14" fill="#009af9" fill-rule="evenodd" fill-opacity="1" stroke="#000000" stroke-opacity="1" stroke-width="3.2"/>
<circle clip-path="url(#clip342)" cx="918.133" cy="784.126" r="14" fill="#009af9" fill-rule="evenodd" fill-opacity="1" stroke="#000000" stroke-opacity="1" stroke-width="3.2"/>
</svg>
