<?xml version="1.0" encoding="utf-8"?>
<svg xmlns="http://www.w3.org/2000/svg" xmlns:xlink="http://www.w3.org/1999/xlink" width="600" height="400" viewBox="0 0 2400 1600">
<defs>
  <clipPath id="clip200">
    <rect x="0" y="0" width="2400" height="1600"/>
  </clipPath>
</defs>
<path clip-path="url(#clip200)" d="
M0 1600 L2400 1600 L2400 0 L0 0  Z
  " fill="#ffffff" fill-rule="evenodd" fill-opacity="1"/>
<defs>
  <clipPath id="clip201">
    <rect x="480" y="0" width="1681" height="1600"/>
  </clipPath>
</defs>
<path clip-path="url(#clip200)" d="
M102.74 1505.26 L1152.76 1505.26 L1152.76 62.9921 L102.74 62.9921  Z
  " fill="#ffffff" fill-rule="evenodd" fill-opacity="1"/>
<defs>
  <clipPath id="clip202">
    <rect x="102" y="62" width="1051" height="1443"/>
  </clipPath>
</defs>
<polyline clip-path="url(#clip202)" style="stroke:#000000; stroke-width:2; stroke-opacity:0.1; fill:none" points="
  126.978,1505.26 126.978,62.9921 
  "/>
<polyline clip-path="url(#clip202)" style="stroke:#000000; stroke-width:2; stroke-opacity:0.1; fill:none" points="
  411.567,1505.26 411.567,62.9921 
  "/>
<polyline clip-path="url(#clip202)" style="stroke:#000000; stroke-width:2; stroke-opacity:0.1; fill:none" points="
  696.156,1505.26 696.156,62.9921 
  "/>
<polyline clip-path="url(#clip202)" style="stroke:#000000; stroke-width:2; stroke-opacity:0.1; fill:none" points="
  980.744,1505.26 980.744,62.9921 
  "/>
<polyline clip-path="url(#clip200)" style="stroke:#000000; stroke-width:4; stroke-opacity:1; fill:none" points="
  102.74,1505.26 1152.76,1505.26 
  "/>
<polyline clip-path="url(#clip200)" style="stroke:#000000; stroke-width:4; stroke-opacity:1; fill:none" points="
  126.978,1505.26 126.978,1487.95 
  "/>
<polyline clip-path="url(#clip200)" style="stroke:#000000; stroke-width:4; stroke-opacity:1; fill:none" points="
  411.567,1505.26 411.567,1487.95 
  "/>
<polyline clip-path="url(#clip200)" style="stroke:#000000; stroke-width:4; stroke-opacity:1; fill:none" points="
  696.156,1505.26 696.156,1487.95 
  "/>
<polyline clip-path="url(#clip200)" style="stroke:#000000; stroke-width:4; stroke-opacity:1; fill:none" points="
  980.744,1505.26 980.744,1487.95 
  "/>
<path clip-path="url(#clip200)" d="M 0 0 M90.6708 1562 L106.99 1562 L106.99 1565.93 L85.0458 1565.93 L85.0458 1562 Q87.7079 1559.24 92.2912 1554.61 Q96.8976 1549.96 98.0782 1548.62 Q100.324 1546.09 101.203 1544.36 Q102.106 1542.6 102.106 1540.91 Q102.106 1538.15 100.161 1536.42 Q98.2402 1534.68 95.1384 1534.68 Q92.9393 1534.68 90.4856 1535.45 Q88.0551 1536.21 85.2773 1537.76 L85.2773 1533.04 Q88.1014 1531.9 90.5551 1531.33 Q93.0088 1530.75 95.0458 1530.75 Q100.416 1530.75 103.611 1533.43 Q106.805 1536.12 106.805 1540.61 Q106.805 1542.74 105.995 1544.66 Q105.208 1546.56 103.101 1549.15 Q102.523 1549.82 99.4208 1553.04 Q96.3189 1556.23 90.6708 1562 Z" fill="#000000" fill-rule="evenodd" fill-opacity="1" /><path clip-path="url(#clip200)" d="M 0 0 M120.833 1562 L137.152 1562 L137.152 1565.93 L115.208 1565.93 L115.208 1562 Q117.87 1559.24 122.453 1554.61 Q127.059 1549.96 128.24 1548.62 Q130.485 1546.09 131.365 1544.36 Q132.268 1542.6 132.268 1540.91 Q132.268 1538.15 130.323 1536.42 Q128.402 1534.68 125.3 1534.68 Q123.101 1534.68 120.647 1535.45 Q118.217 1536.21 115.439 1537.76 L115.439 1533.04 Q118.263 1531.9 120.717 1531.33 Q123.171 1530.75 125.208 1530.75 Q130.578 1530.75 133.772 1533.43 Q136.967 1536.12 136.967 1540.61 Q136.967 1542.74 136.157 1544.66 Q135.37 1546.56 133.263 1549.15 Q132.684 1549.82 129.583 1553.04 Q126.481 1556.23 120.833 1562 Z" fill="#000000" fill-rule="evenodd" fill-opacity="1" /><path clip-path="url(#clip200)" d="M 0 0 M156.967 1534.45 Q153.356 1534.45 151.527 1538.02 Q149.721 1541.56 149.721 1548.69 Q149.721 1555.79 151.527 1559.36 Q153.356 1562.9 156.967 1562.9 Q160.601 1562.9 162.407 1559.36 Q164.235 1555.79 164.235 1548.69 Q164.235 1541.56 162.407 1538.02 Q160.601 1534.45 156.967 1534.45 M156.967 1530.75 Q162.777 1530.75 165.832 1535.35 Q168.911 1539.94 168.911 1548.69 Q168.911 1557.41 165.832 1562.02 Q162.777 1566.6 156.967 1566.6 Q151.157 1566.6 148.078 1562.02 Q145.022 1557.41 145.022 1548.69 Q145.022 1539.94 148.078 1535.35 Q151.157 1530.75 156.967 1530.75 Z" fill="#000000" fill-rule="evenodd" fill-opacity="1" /><path clip-path="url(#clip200)" d="M 0 0 M375.259 1562 L391.579 1562 L391.579 1565.93 L369.634 1565.93 L369.634 1562 Q372.296 1559.24 376.88 1554.61 Q381.486 1549.96 382.667 1548.62 Q384.912 1546.09 385.792 1544.36 Q386.694 1542.6 386.694 1540.91 Q386.694 1538.15 384.75 1536.42 Q382.829 1534.68 379.727 1534.68 Q377.528 1534.68 375.074 1535.45 Q372.644 1536.21 369.866 1537.76 L369.866 1533.04 Q372.69 1531.9 375.144 1531.33 Q377.597 1530.75 379.634 1530.75 Q385.005 1530.75 388.199 1533.43 Q391.394 1536.12 391.394 1540.61 Q391.394 1542.74 390.583 1544.66 Q389.796 1546.56 387.69 1549.15 Q387.111 1549.82 384.009 1553.04 Q380.907 1556.23 375.259 1562 Z" fill="#000000" fill-rule="evenodd" fill-opacity="1" /><path clip-path="url(#clip200)" d="M 0 0 M414.241 1535.45 L402.435 1553.89 L414.241 1553.89 L414.241 1535.45 M413.014 1531.37 L418.893 1531.37 L418.893 1553.89 L423.824 1553.89 L423.824 1557.78 L418.893 1557.78 L418.893 1565.93 L414.241 1565.93 L414.241 1557.78 L398.639 1557.78 L398.639 1553.27 L413.014 1531.37 Z" fill="#000000" fill-rule="evenodd" fill-opacity="1" /><path clip-path="url(#clip200)" d="M 0 0 M441.555 1534.45 Q437.944 1534.45 436.116 1538.02 Q434.31 1541.56 434.31 1548.69 Q434.31 1555.79 436.116 1559.36 Q437.944 1562.9 441.555 1562.9 Q445.19 1562.9 446.995 1559.36 Q448.824 1555.79 448.824 1548.69 Q448.824 1541.56 446.995 1538.02 Q445.19 1534.45 441.555 1534.45 M441.555 1530.75 Q447.365 1530.75 450.421 1535.35 Q453.5 1539.94 453.5 1548.69 Q453.5 1557.41 450.421 1562.02 Q447.365 1566.6 441.555 1566.6 Q435.745 1566.6 432.666 1562.02 Q429.611 1557.41 429.611 1548.69 Q429.611 1539.94 432.666 1535.35 Q435.745 1530.75 441.555 1530.75 Z" fill="#000000" fill-rule="evenodd" fill-opacity="1" /><path clip-path="url(#clip200)" d="M 0 0 M659.848 1562 L676.167 1562 L676.167 1565.93 L654.223 1565.93 L654.223 1562 Q656.885 1559.24 661.468 1554.61 Q666.075 1549.96 667.255 1548.62 Q669.501 1546.09 670.38 1544.36 Q671.283 1542.6 671.283 1540.91 Q671.283 1538.15 669.339 1536.42 Q667.417 1534.68 664.316 1534.68 Q662.116 1534.68 659.663 1535.45 Q657.232 1536.21 654.454 1537.76 L654.454 1533.04 Q657.279 1531.9 659.732 1531.33 Q662.186 1530.75 664.223 1530.75 Q669.593 1530.75 672.788 1533.43 Q675.982 1536.12 675.982 1540.61 Q675.982 1542.74 675.172 1544.66 Q674.385 1546.56 672.278 1549.15 Q671.7 1549.82 668.598 1553.04 Q665.496 1556.23 659.848 1562 Z" fill="#000000" fill-rule="evenodd" fill-opacity="1" /><path clip-path="url(#clip200)" d="M 0 0 M696.561 1546.79 Q693.413 1546.79 691.561 1548.94 Q689.732 1551.09 689.732 1554.84 Q689.732 1558.57 691.561 1560.75 Q693.413 1562.9 696.561 1562.9 Q699.709 1562.9 701.538 1560.75 Q703.389 1558.57 703.389 1554.84 Q703.389 1551.09 701.538 1548.94 Q699.709 1546.79 696.561 1546.79 M705.843 1532.14 L705.843 1536.39 Q704.084 1535.56 702.278 1535.12 Q700.496 1534.68 698.737 1534.68 Q694.107 1534.68 691.653 1537.81 Q689.223 1540.93 688.876 1547.25 Q690.241 1545.24 692.301 1544.17 Q694.362 1543.08 696.838 1543.08 Q702.047 1543.08 705.056 1546.26 Q708.088 1549.4 708.088 1554.84 Q708.088 1560.17 704.94 1563.39 Q701.792 1566.6 696.561 1566.6 Q690.565 1566.6 687.394 1562.02 Q684.223 1557.41 684.223 1548.69 Q684.223 1540.49 688.112 1535.63 Q692.001 1530.75 698.551 1530.75 Q700.311 1530.75 702.093 1531.09 Q703.899 1531.44 705.843 1532.14 Z" fill="#000000" fill-rule="evenodd" fill-opacity="1" /><path clip-path="url(#clip200)" d="M 0 0 M726.144 1534.45 Q722.533 1534.45 720.704 1538.02 Q718.899 1541.56 718.899 1548.69 Q718.899 1555.79 720.704 1559.36 Q722.533 1562.9 726.144 1562.9 Q729.778 1562.9 731.584 1559.36 Q733.412 1555.79 733.412 1548.69 Q733.412 1541.56 731.584 1538.02 Q729.778 1534.45 726.144 1534.45 M726.144 1530.75 Q731.954 1530.75 735.01 1535.35 Q738.088 1539.94 738.088 1548.69 Q738.088 1557.41 735.01 1562.02 Q731.954 1566.6 726.144 1566.6 Q720.334 1566.6 717.255 1562.02 Q714.2 1557.41 714.2 1548.69 Q714.2 1539.94 717.255 1535.35 Q720.334 1530.75 726.144 1530.75 Z" fill="#000000" fill-rule="evenodd" fill-opacity="1" /><path clip-path="url(#clip200)" d="M 0 0 M944.437 1562 L960.756 1562 L960.756 1565.93 L938.812 1565.93 L938.812 1562 Q941.474 1559.24 946.057 1554.61 Q950.663 1549.96 951.844 1548.62 Q954.089 1546.09 954.969 1544.36 Q955.872 1542.6 955.872 1540.91 Q955.872 1538.15 953.927 1536.42 Q952.006 1534.68 948.904 1534.68 Q946.705 1534.68 944.251 1535.45 Q941.821 1536.21 939.043 1537.76 L939.043 1533.04 Q941.867 1531.9 944.321 1531.33 Q946.774 1530.75 948.811 1530.75 Q954.182 1530.75 957.376 1533.43 Q960.571 1536.12 960.571 1540.61 Q960.571 1542.74 959.761 1544.66 Q958.973 1546.56 956.867 1549.15 Q956.288 1549.82 953.186 1553.04 Q950.085 1556.23 944.437 1562 Z" fill="#000000" fill-rule="evenodd" fill-opacity="1" /><path clip-path="url(#clip200)" d="M 0 0 M980.571 1549.52 Q977.237 1549.52 975.316 1551.3 Q973.418 1553.08 973.418 1556.21 Q973.418 1559.33 975.316 1561.12 Q977.237 1562.9 980.571 1562.9 Q983.904 1562.9 985.825 1561.12 Q987.746 1559.31 987.746 1556.21 Q987.746 1553.08 985.825 1551.3 Q983.927 1549.52 980.571 1549.52 M975.895 1547.53 Q972.885 1546.79 971.196 1544.73 Q969.529 1542.67 969.529 1539.71 Q969.529 1535.56 972.469 1533.15 Q975.432 1530.75 980.571 1530.75 Q985.733 1530.75 988.672 1533.15 Q991.612 1535.56 991.612 1539.71 Q991.612 1542.67 989.922 1544.73 Q988.256 1546.79 985.27 1547.53 Q988.649 1548.32 990.524 1550.61 Q992.422 1552.9 992.422 1556.21 Q992.422 1561.23 989.344 1563.92 Q986.288 1566.6 980.571 1566.6 Q974.853 1566.6 971.774 1563.92 Q968.719 1561.23 968.719 1556.21 Q968.719 1552.9 970.617 1550.61 Q972.515 1548.32 975.895 1547.53 M974.182 1540.14 Q974.182 1542.83 975.848 1544.33 Q977.538 1545.84 980.571 1545.84 Q983.58 1545.84 985.27 1544.33 Q986.983 1542.83 986.983 1540.14 Q986.983 1537.46 985.27 1535.96 Q983.58 1534.45 980.571 1534.45 Q977.538 1534.45 975.848 1535.96 Q974.182 1537.46 974.182 1540.14 Z" fill="#000000" fill-rule="evenodd" fill-opacity="1" /><path clip-path="url(#clip200)" d="M 0 0 M1010.73 1534.45 Q1007.12 1534.45 1005.29 1538.02 Q1003.49 1541.56 1003.49 1548.69 Q1003.49 1555.79 1005.29 1559.36 Q1007.12 1562.9 1010.73 1562.9 Q1014.37 1562.9 1016.17 1559.36 Q1018 1555.79 1018 1548.69 Q1018 1541.56 1016.17 1538.02 Q1014.37 1534.45 1010.73 1534.45 M1010.73 1530.75 Q1016.54 1530.75 1019.6 1535.35 Q1022.68 1539.94 1022.68 1548.69 Q1022.68 1557.41 1019.6 1562.02 Q1016.54 1566.6 1010.73 1566.6 Q1004.92 1566.6 1001.84 1562.02 Q998.788 1557.41 998.788 1548.69 Q998.788 1539.94 1001.84 1535.35 Q1004.92 1530.75 1010.73 1530.75 Z" fill="#000000" fill-rule="evenodd" fill-opacity="1" /><path clip-path="url(#clip200)" d="M 0 0 M366.834 1602.6 L407.033 1602.6 L407.033 1608.01 L390.164 1608.01 L390.164 1650.12 L383.703 1650.12 L383.703 1608.01 L366.834 1608.01 L366.834 1602.6 Z" fill="#000000" fill-rule="evenodd" fill-opacity="1" /><path clip-path="url(#clip200)" d="M 0 0 M432.4 1630.84 L432.4 1633.7 L405.473 1633.7 Q405.855 1639.75 409.102 1642.93 Q412.38 1646.08 418.205 1646.08 Q421.579 1646.08 424.73 1645.25 Q427.913 1644.43 431.032 1642.77 L431.032 1648.31 Q427.881 1649.65 424.571 1650.35 Q421.26 1651.05 417.855 1651.05 Q409.325 1651.05 404.328 1646.08 Q399.362 1641.12 399.362 1632.65 Q399.362 1623.9 404.073 1618.77 Q408.815 1613.62 416.836 1613.62 Q424.03 1613.62 428.199 1618.26 Q432.4 1622.88 432.4 1630.84 M426.544 1629.12 Q426.48 1624.31 423.839 1621.45 Q421.229 1618.58 416.9 1618.58 Q411.998 1618.58 409.038 1621.35 Q406.11 1624.12 405.664 1629.15 L426.544 1629.12 Z" fill="#000000" fill-rule="evenodd" fill-opacity="1" /><path clip-path="url(#clip200)" d="M 0 0 M469.767 1621.32 Q471.963 1617.37 475.019 1615.49 Q478.074 1613.62 482.212 1613.62 Q487.782 1613.62 490.806 1617.53 Q493.829 1621.41 493.829 1628.61 L493.829 1650.12 L487.941 1650.12 L487.941 1628.8 Q487.941 1623.67 486.127 1621.19 Q484.313 1618.71 480.589 1618.71 Q476.037 1618.71 473.396 1621.73 Q470.754 1624.76 470.754 1629.98 L470.754 1650.12 L464.866 1650.12 L464.866 1628.8 Q464.866 1623.64 463.051 1621.19 Q461.237 1618.71 457.449 1618.71 Q452.962 1618.71 450.32 1621.76 Q447.678 1624.79 447.678 1629.98 L447.678 1650.12 L441.79 1650.12 L441.79 1614.48 L447.678 1614.48 L447.678 1620.01 Q449.683 1616.74 452.484 1615.18 Q455.285 1613.62 459.136 1613.62 Q463.019 1613.62 465.725 1615.59 Q468.462 1617.56 469.767 1621.32 Z" fill="#000000" fill-rule="evenodd" fill-opacity="1" /><path clip-path="url(#clip200)" d="M 0 0 M511.176 1644.78 L511.176 1663.68 L505.288 1663.68 L505.288 1614.48 L511.176 1614.48 L511.176 1619.89 Q513.022 1616.7 515.823 1615.18 Q518.656 1613.62 522.571 1613.62 Q529.064 1613.62 533.106 1618.77 Q537.18 1623.93 537.18 1632.33 Q537.18 1640.73 533.106 1645.89 Q529.064 1651.05 522.571 1651.05 Q518.656 1651.05 515.823 1649.52 Q513.022 1647.96 511.176 1644.78 M531.101 1632.33 Q531.101 1625.87 528.427 1622.21 Q525.785 1618.52 521.138 1618.52 Q516.491 1618.52 513.818 1622.21 Q511.176 1625.87 511.176 1632.33 Q511.176 1638.79 513.818 1642.48 Q516.491 1646.15 521.138 1646.15 Q525.785 1646.15 528.427 1642.48 Q531.101 1638.79 531.101 1632.33 Z" fill="#000000" fill-rule="evenodd" fill-opacity="1" /><path clip-path="url(#clip200)" d="M 0 0 M577.379 1630.84 L577.379 1633.7 L550.452 1633.7 Q550.834 1639.75 554.081 1642.93 Q557.359 1646.08 563.184 1646.08 Q566.558 1646.08 569.709 1645.25 Q572.892 1644.43 576.011 1642.77 L576.011 1648.31 Q572.86 1649.65 569.55 1650.35 Q566.239 1651.05 562.834 1651.05 Q554.304 1651.05 549.307 1646.08 Q544.341 1641.12 544.341 1632.65 Q544.341 1623.9 549.052 1618.77 Q553.794 1613.62 561.815 1613.62 Q569.008 1613.62 573.178 1618.26 Q577.379 1622.88 577.379 1630.84 M571.523 1629.12 Q571.459 1624.31 568.818 1621.45 Q566.208 1618.58 561.879 1618.58 Q556.977 1618.58 554.017 1621.35 Q551.089 1624.12 550.643 1629.15 L571.523 1629.12 Z" fill="#000000" fill-rule="evenodd" fill-opacity="1" /><path clip-path="url(#clip200)" d="M 0 0 M607.648 1619.95 Q606.662 1619.38 605.484 1619.12 Q604.338 1618.84 602.938 1618.84 Q597.972 1618.84 595.299 1622.08 Q592.657 1625.3 592.657 1631.35 L592.657 1650.12 L586.769 1650.12 L586.769 1614.48 L592.657 1614.48 L592.657 1620.01 Q594.503 1616.77 597.463 1615.21 Q600.423 1613.62 604.656 1613.62 Q605.261 1613.62 605.993 1613.71 Q606.725 1613.78 607.616 1613.93 L607.648 1619.95 Z" fill="#000000" fill-rule="evenodd" fill-opacity="1" /><path clip-path="url(#clip200)" d="M 0 0 M629.992 1632.2 Q622.894 1632.2 620.157 1633.83 Q617.42 1635.45 617.42 1639.37 Q617.42 1642.48 619.457 1644.33 Q621.526 1646.15 625.059 1646.15 Q629.928 1646.15 632.857 1642.71 Q635.817 1639.24 635.817 1633.51 L635.817 1632.2 L629.992 1632.2 M641.673 1629.79 L641.673 1650.12 L635.817 1650.12 L635.817 1644.71 Q633.811 1647.96 630.819 1649.52 Q627.828 1651.05 623.499 1651.05 Q618.024 1651.05 614.778 1647.99 Q611.563 1644.9 611.563 1639.75 Q611.563 1633.73 615.574 1630.68 Q619.616 1627.62 627.605 1627.62 L635.817 1627.62 L635.817 1627.05 Q635.817 1623.01 633.143 1620.81 Q630.501 1618.58 625.695 1618.58 Q622.64 1618.58 619.743 1619.31 Q616.847 1620.05 614.173 1621.51 L614.173 1616.1 Q617.388 1614.86 620.412 1614.25 Q623.435 1613.62 626.3 1613.62 Q634.034 1613.62 637.854 1617.63 Q641.673 1621.64 641.673 1629.79 Z" fill="#000000" fill-rule="evenodd" fill-opacity="1" /><path clip-path="url(#clip200)" d="M 0 0 M659.529 1604.35 L659.529 1614.48 L671.592 1614.48 L671.592 1619.03 L659.529 1619.03 L659.529 1638.38 Q659.529 1642.74 660.706 1643.98 Q661.916 1645.22 665.576 1645.22 L671.592 1645.22 L671.592 1650.12 L665.576 1650.12 Q658.797 1650.12 656.219 1647.61 Q653.641 1645.06 653.641 1638.38 L653.641 1619.03 L649.344 1619.03 L649.344 1614.48 L653.641 1614.48 L653.641 1604.35 L659.529 1604.35 Z" fill="#000000" fill-rule="evenodd" fill-opacity="1" /><path clip-path="url(#clip200)" d="M 0 0 M678.69 1636.06 L678.69 1614.48 L684.546 1614.48 L684.546 1635.83 Q684.546 1640.89 686.519 1643.44 Q688.493 1645.95 692.44 1645.95 Q697.182 1645.95 699.919 1642.93 Q702.688 1639.91 702.688 1634.69 L702.688 1614.48 L708.545 1614.48 L708.545 1650.12 L702.688 1650.12 L702.688 1644.65 Q700.556 1647.9 697.723 1649.49 Q694.922 1651.05 691.198 1651.05 Q685.055 1651.05 681.872 1647.23 Q678.69 1643.41 678.69 1636.06 M693.426 1613.62 L693.426 1613.62 Z" fill="#000000" fill-rule="evenodd" fill-opacity="1" /><path clip-path="url(#clip200)" d="M 0 0 M741.264 1619.95 Q740.278 1619.38 739.1 1619.12 Q737.954 1618.84 736.554 1618.84 Q731.589 1618.84 728.915 1622.08 Q726.273 1625.3 726.273 1631.35 L726.273 1650.12 L720.385 1650.12 L720.385 1614.48 L726.273 1614.48 L726.273 1620.01 Q728.119 1616.77 731.079 1615.21 Q734.039 1613.62 738.273 1613.62 Q738.877 1613.62 739.609 1613.71 Q740.341 1613.78 741.233 1613.93 L741.264 1619.95 Z" fill="#000000" fill-rule="evenodd" fill-opacity="1" /><path clip-path="url(#clip200)" d="M 0 0 M776.467 1630.84 L776.467 1633.7 L749.54 1633.7 Q749.922 1639.75 753.168 1642.93 Q756.447 1646.08 762.271 1646.08 Q765.645 1646.08 768.796 1645.25 Q771.979 1644.43 775.098 1642.77 L775.098 1648.31 Q771.947 1649.65 768.637 1650.35 Q765.327 1651.05 761.921 1651.05 Q753.391 1651.05 748.394 1646.08 Q743.429 1641.12 743.429 1632.65 Q743.429 1623.9 748.139 1618.77 Q752.882 1613.62 760.903 1613.62 Q768.096 1613.62 772.265 1618.26 Q776.467 1622.88 776.467 1630.84 M770.61 1629.12 Q770.547 1624.31 767.905 1621.45 Q765.295 1618.58 760.966 1618.58 Q756.065 1618.58 753.105 1621.35 Q750.176 1624.12 749.731 1629.15 L770.61 1629.12 Z" fill="#000000" fill-rule="evenodd" fill-opacity="1" /><path clip-path="url(#clip200)" d="M 0 0 M806.258 1600.6 L819.754 1600.6 L819.754 1605.15 L812.115 1605.15 L812.115 1654.17 L819.754 1654.17 L819.754 1658.72 L806.258 1658.72 L806.258 1600.6 Z" fill="#000000" fill-rule="evenodd" fill-opacity="1" /><path clip-path="url(#clip200)" d="M 0 0 M832.485 1602.6 L838.914 1602.6 L838.914 1622.69 L860.24 1602.6 L868.515 1602.6 L844.93 1624.76 L870.202 1650.12 L861.735 1650.12 L838.914 1627.24 L838.914 1650.12 L832.485 1650.12 L832.485 1602.6 Z" fill="#000000" fill-rule="evenodd" fill-opacity="1" /><path clip-path="url(#clip200)" d="M 0 0 M888.662 1600.6 L888.662 1658.72 L875.167 1658.72 L875.167 1654.17 L882.774 1654.17 L882.774 1605.15 L875.167 1605.15 L875.167 1600.6 L888.662 1600.6 Z" fill="#000000" fill-rule="evenodd" fill-opacity="1" /><polyline clip-path="url(#clip202)" style="stroke:#000000; stroke-width:2; stroke-opacity:0.1; fill:none" points="
  102.74,1464.44 1152.76,1464.44 
  "/>
<polyline clip-path="url(#clip202)" style="stroke:#000000; stroke-width:2; stroke-opacity:0.1; fill:none" points="
  102.74,1192.31 1152.76,1192.31 
  "/>
<polyline clip-path="url(#clip202)" style="stroke:#000000; stroke-width:2; stroke-opacity:0.1; fill:none" points="
  102.74,920.189 1152.76,920.189 
  "/>
<polyline clip-path="url(#clip202)" style="stroke:#000000; stroke-width:2; stroke-opacity:0.1; fill:none" points="
  102.74,648.063 1152.76,648.063 
  "/>
<polyline clip-path="url(#clip202)" style="stroke:#000000; stroke-width:2; stroke-opacity:0.1; fill:none" points="
  102.74,375.937 1152.76,375.937 
  "/>
<polyline clip-path="url(#clip202)" style="stroke:#000000; stroke-width:2; stroke-opacity:0.1; fill:none" points="
  102.74,103.811 1152.76,103.811 
  "/>
<polyline clip-path="url(#clip200)" style="stroke:#000000; stroke-width:4; stroke-opacity:1; fill:none" points="
  102.74,1505.26 102.74,62.9921 
  "/>
<polyline clip-path="url(#clip200)" style="stroke:#000000; stroke-width:4; stroke-opacity:1; fill:none" points="
  102.74,1464.44 115.34,1464.44 
  "/>
<polyline clip-path="url(#clip200)" style="stroke:#000000; stroke-width:4; stroke-opacity:1; fill:none" points="
  102.74,1192.31 115.34,1192.31 
  "/>
<polyline clip-path="url(#clip200)" style="stroke:#000000; stroke-width:4; stroke-opacity:1; fill:none" points="
  102.74,920.189 115.34,920.189 
  "/>
<polyline clip-path="url(#clip200)" style="stroke:#000000; stroke-width:4; stroke-opacity:1; fill:none" points="
  102.74,648.063 115.34,648.063 
  "/>
<polyline clip-path="url(#clip200)" style="stroke:#000000; stroke-width:4; stroke-opacity:1; fill:none" points="
  102.74,375.937 115.34,375.937 
  "/>
<polyline clip-path="url(#clip200)" style="stroke:#000000; stroke-width:4; stroke-opacity:1; fill:none" points="
  102.74,103.811 115.34,103.811 
  "/>
<path clip-path="url(#clip200)" d="M 0 0 M54.7958 1450.24 Q51.1847 1450.24 49.356 1453.8 Q47.5504 1457.35 47.5504 1464.48 Q47.5504 1471.58 49.356 1475.15 Q51.1847 1478.69 54.7958 1478.69 Q58.43 1478.69 60.2356 1475.15 Q62.0643 1471.58 62.0643 1464.48 Q62.0643 1457.35 60.2356 1453.8 Q58.43 1450.24 54.7958 1450.24 M54.7958 1446.54 Q60.6059 1446.54 63.6615 1451.14 Q66.7402 1455.73 66.7402 1464.48 Q66.7402 1473.2 63.6615 1477.81 Q60.6059 1482.39 54.7958 1482.39 Q48.9856 1482.39 45.9069 1477.81 Q42.8514 1473.2 42.8514 1464.48 Q42.8514 1455.73 45.9069 1451.14 Q48.9856 1446.54 54.7958 1446.54 Z" fill="#000000" fill-rule="evenodd" fill-opacity="1" /><path clip-path="url(#clip200)" d="M 0 0 M45.8375 1175.03 L64.1939 1175.03 L64.1939 1178.97 L50.1199 1178.97 L50.1199 1187.44 Q51.1384 1187.1 52.1569 1186.93 Q53.1754 1186.75 54.1939 1186.75 Q59.9809 1186.75 63.3605 1189.92 Q66.7402 1193.09 66.7402 1198.51 Q66.7402 1204.09 63.268 1207.19 Q59.7958 1210.27 53.4763 1210.27 Q51.3004 1210.27 49.0319 1209.9 Q46.7866 1209.53 44.3792 1208.78 L44.3792 1204.09 Q46.4625 1205.22 48.6847 1205.78 Q50.9069 1206.33 53.3837 1206.33 Q57.3884 1206.33 59.7263 1204.22 Q62.0643 1202.12 62.0643 1198.51 Q62.0643 1194.9 59.7263 1192.79 Q57.3884 1190.68 53.3837 1190.68 Q51.5088 1190.68 49.6338 1191.1 Q47.7819 1191.52 45.8375 1192.4 L45.8375 1175.03 Z" fill="#000000" fill-rule="evenodd" fill-opacity="1" /><path clip-path="url(#clip200)" d="M 0 0 M15.4441 933.534 L23.083 933.534 L23.083 907.168 L14.7728 908.835 L14.7728 904.576 L23.0367 902.909 L27.7126 902.909 L27.7126 933.534 L35.3514 933.534 L35.3514 937.469 L15.4441 937.469 L15.4441 933.534 Z" fill="#000000" fill-rule="evenodd" fill-opacity="1" /><path clip-path="url(#clip200)" d="M 0 0 M54.7958 905.988 Q51.1847 905.988 49.356 909.552 Q47.5504 913.094 47.5504 920.224 Q47.5504 927.33 49.356 930.895 Q51.1847 934.437 54.7958 934.437 Q58.43 934.437 60.2356 930.895 Q62.0643 927.33 62.0643 920.224 Q62.0643 913.094 60.2356 909.552 Q58.43 905.988 54.7958 905.988 M54.7958 902.284 Q60.6059 902.284 63.6615 906.89 Q66.7402 911.474 66.7402 920.224 Q66.7402 928.951 63.6615 933.557 Q60.6059 938.14 54.7958 938.14 Q48.9856 938.14 45.9069 933.557 Q42.8514 928.951 42.8514 920.224 Q42.8514 911.474 45.9069 906.89 Q48.9856 902.284 54.7958 902.284 Z" fill="#000000" fill-rule="evenodd" fill-opacity="1" /><path clip-path="url(#clip200)" d="M 0 0 M16.4395 661.408 L24.0783 661.408 L24.0783 635.042 L15.7682 636.709 L15.7682 632.45 L24.0321 630.783 L28.708 630.783 L28.708 661.408 L36.3468 661.408 L36.3468 665.343 L16.4395 665.343 L16.4395 661.408 Z" fill="#000000" fill-rule="evenodd" fill-opacity="1" /><path clip-path="url(#clip200)" d="M 0 0 M45.8375 630.783 L64.1939 630.783 L64.1939 634.718 L50.1199 634.718 L50.1199 643.19 Q51.1384 642.843 52.1569 642.681 Q53.1754 642.496 54.1939 642.496 Q59.9809 642.496 63.3605 645.667 Q66.7402 648.838 66.7402 654.255 Q66.7402 659.834 63.268 662.936 Q59.7958 666.014 53.4763 666.014 Q51.3004 666.014 49.0319 665.644 Q46.7866 665.274 44.3792 664.533 L44.3792 659.834 Q46.4625 660.968 48.6847 661.524 Q50.9069 662.079 53.3837 662.079 Q57.3884 662.079 59.7263 659.973 Q62.0643 657.866 62.0643 654.255 Q62.0643 650.644 59.7263 648.538 Q57.3884 646.431 53.3837 646.431 Q51.5088 646.431 49.6338 646.848 Q47.7819 647.264 45.8375 648.144 L45.8375 630.783 Z" fill="#000000" fill-rule="evenodd" fill-opacity="1" /><path clip-path="url(#clip200)" d="M 0 0 M18.6617 389.282 L34.9811 389.282 L34.9811 393.217 L13.0367 393.217 L13.0367 389.282 Q15.6988 386.527 20.2821 381.898 Q24.8885 377.245 26.0691 375.902 Q28.3144 373.379 29.1941 371.643 Q30.0968 369.884 30.0968 368.194 Q30.0968 365.439 28.1524 363.703 Q26.2311 361.967 23.1293 361.967 Q20.9302 361.967 18.4765 362.731 Q16.046 363.495 13.2682 365.046 L13.2682 360.324 Q16.0923 359.189 18.546 358.611 Q20.9997 358.032 23.0367 358.032 Q28.407 358.032 31.6015 360.717 Q34.7959 363.402 34.7959 367.893 Q34.7959 370.023 33.9857 371.944 Q33.1987 373.842 31.0922 376.435 Q30.5135 377.106 27.4117 380.324 Q24.3098 383.518 18.6617 389.282 Z" fill="#000000" fill-rule="evenodd" fill-opacity="1" /><path clip-path="url(#clip200)" d="M 0 0 M54.7958 361.736 Q51.1847 361.736 49.356 365.3 Q47.5504 368.842 47.5504 375.972 Q47.5504 383.078 49.356 386.643 Q51.1847 390.185 54.7958 390.185 Q58.43 390.185 60.2356 386.643 Q62.0643 383.078 62.0643 375.972 Q62.0643 368.842 60.2356 365.3 Q58.43 361.736 54.7958 361.736 M54.7958 358.032 Q60.6059 358.032 63.6615 362.638 Q66.7402 367.222 66.7402 375.972 Q66.7402 384.699 63.6615 389.305 Q60.6059 393.888 54.7958 393.888 Q48.9856 393.888 45.9069 389.305 Q42.8514 384.699 42.8514 375.972 Q42.8514 367.222 45.9069 362.638 Q48.9856 358.032 54.7958 358.032 Z" fill="#000000" fill-rule="evenodd" fill-opacity="1" /><path clip-path="url(#clip200)" d="M 0 0 M19.6571 117.156 L35.9764 117.156 L35.9764 121.091 L14.0321 121.091 L14.0321 117.156 Q16.6941 114.401 21.2774 109.772 Q25.8839 105.119 27.0644 103.776 Q29.3098 101.253 30.1894 99.5171 Q31.0922 97.7578 31.0922 96.068 Q31.0922 93.3134 29.1478 91.5773 Q27.2265 89.8412 24.1246 89.8412 Q21.9256 89.8412 19.4719 90.6051 Q17.0413 91.369 14.2636 92.9199 L14.2636 88.1977 Q17.0876 87.0634 19.5413 86.4847 Q21.995 85.906 24.0321 85.906 Q29.4024 85.906 32.5968 88.5912 Q35.7912 91.2764 35.7912 95.7671 Q35.7912 97.8967 34.9811 99.818 Q34.194 101.716 32.0876 104.309 Q31.5089 104.98 28.407 108.198 Q25.3052 111.392 19.6571 117.156 Z" fill="#000000" fill-rule="evenodd" fill-opacity="1" /><path clip-path="url(#clip200)" d="M 0 0 M45.8375 86.531 L64.1939 86.531 L64.1939 90.4662 L50.1199 90.4662 L50.1199 98.9384 Q51.1384 98.5911 52.1569 98.4291 Q53.1754 98.2439 54.1939 98.2439 Q59.9809 98.2439 63.3605 101.415 Q66.7402 104.586 66.7402 110.003 Q66.7402 115.582 63.268 118.684 Q59.7958 121.762 53.4763 121.762 Q51.3004 121.762 49.0319 121.392 Q46.7866 121.022 44.3792 120.281 L44.3792 115.582 Q46.4625 116.716 48.6847 117.272 Q50.9069 117.827 53.3837 117.827 Q57.3884 117.827 59.7263 115.721 Q62.0643 113.614 62.0643 110.003 Q62.0643 106.392 59.7263 104.286 Q57.3884 102.179 53.3837 102.179 Q51.5088 102.179 49.6338 102.596 Q47.7819 103.012 45.8375 103.892 L45.8375 86.531 Z" fill="#000000" fill-rule="evenodd" fill-opacity="1" /><path clip-path="url(#clip200)" d="M 0 0 M-72.8672 882.651 L-72.8672 854.833 L-67.52 854.833 L-41.8981 876.858 L-41.8981 854.833 L-37.2193 854.833 L-37.2193 883.447 L-42.5665 883.447 L-68.1884 861.422 L-68.1884 882.651 L-72.8672 882.651 Z" fill="#000000" fill-rule="evenodd" fill-opacity="1" /><path clip-path="url(#clip200)" d="M 0 0 M-86.7445 825.71 L-86.7445 812.215 L-82.193 812.215 L-82.193 819.854 L-33.177 819.854 L-33.177 812.215 L-28.6256 812.215 L-28.6256 825.71 L-86.7445 825.71 Z" fill="#000000" fill-rule="evenodd" fill-opacity="1" /><path clip-path="url(#clip200)" d="M 0 0 M-86.7445 799.961 L-86.7445 794.072 L-57.494 794.072 L-72.8672 776.599 L-72.8672 769.119 L-56.1891 788.025 L-37.2193 768.323 L-37.2193 775.962 L-54.6295 794.072 L-37.2193 794.072 L-37.2193 799.961 L-86.7445 799.961 Z" fill="#000000" fill-rule="evenodd" fill-opacity="1" /><path clip-path="url(#clip200)" d="M 0 0 M-66.0241 734.235 Q-69.9708 732.039 -71.8487 728.983 Q-73.7266 725.928 -73.7266 721.79 Q-73.7266 716.22 -69.8117 713.196 Q-65.9286 710.172 -58.7353 710.172 L-37.2193 710.172 L-37.2193 716.061 L-58.5444 716.061 Q-63.6688 716.061 -66.1514 717.875 Q-68.634 719.689 -68.634 723.413 Q-68.634 727.965 -65.6103 730.606 Q-62.5866 733.248 -57.3667 733.248 L-37.2193 733.248 L-37.2193 739.136 L-58.5444 739.136 Q-63.7006 739.136 -66.1514 740.951 Q-68.634 742.765 -68.634 746.552 Q-68.634 751.04 -65.5785 753.682 Q-62.5548 756.324 -57.3667 756.324 L-37.2193 756.324 L-37.2193 762.212 L-72.8672 762.212 L-72.8672 756.324 L-67.3291 756.324 Q-70.6074 754.319 -72.167 751.518 Q-73.7266 748.717 -73.7266 744.865 Q-73.7266 740.982 -71.7532 738.277 Q-69.7798 735.54 -66.0241 734.235 Z" fill="#000000" fill-rule="evenodd" fill-opacity="1" /><path clip-path="url(#clip200)" d="M 0 0 M-86.7445 684.805 L-28.6256 684.805 L-28.6256 698.3 L-33.177 698.3 L-33.177 690.693 L-82.193 690.693 L-82.193 698.3 L-86.7445 698.3 L-86.7445 684.805 Z" fill="#000000" fill-rule="evenodd" fill-opacity="1" /><path clip-path="url(#clip200)" d="M 0 0 M449.387 18.8205 L449.387 65.8515 L459.271 65.8515 Q471.788 65.8515 477.581 60.1802 Q483.414 54.509 483.414 42.2752 Q483.414 30.1225 477.581 24.4918 Q471.788 18.8205 459.271 18.8205 L449.387 18.8205 M441.204 12.096 L458.015 12.096 Q475.596 12.096 483.819 19.4281 Q492.043 26.7198 492.043 42.2752 Q492.043 57.9117 483.779 65.2439 Q475.515 72.576 458.015 72.576 L441.204 72.576 L441.204 12.096 Z" fill="#000000" fill-rule="evenodd" fill-opacity="1" /><path clip-path="url(#clip200)" d="M 0 0 M543.57 48.0275 L543.57 51.6733 L509.3 51.6733 Q509.786 59.3701 513.918 63.421 Q518.09 67.4314 525.503 67.4314 Q529.797 67.4314 533.808 66.3781 Q537.858 65.3249 541.828 63.2184 L541.828 70.267 Q537.818 71.9684 533.605 72.8596 Q529.392 73.7508 525.058 73.7508 Q514.201 73.7508 507.841 67.4314 Q501.522 61.1119 501.522 50.3365 Q501.522 39.1965 507.517 32.6746 Q513.553 26.1121 523.761 26.1121 Q532.916 26.1121 538.223 32.0264 Q543.57 37.9003 543.57 48.0275 M536.117 45.84 Q536.036 39.7232 532.673 36.0774 Q529.352 32.4315 523.842 32.4315 Q517.604 32.4315 513.837 35.9558 Q510.11 39.4801 509.543 45.8805 L536.117 45.84 Z" fill="#000000" fill-rule="evenodd" fill-opacity="1" /><path clip-path="url(#clip200)" d="M 0 0 M588.454 28.9478 L588.454 35.9153 Q585.295 34.1734 582.094 33.3227 Q578.935 32.4315 575.694 32.4315 Q568.443 32.4315 564.432 37.0496 Q560.422 41.6271 560.422 49.9314 Q560.422 58.2358 564.432 62.8538 Q568.443 67.4314 575.694 67.4314 Q578.935 67.4314 582.094 66.5807 Q585.295 65.6895 588.454 63.9476 L588.454 70.8341 Q585.335 72.2924 581.973 73.0216 Q578.651 73.7508 574.884 73.7508 Q564.635 73.7508 558.599 67.3098 Q552.563 60.8689 552.563 49.9314 Q552.563 38.832 558.64 32.472 Q564.756 26.1121 575.37 26.1121 Q578.813 26.1121 582.094 26.8413 Q585.376 27.5299 588.454 28.9478 Z" fill="#000000" fill-rule="evenodd" fill-opacity="1" /><path clip-path="url(#clip200)" d="M 0 0 M622.036 49.7694 Q613.003 49.7694 609.519 51.8354 Q606.035 53.9013 606.035 58.8839 Q606.035 62.8538 608.628 65.2034 Q611.261 67.5124 615.757 67.5124 Q621.955 67.5124 625.682 63.1374 Q629.449 58.7219 629.449 51.4303 L629.449 49.7694 L622.036 49.7694 M636.903 46.6907 L636.903 72.576 L629.449 72.576 L629.449 65.6895 Q626.897 69.8214 623.089 71.8063 Q619.282 73.7508 613.772 73.7508 Q606.805 73.7508 602.673 69.8619 Q598.582 65.9325 598.582 59.3701 Q598.582 51.7138 603.686 47.825 Q608.83 43.9361 618.998 43.9361 L629.449 43.9361 L629.449 43.2069 Q629.449 38.0623 626.047 35.2672 Q622.684 32.4315 616.568 32.4315 Q612.679 32.4315 608.992 33.3632 Q605.306 34.295 601.903 36.1584 L601.903 29.2718 Q605.995 27.692 609.843 26.9223 Q613.691 26.1121 617.337 26.1121 Q627.181 26.1121 632.042 31.2163 Q636.903 36.3204 636.903 46.6907 Z" fill="#000000" fill-rule="evenodd" fill-opacity="1" /><path clip-path="url(#clip200)" d="M 0 0 M671.133 76.7889 Q667.974 84.8907 664.976 87.3618 Q661.978 89.8329 656.955 89.8329 L651 89.8329 L651 83.5945 L655.375 83.5945 Q658.454 83.5945 660.155 82.1361 Q661.857 80.6778 663.923 75.2496 L665.259 71.8468 L646.909 27.2059 L654.808 27.2059 L668.986 62.6918 L683.164 27.2059 L691.064 27.2059 L671.133 76.7889 Z" fill="#000000" fill-rule="evenodd" fill-opacity="1" /><path clip-path="url(#clip200)" d="M 0 0 M701.353 27.2059 L708.807 27.2059 L708.807 72.576 L701.353 72.576 L701.353 27.2059 M701.353 9.54393 L708.807 9.54393 L708.807 18.9825 L701.353 18.9825 L701.353 9.54393 Z" fill="#000000" fill-rule="evenodd" fill-opacity="1" /><path clip-path="url(#clip200)" d="M 0 0 M762.117 45.1919 L762.117 72.576 L754.663 72.576 L754.663 45.4349 Q754.663 38.994 752.151 35.7938 Q749.64 32.5936 744.617 32.5936 Q738.581 32.5936 735.097 36.4419 Q731.613 40.2903 731.613 46.9338 L731.613 72.576 L724.119 72.576 L724.119 27.2059 L731.613 27.2059 L731.613 34.2544 Q734.287 30.163 737.892 28.1376 Q741.538 26.1121 746.277 26.1121 Q754.096 26.1121 758.106 30.9732 Q762.117 35.7938 762.117 45.1919 Z" fill="#000000" fill-rule="evenodd" fill-opacity="1" /><path clip-path="url(#clip200)" d="M 0 0 M806.839 49.3643 Q806.839 41.2625 803.476 36.8065 Q800.155 32.3505 794.119 32.3505 Q788.123 32.3505 784.761 36.8065 Q781.439 41.2625 781.439 49.3643 Q781.439 57.4256 784.761 61.8816 Q788.123 66.3376 794.119 66.3376 Q800.155 66.3376 803.476 61.8816 Q806.839 57.4256 806.839 49.3643 M814.292 66.9452 Q814.292 78.5308 809.148 84.1616 Q804.003 89.8329 793.39 89.8329 Q789.46 89.8329 785.976 89.2252 Q782.493 88.6581 779.211 87.4428 L779.211 80.1917 Q782.493 81.9741 785.693 82.8248 Q788.893 83.6755 792.215 83.6755 Q799.547 83.6755 803.193 79.8271 Q806.839 76.0193 806.839 68.282 L806.839 64.5957 Q804.529 68.6061 800.924 70.5911 Q797.319 72.576 792.296 72.576 Q783.951 72.576 778.847 66.2161 Q773.743 59.8562 773.743 49.3643 Q773.743 38.832 778.847 32.472 Q783.951 26.1121 792.296 26.1121 Q797.319 26.1121 800.924 28.0971 Q804.529 30.082 806.839 34.0924 L806.839 27.2059 L814.292 27.2059 L814.292 66.9452 Z" fill="#000000" fill-rule="evenodd" fill-opacity="1" /><polyline clip-path="url(#clip202)" style="stroke:#009af9; stroke-width:4; stroke-opacity:1; fill:none" points="
  1123.04,1464.44 1063.21,1436.67 1003.82,1408.91 945.268,1381.14 887.962,1353.37 832.257,1325.6 778.473,1297.83 726.878,1270.07 677.69,1242.3 631.075,1214.53 
  587.147,1186.76 545.968,1158.99 507.559,1131.23 471.899,1103.46 438.934,1075.69 408.58,1047.92 380.734,1020.15 355.274,992.386 332.067,964.618 310.973,936.85 
  291.848,909.082 274.549,881.314 258.934,853.546 244.866,825.778 232.213,798.01 220.85,770.242 210.659,742.474 201.531,714.706 193.364,686.938 186.065,659.17 
  179.546,631.402 173.729,603.634 168.542,575.866 163.919,548.098 159.802,520.33 156.137,492.562 152.876,464.794 149.975,437.027 147.396,409.259 145.103,381.491 
  143.066,353.723 141.256,325.955 139.648,298.187 138.221,270.419 136.953,242.651 135.828,214.883 134.829,187.115 133.942,159.347 133.156,131.579 132.458,103.811 
  
  "/>
<path clip-path="url(#clip200)" d="
M948.657 232.028 L1117.76 232.028 L1117.76 111.068 L948.657 111.068  Z
  " fill="#ffffff" fill-rule="evenodd" fill-opacity="1"/>
<polyline clip-path="url(#clip200)" style="stroke:#000000; stroke-width:4; stroke-opacity:1; fill:none" points="
  948.657,232.028 1117.76,232.028 1117.76,111.068 948.657,111.068 948.657,232.028 
  "/>
<polyline clip-path="url(#clip200)" style="stroke:#009af9; stroke-width:4; stroke-opacity:1; fill:none" points="
  960.324,171.548 1030.32,171.548 
  "/>
<path clip-path="url(#clip200)" d="M 0 0 M1055.83 191.235 Q1054.03 195.865 1052.32 197.277 Q1050.6 198.689 1047.73 198.689 L1044.33 198.689 L1044.33 195.124 L1046.83 195.124 Q1048.59 195.124 1049.56 194.291 Q1050.53 193.457 1051.71 190.355 L1052.48 188.411 L1041.99 162.902 L1046.51 162.902 L1054.61 183.18 L1062.71 162.902 L1067.22 162.902 L1055.83 191.235 Z" fill="#000000" fill-rule="evenodd" fill-opacity="1" /><path clip-path="url(#clip200)" d="M 0 0 M1074.51 184.893 L1082.15 184.893 L1082.15 158.527 L1073.84 160.194 L1073.84 155.934 L1082.11 154.268 L1086.78 154.268 L1086.78 184.893 L1094.42 184.893 L1094.42 188.828 L1074.51 188.828 L1074.51 184.893 Z" fill="#000000" fill-rule="evenodd" fill-opacity="1" /><path clip-path="url(#clip200)" d="
M1302.74 1505.26 L2352.76 1505.26 L2352.76 62.9921 L1302.74 62.9921  Z
  " fill="#ffffff" fill-rule="evenodd" fill-opacity="1"/>
<defs>
  <clipPath id="clip203">
    <rect x="1302" y="62" width="1051" height="1443"/>
  </clipPath>
</defs>
<polyline clip-path="url(#clip203)" style="stroke:#000000; stroke-width:2; stroke-opacity:0.1; fill:none" points="
  1305.67,1505.26 1305.67,62.9921 
  "/>
<polyline clip-path="url(#clip203)" style="stroke:#000000; stroke-width:2; stroke-opacity:0.1; fill:none" points="
  1556.68,1505.26 1556.68,62.9921 
  "/>
<polyline clip-path="url(#clip203)" style="stroke:#000000; stroke-width:2; stroke-opacity:0.1; fill:none" points="
  1807.7,1505.26 1807.7,62.9921 
  "/>
<polyline clip-path="url(#clip203)" style="stroke:#000000; stroke-width:2; stroke-opacity:0.1; fill:none" points="
  2058.72,1505.26 2058.72,62.9921 
  "/>
<polyline clip-path="url(#clip203)" style="stroke:#000000; stroke-width:2; stroke-opacity:0.1; fill:none" points="
  2309.73,1505.26 2309.73,62.9921 
  "/>
<polyline clip-path="url(#clip200)" style="stroke:#000000; stroke-width:4; stroke-opacity:1; fill:none" points="
  1302.74,1505.26 2352.76,1505.26 
  "/>
<polyline clip-path="url(#clip200)" style="stroke:#000000; stroke-width:4; stroke-opacity:1; fill:none" points="
  1305.67,1505.26 1305.67,1487.95 
  "/>
<polyline clip-path="url(#clip200)" style="stroke:#000000; stroke-width:4; stroke-opacity:1; fill:none" points="
  1556.68,1505.26 1556.68,1487.95 
  "/>
<polyline clip-path="url(#clip200)" style="stroke:#000000; stroke-width:4; stroke-opacity:1; fill:none" points="
  1807.7,1505.26 1807.7,1487.95 
  "/>
<polyline clip-path="url(#clip200)" style="stroke:#000000; stroke-width:4; stroke-opacity:1; fill:none" points="
  2058.72,1505.26 2058.72,1487.95 
  "/>
<polyline clip-path="url(#clip200)" style="stroke:#000000; stroke-width:4; stroke-opacity:1; fill:none" points="
  2309.73,1505.26 2309.73,1487.95 
  "/>
<path clip-path="url(#clip200)" d="M 0 0 M1305.67 1534.45 Q1302.05 1534.45 1300.23 1538.02 Q1298.42 1541.56 1298.42 1548.69 Q1298.42 1555.79 1300.23 1559.36 Q1302.05 1562.9 1305.67 1562.9 Q1309.3 1562.9 1311.11 1559.36 Q1312.93 1555.79 1312.93 1548.69 Q1312.93 1541.56 1311.11 1538.02 Q1309.3 1534.45 1305.67 1534.45 M1305.67 1530.75 Q1311.48 1530.75 1314.53 1535.35 Q1317.61 1539.94 1317.61 1548.69 Q1317.61 1557.41 1314.53 1562.02 Q1311.48 1566.6 1305.67 1566.6 Q1299.86 1566.6 1296.78 1562.02 Q1293.72 1557.41 1293.72 1548.69 Q1293.72 1539.94 1296.78 1535.35 Q1299.86 1530.75 1305.67 1530.75 Z" fill="#000000" fill-rule="evenodd" fill-opacity="1" /><path clip-path="url(#clip200)" d="M 0 0 M1535.95 1562 L1552.27 1562 L1552.27 1565.93 L1530.33 1565.93 L1530.33 1562 Q1532.99 1559.24 1537.57 1554.61 Q1542.18 1549.96 1543.36 1548.62 Q1545.61 1546.09 1546.49 1544.36 Q1547.39 1542.6 1547.39 1540.91 Q1547.39 1538.15 1545.44 1536.42 Q1543.52 1534.68 1540.42 1534.68 Q1538.22 1534.68 1535.77 1535.45 Q1533.34 1536.21 1530.56 1537.76 L1530.56 1533.04 Q1533.38 1531.9 1535.84 1531.33 Q1538.29 1530.75 1540.33 1530.75 Q1545.7 1530.75 1548.89 1533.43 Q1552.09 1536.12 1552.09 1540.61 Q1552.09 1542.74 1551.28 1544.66 Q1550.49 1546.56 1548.38 1549.15 Q1547.81 1549.82 1544.7 1553.04 Q1541.6 1556.23 1535.95 1562 Z" fill="#000000" fill-rule="evenodd" fill-opacity="1" /><path clip-path="url(#clip200)" d="M 0 0 M1562.13 1531.37 L1580.49 1531.37 L1580.49 1535.31 L1566.42 1535.31 L1566.42 1543.78 Q1567.44 1543.43 1568.45 1543.27 Q1569.47 1543.08 1570.49 1543.08 Q1576.28 1543.08 1579.66 1546.26 Q1583.04 1549.43 1583.04 1554.84 Q1583.04 1560.42 1579.56 1563.52 Q1576.09 1566.6 1569.77 1566.6 Q1567.6 1566.6 1565.33 1566.23 Q1563.08 1565.86 1560.68 1565.12 L1560.68 1560.42 Q1562.76 1561.56 1564.98 1562.11 Q1567.2 1562.67 1569.68 1562.67 Q1573.69 1562.67 1576.02 1560.56 Q1578.36 1558.46 1578.36 1554.84 Q1578.36 1551.23 1576.02 1549.13 Q1573.69 1547.02 1569.68 1547.02 Q1567.81 1547.02 1565.93 1547.44 Q1564.08 1547.85 1562.13 1548.73 L1562.13 1531.37 Z" fill="#000000" fill-rule="evenodd" fill-opacity="1" /><path clip-path="url(#clip200)" d="M 0 0 M1782.4 1531.37 L1800.76 1531.37 L1800.76 1535.31 L1786.68 1535.31 L1786.68 1543.78 Q1787.7 1543.43 1788.72 1543.27 Q1789.74 1543.08 1790.76 1543.08 Q1796.54 1543.08 1799.92 1546.26 Q1803.3 1549.43 1803.3 1554.84 Q1803.3 1560.42 1799.83 1563.52 Q1796.36 1566.6 1790.04 1566.6 Q1787.86 1566.6 1785.59 1566.23 Q1783.35 1565.86 1780.94 1565.12 L1780.94 1560.42 Q1783.02 1561.56 1785.25 1562.11 Q1787.47 1562.67 1789.95 1562.67 Q1793.95 1562.67 1796.29 1560.56 Q1798.63 1558.46 1798.63 1554.84 Q1798.63 1551.23 1796.29 1549.13 Q1793.95 1547.02 1789.95 1547.02 Q1788.07 1547.02 1786.2 1547.44 Q1784.34 1547.85 1782.4 1548.73 L1782.4 1531.37 Z" fill="#000000" fill-rule="evenodd" fill-opacity="1" /><path clip-path="url(#clip200)" d="M 0 0 M1822.51 1534.45 Q1818.9 1534.45 1817.08 1538.02 Q1815.27 1541.56 1815.27 1548.69 Q1815.27 1555.79 1817.08 1559.36 Q1818.9 1562.9 1822.51 1562.9 Q1826.15 1562.9 1827.95 1559.36 Q1829.78 1555.79 1829.78 1548.69 Q1829.78 1541.56 1827.95 1538.02 Q1826.15 1534.45 1822.51 1534.45 M1822.51 1530.75 Q1828.32 1530.75 1831.38 1535.35 Q1834.46 1539.94 1834.46 1548.69 Q1834.46 1557.41 1831.38 1562.02 Q1828.32 1566.6 1822.51 1566.6 Q1816.7 1566.6 1813.63 1562.02 Q1810.57 1557.41 1810.57 1548.69 Q1810.57 1539.94 1813.63 1535.35 Q1816.7 1530.75 1822.51 1530.75 Z" fill="#000000" fill-rule="evenodd" fill-opacity="1" /><path clip-path="url(#clip200)" d="M 0 0 M2032.57 1531.37 L2054.79 1531.37 L2054.79 1533.36 L2042.25 1565.93 L2037.36 1565.93 L2049.17 1535.31 L2032.57 1535.31 L2032.57 1531.37 Z" fill="#000000" fill-rule="evenodd" fill-opacity="1" /><path clip-path="url(#clip200)" d="M 0 0 M2063.96 1531.37 L2082.32 1531.37 L2082.32 1535.31 L2068.24 1535.31 L2068.24 1543.78 Q2069.26 1543.43 2070.28 1543.27 Q2071.3 1543.08 2072.32 1543.08 Q2078.1 1543.08 2081.48 1546.26 Q2084.86 1549.43 2084.86 1554.84 Q2084.86 1560.42 2081.39 1563.52 Q2077.92 1566.6 2071.6 1566.6 Q2069.42 1566.6 2067.15 1566.23 Q2064.91 1565.86 2062.5 1565.12 L2062.5 1560.42 Q2064.59 1561.56 2066.81 1562.11 Q2069.03 1562.67 2071.51 1562.67 Q2075.51 1562.67 2077.85 1560.56 Q2080.19 1558.46 2080.19 1554.84 Q2080.19 1551.23 2077.85 1549.13 Q2075.51 1547.02 2071.51 1547.02 Q2069.63 1547.02 2067.76 1547.44 Q2065.9 1547.85 2063.96 1548.73 L2063.96 1531.37 Z" fill="#000000" fill-rule="evenodd" fill-opacity="1" /><path clip-path="url(#clip200)" d="M 0 0 M2269.34 1562 L2276.98 1562 L2276.98 1535.63 L2268.67 1537.3 L2268.67 1533.04 L2276.93 1531.37 L2281.61 1531.37 L2281.61 1562 L2289.25 1562 L2289.25 1565.93 L2269.34 1565.93 L2269.34 1562 Z" fill="#000000" fill-rule="evenodd" fill-opacity="1" /><path clip-path="url(#clip200)" d="M 0 0 M2308.69 1534.45 Q2305.08 1534.45 2303.25 1538.02 Q2301.45 1541.56 2301.45 1548.69 Q2301.45 1555.79 2303.25 1559.36 Q2305.08 1562.9 2308.69 1562.9 Q2312.33 1562.9 2314.13 1559.36 Q2315.96 1555.79 2315.96 1548.69 Q2315.96 1541.56 2314.13 1538.02 Q2312.33 1534.45 2308.69 1534.45 M2308.69 1530.75 Q2314.5 1530.75 2317.56 1535.35 Q2320.64 1539.94 2320.64 1548.69 Q2320.64 1557.41 2317.56 1562.02 Q2314.5 1566.6 2308.69 1566.6 Q2302.88 1566.6 2299.8 1562.02 Q2296.75 1557.41 2296.75 1548.69 Q2296.75 1539.94 2299.8 1535.35 Q2302.88 1530.75 2308.69 1530.75 Z" fill="#000000" fill-rule="evenodd" fill-opacity="1" /><path clip-path="url(#clip200)" d="M 0 0 M2338.85 1534.45 Q2335.24 1534.45 2333.41 1538.02 Q2331.61 1541.56 2331.61 1548.69 Q2331.61 1555.79 2333.41 1559.36 Q2335.24 1562.9 2338.85 1562.9 Q2342.49 1562.9 2344.29 1559.36 Q2346.12 1555.79 2346.12 1548.69 Q2346.12 1541.56 2344.29 1538.02 Q2342.49 1534.45 2338.85 1534.45 M2338.85 1530.75 Q2344.66 1530.75 2347.72 1535.35 Q2350.8 1539.94 2350.8 1548.69 Q2350.8 1557.41 2347.72 1562.02 Q2344.66 1566.6 2338.85 1566.6 Q2333.04 1566.6 2329.97 1562.02 Q2326.91 1557.41 2326.91 1548.69 Q2326.91 1539.94 2329.97 1535.35 Q2333.04 1530.75 2338.85 1530.75 Z" fill="#000000" fill-rule="evenodd" fill-opacity="1" /><path clip-path="url(#clip200)" d="M 0 0 M1608.18 1607.89 L1608.18 1625.74 L1616.26 1625.74 Q1620.75 1625.74 1623.2 1623.42 Q1625.65 1621.1 1625.65 1616.8 Q1625.65 1612.53 1623.2 1610.21 Q1620.75 1607.89 1616.26 1607.89 L1608.18 1607.89 M1601.75 1602.6 L1616.26 1602.6 Q1624.25 1602.6 1628.33 1606.23 Q1632.43 1609.83 1632.43 1616.8 Q1632.43 1623.83 1628.33 1627.43 Q1624.25 1631.03 1616.26 1631.03 L1608.18 1631.03 L1608.18 1650.12 L1601.75 1650.12 L1601.75 1602.6 Z" fill="#000000" fill-rule="evenodd" fill-opacity="1" /><path clip-path="url(#clip200)" d="M 0 0 M1660.31 1619.95 Q1659.33 1619.38 1658.15 1619.12 Q1657 1618.84 1655.6 1618.84 Q1650.64 1618.84 1647.96 1622.08 Q1645.32 1625.3 1645.32 1631.35 L1645.32 1650.12 L1639.43 1650.12 L1639.43 1614.48 L1645.32 1614.48 L1645.32 1620.01 Q1647.17 1616.77 1650.13 1615.21 Q1653.09 1613.62 1657.32 1613.62 Q1657.93 1613.62 1658.66 1613.71 Q1659.39 1613.78 1660.28 1613.93 L1660.31 1619.95 Z" fill="#000000" fill-rule="evenodd" fill-opacity="1" /><path clip-path="url(#clip200)" d="M 0 0 M1695.52 1630.84 L1695.52 1633.7 L1668.59 1633.7 Q1668.97 1639.75 1672.22 1642.93 Q1675.5 1646.08 1681.32 1646.08 Q1684.69 1646.08 1687.85 1645.25 Q1691.03 1644.43 1694.15 1642.77 L1694.15 1648.31 Q1691 1649.65 1687.69 1650.35 Q1684.38 1651.05 1680.97 1651.05 Q1672.44 1651.05 1667.44 1646.08 Q1662.48 1641.12 1662.48 1632.65 Q1662.48 1623.9 1667.19 1618.77 Q1671.93 1613.62 1679.95 1613.62 Q1687.15 1613.62 1691.32 1618.26 Q1695.52 1622.88 1695.52 1630.84 M1689.66 1629.12 Q1689.6 1624.31 1686.95 1621.45 Q1684.34 1618.58 1680.02 1618.58 Q1675.11 1618.58 1672.15 1621.35 Q1669.23 1624.12 1668.78 1629.15 L1689.66 1629.12 Z" fill="#000000" fill-rule="evenodd" fill-opacity="1" /><path clip-path="url(#clip200)" d="M 0 0 M1727.85 1615.53 L1727.85 1621.06 Q1725.37 1619.79 1722.7 1619.15 Q1720.02 1618.52 1717.16 1618.52 Q1712.8 1618.52 1710.6 1619.85 Q1708.44 1621.19 1708.44 1623.87 Q1708.44 1625.9 1710 1627.08 Q1711.56 1628.23 1716.27 1629.28 L1718.27 1629.72 Q1724.51 1631.06 1727.12 1633.51 Q1729.76 1635.93 1729.76 1640.29 Q1729.76 1645.25 1725.82 1648.15 Q1721.9 1651.05 1715.03 1651.05 Q1712.16 1651.05 1709.04 1650.47 Q1705.96 1649.93 1702.52 1648.82 L1702.52 1642.77 Q1705.77 1644.46 1708.92 1645.32 Q1712.07 1646.15 1715.15 1646.15 Q1719.29 1646.15 1721.52 1644.74 Q1723.75 1643.31 1723.75 1640.73 Q1723.75 1638.35 1722.13 1637.07 Q1720.53 1635.8 1715.09 1634.62 L1713.05 1634.15 Q1707.61 1633 1705.19 1630.64 Q1702.77 1628.26 1702.77 1624.12 Q1702.77 1619.09 1706.34 1616.35 Q1709.9 1613.62 1716.46 1613.62 Q1719.71 1613.62 1722.57 1614.09 Q1725.44 1614.57 1727.85 1615.53 Z" fill="#000000" fill-rule="evenodd" fill-opacity="1" /><path clip-path="url(#clip200)" d="M 0 0 M1761.82 1615.53 L1761.82 1621.06 Q1759.33 1619.79 1756.66 1619.15 Q1753.99 1618.52 1751.12 1618.52 Q1746.76 1618.52 1744.56 1619.85 Q1742.4 1621.19 1742.4 1623.87 Q1742.4 1625.9 1743.96 1627.08 Q1745.52 1628.23 1750.23 1629.28 L1752.23 1629.72 Q1758.47 1631.06 1761.08 1633.51 Q1763.72 1635.93 1763.72 1640.29 Q1763.72 1645.25 1759.78 1648.15 Q1755.86 1651.05 1748.99 1651.05 Q1746.12 1651.05 1743 1650.47 Q1739.92 1649.93 1736.48 1648.82 L1736.48 1642.77 Q1739.73 1644.46 1742.88 1645.32 Q1746.03 1646.15 1749.12 1646.15 Q1753.25 1646.15 1755.48 1644.74 Q1757.71 1643.31 1757.71 1640.73 Q1757.71 1638.35 1756.09 1637.07 Q1754.49 1635.8 1749.05 1634.62 L1747.01 1634.15 Q1741.57 1633 1739.15 1630.64 Q1736.73 1628.26 1736.73 1624.12 Q1736.73 1619.09 1740.3 1616.35 Q1743.86 1613.62 1750.42 1613.62 Q1753.67 1613.62 1756.53 1614.09 Q1759.4 1614.57 1761.82 1615.53 Z" fill="#000000" fill-rule="evenodd" fill-opacity="1" /><path clip-path="url(#clip200)" d="M 0 0 M1772.45 1636.06 L1772.45 1614.48 L1778.3 1614.48 L1778.3 1635.83 Q1778.3 1640.89 1780.28 1643.44 Q1782.25 1645.95 1786.2 1645.95 Q1790.94 1645.95 1793.68 1642.93 Q1796.44 1639.91 1796.44 1634.69 L1796.44 1614.48 L1802.3 1614.48 L1802.3 1650.12 L1796.44 1650.12 L1796.44 1644.65 Q1794.31 1647.9 1791.48 1649.49 Q1788.68 1651.05 1784.95 1651.05 Q1778.81 1651.05 1775.63 1647.23 Q1772.45 1643.41 1772.45 1636.06 M1787.18 1613.62 L1787.18 1613.62 Z" fill="#000000" fill-rule="evenodd" fill-opacity="1" /><path clip-path="url(#clip200)" d="M 0 0 M1835.02 1619.95 Q1834.03 1619.38 1832.86 1619.12 Q1831.71 1618.84 1830.31 1618.84 Q1825.34 1618.84 1822.67 1622.08 Q1820.03 1625.3 1820.03 1631.35 L1820.03 1650.12 L1814.14 1650.12 L1814.14 1614.48 L1820.03 1614.48 L1820.03 1620.01 Q1821.88 1616.77 1824.84 1615.21 Q1827.8 1613.62 1832.03 1613.62 Q1832.63 1613.62 1833.37 1613.71 Q1834.1 1613.78 1834.99 1613.93 L1835.02 1619.95 Z" fill="#000000" fill-rule="evenodd" fill-opacity="1" /><path clip-path="url(#clip200)" d="M 0 0 M1870.22 1630.84 L1870.22 1633.7 L1843.3 1633.7 Q1843.68 1639.75 1846.92 1642.93 Q1850.2 1646.08 1856.03 1646.08 Q1859.4 1646.08 1862.55 1645.25 Q1865.74 1644.43 1868.85 1642.77 L1868.85 1648.31 Q1865.7 1649.65 1862.39 1650.35 Q1859.08 1651.05 1855.68 1651.05 Q1847.15 1651.05 1842.15 1646.08 Q1837.19 1641.12 1837.19 1632.65 Q1837.19 1623.9 1841.9 1618.77 Q1846.64 1613.62 1854.66 1613.62 Q1861.85 1613.62 1866.02 1618.26 Q1870.22 1622.88 1870.22 1630.84 M1864.37 1629.12 Q1864.3 1624.31 1861.66 1621.45 Q1859.05 1618.58 1854.72 1618.58 Q1849.82 1618.58 1846.86 1621.35 Q1843.93 1624.12 1843.49 1629.15 L1864.37 1629.12 Z" fill="#000000" fill-rule="evenodd" fill-opacity="1" /><path clip-path="url(#clip200)" d="M 0 0 M1900.01 1600.6 L1913.51 1600.6 L1913.51 1605.15 L1905.87 1605.15 L1905.87 1654.17 L1913.51 1654.17 L1913.51 1658.72 L1900.01 1658.72 L1900.01 1600.6 Z" fill="#000000" fill-rule="evenodd" fill-opacity="1" /><path clip-path="url(#clip200)" d="M 0 0 M1925.76 1600.6 L1931.65 1600.6 L1931.65 1629.85 L1949.13 1614.48 L1956.61 1614.48 L1937.7 1631.15 L1957.4 1650.12 L1949.76 1650.12 L1931.65 1632.71 L1931.65 1650.12 L1925.76 1650.12 L1925.76 1600.6 Z" fill="#000000" fill-rule="evenodd" fill-opacity="1" /><path clip-path="url(#clip200)" d="M 0 0 M1970.42 1607.89 L1970.42 1625.74 L1978.5 1625.74 Q1982.99 1625.74 1985.44 1623.42 Q1987.89 1621.1 1987.89 1616.8 Q1987.89 1612.53 1985.44 1610.21 Q1982.99 1607.89 1978.5 1607.89 L1970.42 1607.89 M1963.99 1602.6 L1978.5 1602.6 Q1986.49 1602.6 1990.57 1606.23 Q1994.67 1609.83 1994.67 1616.8 Q1994.67 1623.83 1990.57 1627.43 Q1986.49 1631.03 1978.5 1631.03 L1970.42 1631.03 L1970.42 1650.12 L1963.99 1650.12 L1963.99 1602.6 Z" fill="#000000" fill-rule="evenodd" fill-opacity="1" /><path clip-path="url(#clip200)" d="M 0 0 M2016.32 1632.2 Q2009.22 1632.2 2006.48 1633.83 Q2003.74 1635.45 2003.74 1639.37 Q2003.74 1642.48 2005.78 1644.33 Q2007.85 1646.15 2011.38 1646.15 Q2016.25 1646.15 2019.18 1642.71 Q2022.14 1639.24 2022.14 1633.51 L2022.14 1632.2 L2016.32 1632.2 M2028 1629.79 L2028 1650.12 L2022.14 1650.12 L2022.14 1644.71 Q2020.14 1647.96 2017.14 1649.52 Q2014.15 1651.05 2009.82 1651.05 Q2004.35 1651.05 2001.1 1647.99 Q1997.89 1644.9 1997.89 1639.75 Q1997.89 1633.73 2001.9 1630.68 Q2005.94 1627.62 2013.93 1627.62 L2022.14 1627.62 L2022.14 1627.05 Q2022.14 1623.01 2019.47 1620.81 Q2016.83 1618.58 2012.02 1618.58 Q2008.96 1618.58 2006.07 1619.31 Q2003.17 1620.05 2000.5 1621.51 L2000.5 1616.1 Q2003.71 1614.86 2006.74 1614.25 Q2009.76 1613.62 2012.62 1613.62 Q2020.36 1613.62 2024.18 1617.63 Q2028 1621.64 2028 1629.79 Z" fill="#000000" fill-rule="evenodd" fill-opacity="1" /><path clip-path="url(#clip200)" d="M 0 0 M2053.75 1600.6 L2053.75 1658.72 L2040.25 1658.72 L2040.25 1654.17 L2047.86 1654.17 L2047.86 1605.15 L2040.25 1605.15 L2040.25 1600.6 L2053.75 1600.6 Z" fill="#000000" fill-rule="evenodd" fill-opacity="1" /><polyline clip-path="url(#clip203)" style="stroke:#000000; stroke-width:2; stroke-opacity:0.1; fill:none" points="
  1302.74,1464.44 2352.76,1464.44 
  "/>
<polyline clip-path="url(#clip203)" style="stroke:#000000; stroke-width:2; stroke-opacity:0.1; fill:none" points="
  1302.74,1192.31 2352.76,1192.31 
  "/>
<polyline clip-path="url(#clip203)" style="stroke:#000000; stroke-width:2; stroke-opacity:0.1; fill:none" points="
  1302.74,920.189 2352.76,920.189 
  "/>
<polyline clip-path="url(#clip203)" style="stroke:#000000; stroke-width:2; stroke-opacity:0.1; fill:none" points="
  1302.74,648.063 2352.76,648.063 
  "/>
<polyline clip-path="url(#clip203)" style="stroke:#000000; stroke-width:2; stroke-opacity:0.1; fill:none" points="
  1302.74,375.937 2352.76,375.937 
  "/>
<polyline clip-path="url(#clip203)" style="stroke:#000000; stroke-width:2; stroke-opacity:0.1; fill:none" points="
  1302.74,103.811 2352.76,103.811 
  "/>
<polyline clip-path="url(#clip200)" style="stroke:#000000; stroke-width:4; stroke-opacity:1; fill:none" points="
  1302.74,1505.26 1302.74,62.9921 
  "/>
<polyline clip-path="url(#clip200)" style="stroke:#000000; stroke-width:4; stroke-opacity:1; fill:none" points="
  1302.74,1464.44 1315.34,1464.44 
  "/>
<polyline clip-path="url(#clip200)" style="stroke:#000000; stroke-width:4; stroke-opacity:1; fill:none" points="
  1302.74,1192.31 1315.34,1192.31 
  "/>
<polyline clip-path="url(#clip200)" style="stroke:#000000; stroke-width:4; stroke-opacity:1; fill:none" points="
  1302.74,920.189 1315.34,920.189 
  "/>
<polyline clip-path="url(#clip200)" style="stroke:#000000; stroke-width:4; stroke-opacity:1; fill:none" points="
  1302.74,648.063 1315.34,648.063 
  "/>
<polyline clip-path="url(#clip200)" style="stroke:#000000; stroke-width:4; stroke-opacity:1; fill:none" points="
  1302.74,375.937 1315.34,375.937 
  "/>
<polyline clip-path="url(#clip200)" style="stroke:#000000; stroke-width:4; stroke-opacity:1; fill:none" points="
  1302.74,103.811 1315.34,103.811 
  "/>
<path clip-path="url(#clip200)" d="M 0 0 M1254.8 1450.24 Q1251.18 1450.24 1249.36 1453.8 Q1247.55 1457.35 1247.55 1464.48 Q1247.55 1471.58 1249.36 1475.15 Q1251.18 1478.69 1254.8 1478.69 Q1258.43 1478.69 1260.24 1475.15 Q1262.06 1471.58 1262.06 1464.48 Q1262.06 1457.35 1260.24 1453.8 Q1258.43 1450.24 1254.8 1450.24 M1254.8 1446.54 Q1260.61 1446.54 1263.66 1451.14 Q1266.74 1455.73 1266.74 1464.48 Q1266.74 1473.2 1263.66 1477.81 Q1260.61 1482.39 1254.8 1482.39 Q1248.99 1482.39 1245.91 1477.81 Q1242.85 1473.2 1242.85 1464.48 Q1242.85 1455.73 1245.91 1451.14 Q1248.99 1446.54 1254.8 1446.54 Z" fill="#000000" fill-rule="evenodd" fill-opacity="1" /><path clip-path="url(#clip200)" d="M 0 0 M1245.84 1175.03 L1264.19 1175.03 L1264.19 1178.97 L1250.12 1178.97 L1250.12 1187.44 Q1251.14 1187.1 1252.16 1186.93 Q1253.18 1186.75 1254.19 1186.75 Q1259.98 1186.75 1263.36 1189.92 Q1266.74 1193.09 1266.74 1198.51 Q1266.74 1204.09 1263.27 1207.19 Q1259.8 1210.27 1253.48 1210.27 Q1251.3 1210.27 1249.03 1209.9 Q1246.79 1209.53 1244.38 1208.78 L1244.38 1204.09 Q1246.46 1205.22 1248.68 1205.78 Q1250.91 1206.33 1253.38 1206.33 Q1257.39 1206.33 1259.73 1204.22 Q1262.06 1202.12 1262.06 1198.51 Q1262.06 1194.9 1259.73 1192.79 Q1257.39 1190.68 1253.38 1190.68 Q1251.51 1190.68 1249.63 1191.1 Q1247.78 1191.52 1245.84 1192.4 L1245.84 1175.03 Z" fill="#000000" fill-rule="evenodd" fill-opacity="1" /><path clip-path="url(#clip200)" d="M 0 0 M1215.44 933.534 L1223.08 933.534 L1223.08 907.168 L1214.77 908.835 L1214.77 904.576 L1223.04 902.909 L1227.71 902.909 L1227.71 933.534 L1235.35 933.534 L1235.35 937.469 L1215.44 937.469 L1215.44 933.534 Z" fill="#000000" fill-rule="evenodd" fill-opacity="1" /><path clip-path="url(#clip200)" d="M 0 0 M1254.8 905.988 Q1251.18 905.988 1249.36 909.552 Q1247.55 913.094 1247.55 920.224 Q1247.55 927.33 1249.36 930.895 Q1251.18 934.437 1254.8 934.437 Q1258.43 934.437 1260.24 930.895 Q1262.06 927.33 1262.06 920.224 Q1262.06 913.094 1260.24 909.552 Q1258.43 905.988 1254.8 905.988 M1254.8 902.284 Q1260.61 902.284 1263.66 906.89 Q1266.74 911.474 1266.74 920.224 Q1266.74 928.951 1263.66 933.557 Q1260.61 938.14 1254.8 938.14 Q1248.99 938.14 1245.91 933.557 Q1242.85 928.951 1242.85 920.224 Q1242.85 911.474 1245.91 906.89 Q1248.99 902.284 1254.8 902.284 Z" fill="#000000" fill-rule="evenodd" fill-opacity="1" /><path clip-path="url(#clip200)" d="M 0 0 M1216.44 661.408 L1224.08 661.408 L1224.08 635.042 L1215.77 636.709 L1215.77 632.45 L1224.03 630.783 L1228.71 630.783 L1228.71 661.408 L1236.35 661.408 L1236.35 665.343 L1216.44 665.343 L1216.44 661.408 Z" fill="#000000" fill-rule="evenodd" fill-opacity="1" /><path clip-path="url(#clip200)" d="M 0 0 M1245.84 630.783 L1264.19 630.783 L1264.19 634.718 L1250.12 634.718 L1250.12 643.19 Q1251.14 642.843 1252.16 642.681 Q1253.18 642.496 1254.19 642.496 Q1259.98 642.496 1263.36 645.667 Q1266.74 648.838 1266.74 654.255 Q1266.74 659.834 1263.27 662.936 Q1259.8 666.014 1253.48 666.014 Q1251.3 666.014 1249.03 665.644 Q1246.79 665.274 1244.38 664.533 L1244.38 659.834 Q1246.46 660.968 1248.68 661.524 Q1250.91 662.079 1253.38 662.079 Q1257.39 662.079 1259.73 659.973 Q1262.06 657.866 1262.06 654.255 Q1262.06 650.644 1259.73 648.538 Q1257.39 646.431 1253.38 646.431 Q1251.51 646.431 1249.63 646.848 Q1247.78 647.264 1245.84 648.144 L1245.84 630.783 Z" fill="#000000" fill-rule="evenodd" fill-opacity="1" /><path clip-path="url(#clip200)" d="M 0 0 M1218.66 389.282 L1234.98 389.282 L1234.98 393.217 L1213.04 393.217 L1213.04 389.282 Q1215.7 386.527 1220.28 381.898 Q1224.89 377.245 1226.07 375.902 Q1228.31 373.379 1229.19 371.643 Q1230.1 369.884 1230.1 368.194 Q1230.1 365.439 1228.15 363.703 Q1226.23 361.967 1223.13 361.967 Q1220.93 361.967 1218.48 362.731 Q1216.05 363.495 1213.27 365.046 L1213.27 360.324 Q1216.09 359.189 1218.55 358.611 Q1221 358.032 1223.04 358.032 Q1228.41 358.032 1231.6 360.717 Q1234.8 363.402 1234.8 367.893 Q1234.8 370.023 1233.99 371.944 Q1233.2 373.842 1231.09 376.435 Q1230.51 377.106 1227.41 380.324 Q1224.31 383.518 1218.66 389.282 Z" fill="#000000" fill-rule="evenodd" fill-opacity="1" /><path clip-path="url(#clip200)" d="M 0 0 M1254.8 361.736 Q1251.18 361.736 1249.36 365.3 Q1247.55 368.842 1247.55 375.972 Q1247.55 383.078 1249.36 386.643 Q1251.18 390.185 1254.8 390.185 Q1258.43 390.185 1260.24 386.643 Q1262.06 383.078 1262.06 375.972 Q1262.06 368.842 1260.24 365.3 Q1258.43 361.736 1254.8 361.736 M1254.8 358.032 Q1260.61 358.032 1263.66 362.638 Q1266.74 367.222 1266.74 375.972 Q1266.74 384.699 1263.66 389.305 Q1260.61 393.888 1254.8 393.888 Q1248.99 393.888 1245.91 389.305 Q1242.85 384.699 1242.85 375.972 Q1242.85 367.222 1245.91 362.638 Q1248.99 358.032 1254.8 358.032 Z" fill="#000000" fill-rule="evenodd" fill-opacity="1" /><path clip-path="url(#clip200)" d="M 0 0 M1219.66 117.156 L1235.98 117.156 L1235.98 121.091 L1214.03 121.091 L1214.03 117.156 Q1216.69 114.401 1221.28 109.772 Q1225.88 105.119 1227.06 103.776 Q1229.31 101.253 1230.19 99.5171 Q1231.09 97.7578 1231.09 96.068 Q1231.09 93.3134 1229.15 91.5773 Q1227.23 89.8412 1224.12 89.8412 Q1221.93 89.8412 1219.47 90.6051 Q1217.04 91.369 1214.26 92.9199 L1214.26 88.1977 Q1217.09 87.0634 1219.54 86.4847 Q1222 85.906 1224.03 85.906 Q1229.4 85.906 1232.6 88.5912 Q1235.79 91.2764 1235.79 95.7671 Q1235.79 97.8967 1234.98 99.818 Q1234.19 101.716 1232.09 104.309 Q1231.51 104.98 1228.41 108.198 Q1225.31 111.392 1219.66 117.156 Z" fill="#000000" fill-rule="evenodd" fill-opacity="1" /><path clip-path="url(#clip200)" d="M 0 0 M1245.84 86.531 L1264.19 86.531 L1264.19 90.4662 L1250.12 90.4662 L1250.12 98.9384 Q1251.14 98.5911 1252.16 98.4291 Q1253.18 98.2439 1254.19 98.2439 Q1259.98 98.2439 1263.36 101.415 Q1266.74 104.586 1266.74 110.003 Q1266.74 115.582 1263.27 118.684 Q1259.8 121.762 1253.48 121.762 Q1251.3 121.762 1249.03 121.392 Q1246.79 121.022 1244.38 120.281 L1244.38 115.582 Q1246.46 116.716 1248.68 117.272 Q1250.91 117.827 1253.38 117.827 Q1257.39 117.827 1259.73 115.721 Q1262.06 113.614 1262.06 110.003 Q1262.06 106.392 1259.73 104.286 Q1257.39 102.179 1253.38 102.179 Q1251.51 102.179 1249.63 102.596 Q1247.78 103.012 1245.84 103.892 L1245.84 86.531 Z" fill="#000000" fill-rule="evenodd" fill-opacity="1" /><path clip-path="url(#clip200)" d="M 0 0 M1127.13 882.651 L1127.13 854.833 L1132.48 854.833 L1158.1 876.858 L1158.1 854.833 L1162.78 854.833 L1162.78 883.447 L1157.43 883.447 L1131.81 861.422 L1131.81 882.651 L1127.13 882.651 Z" fill="#000000" fill-rule="evenodd" fill-opacity="1" /><path clip-path="url(#clip200)" d="M 0 0 M1113.26 825.71 L1113.26 812.215 L1117.81 812.215 L1117.81 819.854 L1166.82 819.854 L1166.82 812.215 L1171.37 812.215 L1171.37 825.71 L1113.26 825.71 Z" fill="#000000" fill-rule="evenodd" fill-opacity="1" /><path clip-path="url(#clip200)" d="M 0 0 M1113.26 799.961 L1113.26 794.072 L1142.51 794.072 L1127.13 776.599 L1127.13 769.119 L1143.81 788.025 L1162.78 768.323 L1162.78 775.962 L1145.37 794.072 L1162.78 794.072 L1162.78 799.961 L1113.26 799.961 Z" fill="#000000" fill-rule="evenodd" fill-opacity="1" /><path clip-path="url(#clip200)" d="M 0 0 M1133.98 734.235 Q1130.03 732.039 1128.15 728.983 Q1126.27 725.928 1126.27 721.79 Q1126.27 716.22 1130.19 713.196 Q1134.07 710.172 1141.26 710.172 L1162.78 710.172 L1162.78 716.061 L1141.46 716.061 Q1136.33 716.061 1133.85 717.875 Q1131.37 719.689 1131.37 723.413 Q1131.37 727.965 1134.39 730.606 Q1137.41 733.248 1142.63 733.248 L1162.78 733.248 L1162.78 739.136 L1141.46 739.136 Q1136.3 739.136 1133.85 740.951 Q1131.37 742.765 1131.37 746.552 Q1131.37 751.04 1134.42 753.682 Q1137.45 756.324 1142.63 756.324 L1162.78 756.324 L1162.78 762.212 L1127.13 762.212 L1127.13 756.324 L1132.67 756.324 Q1129.39 754.319 1127.83 751.518 Q1126.27 748.717 1126.27 744.865 Q1126.27 740.982 1128.25 738.277 Q1130.22 735.54 1133.98 734.235 Z" fill="#000000" fill-rule="evenodd" fill-opacity="1" /><path clip-path="url(#clip200)" d="M 0 0 M1113.26 684.805 L1171.37 684.805 L1171.37 698.3 L1166.82 698.3 L1166.82 690.693 L1117.81 690.693 L1117.81 698.3 L1113.26 698.3 L1113.26 684.805 Z" fill="#000000" fill-rule="evenodd" fill-opacity="1" /><path clip-path="url(#clip200)" d="M 0 0 M1649.39 18.8205 L1649.39 65.8515 L1659.27 65.8515 Q1671.79 65.8515 1677.58 60.1802 Q1683.41 54.509 1683.41 42.2752 Q1683.41 30.1225 1677.58 24.4918 Q1671.79 18.8205 1659.27 18.8205 L1649.39 18.8205 M1641.2 12.096 L1658.02 12.096 Q1675.6 12.096 1683.82 19.4281 Q1692.04 26.7198 1692.04 42.2752 Q1692.04 57.9117 1683.78 65.2439 Q1675.52 72.576 1658.02 72.576 L1641.2 72.576 L1641.2 12.096 Z" fill="#000000" fill-rule="evenodd" fill-opacity="1" /><path clip-path="url(#clip200)" d="M 0 0 M1743.57 48.0275 L1743.57 51.6733 L1709.3 51.6733 Q1709.79 59.3701 1713.92 63.421 Q1718.09 67.4314 1725.5 67.4314 Q1729.8 67.4314 1733.81 66.3781 Q1737.86 65.3249 1741.83 63.2184 L1741.83 70.267 Q1737.82 71.9684 1733.61 72.8596 Q1729.39 73.7508 1725.06 73.7508 Q1714.2 73.7508 1707.84 67.4314 Q1701.52 61.1119 1701.52 50.3365 Q1701.52 39.1965 1707.52 32.6746 Q1713.55 26.1121 1723.76 26.1121 Q1732.92 26.1121 1738.22 32.0264 Q1743.57 37.9003 1743.57 48.0275 M1736.12 45.84 Q1736.04 39.7232 1732.67 36.0774 Q1729.35 32.4315 1723.84 32.4315 Q1717.6 32.4315 1713.84 35.9558 Q1710.11 39.4801 1709.54 45.8805 L1736.12 45.84 Z" fill="#000000" fill-rule="evenodd" fill-opacity="1" /><path clip-path="url(#clip200)" d="M 0 0 M1788.45 28.9478 L1788.45 35.9153 Q1785.29 34.1734 1782.09 33.3227 Q1778.93 32.4315 1775.69 32.4315 Q1768.44 32.4315 1764.43 37.0496 Q1760.42 41.6271 1760.42 49.9314 Q1760.42 58.2358 1764.43 62.8538 Q1768.44 67.4314 1775.69 67.4314 Q1778.93 67.4314 1782.09 66.5807 Q1785.29 65.6895 1788.45 63.9476 L1788.45 70.8341 Q1785.34 72.2924 1781.97 73.0216 Q1778.65 73.7508 1774.88 73.7508 Q1764.63 73.7508 1758.6 67.3098 Q1752.56 60.8689 1752.56 49.9314 Q1752.56 38.832 1758.64 32.472 Q1764.76 26.1121 1775.37 26.1121 Q1778.81 26.1121 1782.09 26.8413 Q1785.38 27.5299 1788.45 28.9478 Z" fill="#000000" fill-rule="evenodd" fill-opacity="1" /><path clip-path="url(#clip200)" d="M 0 0 M1822.04 49.7694 Q1813 49.7694 1809.52 51.8354 Q1806.04 53.9013 1806.04 58.8839 Q1806.04 62.8538 1808.63 65.2034 Q1811.26 67.5124 1815.76 67.5124 Q1821.96 67.5124 1825.68 63.1374 Q1829.45 58.7219 1829.45 51.4303 L1829.45 49.7694 L1822.04 49.7694 M1836.9 46.6907 L1836.9 72.576 L1829.45 72.576 L1829.45 65.6895 Q1826.9 69.8214 1823.09 71.8063 Q1819.28 73.7508 1813.77 73.7508 Q1806.8 73.7508 1802.67 69.8619 Q1798.58 65.9325 1798.58 59.3701 Q1798.58 51.7138 1803.69 47.825 Q1808.83 43.9361 1819 43.9361 L1829.45 43.9361 L1829.45 43.2069 Q1829.45 38.0623 1826.05 35.2672 Q1822.68 32.4315 1816.57 32.4315 Q1812.68 32.4315 1808.99 33.3632 Q1805.31 34.295 1801.9 36.1584 L1801.9 29.2718 Q1805.99 27.692 1809.84 26.9223 Q1813.69 26.1121 1817.34 26.1121 Q1827.18 26.1121 1832.04 31.2163 Q1836.9 36.3204 1836.9 46.6907 Z" fill="#000000" fill-rule="evenodd" fill-opacity="1" /><path clip-path="url(#clip200)" d="M 0 0 M1871.13 76.7889 Q1867.97 84.8907 1864.98 87.3618 Q1861.98 89.8329 1856.96 89.8329 L1851 89.8329 L1851 83.5945 L1855.38 83.5945 Q1858.45 83.5945 1860.16 82.1361 Q1861.86 80.6778 1863.92 75.2496 L1865.26 71.8468 L1846.91 27.2059 L1854.81 27.2059 L1868.99 62.6918 L1883.16 27.2059 L1891.06 27.2059 L1871.13 76.7889 Z" fill="#000000" fill-rule="evenodd" fill-opacity="1" /><path clip-path="url(#clip200)" d="M 0 0 M1901.35 27.2059 L1908.81 27.2059 L1908.81 72.576 L1901.35 72.576 L1901.35 27.2059 M1901.35 9.54393 L1908.81 9.54393 L1908.81 18.9825 L1901.35 18.9825 L1901.35 9.54393 Z" fill="#000000" fill-rule="evenodd" fill-opacity="1" /><path clip-path="url(#clip200)" d="M 0 0 M1962.12 45.1919 L1962.12 72.576 L1954.66 72.576 L1954.66 45.4349 Q1954.66 38.994 1952.15 35.7938 Q1949.64 32.5936 1944.62 32.5936 Q1938.58 32.5936 1935.1 36.4419 Q1931.61 40.2903 1931.61 46.9338 L1931.61 72.576 L1924.12 72.576 L1924.12 27.2059 L1931.61 27.2059 L1931.61 34.2544 Q1934.29 30.163 1937.89 28.1376 Q1941.54 26.1121 1946.28 26.1121 Q1954.1 26.1121 1958.11 30.9732 Q1962.12 35.7938 1962.12 45.1919 Z" fill="#000000" fill-rule="evenodd" fill-opacity="1" /><path clip-path="url(#clip200)" d="M 0 0 M2006.84 49.3643 Q2006.84 41.2625 2003.48 36.8065 Q2000.15 32.3505 1994.12 32.3505 Q1988.12 32.3505 1984.76 36.8065 Q1981.44 41.2625 1981.44 49.3643 Q1981.44 57.4256 1984.76 61.8816 Q1988.12 66.3376 1994.12 66.3376 Q2000.15 66.3376 2003.48 61.8816 Q2006.84 57.4256 2006.84 49.3643 M2014.29 66.9452 Q2014.29 78.5308 2009.15 84.1616 Q2004 89.8329 1993.39 89.8329 Q1989.46 89.8329 1985.98 89.2252 Q1982.49 88.6581 1979.21 87.4428 L1979.21 80.1917 Q1982.49 81.9741 1985.69 82.8248 Q1988.89 83.6755 1992.21 83.6755 Q1999.55 83.6755 2003.19 79.8271 Q2006.84 76.0193 2006.84 68.282 L2006.84 64.5957 Q2004.53 68.6061 2000.92 70.5911 Q1997.32 72.576 1992.3 72.576 Q1983.95 72.576 1978.85 66.2161 Q1973.74 59.8562 1973.74 49.3643 Q1973.74 38.832 1978.85 32.472 Q1983.95 26.1121 1992.3 26.1121 Q1997.32 26.1121 2000.92 28.0971 Q2004.53 30.082 2006.84 34.0924 L2006.84 27.2059 L2014.29 27.2059 L2014.29 66.9452 Z" fill="#000000" fill-rule="evenodd" fill-opacity="1" /><polyline clip-path="url(#clip203)" style="stroke:#009af9; stroke-width:4; stroke-opacity:1; fill:none" points="
  2323.04,1464.44 2263.24,1436.67 2206.15,1408.91 2151.69,1381.14 2099.79,1353.37 2050.39,1325.6 2003.41,1297.83 1958.8,1270.07 1916.5,1242.3 1876.43,1214.53 
  1838.54,1186.76 1802.75,1158.99 1769.01,1131.23 1737.23,1103.46 1707.36,1075.69 1679.3,1047.92 1652.98,1020.15 1628.34,992.386 1605.28,964.618 1583.73,936.85 
  1563.62,909.082 1544.86,881.314 1527.38,853.546 1511.1,825.778 1495.97,798.01 1481.89,770.242 1468.82,742.474 1456.68,714.706 1445.41,686.938 1434.97,659.17 
  1425.28,631.402 1416.3,603.634 1407.98,575.866 1400.28,548.098 1393.14,520.33 1386.54,492.562 1380.43,464.794 1374.77,437.027 1369.54,409.259 1364.7,381.491 
  1360.22,353.723 1356.09,325.955 1352.26,298.187 1348.72,270.419 1345.45,242.651 1342.43,214.883 1339.63,187.115 1337.05,159.347 1334.66,131.579 1332.46,103.811 
  
  "/>
<path clip-path="url(#clip200)" d="
M2148.66 232.028 L2317.76 232.028 L2317.76 111.068 L2148.66 111.068  Z
  " fill="#ffffff" fill-rule="evenodd" fill-opacity="1"/>
<polyline clip-path="url(#clip200)" style="stroke:#000000; stroke-width:4; stroke-opacity:1; fill:none" points="
  2148.66,232.028 2317.76,232.028 2317.76,111.068 2148.66,111.068 2148.66,232.028 
  "/>
<polyline clip-path="url(#clip200)" style="stroke:#009af9; stroke-width:4; stroke-opacity:1; fill:none" points="
  2160.32,171.548 2230.32,171.548 
  "/>
<path clip-path="url(#clip200)" d="M 0 0 M2255.83 191.235 Q2254.03 195.865 2252.32 197.277 Q2250.6 198.689 2247.73 198.689 L2244.33 198.689 L2244.33 195.124 L2246.83 195.124 Q2248.59 195.124 2249.56 194.291 Q2250.53 193.457 2251.71 190.355 L2252.48 188.411 L2241.99 162.902 L2246.51 162.902 L2254.61 183.18 L2262.71 162.902 L2267.22 162.902 L2255.83 191.235 Z" fill="#000000" fill-rule="evenodd" fill-opacity="1" /><path clip-path="url(#clip200)" d="M 0 0 M2274.51 184.893 L2282.15 184.893 L2282.15 158.527 L2273.84 160.194 L2273.84 155.934 L2282.11 154.268 L2286.78 154.268 L2286.78 184.893 L2294.42 184.893 L2294.42 188.828 L2274.51 188.828 L2274.51 184.893 Z" fill="#000000" fill-rule="evenodd" fill-opacity="1" /></svg>
